<svg xmlns="http://www.w3.org/2000/svg">
<defs>
<font id="NovecentowideDemiBold" horiz-adv-x="803" >
  <font-face 
    font-family="NovecentowideDemiBold"
    font-weight="600"
    font-stretch="expanded"
    units-per-em="1000"
    panose-1="0 0 7 5 0 0 0 0 0 0"
    ascent="800"
    descent="-200"
    x-height="700"
    cap-height="700"
    bbox="-46 -279 1322 954"
    underline-thickness="50"
    underline-position="-150"
    unicode-range="U+0020-2265"
  />
<missing-glyph horiz-adv-x="784" 
d="M657 82h44v45q0 91 -4.5 142t-8 61t-9.5 19l-25 29l-11 13l11 12l22 26q8 8 12 19t8.5 62t4.5 146v44h-44q-94 0 -145.5 -4.5t-62 -8.5t-19.5 -12l-20 -17l-17 -16l-18 16l-20 19q-8 7 -19 10.5t-63 8t-147 4.5h-43v-44q0 -93 4 -145t8 -62.5t11 -19.5l24 -27l10 -11
l-10 -12l-24 -27q-7 -8 -11 -18.5t-8 -62.5t-4 -146v-43h43q93 0 145 4t63 8t19 12l27 23l11 10l13 -10l27 -23q8 -8 18.5 -11.5t62 -8t145.5 -4.5zM391 256l-89 -79q-25 -5 -132 -7q4 111 7 132l79 89l-79 89q-3 20 -7 133q98 -2 133 -7l88 -81l91 81q35 5 132 7
q-4 -112 -7 -133l-81 -89l81 -91q4 -36 7 -130q-106 2 -133 7zM117 39l3 12q-4 3 -15 3q-21 0 -21 -17q0 -11 15 -16q9 -3 9 -6q0 -5 -7 -5q-2 0 -14 4l-4 -12q6 -3 16 -3q24 0 24 17q0 11 -14 16q-11 4 -11 7q0 4 7 4q4 0 12 -4zM562 40l4 12q-4 2 -14 2q-13 0 -21 -7.5
t-8 -21.5q0 -26 28 -26q8 0 14 2l-3 12q-3 -3 -9 -3q-15 0 -15 16q0 17 15 17q6 0 9 -3zM621 26q0 12 -7.5 20t-19.5 8t-19.5 -8t-7.5 -20q0 -27 27 -27t27 27zM141 20v-20h14v20l17 33h-16l-8 -23l-7 23h-17zM177 53v-53h13v35l19 -35h15v53h-13v-32l-16 32h-18zM229 42h14
v-42h13v42h14v11h-41v-11zM290 33v20h-15v-53h15v21h18v-21h14v53h-14v-20h-18zM327 53l17 -53h16l17 53h-15l-10 -39l-9 39h-16zM397 0v53h-15v-53h15zM420 21h19v11h-19v10h21v11h-36v-53h36v11h-21v10zM445 53l13 -53h15l7 35l6 -35h16l13 53h-14l-7 -36l-6 36h-15
l-6 -36l-7 36h-15zM672 40v-40h14l-2 53h-19l-9 -34l-8 34h-19l-4 -53h15v40l11 -39h10zM582 26q0 17 12 17q11 0 11 -17q0 -16 -11 -16q-12 0 -12 16zM516 -1q-6 0 -6 6t6 6t6 -6t-6 -6z" />
    <glyph glyph-name=".notdef" horiz-adv-x="784" 
d="M657 82h44v45q0 91 -4.5 142t-8 61t-9.5 19l-25 29l-11 13l11 12l22 26q8 8 12 19t8.5 62t4.5 146v44h-44q-94 0 -145.5 -4.5t-62 -8.5t-19.5 -12l-20 -17l-17 -16l-18 16l-20 19q-8 7 -19 10.5t-63 8t-147 4.5h-43v-44q0 -93 4 -145t8 -62.5t11 -19.5l24 -27l10 -11
l-10 -12l-24 -27q-7 -8 -11 -18.5t-8 -62.5t-4 -146v-43h43q93 0 145 4t63 8t19 12l27 23l11 10l13 -10l27 -23q8 -8 18.5 -11.5t62 -8t145.5 -4.5zM391 256l-89 -79q-25 -5 -132 -7q4 111 7 132l79 89l-79 89q-3 20 -7 133q98 -2 133 -7l88 -81l91 81q35 5 132 7
q-4 -112 -7 -133l-81 -89l81 -91q4 -36 7 -130q-106 2 -133 7zM117 39l3 12q-4 3 -15 3q-21 0 -21 -17q0 -11 15 -16q9 -3 9 -6q0 -5 -7 -5q-2 0 -14 4l-4 -12q6 -3 16 -3q24 0 24 17q0 11 -14 16q-11 4 -11 7q0 4 7 4q4 0 12 -4zM562 40l4 12q-4 2 -14 2q-13 0 -21 -7.5
t-8 -21.5q0 -26 28 -26q8 0 14 2l-3 12q-3 -3 -9 -3q-15 0 -15 16q0 17 15 17q6 0 9 -3zM621 26q0 12 -7.5 20t-19.5 8t-19.5 -8t-7.5 -20q0 -27 27 -27t27 27zM141 20v-20h14v20l17 33h-16l-8 -23l-7 23h-17zM177 53v-53h13v35l19 -35h15v53h-13v-32l-16 32h-18zM229 42h14
v-42h13v42h14v11h-41v-11zM290 33v20h-15v-53h15v21h18v-21h14v53h-14v-20h-18zM327 53l17 -53h16l17 53h-15l-10 -39l-9 39h-16zM397 0v53h-15v-53h15zM420 21h19v11h-19v10h21v11h-36v-53h36v11h-21v10zM445 53l13 -53h15l7 35l6 -35h16l13 53h-14l-7 -36l-6 36h-15
l-6 -36l-7 36h-15zM672 40v-40h14l-2 53h-19l-9 -34l-8 34h-19l-4 -53h15v40l11 -39h10zM582 26q0 17 12 17q11 0 11 -17q0 -16 -11 -16q-12 0 -12 16zM516 -1q-6 0 -6 6t6 6t6 -6t-6 -6z" />
    <glyph glyph-name=".null" horiz-adv-x="0" 
 />
    <glyph glyph-name="nonmarkingreturn" horiz-adv-x="333" 
 />
    <glyph glyph-name="space" unicode=" " horiz-adv-x="400" 
 />
    <glyph glyph-name="exclam" unicode="!" horiz-adv-x="297" 
d="M83 219v481h131v-481h-131zM83 0v157h131v-157h-131z" />
    <glyph glyph-name="quotedbl" unicode="&#x22;" horiz-adv-x="547" 
d="M80 495v217h131v-217h-131zM330 495v217h131v-217h-131z" />
    <glyph glyph-name="numbersign" unicode="#" horiz-adv-x="897" 
d="M797 404h-134l-54 -106h135l-63 -121h-133l-90 -177h-132l91 177h-123l-90 -177h-132l91 177h-125l63 121h123l55 106h-126l63 121h125l89 175h129l-89 -175h125l89 175h129l-89 -175h135zM478 298l55 106h-124l-54 -106h123z" />
    <glyph glyph-name="dollar" unicode="$" horiz-adv-x="627" 
d="M571 524l-134 -37q-12 51 -49.5 78.5t-86.5 27.5t-78.5 -20t-29.5 -55q0 -39 68 -68q18 -8 99 -35q41 -14 63 -23t56.5 -28.5t53 -39.5t32.5 -52.5t14 -71.5q0 -79 -54 -135t-145 -73v-82h-138v83q-81 16 -137 69t-80 134l136 37q11 -51 54.5 -86t105.5 -35q51 0 82 23
t31 58q0 14 -5 26t-17 22t-24 17.5t-33 16.5t-36 14t-41.5 14.5t-41.5 14.5q-40 14 -66 26.5t-57 35t-47 56t-16 76.5q0 70 53.5 125t138.5 71v82h138v-85q72 -18 122.5 -66.5t68.5 -114.5z" />
    <glyph glyph-name="percent" unicode="%" horiz-adv-x="936" 
d="M222 312q-82 0 -133 55.5t-51 145.5q0 89 51 145t133 56t133 -56t51 -145q0 -90 -51 -145.5t-133 -55.5zM205 0l429 700h91l-428 -700h-92zM222 408q38 0 61 29t23 76q0 48 -23 76.5t-61 28.5t-61.5 -28.5t-23.5 -76.5q0 -47 23.5 -76t61.5 -29zM714 -14q-82 0 -133 55.5
t-51 145.5q0 89 51 145t133 56t133 -56t51 -145q0 -90 -51 -145.5t-133 -55.5zM714 82q38 0 61 29t23 76q0 48 -23 76.5t-61 28.5t-61.5 -28.5t-23.5 -76.5q0 -47 23.5 -76t61.5 -29z" />
    <glyph glyph-name="ampersand" unicode="&#x26;" horiz-adv-x="707" 
d="M703 415v-110h-123v-67q0 -111 -69 -181.5t-209 -70.5q-118 0 -191 60.5t-73 158.5q0 61 41 105t100 52q-49 6 -89.5 45t-40.5 104q0 86 65.5 144.5t181.5 58.5q102 0 172 -52.5t92 -145.5l-118 -33q-18 58 -51.5 85.5t-90.5 27.5q-55 0 -80.5 -28.5t-25.5 -61.5
q0 -40 30 -65.5t87 -25.5h392zM448 245v60h-146q-61 0 -94.5 -26t-33.5 -71q0 -44 36 -73t92 -29q75 0 110.5 33.5t35.5 105.5z" />
    <glyph glyph-name="quotesingle" unicode="'" horiz-adv-x="297" 
d="M83 495v217h131v-217h-131z" />
    <glyph glyph-name="parenleft" unicode="(" horiz-adv-x="383" 
d="M325 831l35 -132q-97 -31 -139.5 -117.5t-42.5 -237.5t42.5 -237.5t139.5 -117.5l-35 -131q-287 96 -287 486q0 389 287 487z" />
    <glyph glyph-name="parenright" unicode=")" horiz-adv-x="383" 
d="M58 831l-35 -132q97 -31 139.5 -117.5t42.5 -237.5t-42.5 -237.5t-139.5 -117.5l35 -131q287 96 287 486q0 389 -287 487z" />
    <glyph glyph-name="asterisk" unicode="*" horiz-adv-x="512" 
d="M402 624l28 -84l-105 -30l67 -89l-72 -53l-64 93l-62 -93l-73 53l67 89l-105 30l27 84l101 -34v110h88v-110z" />
    <glyph glyph-name="plus" unicode="+" horiz-adv-x="660" 
d="M577 412v-114h-182v-186h-123v186h-189v114h189v189h122v-189h183z" />
    <glyph glyph-name="comma" unicode="," horiz-adv-x="275" 
d="M126 -11l14 4l-14 2q-20 3 -36.5 20t-16.5 43q0 28 20.5 48t49.5 20t48.5 -21.5t19.5 -56.5q0 -45 -29.5 -94.5t-72.5 -85.5h-52q25 18 47 56.5t22 64.5z" />
    <glyph glyph-name="hyphen" unicode="-" horiz-adv-x="399" 
d="M40 420h319v-130h-319v130z" />
    <glyph glyph-name="period" unicode="." horiz-adv-x="258" 
d="M129 -13q-29 0 -49 20.5t-20 49.5q0 28 20.5 48t48.5 20t48.5 -20t20.5 -48q0 -29 -20 -49.5t-49 -20.5z" />
    <glyph glyph-name="slash" unicode="/" horiz-adv-x="495" 
d="M4 0l358 700h129l-355 -700h-132z" />
    <glyph glyph-name="zero" unicode="0" horiz-adv-x="753" 
d="M376 714q150 0 244.5 -102.5t94.5 -261.5t-94.5 -261.5t-244.5 -102.5t-244 102.5t-94 261.5t94 261.5t244 102.5zM376 577q-91 0 -142 -61t-51 -166t51 -166t142 -61q90 0 142 61.5t52 165.5t-52 165.5t-142 61.5z" />
    <glyph glyph-name="one" unicode="1" horiz-adv-x="455" 
d="M275 700h97v-700h-139v466l2 30l-15 -19l-92 -91l-90 82z" />
    <glyph glyph-name="two" unicode="2" horiz-adv-x="633" 
d="M402 240l-151 -110h322v-130h-509v130h1l298 243q65 53 65 116q0 43 -31 72.5t-81 29.5q-52 0 -84.5 -32t-46.5 -77l-128 34q25 90 94 144t169 54q111 0 182 -64t71 -161q0 -44 -13.5 -81t-42.5 -69t-51.5 -50.5t-63.5 -48.5z" />
    <glyph glyph-name="three" unicode="3" horiz-adv-x="608" 
d="M174 486l-124 34q22 90 91.5 142t169.5 52q117 0 182.5 -57.5t65.5 -143.5q0 -63 -45 -107t-95 -44q62 0 106.5 -43.5t44.5 -112.5q0 -97 -72.5 -158.5t-185.5 -61.5q-100 0 -177 55t-97 141l126 35q12 -49 48.5 -77.5t95.5 -28.5q55 0 86 27.5t31 70.5q0 46 -36 71
t-94 25h-53v110h53q60 0 89.5 26.5t29.5 66.5q0 32 -29 57.5t-81 25.5q-97 0 -130 -105z" />
    <glyph glyph-name="four" unicode="4" horiz-adv-x="673" 
d="M613 264v-122h-77v-142h-132v142h-366v122l377 436h121v-436h77zM192 264h212v230l2 19l-13 -19z" />
    <glyph glyph-name="five" unicode="5" horiz-adv-x="638" 
d="M251 570l-23 -136q29 24 93 24q110 0 183.5 -65t73.5 -166q0 -103 -73.5 -172t-183.5 -69q-103 0 -174 53.5t-90 131.5l128 35q11 -43 43 -71.5t87 -28.5q53 0 87.5 35t34.5 88t-35 87.5t-87 34.5q-86 0 -112 -62l-120 33l62 378h390v-130h-284z" />
    <glyph glyph-name="six" unicode="6" horiz-adv-x="616" 
d="M453 700l-193 -261q24 31 57 31q119 4 190 -68t71 -176q0 -108 -75.5 -174t-192.5 -66q-115 0 -193.5 67.5t-78.5 177.5q0 73 28 134t88 140l148 195h151zM308 107q56 0 90.5 34t34.5 89q1 55 -34 88.5t-91 33.5t-90.5 -33.5t-34.5 -88.5t34.5 -89t90.5 -34z" />
    <glyph glyph-name="seven" unicode="7" horiz-adv-x="569" 
d="M41 700h524v-81l-347 -619h-149l301 538l22 34l-31 -2h-320v130z" />
    <glyph glyph-name="eight" unicode="8" horiz-adv-x="607" 
d="M38 197q0 69 41.5 116t98.5 60q-36 9 -72 50.5t-36 103.5q0 80 66 133.5t168 53.5q101 0 167.5 -54t66.5 -133q0 -62 -36.5 -103.5t-72.5 -50.5q58 -13 99 -60t41 -116q0 -91 -74.5 -151t-190.5 -61q-116 1 -191 61.5t-75 150.5zM196 517q0 -39 29 -63.5t79 -24.5
t78.5 24.5t28.5 63.5q0 41 -29.5 66.5t-77.5 25.5t-78 -25.5t-30 -66.5zM179 208q0 -48 34.5 -77t90.5 -29q55 0 89.5 29t34.5 77q0 46 -34 74t-90 28t-90.5 -28t-34.5 -74z" />
    <glyph glyph-name="nine" unicode="9" horiz-adv-x="618" 
d="M136 0l223 261q-11 -12 -29.5 -21.5t-32.5 -9.5q-123 -4 -191 67t-68 177q0 109 75.5 174.5t193.5 65.5q116 0 194.5 -66.5t78.5 -179.5q0 -134 -123 -278l-163 -190h-158zM310 593q-55 0 -90.5 -32.5t-35.5 -90.5q0 -57 35.5 -89.5t90.5 -32.5t90 33t35 89
q0 58 -35 90.5t-90 32.5z" />
    <glyph glyph-name="colon" unicode=":" horiz-adv-x="258" 
d="M129 284q-29 0 -49 20.5t-20 49.5q0 28 20.5 48t48.5 20t48.5 -20t20.5 -48q0 -29 -20 -49.5t-49 -20.5zM129 -13q-29 0 -49 20.5t-20 49.5q0 28 20.5 48t48.5 20t48.5 -20t20.5 -48q0 -29 -20 -49.5t-49 -20.5z" />
    <glyph glyph-name="semicolon" unicode=";" horiz-adv-x="275" 
d="M142 284q-29 0 -49 20.5t-20 49.5q0 28 20.5 48t48.5 20t48.5 -20t20.5 -48q0 -29 -20 -49.5t-49 -20.5zM126 -12l14 4l-14 2q-20 3 -36.5 20t-16.5 43q0 28 20.5 48t49.5 20t48.5 -21.5t19.5 -56.5q0 -45 -29.5 -94.5t-72.5 -85.5h-52q25 18 47 56.5t22 64.5z" />
    <glyph glyph-name="less" unicode="&#x3c;" horiz-adv-x="623" 
d="M540 118l-283 245l283 244h-162l-295 -244l295 -245h162z" />
    <glyph glyph-name="equal" unicode="=" horiz-adv-x="660" 
d="M83 515h494v-114h-494v114zM83 293h494v-114h-494v114z" />
    <glyph glyph-name="greater" unicode="&#x3e;" horiz-adv-x="623" 
d="M83 118l283 245l-283 244h162l295 -244l-295 -245h-162z" />
    <glyph glyph-name="question" unicode="?" horiz-adv-x="584" 
d="M215 219v121q113 61 150 91.5t37 70.5q0 34 -25.5 61.5t-81.5 27.5q-57 0 -89.5 -25t-50.5 -79l-117 33q22 90 92 142t170 52q117 0 182 -58t65 -145q0 -29 -7 -54t-23.5 -46.5t-30.5 -36t-43 -32.5t-44 -26.5t-50 -26.5v-70h-134zM215 0v157h134v-157h-134z" />
    <glyph glyph-name="at" unicode="@" horiz-adv-x="800" 
d="M476 526h90v-251q0 -70 47 -70q66 0 66 142q0 126 -79.5 208.5t-200.5 82.5t-200 -82.5t-79 -208.5q0 -125 79 -207.5t200 -82.5q38 0 69.5 5t49 12.5t30 14.5t18.5 12t8 5l53 -27q0 -3 -8 -12.5t-26 -23.5t-43 -26.5t-65 -21.5t-86 -9q-156 0 -258.5 103t-102.5 258
q0 159 102 263t259 104t260 -104t103 -263q0 -52 -15 -97.5t-53 -78.5t-93 -33q-38 0 -67.5 17.5t-44.5 45.5q-39 -58 -122 -58q-80 0 -128.5 54.5t-48.5 142.5q0 91 51 147t133 56q31 0 56.5 -12.5t35.5 -24t10 -15.5v35zM476 342v13q0 41 -25 68t-67 27q-41 0 -66.5 -30
t-24.5 -79q1 -46 26 -74.5t65 -28.5q42 0 67 30.5t25 73.5z" />
    <glyph glyph-name="A" unicode="A" horiz-adv-x="778" 
d="M619 0l-56 118h-348l-56 -118h-155l337 700h96l337 -700h-155zM276 249h226l-104 220l-9 25l-9 -25z" />
    <glyph glyph-name="B" unicode="B" horiz-adv-x="656" 
d="M83 700h290q92 0 150.5 -52t58.5 -129q0 -49 -27.5 -88t-64.5 -52q53 -12 92 -60.5t39 -108.5q0 -93 -62.5 -151.5t-180.5 -58.5h-295v700zM222 425h123q43 0 70 22.5t27 57.5t-27 57.5t-70 22.5h-123v-160zM222 115h142q50 0 81 27t31 71t-32 71t-81 27h-141v-196z" />
    <glyph glyph-name="C" unicode="C" horiz-adv-x="756" 
d="M719 529l-142 -38q-28 39 -76 62.5t-100 23.5q-98 0 -158 -63.5t-60 -163.5q0 -101 61.5 -163t156.5 -62q59 0 110.5 28.5t78.5 74.5l140 -37q-44 -94 -132 -149.5t-197 -55.5q-152 0 -257.5 103.5t-105.5 260.5t105.5 260.5t257.5 103.5q102 0 186.5 -50t131.5 -135z
" />
    <glyph glyph-name="D" unicode="D" horiz-adv-x="785" 
d="M83 700h302q153 0 258 -99t105 -254q0 -154 -104 -250.5t-256 -96.5h-305v700zM222 130h166q90 0 152.5 59t62.5 158t-63.5 161t-154.5 62h-163v-440z" />
    <glyph glyph-name="E" unicode="E" horiz-adv-x="652" 
d="M222 130h362v-130h-501v700h495v-130h-356v-149h282v-126h-282v-165z" />
    <glyph glyph-name="F" unicode="F" horiz-adv-x="606" 
d="M568 570h-346v-170h272v-126h-272v-274h-139v700h485v-130z" />
    <glyph glyph-name="G" unicode="G" horiz-adv-x="793" 
d="M613 0v73q-32 -36 -87.5 -61.5t-124.5 -25.5q-152 0 -257.5 103.5t-105.5 260.5t105.5 260.5t257.5 103.5q103 -1 187 -50.5t131 -134.5l-142 -37q-28 39 -76 62t-100 23q-98 0 -158 -63.5t-60 -163.5q0 -103 63.5 -165.5t162.5 -62.5q82 0 133.5 36t71.5 84v29h-194v114
h313v-385h-120z" />
    <glyph glyph-name="H" unicode="H" horiz-adv-x="747" 
d="M524 700h140v-700h-140v289h-302v-289h-139v700h139v-280h302v280z" />
    <glyph glyph-name="I" unicode="I" horiz-adv-x="305" 
d="M222 0h-139v700h139v-700z" />
    <glyph glyph-name="J" unicode="J" horiz-adv-x="671" 
d="M463 700h140v-396q0 -151 -83.5 -234.5t-224.5 -83.5q-100 0 -177.5 51.5t-107.5 132.5l137 37q18 -43 57 -67t91 -24q80 0 124 48.5t44 134.5v401z" />
    <glyph glyph-name="K" unicode="K" horiz-adv-x="719" 
d="M523 700h162l-289 -290l314 -410h-175l-237 312l-76 -76v-236h-139v700h139v-299z" />
    <glyph glyph-name="L" unicode="L" horiz-adv-x="588" 
d="M222 130h346v-130h-485v700h139v-570z" />
    <glyph glyph-name="M" unicode="M" horiz-adv-x="849" 
d="M635 700h131v-700h-140v423l2 27l-12 -27l-163 -250h-57l-163 250l-13 26l2 -26v-423h-139v700h131l199 -307l11 -22l12 22z" />
    <glyph glyph-name="N" unicode="N" horiz-adv-x="783" 
d="M557 700h140v-700h-131l-328 428l-14 24l2 -27v-425h-140v700h131l328 -423l14 -25l-2 27v421z" />
    <glyph glyph-name="O" unicode="O" 
d="M38 350q0 157 105.5 260.5t257.5 103.5q153 0 258.5 -103.5t105.5 -260.5t-105.5 -260.5t-258.5 -103.5q-152 0 -257.5 103.5t-105.5 260.5zM183 350q0 -100 61 -163.5t157 -63.5q97 0 158 63.5t61 163.5q0 101 -61 164t-158 63q-96 0 -157 -63t-61 -164z" />
    <glyph glyph-name="P" unicode="P" horiz-adv-x="634" 
d="M83 700h250q127 0 199 -62.5t72 -171.5q0 -110 -72 -172.5t-199 -62.5h-111v-231h-139v700zM222 361h108q61 0 95 28t34 77t-34.5 76.5t-94.5 27.5h-108v-209z" />
    <glyph glyph-name="Q" unicode="Q" 
d="M328 -132v125q-127 24 -208.5 122t-81.5 235q0 157 105.5 260.5t257.5 103.5q153 0 258.5 -103.5t105.5 -260.5q0 -138 -84 -236.5t-213 -121.5v-124h-140zM401 123q97 0 158 63.5t61 163.5q0 101 -61 164t-158 63q-96 0 -157 -63t-61 -164q0 -100 61 -163.5t157 -63.5z
" />
    <glyph glyph-name="R" unicode="R" horiz-adv-x="669" 
d="M634 0h-154l-148 239h-4h-106v-239h-139v700h245q128 0 202 -62t74 -168q0 -72 -35 -125t-99 -80zM222 570v-201h124q56 0 84.5 28.5t28.5 72.5q0 43 -29.5 71.5t-83.5 28.5h-124z" />
    <glyph glyph-name="S" unicode="S" horiz-adv-x="608" 
d="M571 524l-134 -37q-12 51 -49.5 78.5t-86.5 27.5t-78.5 -20t-29.5 -55q0 -39 68 -68q18 -8 99 -35q41 -14 63 -23t56.5 -28.5t53 -39.5t32.5 -52.5t14 -71.5q0 -94 -74.5 -154t-193.5 -60q-108 0 -182.5 56.5t-103.5 153.5l136 37q11 -51 54.5 -86t105.5 -35q51 0 82 23
t31 58q0 14 -5 26t-17 22t-24 17.5t-33 16.5t-36 14t-41.5 14.5t-41.5 14.5q-40 14 -66 26.5t-57 35t-47 56t-16 76.5q0 83 73.5 142.5t182.5 59.5q97 0 169.5 -53t95.5 -137z" />
    <glyph glyph-name="T" unicode="T" horiz-adv-x="605" 
d="M14 700h577v-130h-220v-570h-139v570h-218v130z" />
    <glyph glyph-name="U" unicode="U" horiz-adv-x="752" 
d="M544 700h140v-396q0 -151 -83.5 -234.5t-224.5 -83.5q-142 0 -225 83.5t-83 234.5v396h140v-401q0 -85 44 -134t124 -49t124 49t44 134v401z" />
    <glyph glyph-name="V" unicode="V" horiz-adv-x="758" 
d="M597 700h157l-318 -700h-114l-318 700h157l209 -472l9 -28l9 28z" />
    <glyph glyph-name="W" unicode="W" horiz-adv-x="1017" 
d="M864 700h149l-281 -700h-97l-116 317l-11 36l-10 -36l-116 -317h-97l-281 700h149l172 -425l8 -30l8 30l129 339h76l130 -339l8 -29l8 29z" />
    <glyph glyph-name="X" unicode="X" horiz-adv-x="681" 
d="M348 224l-7 20l-8 -20l-154 -224h-167l245 359l-231 341h166l141 -207l8 -20l7 20l141 207h167l-232 -341l245 -359h-167z" />
    <glyph glyph-name="Y" unicode="Y" horiz-adv-x="706" 
d="M533 700h169l-279 -387v-313h-140v313l-279 387h170l166 -230l13 -25l13 25z" />
    <glyph glyph-name="Z" unicode="Z" horiz-adv-x="705" 
d="M645 700v-130l-379 -425l-20 -17l31 2h368v-130h-585v130l384 426l20 16l-31 -2h-363v130h575z" />
    <glyph glyph-name="bracketleft" unicode="[" horiz-adv-x="373" 
d="M222 726v-748h134v-130h-273v1008h273v-130h-134z" />
    <glyph glyph-name="backslash" unicode="\" horiz-adv-x="495" 
d="M491 0l-358 700h-129l355 -700h132z" />
    <glyph glyph-name="bracketright" unicode="]" horiz-adv-x="376" 
d="M154 726v-748h-134v-130h273v1008h-273v-130h134z" />
    <glyph glyph-name="asciicircum" unicode="^" horiz-adv-x="634" 
d="M551 477l-62 -55l-172 177l-172 -177l-62 55l234 235z" />
    <glyph glyph-name="underscore" unicode="_" horiz-adv-x="776" 
d="M83 0h610v-111h-610v111z" />
    <glyph glyph-name="grave" unicode="`" horiz-adv-x="316" 
d="M244 731l-238 103l48 95l231 -124z" />
    <glyph glyph-name="a" unicode="a" horiz-adv-x="778" 
d="M619 0l-56 118h-348l-56 -118h-155l337 700h96l337 -700h-155zM276 249h226l-104 220l-9 25l-9 -25z" />
    <glyph glyph-name="b" unicode="b" horiz-adv-x="656" 
d="M83 700h290q92 0 150.5 -52t58.5 -129q0 -49 -27.5 -88t-64.5 -52q53 -12 92 -60.5t39 -108.5q0 -93 -62.5 -151.5t-180.5 -58.5h-295v700zM222 425h123q43 0 70 22.5t27 57.5t-27 57.5t-70 22.5h-123v-160zM222 115h142q50 0 81 27t31 71t-32 71t-81 27h-141v-196z" />
    <glyph glyph-name="c" unicode="c" horiz-adv-x="756" 
d="M719 529l-142 -38q-28 39 -76 62.5t-100 23.5q-98 0 -158 -63.5t-60 -163.5q0 -101 61.5 -163t156.5 -62q59 0 110.5 28.5t78.5 74.5l140 -37q-44 -94 -132 -149.5t-197 -55.5q-152 0 -257.5 103.5t-105.5 260.5t105.5 260.5t257.5 103.5q102 0 186.5 -50t131.5 -135z
" />
    <glyph glyph-name="d" unicode="d" horiz-adv-x="785" 
d="M83 700h302q153 0 258 -99t105 -254q0 -154 -104 -250.5t-256 -96.5h-305v700zM222 130h166q90 0 152.5 59t62.5 158t-63.5 161t-154.5 62h-163v-440z" />
    <glyph glyph-name="e" unicode="e" horiz-adv-x="652" 
d="M222 130h362v-130h-501v700h495v-130h-356v-149h282v-126h-282v-165z" />
    <glyph glyph-name="f" unicode="f" horiz-adv-x="606" 
d="M568 570h-346v-170h272v-126h-272v-274h-139v700h485v-130z" />
    <glyph glyph-name="g" unicode="g" horiz-adv-x="793" 
d="M613 0v73q-32 -36 -87.5 -61.5t-124.5 -25.5q-152 0 -257.5 103.5t-105.5 260.5t105.5 260.5t257.5 103.5q103 -1 187 -50.5t131 -134.5l-142 -37q-28 39 -76 62t-100 23q-98 0 -158 -63.5t-60 -163.5q0 -103 63.5 -165.5t162.5 -62.5q82 0 133.5 36t71.5 84v29h-194v114
h313v-385h-120z" />
    <glyph glyph-name="h" unicode="h" horiz-adv-x="747" 
d="M524 700h140v-700h-140v289h-302v-289h-139v700h139v-280h302v280z" />
    <glyph glyph-name="i" unicode="i" horiz-adv-x="305" 
d="M222 0h-139v700h139v-700z" />
    <glyph glyph-name="j" unicode="j" horiz-adv-x="671" 
d="M463 700h140v-396q0 -151 -83.5 -234.5t-224.5 -83.5q-100 0 -177.5 51.5t-107.5 132.5l137 37q18 -43 57 -67t91 -24q80 0 124 48.5t44 134.5v401z" />
    <glyph glyph-name="k" unicode="k" horiz-adv-x="719" 
d="M523 700h162l-289 -290l314 -410h-175l-237 312l-76 -76v-236h-139v700h139v-299z" />
    <glyph glyph-name="l" unicode="l" horiz-adv-x="588" 
d="M222 130h346v-130h-485v700h139v-570z" />
    <glyph glyph-name="m" unicode="m" horiz-adv-x="849" 
d="M635 700h131v-700h-140v423l2 27l-12 -27l-163 -250h-57l-163 250l-13 26l2 -26v-423h-139v700h131l199 -307l11 -22l12 22z" />
    <glyph glyph-name="n" unicode="n" horiz-adv-x="776" 
d="M557 700h140v-700h-131l-328 428l-14 24l2 -27v-425h-140v700h131l328 -423l14 -25l-2 27v421z" />
    <glyph glyph-name="o" unicode="o" 
d="M38 350q0 157 105.5 260.5t257.5 103.5q153 0 258.5 -103.5t105.5 -260.5t-105.5 -260.5t-258.5 -103.5q-152 0 -257.5 103.5t-105.5 260.5zM183 350q0 -100 61 -163.5t157 -63.5q97 0 158 63.5t61 163.5q0 101 -61 164t-158 63q-96 0 -157 -63t-61 -164z" />
    <glyph glyph-name="p" unicode="p" horiz-adv-x="634" 
d="M83 700h250q127 0 199 -62.5t72 -171.5q0 -110 -72 -172.5t-199 -62.5h-111v-231h-139v700zM222 361h108q61 0 95 28t34 77t-34.5 76.5t-94.5 27.5h-108v-209z" />
    <glyph glyph-name="q" unicode="q" 
d="M328 -132v125q-127 24 -208.5 122t-81.5 235q0 157 105.5 260.5t257.5 103.5q153 0 258.5 -103.5t105.5 -260.5q0 -138 -84 -236.5t-213 -121.5v-124h-140zM401 123q97 0 158 63.5t61 163.5q0 101 -61 164t-158 63q-96 0 -157 -63t-61 -164q0 -100 61 -163.5t157 -63.5z
" />
    <glyph glyph-name="r" unicode="r" horiz-adv-x="669" 
d="M634 0h-154l-148 239h-4h-106v-239h-139v700h245q128 0 202 -62t74 -168q0 -72 -35 -125t-99 -80zM222 570v-201h124q56 0 84.5 28.5t28.5 72.5q0 43 -29.5 71.5t-83.5 28.5h-124z" />
    <glyph glyph-name="s" unicode="s" horiz-adv-x="608" 
d="M571 524l-134 -37q-12 51 -49.5 78.5t-86.5 27.5t-78.5 -20t-29.5 -55q0 -39 68 -68q18 -8 99 -35q41 -14 63 -23t56.5 -28.5t53 -39.5t32.5 -52.5t14 -71.5q0 -94 -74.5 -154t-193.5 -60q-108 0 -182.5 56.5t-103.5 153.5l136 37q11 -51 54.5 -86t105.5 -35q51 0 82 23
t31 58q0 14 -5 26t-17 22t-24 17.5t-33 16.5t-36 14t-41.5 14.5t-41.5 14.5q-40 14 -66 26.5t-57 35t-47 56t-16 76.5q0 83 73.5 142.5t182.5 59.5q97 0 169.5 -53t95.5 -137z" />
    <glyph glyph-name="t" unicode="t" horiz-adv-x="605" 
d="M14 700h577v-130h-220v-570h-139v570h-218v130z" />
    <glyph glyph-name="u" unicode="u" horiz-adv-x="752" 
d="M544 700h140v-396q0 -151 -83.5 -234.5t-224.5 -83.5q-142 0 -225 83.5t-83 234.5v396h140v-401q0 -85 44 -134t124 -49t124 49t44 134v401z" />
    <glyph glyph-name="v" unicode="v" horiz-adv-x="758" 
d="M597 700h157l-318 -700h-114l-318 700h157l209 -472l9 -28l9 28z" />
    <glyph glyph-name="w" unicode="w" horiz-adv-x="1017" 
d="M864 700h149l-281 -700h-97l-116 317l-11 36l-10 -36l-116 -317h-97l-281 700h149l172 -425l8 -30l8 30l129 339h76l130 -339l8 -29l8 29z" />
    <glyph glyph-name="x" unicode="x" horiz-adv-x="681" 
d="M348 224l-7 20l-8 -20l-154 -224h-167l245 359l-231 341h166l141 -207l8 -20l7 20l141 207h167l-232 -341l245 -359h-167z" />
    <glyph glyph-name="y" unicode="y" horiz-adv-x="706" 
d="M533 700h169l-279 -387v-313h-140v313l-279 387h170l166 -230l13 -25l13 25z" />
    <glyph glyph-name="z" unicode="z" horiz-adv-x="705" 
d="M645 700v-130l-379 -425l-20 -17l31 2h368v-130h-585v130l384 426l20 16l-31 -2h-363v130h575z" />
    <glyph glyph-name="braceleft" unicode="{" horiz-adv-x="433" 
d="M286 591v-79q0 -38 -5 -68.5t-12 -47t-15.5 -27t-13.5 -14t-8 -3.5q3 0 8 -3.5t13.5 -14.5t15.5 -27.5t12 -47t5 -68.5v-78q0 -90 36.5 -121t97.5 -31v-130q-131 0 -202 70t-71 192v105q0 38 -6.5 67.5t-16 45t-19 25.5t-15.5 13l-7 3q3 1 7 3t15 12.5t19.5 25.5t15.5 45
t7 68v105q0 122 71 192t202 70v-130q-61 0 -97.5 -31t-36.5 -121z" />
    <glyph glyph-name="bar" unicode="|" horiz-adv-x="276" 
d="M193 -74h-110v849h110v-849z" />
    <glyph glyph-name="braceright" unicode="}" horiz-adv-x="436" 
d="M150 591v-79q0 -38 5 -68.5t12 -47t15.5 -27t13.5 -14t8 -3.5q-3 0 -8 -3.5t-13.5 -14.5t-15.5 -27.5t-12 -47t-5 -68.5v-78q0 -90 -36.5 -121t-97.5 -31v-130q131 0 202 70t71 192v105q0 38 6.5 67.5t16 45t19 25.5t15.5 13l7 3q-3 1 -7 3t-15 12.5t-19.5 25.5t-15.5 45
t-7 68v105q0 122 -71 192t-202 70v-130q61 0 97.5 -31t36.5 -121z" />
    <glyph glyph-name="asciitilde" unicode="~" horiz-adv-x="541" 
d="M390 443l113 -30q-11 -50 -54.5 -82t-102.5 -32q-31 0 -58.5 15t-49 30t-39.5 15q-21 0 -34.5 -12t-14.5 -31l-112 30q12 50 55.5 82.5t101.5 32.5q34 0 62.5 -15.5t49 -30.5t35.5 -15q21 0 34.5 12t13.5 31z" />
    <glyph glyph-name="exclamdown" unicode="&#xa1;" horiz-adv-x="297" 
d="M83 700h131v-157h-131v157zM83 481h131v-481h-131v481z" />
    <glyph glyph-name="cent" unicode="&#xa2;" horiz-adv-x="577" 
d="M430 276l121 -34q-24 -61 -75.5 -102.5t-117.5 -55.5v-98h-112v99q-90 20 -149 92t-59 170q0 97 59 169t149 92v106h112v-105q62 -13 111 -51t75 -93l-121 -32q-42 61 -119 61q-63 0 -100.5 -39.5t-37.5 -107.5t37.5 -108t100.5 -40q88 0 126 77z" />
    <glyph glyph-name="sterling" unicode="&#xa3;" horiz-adv-x="697" 
d="M289 287l2 -24q11 -118 -45 -156h366v-107h-529v107q84 16 70 152l-3 28h-67v111h57l-8 90q-9 91 59 157.5t165 68.5q35 1 72 -9t74.5 -31t67 -61t42.5 -93l-117 -33q-35 109 -131 104q-46 -2 -72 -35.5t-21 -79.5l7 -78h202v-111h-191z" />
    <glyph glyph-name="currency" unicode="&#xa4;" horiz-adv-x="665" 
d="M485 560l70 69l68 -69l-69 -69q48 -69 48 -152q0 -84 -48 -153l68 -69l-69 -69l-69 69q-70 -49 -153 -49t-151 49l-69 -69l-68 69l67 68q-48 70 -48 154q0 83 48 153l-69 68l69 69l69 -69q68 49 152 49q82 0 154 -49zM332 488q-61 0 -103 -42t-42 -105q0 -64 42 -106
t103 -42q62 0 104 42t42 106q0 63 -42.5 105t-103.5 42z" />
    <glyph glyph-name="yen" unicode="&#xa5;" horiz-adv-x="706" 
d="M702 700l-175 -243h96v-91h-162l-24 -33h186v-92h-200v-241h-140v241h-197v92h183l-24 33h-159v91h93l-175 243h170l166 -230l13 -25l13 25l167 230h169z" />
    <glyph glyph-name="brokenbar" unicode="&#xa6;" horiz-adv-x="276" 
d="M83 775h110v-280h-110v280zM83 216h110v-290h-110v290z" />
    <glyph glyph-name="dieresis" unicode="&#xa8;" horiz-adv-x="429" 
d="M68 767q-29 0 -48 18.5t-19 46.5q0 27 19.5 46t47.5 19q27 0 45.5 -19t18.5 -46q0 -28 -18.5 -46.5t-45.5 -18.5zM327 767q-28 0 -46.5 18.5t-18.5 46.5q0 27 18.5 46t46.5 19t47 -19t19 -46q0 -28 -19 -46.5t-47 -18.5z" />
    <glyph glyph-name="copyright" unicode="&#xa9;" 
d="M401 714q153 0 258.5 -103.5t105.5 -260.5t-105.5 -260.5t-258.5 -103.5q-152 0 -257.5 103.5t-105.5 260.5t105.5 260.5t257.5 103.5zM401 615q-111 0 -183.5 -74t-72.5 -191q0 -115 72.5 -189t183.5 -74t184 74t73 189q0 116 -72.5 190.5t-184.5 74.5zM482 305l79 -22
q-18 -46 -62 -75t-96 -29q-71 0 -120.5 49t-49.5 122q0 74 49.5 123t120.5 49q49 0 91 -26.5t62 -68.5l-78 -22q-26 39 -75 39q-40 0 -64 -25.5t-24 -68.5q0 -42 24 -67.5t64 -25.5q56 0 79 48z" />
    <glyph glyph-name="ordfeminine" unicode="&#xaa;" horiz-adv-x="405" 
d="M128 424l-23 -49h-85l160 333h45l160 -333h-84l-23 49h-150zM197 574l-38 -82h87l-38 82l-6 20zM20 260v68h365v-68h-365z" />
    <glyph glyph-name="guillemotleft" unicode="&#xab;" horiz-adv-x="778" 
d="M324 592l-235 -235l235 -234l76 77l-165 157l164 159zM626 592l-235 -235l235 -234l76 77l-165 157l164 159z" />
    <glyph glyph-name="softhyphen" unicode="&#xad;" horiz-adv-x="399" 
d="M40 420h319v-130h-319v130z" />
    <glyph glyph-name="registered" unicode="&#xae;" 
d="M401 714q153 0 258.5 -103.5t105.5 -260.5t-105.5 -260.5t-258.5 -103.5q-152 0 -257.5 103.5t-105.5 260.5t105.5 260.5t257.5 103.5zM401 87q111 0 184 74t73 189q0 116 -72.5 190.5t-184.5 74.5q-111 0 -183.5 -74t-72.5 -191q0 -115 72.5 -189t183.5 -74zM284 520
h119q62 0 97.5 -30t35.5 -81q0 -71 -65 -100l78 -128h-81l-72 116h-37v-116h-75v339zM359 449v-80h53q22 0 34.5 10.5t12.5 29.5t-12.5 29.5t-34.5 10.5h-53z" />
    <glyph glyph-name="macron" unicode="&#xaf;" horiz-adv-x="344" 
d="M1 750h307v-84h-307v84z" />
    <glyph glyph-name="degree" unicode="&#xb0;" horiz-adv-x="322" 
d="M162 580q-51 0 -87.5 36t-36.5 87q0 50 36.5 86t87.5 36t87 -36t36 -86q0 -51 -36 -87t-87 -36zM162 653q21 0 36.5 15t15.5 35q0 22 -15 37t-37 15q-21 0 -35.5 -15t-14.5 -37q0 -20 15 -35t35 -15z" />
    <glyph glyph-name="plusminus" unicode="&#xb1;" horiz-adv-x="660" 
d="M394 412h183v-114h-182v-117h-123v117h-189v114h189v189h122v-189zM83 -9v114h494v-114h-494z" />
    <glyph glyph-name="acute" unicode="&#xb4;" horiz-adv-x="316" 
d="M214 929l48 -95l-238 -103l-40 74z" />
    <glyph glyph-name="periodcentered" unicode="&#xb7;" horiz-adv-x="258" 
d="M129 284q-29 0 -49 20.5t-20 49.5q0 28 20.5 48t48.5 20t48.5 -20t20.5 -48q0 -29 -20 -49.5t-49 -20.5z" />
    <glyph glyph-name="cedilla" unicode="&#xb8;" horiz-adv-x="260" 
d="M137 0l-21 -54q44 1 76 -27.5t32 -74.5q0 -52 -33 -78.5t-83 -26.5h-107l29 74h78q38 0 38 31q0 29 -38 31h-92l43 125h78z" />
    <glyph glyph-name="ordmasculine" unicode="&#xba;" horiz-adv-x="363" 
d="M10 540q0 74 49.5 123t121.5 49t122 -49t50 -123q0 -73 -50 -122t-122 -49t-121.5 48.5t-49.5 122.5zM89 540q0 -42 26 -69t66 -27q41 0 67 27t26 69q0 43 -26 70t-67 27q-40 0 -66 -27t-26 -70zM20 328h323v-68h-323v68z" />
    <glyph glyph-name="guillemotright" unicode="&#xbb;" horiz-adv-x="778" 
d="M156 592l235 -235l-235 -234l-76 77l165 157l-164 159zM457 592l235 -235l-235 -234l-76 77l165 157l-164 159z" />
    <glyph glyph-name="questiondown" unicode="&#xbf;" horiz-adv-x="584" 
d="M369 700v-157h-134v157h134zM369 481v-121q-113 -61 -150 -91.5t-37 -70.5q0 -34 25.5 -61.5t81.5 -27.5q57 0 89.5 25t50.5 79l117 -33q-22 -90 -92 -142t-170 -52q-117 0 -182 58t-65 145q0 29 7 54t23.5 46.5t30.5 36t43 32.5t44 26.5t50 26.5v70h134z" />
    <glyph glyph-name="Agrave" unicode="&#xc0;" horiz-adv-x="778" 
d="M482 805l-41 -74l-238 103l48 95zM619 0l-56 118h-348l-56 -118h-155l337 700h96l337 -700h-155zM276 249h226l-104 220l-9 25l-9 -25z" />
    <glyph glyph-name="Aacute" unicode="&#xc1;" horiz-adv-x="778" 
d="M550 834l-238 -103l-40 74l230 124zM619 0l-56 118h-348l-56 -118h-155l337 700h96l337 -700h-155zM276 249h226l-104 220l-9 25l-9 -25z" />
    <glyph glyph-name="Acircumflex" unicode="&#xc2;" horiz-adv-x="778" 
d="M384 828l-118 -97l-53 57l171 145l170 -145l-53 -57zM619 0l-56 118h-348l-56 -118h-155l337 700h96l337 -700h-155zM276 249h226l-104 220l-9 25l-9 -25z" />
    <glyph glyph-name="Atilde" unicode="&#xc3;" horiz-adv-x="778" 
d="M501 884h109q0 -60 -40 -99t-102 -39q-37 0 -83 30t-66 30t-33 -12.5t-13 -31.5h-108q0 60 40 99.5t102 39.5q39 0 84 -30.5t64 -30.5q20 0 33 12.5t13 31.5zM619 0l-56 118h-348l-56 -118h-155l337 700h96l337 -700h-155zM276 249h226l-104 220l-9 25l-9 -25z" />
    <glyph glyph-name="Adieresis" unicode="&#xc4;" horiz-adv-x="778" 
d="M255 767q-29 0 -48 18.5t-19 46.5q0 27 19.5 46t47.5 19q27 0 45.5 -19t18.5 -46q0 -28 -18.5 -46.5t-45.5 -18.5zM514 767q-28 0 -46.5 18.5t-18.5 46.5q0 27 18.5 46t46.5 19t47 -19t19 -46q0 -28 -19 -46.5t-47 -18.5zM619 0l-56 118h-348l-56 -118h-155l337 700h96
l337 -700h-155zM276 249h226l-104 220l-9 25l-9 -25z" />
    <glyph glyph-name="Aring" unicode="&#xc5;" horiz-adv-x="778" 
d="M619 0l-56 118h-348l-56 -118h-155l325 675q-65 35 -65 108q0 50 36.5 86t87.5 36t87 -36t36 -86q0 -34 -17 -62.5t-45 -44.5l325 -676h-155zM388 835q-21 0 -35.5 -15t-14.5 -37q0 -20 15 -35t35 -15q21 0 36.5 15t15.5 35q0 22 -15 37t-37 15zM276 249h226l-104 220
l-9 25l-9 -25z" />
    <glyph glyph-name="AE" unicode="&#xc6;" horiz-adv-x="1009" 
d="M612 130h329v-130h-469v119h-222l-79 -119h-167l468 700h463v-130h-323v-149h281v-126h-281v-165zM319 220h153v236l-17 -29z" />
    <glyph glyph-name="Ccedilla" unicode="&#xc7;" horiz-adv-x="756" 
d="M590 228l140 -37q-40 -86 -117.5 -140t-174.5 -63l-16 -42q44 1 76 -27.5t32 -74.5q0 -52 -33 -78.5t-83 -26.5h-107l29 74h78q38 0 38 31q0 29 -38 31h-92l39 113q-139 14 -231 115t-92 247q0 157 105.5 260.5t257.5 103.5q102 0 186.5 -50t131.5 -135l-142 -38
q-28 39 -76 62.5t-100 23.5q-98 0 -158 -63.5t-60 -163.5q0 -101 61.5 -163t156.5 -62q59 0 110.5 28.5t78.5 74.5z" />
    <glyph glyph-name="Egrave" unicode="&#xc8;" horiz-adv-x="652" 
d="M438 805l-41 -74l-238 103l48 95zM222 130h362v-130h-501v700h495v-130h-356v-149h282v-126h-282v-165z" />
    <glyph glyph-name="Eacute" unicode="&#xc9;" horiz-adv-x="652" 
d="M506 834l-238 -103l-40 74l230 124zM222 130h362v-130h-501v700h495v-130h-356v-149h282v-126h-282v-165z" />
    <glyph glyph-name="Ecircumflex" unicode="&#xca;" horiz-adv-x="652" 
d="M340 828l-118 -97l-53 57l171 145l170 -145l-53 -57zM222 130h362v-130h-501v700h495v-130h-356v-149h282v-126h-282v-165z" />
    <glyph glyph-name="Edieresis" unicode="&#xcb;" horiz-adv-x="652" 
d="M211 767q-29 0 -48 18.5t-19 46.5q0 27 19.5 46t47.5 19q27 0 45.5 -19t18.5 -46q0 -28 -18.5 -46.5t-45.5 -18.5zM470 767q-28 0 -46.5 18.5t-18.5 46.5q0 27 18.5 46t46.5 19t47 -19t19 -46q0 -28 -19 -46.5t-47 -18.5zM222 130h362v-130h-501v700h495v-130h-356v-149
h282v-126h-282v-165z" />
    <glyph glyph-name="Igrave" unicode="&#xcc;" horiz-adv-x="305" 
d="M207 731l-238 103l48 95l231 -124zM222 0h-139v700h139v-700z" />
    <glyph glyph-name="Iacute" unicode="&#xcd;" horiz-adv-x="305" 
d="M268 929l48 -95l-238 -103l-40 74zM222 0h-139v700h139v-700z" />
    <glyph glyph-name="Icircumflex" unicode="&#xce;" horiz-adv-x="305" 
d="M-21 788l171 145l170 -145l-53 -57l-117 97l-118 -97zM222 0h-139v700h139v-700z" />
    <glyph glyph-name="Idieresis" unicode="&#xcf;" horiz-adv-x="305" 
d="M21 767q-29 0 -48 18.5t-19 46.5q0 27 19.5 46t47.5 19q27 0 45.5 -19t18.5 -46q0 -28 -18.5 -46.5t-45.5 -18.5zM280 767q-28 0 -46.5 18.5t-18.5 46.5q0 27 18.5 46t46.5 19t47 -19t19 -46q0 -28 -19 -46.5t-47 -18.5zM222 0h-139v700h139v-700z" />
    <glyph glyph-name="Eth" unicode="&#xd0;" horiz-adv-x="796" 
d="M94 700h302q153 0 258 -99t105 -254q0 -154 -104 -250.5t-256 -96.5h-305v292h-56v125h56v283zM233 130h166q90 0 152.5 59t62.5 158t-63.5 161t-154.5 62h-163v-153h131v-125h-131v-162z" />
    <glyph glyph-name="Ntilde" unicode="&#xd1;" horiz-adv-x="783" 
d="M508 884h109q0 -60 -40 -99t-102 -39q-37 0 -83 30t-66 30t-33 -12.5t-13 -31.5h-108q0 60 40 99.5t102 39.5q39 0 84 -30.5t64 -30.5q20 0 33 12.5t13 31.5zM557 700h140v-700h-131l-328 428l-14 24l2 -27v-425h-140v700h131l328 -423l14 -25l-2 27v421z" />
    <glyph glyph-name="Ograve" unicode="&#xd2;" 
d="M460 731l-238 103l48 95l231 -124zM38 350q0 157 105.5 260.5t257.5 103.5q153 0 258.5 -103.5t105.5 -260.5t-105.5 -260.5t-258.5 -103.5q-152 0 -257.5 103.5t-105.5 260.5zM183 350q0 -100 61 -163.5t157 -63.5q97 0 158 63.5t61 163.5q0 101 -61 164t-158 63
q-96 0 -157 -63t-61 -164z" />
    <glyph glyph-name="Oacute" unicode="&#xd3;" 
d="M521 929l48 -95l-238 -103l-40 74zM38 350q0 157 105.5 260.5t257.5 103.5q153 0 258.5 -103.5t105.5 -260.5t-105.5 -260.5t-258.5 -103.5q-152 0 -257.5 103.5t-105.5 260.5zM183 350q0 -100 61 -163.5t157 -63.5q97 0 158 63.5t61 163.5q0 101 -61 164t-158 63
q-96 0 -157 -63t-61 -164z" />
    <glyph glyph-name="Ocircumflex" unicode="&#xd4;" 
d="M232 788l171 145l170 -145l-53 -57l-117 97l-118 -97zM38 350q0 157 105.5 260.5t257.5 103.5q153 0 258.5 -103.5t105.5 -260.5t-105.5 -260.5t-258.5 -103.5q-152 0 -257.5 103.5t-105.5 260.5zM183 350q0 -100 61 -163.5t157 -63.5q97 0 158 63.5t61 163.5
q0 101 -61 164t-158 63q-96 0 -157 -63t-61 -164z" />
    <glyph glyph-name="Otilde" unicode="&#xd5;" 
d="M520 884h109q0 -60 -40 -99t-102 -39q-37 0 -83 30t-66 30t-33 -12.5t-13 -31.5h-108q0 60 40 99.5t102 39.5q31 0 58.5 -15.5t49.5 -30.5t40 -15q20 0 33 12.5t13 31.5zM38 350q0 157 105.5 260.5t257.5 103.5q153 0 258.5 -103.5t105.5 -260.5t-105.5 -260.5
t-258.5 -103.5q-152 0 -257.5 103.5t-105.5 260.5zM183 350q0 -100 61 -163.5t157 -63.5q97 0 158 63.5t61 163.5q0 101 -61 164t-158 63q-96 0 -157 -63t-61 -164z" />
    <glyph glyph-name="Odieresis" unicode="&#xd6;" 
d="M274 767q-29 0 -48 18.5t-19 46.5q0 27 19.5 46t47.5 19q27 0 45.5 -19t18.5 -46q0 -28 -18.5 -46.5t-45.5 -18.5zM533 767q-28 0 -46.5 18.5t-18.5 46.5q0 27 18.5 46t46.5 19t47 -19t19 -46q0 -28 -19 -46.5t-47 -18.5zM38 350q0 157 105.5 260.5t257.5 103.5
q153 0 258.5 -103.5t105.5 -260.5t-105.5 -260.5t-258.5 -103.5q-152 0 -257.5 103.5t-105.5 260.5zM183 350q0 -100 61 -163.5t157 -63.5q97 0 158 63.5t61 163.5q0 101 -61 164t-158 63q-96 0 -157 -63t-61 -164z" />
    <glyph glyph-name="multiply" unicode="&#xd7;" horiz-adv-x="601" 
d="M426 570l93 -93l-126 -125l125 -126l-93 -92l-125 125l-124 -124l-92 93l124 124l-125 124l93 93l124 -124z" />
    <glyph glyph-name="Oslash" unicode="&#xd8;" 
d="M706 646l-36 -47q95 -103 95 -249q0 -157 -105.5 -260.5t-258.5 -103.5q-90 0 -168 39l-39 -50l-99 75l38 50q-95 103 -95 250q0 157 105.5 260.5t257.5 103.5q91 0 171 -41l36 47zM221 215l266 347q-39 15 -86 15q-96 0 -157 -63t-61 -164q0 -76 38 -135zM583 484
l-265 -346q37 -15 83 -15q97 0 158 63.5t61 163.5q0 78 -37 134z" />
    <glyph glyph-name="Ugrave" unicode="&#xd9;" horiz-adv-x="752" 
d="M428 731l-238 103l48 95l231 -124zM544 700h140v-396q0 -151 -83.5 -234.5t-224.5 -83.5q-142 0 -225 83.5t-83 234.5v396h140v-401q0 -85 44 -134t124 -49t124 49t44 134v401z" />
    <glyph glyph-name="Uacute" unicode="&#xda;" horiz-adv-x="752" 
d="M489 929l48 -95l-238 -103l-40 74zM544 700h140v-396q0 -151 -83.5 -234.5t-224.5 -83.5q-142 0 -225 83.5t-83 234.5v396h140v-401q0 -85 44 -134t124 -49t124 49t44 134v401z" />
    <glyph glyph-name="Ucircumflex" unicode="&#xdb;" horiz-adv-x="752" 
d="M200 788l171 145l170 -145l-53 -57l-117 97l-118 -97zM544 700h140v-396q0 -151 -83.5 -234.5t-224.5 -83.5q-142 0 -225 83.5t-83 234.5v396h140v-401q0 -85 44 -134t124 -49t124 49t44 134v401z" />
    <glyph glyph-name="Udieresis" unicode="&#xdc;" horiz-adv-x="752" 
d="M242 767q-29 0 -48 18.5t-19 46.5q0 27 19.5 46t47.5 19q27 0 45.5 -19t18.5 -46q0 -28 -18.5 -46.5t-45.5 -18.5zM501 767q-28 0 -46.5 18.5t-18.5 46.5q0 27 18.5 46t46.5 19t47 -19t19 -46q0 -28 -19 -46.5t-47 -18.5zM544 700h140v-396q0 -151 -83.5 -234.5
t-224.5 -83.5q-142 0 -225 83.5t-83 234.5v396h140v-401q0 -85 44 -134t124 -49t124 49t44 134v401z" />
    <glyph glyph-name="Yacute" unicode="&#xdd;" horiz-adv-x="706" 
d="M467 929l48 -95l-238 -103l-40 74zM533 700h169l-279 -387v-313h-140v313l-279 387h170l166 -230l13 -25l13 25z" />
    <glyph glyph-name="Thorn" unicode="&#xde;" horiz-adv-x="636" 
d="M222 585h118q117 0 189 -66t72 -169q0 -102 -72 -167.5t-189 -65.5h-118v-117h-139v700h139v-115zM222 247h121q53 0 83 28.5t30 74.5t-30 75t-83 29h-121v-207z" />
    <glyph glyph-name="germandbls" unicode="&#xdf;" horiz-adv-x="818" 
d="M83 700h630l-164 -283q111 -8 171 -64t60 -143q0 -96 -70 -160t-181 -64q-80 0 -148 37.5t-102 98.5l132 36q40 -54 112 -54q53 0 85 30t32 74q0 41 -31.5 69.5t-85.5 29.5h-106v110l77 134l19 21l-30 -2h-261v-570h-139v700z" />
    <glyph glyph-name="agrave" unicode="&#xe0;" horiz-adv-x="778" 
d="M482 805l-41 -74l-238 103l48 95zM619 0l-56 118h-348l-56 -118h-155l337 700h96l337 -700h-155zM276 249h226l-104 220l-9 25l-9 -25z" />
    <glyph glyph-name="aacute" unicode="&#xe1;" horiz-adv-x="778" 
d="M550 834l-238 -103l-40 74l230 124zM619 0l-56 118h-348l-56 -118h-155l337 700h96l337 -700h-155zM276 249h226l-104 220l-9 25l-9 -25z" />
    <glyph glyph-name="acircumflex" unicode="&#xe2;" horiz-adv-x="778" 
d="M384 828l-118 -97l-53 57l171 145l170 -145l-53 -57zM619 0l-56 118h-348l-56 -118h-155l337 700h96l337 -700h-155zM276 249h226l-104 220l-9 25l-9 -25z" />
    <glyph glyph-name="atilde" unicode="&#xe3;" horiz-adv-x="778" 
d="M501 884h109q0 -60 -40 -99t-102 -39q-37 0 -83 30t-66 30t-33 -12.5t-13 -31.5h-108q0 60 40 99.5t102 39.5q39 0 84 -30.5t64 -30.5q20 0 33 12.5t13 31.5zM619 0l-56 118h-348l-56 -118h-155l337 700h96l337 -700h-155zM276 249h226l-104 220l-9 25l-9 -25z" />
    <glyph glyph-name="adieresis" unicode="&#xe4;" horiz-adv-x="778" 
d="M255 767q-29 0 -48 18.5t-19 46.5q0 27 19.5 46t47.5 19q27 0 45.5 -19t18.5 -46q0 -28 -18.5 -46.5t-45.5 -18.5zM514 767q-28 0 -46.5 18.5t-18.5 46.5q0 27 18.5 46t46.5 19t47 -19t19 -46q0 -28 -19 -46.5t-47 -18.5zM619 0l-56 118h-348l-56 -118h-155l337 700h96
l337 -700h-155zM276 249h226l-104 220l-9 25l-9 -25z" />
    <glyph glyph-name="aring" unicode="&#xe5;" horiz-adv-x="778" 
d="M619 0l-56 118h-348l-56 -118h-155l325 675q-65 35 -65 108q0 50 36.5 86t87.5 36t87 -36t36 -86q0 -34 -17 -62.5t-45 -44.5l325 -676h-155zM388 835q-21 0 -35.5 -15t-14.5 -37q0 -20 15 -35t35 -15q21 0 36.5 15t15.5 35q0 22 -15 37t-37 15zM276 249h226l-104 220
l-9 25l-9 -25z" />
    <glyph glyph-name="ae" unicode="&#xe6;" horiz-adv-x="1009" 
d="M612 130h329v-130h-469v119h-222l-79 -119h-167l468 700h463v-130h-323v-149h281v-126h-281v-165zM319 220h153v236l-17 -29z" />
    <glyph glyph-name="ccedilla" unicode="&#xe7;" horiz-adv-x="756" 
d="M590 228l140 -37q-40 -86 -117.5 -140t-174.5 -63l-16 -42q44 1 76 -27.5t32 -74.5q0 -52 -33 -78.5t-83 -26.5h-107l29 74h78q38 0 38 31q0 29 -38 31h-92l39 113q-139 14 -231 115t-92 247q0 157 105.5 260.5t257.5 103.5q102 0 186.5 -50t131.5 -135l-142 -38
q-28 39 -76 62.5t-100 23.5q-98 0 -158 -63.5t-60 -163.5q0 -101 61.5 -163t156.5 -62q59 0 110.5 28.5t78.5 74.5z" />
    <glyph glyph-name="egrave" unicode="&#xe8;" horiz-adv-x="652" 
d="M437 805l-41 -74l-238 103l48 95zM222 130h362v-130h-501v700h495v-130h-356v-149h282v-126h-282v-165z" />
    <glyph glyph-name="eacute" unicode="&#xe9;" horiz-adv-x="652" 
d="M505 834l-238 -103l-40 74l230 124zM222 130h362v-130h-501v700h495v-130h-356v-149h282v-126h-282v-165z" />
    <glyph glyph-name="ecircumflex" unicode="&#xea;" horiz-adv-x="652" 
d="M339 828l-118 -97l-53 57l171 145l170 -145l-53 -57zM222 130h362v-130h-501v700h495v-130h-356v-149h282v-126h-282v-165z" />
    <glyph glyph-name="edieresis" unicode="&#xeb;" horiz-adv-x="652" 
d="M210 767q-29 0 -48 18.5t-19 46.5q0 27 19.5 46t47.5 19q27 0 45.5 -19t18.5 -46q0 -28 -18.5 -46.5t-45.5 -18.5zM469 767q-28 0 -46.5 18.5t-18.5 46.5q0 27 18.5 46t46.5 19t47 -19t19 -46q0 -28 -19 -46.5t-47 -18.5zM222 130h362v-130h-501v700h495v-130h-356v-149
h282v-126h-282v-165z" />
    <glyph glyph-name="igrave" unicode="&#xec;" horiz-adv-x="305" 
d="M207 731l-238 103l48 95l231 -124zM222 0h-139v700h139v-700z" />
    <glyph glyph-name="iacute" unicode="&#xed;" horiz-adv-x="305" 
d="M268 929l48 -95l-238 -103l-40 74zM222 0h-139v700h139v-700z" />
    <glyph glyph-name="icircumflex" unicode="&#xee;" horiz-adv-x="305" 
d="M-21 788l171 145l170 -145l-53 -57l-117 97l-118 -97zM222 0h-139v700h139v-700z" />
    <glyph glyph-name="idieresis" unicode="&#xef;" horiz-adv-x="305" 
d="M21 767q-29 0 -48 18.5t-19 46.5q0 27 19.5 46t47.5 19q27 0 45.5 -19t18.5 -46q0 -28 -18.5 -46.5t-45.5 -18.5zM280 767q-28 0 -46.5 18.5t-18.5 46.5q0 27 18.5 46t46.5 19t47 -19t19 -46q0 -28 -19 -46.5t-47 -18.5zM222 0h-139v700h139v-700z" />
    <glyph glyph-name="eth" unicode="&#xf0;" horiz-adv-x="796" 
d="M94 700h302q153 0 258 -99t105 -254q0 -154 -104 -250.5t-256 -96.5h-305v292h-56v125h56v283zM233 130h166q90 0 152.5 59t62.5 158t-63.5 161t-154.5 62h-163v-153h131v-125h-131v-162z" />
    <glyph glyph-name="ntilde" unicode="&#xf1;" horiz-adv-x="776" 
d="M502 884h109q0 -60 -40 -99t-102 -39q-37 0 -83 30t-66 30t-33 -12.5t-13 -31.5h-108q0 60 40 99.5t102 39.5q40 0 84.5 -30.5t63.5 -30.5q20 0 33 12.5t13 31.5zM557 700h140v-700h-131l-328 428l-14 24l2 -27v-425h-140v700h131l328 -423l14 -25l-2 27v421z" />
    <glyph glyph-name="ograve" unicode="&#xf2;" 
d="M458 731l-238 103l48 95l231 -124zM38 350q0 157 105.5 260.5t257.5 103.5q153 0 258.5 -103.5t105.5 -260.5t-105.5 -260.5t-258.5 -103.5q-152 0 -257.5 103.5t-105.5 260.5zM183 350q0 -100 61 -163.5t157 -63.5q97 0 158 63.5t61 163.5q0 101 -61 164t-158 63
q-96 0 -157 -63t-61 -164z" />
    <glyph glyph-name="oacute" unicode="&#xf3;" 
d="M519 929l48 -95l-238 -103l-40 74zM38 350q0 157 105.5 260.5t257.5 103.5q153 0 258.5 -103.5t105.5 -260.5t-105.5 -260.5t-258.5 -103.5q-152 0 -257.5 103.5t-105.5 260.5zM183 350q0 -100 61 -163.5t157 -63.5q97 0 158 63.5t61 163.5q0 101 -61 164t-158 63
q-96 0 -157 -63t-61 -164z" />
    <glyph glyph-name="ocircumflex" unicode="&#xf4;" 
d="M230 788l171 145l170 -145l-53 -57l-117 97l-118 -97zM38 350q0 157 105.5 260.5t257.5 103.5q153 0 258.5 -103.5t105.5 -260.5t-105.5 -260.5t-258.5 -103.5q-152 0 -257.5 103.5t-105.5 260.5zM183 350q0 -100 61 -163.5t157 -63.5q97 0 158 63.5t61 163.5
q0 101 -61 164t-158 63q-96 0 -157 -63t-61 -164z" />
    <glyph glyph-name="otilde" unicode="&#xf5;" 
d="M518 884h109q0 -60 -40 -99t-102 -39q-37 0 -83 30t-66 30t-33 -12.5t-13 -31.5h-108q0 60 40 99.5t102 39.5q31 0 58.5 -15.5t49.5 -30.5t40 -15q20 0 33 12.5t13 31.5zM38 350q0 157 105.5 260.5t257.5 103.5q153 0 258.5 -103.5t105.5 -260.5t-105.5 -260.5
t-258.5 -103.5q-152 0 -257.5 103.5t-105.5 260.5zM183 350q0 -100 61 -163.5t157 -63.5q97 0 158 63.5t61 163.5q0 101 -61 164t-158 63q-96 0 -157 -63t-61 -164z" />
    <glyph glyph-name="odieresis" unicode="&#xf6;" 
d="M272 767q-29 0 -48 18.5t-19 46.5q0 27 19.5 46t47.5 19q27 0 45.5 -19t18.5 -46q0 -28 -18.5 -46.5t-45.5 -18.5zM531 767q-28 0 -46.5 18.5t-18.5 46.5q0 27 18.5 46t46.5 19t47 -19t19 -46q0 -28 -19 -46.5t-47 -18.5zM38 350q0 157 105.5 260.5t257.5 103.5
q153 0 258.5 -103.5t105.5 -260.5t-105.5 -260.5t-258.5 -103.5q-152 0 -257.5 103.5t-105.5 260.5zM183 350q0 -100 61 -163.5t157 -63.5q97 0 158 63.5t61 163.5q0 101 -61 164t-158 63q-96 0 -157 -63t-61 -164z" />
    <glyph glyph-name="divide" unicode="&#xf7;" horiz-adv-x="660" 
d="M329 510q-29 0 -49 20.5t-20 49.5q0 28 20.5 48t48.5 20t48.5 -20t20.5 -48q0 -29 -20 -49.5t-49 -20.5zM83 412h494v-114h-494v114zM329 62q-29 0 -49 20.5t-20 49.5q0 28 20.5 48t48.5 20t48.5 -20t20.5 -48q0 -29 -20 -49.5t-49 -20.5z" />
    <glyph glyph-name="oslash" unicode="&#xf8;" 
d="M706 646l-36 -47q95 -103 95 -249q0 -157 -105.5 -260.5t-258.5 -103.5q-90 0 -168 39l-39 -50l-99 75l38 50q-95 103 -95 250q0 157 105.5 260.5t257.5 103.5q91 0 171 -41l36 47zM221 215l266 347q-39 15 -86 15q-96 0 -157 -63t-61 -164q0 -76 38 -135zM583 484
l-265 -346q37 -15 83 -15q97 0 158 63.5t61 163.5q0 78 -37 134z" />
    <glyph glyph-name="ugrave" unicode="&#xf9;" horiz-adv-x="752" 
d="M428 731l-238 103l48 95l231 -124zM544 700h140v-396q0 -151 -83.5 -234.5t-224.5 -83.5q-142 0 -225 83.5t-83 234.5v396h140v-401q0 -85 44 -134t124 -49t124 49t44 134v401z" />
    <glyph glyph-name="uacute" unicode="&#xfa;" horiz-adv-x="752" 
d="M489 929l48 -95l-238 -103l-40 74zM544 700h140v-396q0 -151 -83.5 -234.5t-224.5 -83.5q-142 0 -225 83.5t-83 234.5v396h140v-401q0 -85 44 -134t124 -49t124 49t44 134v401z" />
    <glyph glyph-name="ucircumflex" unicode="&#xfb;" horiz-adv-x="752" 
d="M200 788l171 145l170 -145l-53 -57l-117 97l-118 -97zM544 700h140v-396q0 -151 -83.5 -234.5t-224.5 -83.5q-142 0 -225 83.5t-83 234.5v396h140v-401q0 -85 44 -134t124 -49t124 49t44 134v401z" />
    <glyph glyph-name="udieresis" unicode="&#xfc;" horiz-adv-x="752" 
d="M242 767q-29 0 -48 18.5t-19 46.5q0 27 19.5 46t47.5 19q27 0 45.5 -19t18.5 -46q0 -28 -18.5 -46.5t-45.5 -18.5zM501 767q-28 0 -46.5 18.5t-18.5 46.5q0 27 18.5 46t46.5 19t47 -19t19 -46q0 -28 -19 -46.5t-47 -18.5zM544 700h140v-396q0 -151 -83.5 -234.5
t-224.5 -83.5q-142 0 -225 83.5t-83 234.5v396h140v-401q0 -85 44 -134t124 -49t124 49t44 134v401z" />
    <glyph glyph-name="yacute" unicode="&#xfd;" horiz-adv-x="706" 
d="M467 929l48 -95l-238 -103l-40 74zM533 700h169l-279 -387v-313h-140v313l-279 387h170l166 -230l13 -25l13 25z" />
    <glyph glyph-name="thorn" unicode="&#xfe;" horiz-adv-x="636" 
d="M222 585h118q117 0 189 -66t72 -169q0 -102 -72 -167.5t-189 -65.5h-118v-117h-139v700h139v-115zM222 247h121q53 0 83 28.5t30 74.5t-30 75t-83 29h-121v-207z" />
    <glyph glyph-name="ydieresis" unicode="&#xff;" horiz-adv-x="706" 
d="M220 767q-29 0 -48 18.5t-19 46.5q0 27 19.5 46t47.5 19q27 0 45.5 -19t18.5 -46q0 -28 -18.5 -46.5t-45.5 -18.5zM479 767q-28 0 -46.5 18.5t-18.5 46.5q0 27 18.5 46t46.5 19t47 -19t19 -46q0 -28 -19 -46.5t-47 -18.5zM533 700h169l-279 -387v-313h-140v313l-279 387
h170l166 -230l13 -25l13 25z" />
    <glyph glyph-name="Amacron" unicode="&#x100;" horiz-adv-x="778" 
d="M545 850v-84h-307v84h307zM619 0l-56 118h-348l-56 -118h-155l337 700h96l337 -700h-155zM276 249h226l-104 220l-9 25l-9 -25z" />
    <glyph glyph-name="amacron" unicode="&#x101;" horiz-adv-x="778" 
d="M545 850v-84h-307v84h307zM619 0l-56 118h-348l-56 -118h-155l337 700h96l337 -700h-155zM276 249h226l-104 220l-9 25l-9 -25z" />
    <glyph glyph-name="Abreve" unicode="&#x102;" horiz-adv-x="778" 
d="M460 866h83q-12 -54 -54.5 -88.5t-96.5 -34.5q-58 0 -100.5 34.5t-53.5 88.5h85q5 -21 24.5 -36t44.5 -15q23 0 43 15t25 36zM619 0l-56 118h-348l-56 -118h-155l337 700h96l337 -700h-155zM276 249h226l-104 220l-9 25l-9 -25z" />
    <glyph glyph-name="abreve" unicode="&#x103;" horiz-adv-x="778" 
d="M460 866h83q-12 -54 -54.5 -88.5t-96.5 -34.5q-58 0 -100.5 34.5t-53.5 88.5h85q5 -21 24.5 -36t44.5 -15q23 0 43 15t25 36zM619 0l-56 118h-348l-56 -118h-155l337 700h96l337 -700h-155zM276 249h226l-104 220l-9 25l-9 -25z" />
    <glyph glyph-name="Aogonek" unicode="&#x104;" horiz-adv-x="778" 
d="M734 -99l72 -48q-24 -45 -69 -71.5t-94 -26.5q-77 0 -125.5 42t-48.5 113q0 60 41 102t82 46l-29 60h-348l-56 -118h-155l337 700h96l337 -700h-86q-46 0 -81.5 -23t-35.5 -67q0 -28 20.5 -48t54.5 -20q25 0 50 16.5t38 42.5zM276 249h226l-104 220l-9 25l-9 -25z" />
    <glyph glyph-name="aogonek" unicode="&#x105;" horiz-adv-x="778" 
d="M734 -99l72 -48q-24 -45 -69 -71.5t-94 -26.5q-77 0 -125.5 42t-48.5 113q0 60 41 102t82 46l-29 60h-348l-56 -118h-155l337 700h96l337 -700h-86q-46 0 -81.5 -23t-35.5 -67q0 -28 20.5 -48t54.5 -20q25 0 50 16.5t38 42.5zM276 249h226l-104 220l-9 25l-9 -25z" />
    <glyph glyph-name="Cacute" unicode="&#x106;" horiz-adv-x="756" 
d="M514 929l48 -95l-238 -103l-40 74zM719 529l-142 -38q-28 39 -76 62.5t-100 23.5q-98 0 -158 -63.5t-60 -163.5q0 -101 61.5 -163t156.5 -62q59 0 110.5 28.5t78.5 74.5l140 -37q-44 -94 -132 -149.5t-197 -55.5q-152 0 -257.5 103.5t-105.5 260.5t105.5 260.5
t257.5 103.5q102 0 186.5 -50t131.5 -135z" />
    <glyph glyph-name="cacute" unicode="&#x107;" horiz-adv-x="756" 
d="M514 929l48 -95l-238 -103l-40 74zM719 529l-142 -38q-28 39 -76 62.5t-100 23.5q-98 0 -158 -63.5t-60 -163.5q0 -101 61.5 -163t156.5 -62q59 0 110.5 28.5t78.5 74.5l140 -37q-44 -94 -132 -149.5t-197 -55.5q-152 0 -257.5 103.5t-105.5 260.5t105.5 260.5
t257.5 103.5q102 0 186.5 -50t131.5 -135z" />
    <glyph glyph-name="Cdotaccent" unicode="&#x10a;" horiz-adv-x="756" 
d="M402 767q-28 0 -47.5 18.5t-19.5 46.5q0 27 19.5 46t47.5 19q27 0 45.5 -19t18.5 -46q0 -28 -18.5 -46.5t-45.5 -18.5zM719 529l-142 -38q-28 39 -76 62.5t-100 23.5q-98 0 -158 -63.5t-60 -163.5q0 -101 61.5 -163t156.5 -62q59 0 110.5 28.5t78.5 74.5l140 -37
q-44 -94 -132 -149.5t-197 -55.5q-152 0 -257.5 103.5t-105.5 260.5t105.5 260.5t257.5 103.5q102 0 186.5 -50t131.5 -135z" />
    <glyph glyph-name="cdotaccent" unicode="&#x10b;" horiz-adv-x="756" 
d="M402 767q-28 0 -47.5 18.5t-19.5 46.5q0 27 19.5 46t47.5 19q27 0 45.5 -19t18.5 -46q0 -28 -18.5 -46.5t-45.5 -18.5zM719 529l-142 -38q-28 39 -76 62.5t-100 23.5q-98 0 -158 -63.5t-60 -163.5q0 -101 61.5 -163t156.5 -62q59 0 110.5 28.5t78.5 74.5l140 -37
q-44 -94 -132 -149.5t-197 -55.5q-152 0 -257.5 103.5t-105.5 260.5t105.5 260.5t257.5 103.5q102 0 186.5 -50t131.5 -135z" />
    <glyph glyph-name="Ccaron" unicode="&#x10c;" horiz-adv-x="756" 
d="M228 875l171 -145l170 145l-53 57l-117 -97l-118 97zM719 529l-142 -38q-28 39 -76 62.5t-100 23.5q-98 0 -158 -63.5t-60 -163.5q0 -101 61.5 -163t156.5 -62q59 0 110.5 28.5t78.5 74.5l140 -37q-44 -94 -132 -149.5t-197 -55.5q-152 0 -257.5 103.5t-105.5 260.5
t105.5 260.5t257.5 103.5q102 0 186.5 -50t131.5 -135z" />
    <glyph glyph-name="ccaron" unicode="&#x10d;" horiz-adv-x="756" 
d="M228 875l171 -145l170 145l-53 57l-117 -97l-118 97zM719 529l-142 -38q-28 39 -76 62.5t-100 23.5q-98 0 -158 -63.5t-60 -163.5q0 -101 61.5 -163t156.5 -62q59 0 110.5 28.5t78.5 74.5l140 -37q-44 -94 -132 -149.5t-197 -55.5q-152 0 -257.5 103.5t-105.5 260.5
t105.5 260.5t257.5 103.5q102 0 186.5 -50t131.5 -135z" />
    <glyph glyph-name="Dcaron" unicode="&#x10e;" horiz-adv-x="785" 
d="M210 875l171 -145l170 145l-53 57l-117 -97l-118 97zM83 700h302q153 0 258 -99t105 -254q0 -154 -104 -250.5t-256 -96.5h-305v700zM222 130h166q90 0 152.5 59t62.5 158t-63.5 161t-154.5 62h-163v-440z" />
    <glyph glyph-name="dcaron" unicode="&#x10f;" horiz-adv-x="785" 
d="M210 875l171 -145l170 145l-53 57l-117 -97l-118 97zM83 700h302q153 0 258 -99t105 -254q0 -154 -104 -250.5t-256 -96.5h-305v700zM222 130h166q90 0 152.5 59t62.5 158t-63.5 161t-154.5 62h-163v-440z" />
    <glyph glyph-name="Dcroat" unicode="&#x110;" horiz-adv-x="796" 
d="M94 700h302q153 0 258 -99t105 -254q0 -154 -104 -250.5t-256 -96.5h-305v292h-56v125h56v283zM233 130h166q90 0 152.5 59t62.5 158t-63.5 161t-154.5 62h-163v-153h131v-125h-131v-162z" />
    <glyph glyph-name="dcroat" unicode="&#x111;" horiz-adv-x="796" 
d="M94 700h302q153 0 258 -99t105 -254q0 -154 -104 -250.5t-256 -96.5h-305v292h-56v125h56v283zM233 130h166q90 0 152.5 59t62.5 158t-63.5 161t-154.5 62h-163v-153h131v-125h-131v-162z" />
    <glyph glyph-name="Emacron" unicode="&#x112;" horiz-adv-x="652" 
d="M501 850v-84h-307v84h307zM222 130h362v-130h-501v700h495v-130h-356v-149h282v-126h-282v-165z" />
    <glyph glyph-name="emacron" unicode="&#x113;" horiz-adv-x="652" 
d="M500 850v-84h-307v84h307zM222 130h362v-130h-501v700h495v-130h-356v-149h282v-126h-282v-165z" />
    <glyph glyph-name="Edotaccent" unicode="&#x116;" horiz-adv-x="652" 
d="M346 767q-28 0 -47.5 18.5t-19.5 46.5q0 27 19.5 46t47.5 19q27 0 45.5 -19t18.5 -46q0 -28 -18.5 -46.5t-45.5 -18.5zM222 130h362v-130h-501v700h495v-130h-356v-149h282v-126h-282v-165z" />
    <glyph glyph-name="edotaccent" unicode="&#x117;" horiz-adv-x="652" 
d="M346 767q-28 0 -47.5 18.5t-19.5 46.5q0 27 19.5 46t47.5 19q27 0 45.5 -19t18.5 -46q0 -28 -18.5 -46.5t-45.5 -18.5zM222 130h362v-130h-501v700h495v-130h-356v-149h282v-126h-282v-165z" />
    <glyph glyph-name="Eogonek" unicode="&#x118;" horiz-adv-x="652" 
d="M515 -99l72 -48q-24 -45 -69 -71.5t-94 -26.5q-77 0 -125.5 42t-48.5 113q0 49 31 90h-198v700h495v-130h-356v-149h282v-126h-282v-165h362v-130h-115q-46 0 -81.5 -23t-35.5 -67q0 -28 20.5 -48t54.5 -20q25 0 50 16.5t38 42.5z" />
    <glyph glyph-name="eogonek" unicode="&#x119;" horiz-adv-x="652" 
d="M526 -99l72 -48q-24 -45 -69 -71.5t-94 -26.5q-77 0 -125.5 42t-48.5 113q0 49 31 90h-209v700h495v-130h-356v-149h282v-126h-282v-165h362v-130h-104q-46 0 -81.5 -23t-35.5 -67q0 -28 20.5 -48t54.5 -20q25 0 50 16.5t38 42.5z" />
    <glyph glyph-name="Ecaron" unicode="&#x11a;" horiz-adv-x="652" 
d="M513 875l-170 -145l-171 145l53 57l118 -97l117 97zM222 130h362v-130h-501v700h495v-130h-356v-149h282v-126h-282v-165z" />
    <glyph glyph-name="ecaron" unicode="&#x11b;" horiz-adv-x="652" 
d="M512 875l-170 -145l-171 145l53 57l118 -97l117 97zM222 130h362v-130h-501v700h495v-130h-356v-149h282v-126h-282v-165z" />
    <glyph glyph-name="Gcircumflex" unicode="&#x11c;" horiz-adv-x="793" 
d="M224 788l171 145l170 -145l-53 -57l-117 97l-118 -97zM613 0v73q-32 -36 -87.5 -61.5t-124.5 -25.5q-152 0 -257.5 103.5t-105.5 260.5t105.5 260.5t257.5 103.5q103 -1 187 -50.5t131 -134.5l-142 -37q-28 39 -76 62t-100 23q-98 0 -158 -63.5t-60 -163.5
q0 -103 63.5 -165.5t162.5 -62.5q82 0 133.5 36t71.5 84v29h-194v114h313v-385h-120z" />
    <glyph glyph-name="gcircumflex" unicode="&#x11d;" horiz-adv-x="793" 
d="M224 788l171 145l170 -145l-53 -57l-117 97l-118 -97zM613 0v73q-32 -36 -87.5 -61.5t-124.5 -25.5q-152 0 -257.5 103.5t-105.5 260.5t105.5 260.5t257.5 103.5q103 -1 187 -50.5t131 -134.5l-142 -37q-28 39 -76 62t-100 23q-98 0 -158 -63.5t-60 -163.5
q0 -103 63.5 -165.5t162.5 -62.5q82 0 133.5 36t71.5 84v29h-194v114h313v-385h-120z" />
    <glyph glyph-name="Gbreve" unicode="&#x11e;" horiz-adv-x="793" 
d="M249 866h85q5 -21 24.5 -36t44.5 -15q23 0 43 15t25 36h83q-12 -54 -54.5 -88.5t-96.5 -34.5q-58 0 -100.5 34.5t-53.5 88.5zM613 0v73q-32 -36 -87.5 -61.5t-124.5 -25.5q-152 0 -257.5 103.5t-105.5 260.5t105.5 260.5t257.5 103.5q103 -1 187 -50.5t131 -134.5
l-142 -37q-28 39 -76 62t-100 23q-98 0 -158 -63.5t-60 -163.5q0 -103 63.5 -165.5t162.5 -62.5q82 0 133.5 36t71.5 84v29h-194v114h313v-385h-120z" />
    <glyph glyph-name="gbreve" unicode="&#x11f;" horiz-adv-x="793" 
d="M249 866h85q5 -21 24.5 -36t44.5 -15q23 0 43 15t25 36h83q-12 -54 -54.5 -88.5t-96.5 -34.5q-58 0 -100.5 34.5t-53.5 88.5zM613 0v73q-32 -36 -87.5 -61.5t-124.5 -25.5q-152 0 -257.5 103.5t-105.5 260.5t105.5 260.5t257.5 103.5q103 -1 187 -50.5t131 -134.5
l-142 -37q-28 39 -76 62t-100 23q-98 0 -158 -63.5t-60 -163.5q0 -103 63.5 -165.5t162.5 -62.5q82 0 133.5 36t71.5 84v29h-194v114h313v-385h-120z" />
    <glyph glyph-name="Gdotaccent" unicode="&#x120;" horiz-adv-x="793" 
d="M401 767q-28 0 -47.5 18.5t-19.5 46.5q0 27 19.5 46t47.5 19q27 0 45.5 -19t18.5 -46q0 -28 -18.5 -46.5t-45.5 -18.5zM613 0v73q-32 -36 -87.5 -61.5t-124.5 -25.5q-152 0 -257.5 103.5t-105.5 260.5t105.5 260.5t257.5 103.5q103 -1 187 -50.5t131 -134.5l-142 -37
q-28 39 -76 62t-100 23q-98 0 -158 -63.5t-60 -163.5q0 -103 63.5 -165.5t162.5 -62.5q82 0 133.5 36t71.5 84v29h-194v114h313v-385h-120z" />
    <glyph glyph-name="gdotaccent" unicode="&#x121;" horiz-adv-x="793" 
d="M401 767q-28 0 -47.5 18.5t-19.5 46.5q0 27 19.5 46t47.5 19q27 0 45.5 -19t18.5 -46q0 -28 -18.5 -46.5t-45.5 -18.5zM613 0v73q-32 -36 -87.5 -61.5t-124.5 -25.5q-152 0 -257.5 103.5t-105.5 260.5t105.5 260.5t257.5 103.5q103 -1 187 -50.5t131 -134.5l-142 -37
q-28 39 -76 62t-100 23q-98 0 -158 -63.5t-60 -163.5q0 -103 63.5 -165.5t162.5 -62.5q82 0 133.5 36t71.5 84v29h-194v114h313v-385h-120z" />
    <glyph glyph-name="Gcommaaccent" unicode="&#x122;" horiz-adv-x="793" 
d="M613 0v73q-32 -36 -87.5 -61.5t-124.5 -25.5q-152 0 -257.5 103.5t-105.5 260.5t105.5 260.5t257.5 103.5q103 -1 187 -50.5t131 -134.5l-142 -37q-28 39 -76 62t-100 23q-98 0 -158 -63.5t-60 -163.5q0 -103 63.5 -165.5t162.5 -62.5q82 0 133.5 36t71.5 84v29h-194v114
h313v-385h-120zM380 -167l13 4l-13 2q-19 3 -34 18.5t-15 39.5q0 27 19 45.5t46 18.5t45 -20.5t18 -52.5q0 -41 -27 -87t-68 -80h-48q23 16 43.5 52t20.5 60z" />
    <glyph glyph-name="gcommaaccent" unicode="&#x123;" horiz-adv-x="793" 
d="M613 0v73q-32 -36 -87.5 -61.5t-124.5 -25.5q-152 0 -257.5 103.5t-105.5 260.5t105.5 260.5t257.5 103.5q103 -1 187 -50.5t131 -134.5l-142 -37q-28 39 -76 62t-100 23q-98 0 -158 -63.5t-60 -163.5q0 -103 63.5 -165.5t162.5 -62.5q82 0 133.5 36t71.5 84v29h-194v114
h313v-385h-120zM380 -167l13 4l-13 2q-19 3 -34 18.5t-15 39.5q0 27 19 45.5t46 18.5t45 -20.5t18 -52.5q0 -41 -27 -87t-68 -80h-48q23 16 43.5 52t20.5 60z" />
    <glyph glyph-name="Hcircumflex" unicode="&#x124;" horiz-adv-x="747" 
d="M370 828l-118 -97l-53 57l171 145l170 -145l-53 -57zM524 700h140v-700h-140v289h-302v-289h-139v700h139v-280h302v280z" />
    <glyph glyph-name="hcircumflex" unicode="&#x125;" horiz-adv-x="747" 
d="M370 828l-118 -97l-53 57l171 145l170 -145l-53 -57zM524 700h140v-700h-140v289h-302v-289h-139v700h139v-280h302v280z" />
    <glyph glyph-name="Hbar" unicode="&#x126;" horiz-adv-x="747" 
d="M733 629v-106h-69v-523h-140v289h-302v-289h-139v523h-69v106h69v71h139v-71h302v71h140v-71h69zM524 420v103h-302v-103h302z" />
    <glyph glyph-name="hbar" unicode="&#x127;" horiz-adv-x="747" 
d="M733 629v-106h-69v-523h-140v289h-302v-289h-139v523h-69v106h69v71h139v-71h302v71h140v-71h69zM524 420v103h-302v-103h302z" />
    <glyph glyph-name="Imacron" unicode="&#x12a;" horiz-adv-x="305" 
d="M4 850h307v-84h-307v84zM222 0h-139v700h139v-700z" />
    <glyph glyph-name="imacron" unicode="&#x12b;" horiz-adv-x="305" 
d="M4 850h307v-84h-307v84zM222 0h-139v700h139v-700z" />
    <glyph glyph-name="Iogonek" unicode="&#x12e;" horiz-adv-x="305" 
d="M224 -99l72 -48q-24 -45 -69 -71.5t-94 -26.5q-77 0 -125.5 42t-48.5 113q0 60 41.5 102t82.5 46v642h139v-700h-44q-46 0 -81.5 -23t-35.5 -67q0 -28 20.5 -48t54.5 -20q25 0 50 16.5t38 42.5z" />
    <glyph glyph-name="iogonek" unicode="&#x12f;" horiz-adv-x="305" 
d="M224 -99l72 -48q-24 -45 -69 -71.5t-94 -26.5q-77 0 -125.5 42t-48.5 113q0 60 41.5 102t82.5 46v642h139v-700h-44q-46 0 -81.5 -23t-35.5 -67q0 -28 20.5 -48t54.5 -20q25 0 50 16.5t38 42.5z" />
    <glyph glyph-name="Idotaccent" unicode="&#x130;" horiz-adv-x="305" 
d="M156 767q-28 0 -47.5 18.5t-19.5 46.5q0 27 19.5 46t47.5 19q27 0 45.5 -19t18.5 -46q0 -28 -18.5 -46.5t-45.5 -18.5zM222 0h-139v700h139v-700z" />
    <glyph glyph-name="dotlessi" unicode="&#x131;" horiz-adv-x="305" 
d="M222 0h-139v700h139v-700z" />
    <glyph glyph-name="IJ" unicode="&#x132;" horiz-adv-x="977" 
d="M222 0h-139v700h139v-700zM768 700h140v-396q0 -151 -83.5 -234.5t-224.5 -83.5q-100 0 -177.5 51.5t-107.5 132.5l137 37q18 -43 57 -67t91 -24q80 0 124 48.5t44 134.5v401z" />
    <glyph glyph-name="ij" unicode="&#x133;" horiz-adv-x="977" 
d="M222 0h-139v700h139v-700zM768 700h140v-396q0 -151 -83.5 -234.5t-224.5 -83.5q-100 0 -177.5 51.5t-107.5 132.5l137 37q18 -43 57 -67t91 -24q80 0 124 48.5t44 134.5v401z" />
    <glyph glyph-name="Jcircumflex" unicode="&#x134;" horiz-adv-x="671" 
d="M384 788l171 145l170 -145l-53 -57l-117 97l-118 -97zM463 700h140v-396q0 -151 -83.5 -234.5t-224.5 -83.5q-100 0 -177.5 51.5t-107.5 132.5l137 37q18 -43 57 -67t91 -24q80 0 124 48.5t44 134.5v401z" />
    <glyph glyph-name="jcircumflex" unicode="&#x135;" horiz-adv-x="671" 
d="M384 788l171 145l170 -145l-53 -57l-117 97l-118 -97zM463 700h140v-396q0 -151 -83.5 -234.5t-224.5 -83.5q-100 0 -177.5 51.5t-107.5 132.5l137 37q18 -43 57 -67t91 -24q80 0 124 48.5t44 134.5v401z" />
    <glyph glyph-name="Kcommaaccent" unicode="&#x136;" horiz-adv-x="719" 
d="M523 700h162l-289 -290l314 -410h-175l-237 312l-76 -76v-236h-139v700h139v-299zM346 -167l13 4l-13 2q-19 3 -34 18.5t-15 39.5q0 27 19 45.5t46 18.5t45 -20.5t18 -52.5q0 -41 -27 -87t-68 -80h-48q23 16 43.5 52t20.5 60z" />
    <glyph glyph-name="kcommaaccent" unicode="&#x137;" horiz-adv-x="719" 
d="M523 700h162l-289 -290l314 -410h-175l-237 312l-76 -76v-236h-139v700h139v-299zM347 -167l13 4l-13 2q-19 3 -34 18.5t-15 39.5q0 27 19 45.5t46 18.5t45 -20.5t18 -52.5q0 -41 -27 -87t-68 -80h-48q23 16 43.5 52t20.5 60z" />
    <glyph glyph-name="Lacute" unicode="&#x139;" horiz-adv-x="588" 
d="M325 834l-238 -103l-40 74l230 124zM222 130h346v-130h-485v700h139v-570z" />
    <glyph glyph-name="lacute" unicode="&#x13a;" horiz-adv-x="588" 
d="M325 834l-238 -103l-40 74l230 124zM222 130h346v-130h-485v700h139v-570z" />
    <glyph glyph-name="Lcommaaccent" unicode="&#x13b;" horiz-adv-x="588" 
d="M222 130h346v-130h-485v700h139v-570zM328 -163l-13 2q-19 3 -34 18.5t-15 39.5q0 27 19 45.5t46 18.5t45 -20.5t18 -52.5q0 -41 -27 -87t-68 -80h-48q23 16 43.5 52t20.5 60z" />
    <glyph glyph-name="lcommaaccent" unicode="&#x13c;" horiz-adv-x="588" 
d="M222 130h346v-130h-485v700h139v-570zM283 -163l-13 2q-19 3 -34 18.5t-15 39.5q0 27 19 45.5t46 18.5t45 -20.5t18 -52.5q0 -41 -27 -87t-68 -80h-48q23 16 43.5 52t20.5 60z" />
    <glyph glyph-name="Lcaron" unicode="&#x13d;" horiz-adv-x="588" 
d="M358 581l-14 2q-20 3 -36.5 20t-16.5 43q0 28 20.5 48t49.5 20t48.5 -21.5t19.5 -56.5q0 -45 -29.5 -94.5t-72.5 -85.5h-52q25 18 47 56.5t22 64.5zM222 130h346v-130h-485v700h139v-570z" />
    <glyph glyph-name="lcaron" unicode="&#x13e;" horiz-adv-x="588" 
d="M374 581l-14 2q-20 3 -36.5 20t-16.5 43q0 28 20.5 48t49.5 20t48.5 -21.5t19.5 -56.5q0 -45 -29.5 -94.5t-72.5 -85.5h-52q25 18 47 56.5t22 64.5zM222 130h346v-130h-485v700h139v-570z" />
    <glyph glyph-name="Ldot" unicode="&#x13f;" horiz-adv-x="588" 
d="M222 130h346v-130h-485v700h139v-570zM414 322q-28 0 -47.5 18.5t-19.5 46.5q0 27 19.5 46t47.5 19q27 0 45.5 -19t18.5 -46q0 -28 -18.5 -46.5t-45.5 -18.5z" />
    <glyph glyph-name="ldot" unicode="&#x140;" horiz-adv-x="588" 
d="M222 130h346v-130h-485v700h139v-570zM414 322q-28 0 -47.5 18.5t-19.5 46.5q0 27 19.5 46t47.5 19q27 0 45.5 -19t18.5 -46q0 -28 -18.5 -46.5t-45.5 -18.5z" />
    <glyph glyph-name="Lslash" unicode="&#x141;" horiz-adv-x="588" 
d="M222 130h346v-130h-485v700h139v-279l272 138v-132l-272 -137v-160z" />
    <glyph glyph-name="lslash" unicode="&#x142;" horiz-adv-x="588" 
d="M222 130h346v-130h-485v700h139v-279l272 138v-132l-272 -137v-160z" />
    <glyph glyph-name="Nacute" unicode="&#x143;" horiz-adv-x="783" 
d="M509 929l48 -95l-238 -103l-40 74zM557 700h140v-700h-131l-328 428l-14 24l2 -27v-425h-140v700h131l328 -423l14 -25l-2 27v421z" />
    <glyph glyph-name="nacute" unicode="&#x144;" horiz-adv-x="776" 
d="M503 929l48 -95l-238 -103l-40 74zM557 700h140v-700h-131l-328 428l-14 24l2 -27v-425h-140v700h131l328 -423l14 -25l-2 27v421z" />
    <glyph glyph-name="Ncommaaccent" unicode="&#x145;" horiz-adv-x="783" 
d="M557 700h140v-700h-131l-328 428l-14 24l2 -27v-425h-140v700h131l328 -423l14 -25l-2 27v421zM381 -167l13 4l-13 2q-19 3 -34 18.5t-15 39.5q0 27 19 45.5t46 18.5t45 -20.5t18 -52.5q0 -41 -27 -87t-68 -80h-48q23 16 43.5 52t20.5 60z" />
    <glyph glyph-name="ncommaaccent" unicode="&#x146;" horiz-adv-x="776" 
d="M557 700h140v-700h-131l-328 428l-14 24l2 -27v-425h-140v700h131l328 -423l14 -25l-2 27v421zM378 -167l13 4l-13 2q-19 3 -34 18.5t-15 39.5q0 27 19 45.5t46 18.5t45 -20.5t18 -52.5q0 -41 -27 -87t-68 -80h-48q23 16 43.5 52t20.5 60z" />
    <glyph glyph-name="Ncaron" unicode="&#x147;" horiz-adv-x="783" 
d="M223 875l171 -145l170 145l-53 57l-117 -97l-118 97zM557 700h140v-700h-131l-328 428l-14 24l2 -27v-425h-140v700h131l328 -423l14 -25l-2 27v421z" />
    <glyph glyph-name="ncaron" unicode="&#x148;" horiz-adv-x="776" 
d="M217 875l171 -145l170 145l-53 57l-117 -97l-118 97zM557 700h140v-700h-131l-328 428l-14 24l2 -27v-425h-140v700h131l328 -423l14 -25l-2 27v421z" />
    <glyph glyph-name="Eng" unicode="&#x14a;" horiz-adv-x="776" 
d="M554 700h140v-700q0 -101 -62.5 -167t-157.5 -66h-41v112h30q45 0 68 32.5t23 88.5h9l-328 428l-14 24l2 -27v-425h-140v700h131l328 -423l14 -25l-2 27v421z" />
    <glyph glyph-name="eng" unicode="&#x14b;" horiz-adv-x="776" 
d="M554 700h140v-700q0 -101 -62.5 -167t-157.5 -66h-41v112h30q45 0 68 32.5t23 88.5h9l-328 428l-14 24l2 -27v-425h-140v700h131l328 -423l14 -25l-2 27v421z" />
    <glyph glyph-name="Omacron" unicode="&#x14c;" 
d="M257 850h307v-84h-307v84zM38 350q0 157 105.5 260.5t257.5 103.5q153 0 258.5 -103.5t105.5 -260.5t-105.5 -260.5t-258.5 -103.5q-152 0 -257.5 103.5t-105.5 260.5zM183 350q0 -100 61 -163.5t157 -63.5q97 0 158 63.5t61 163.5q0 101 -61 164t-158 63q-96 0 -157 -63
t-61 -164z" />
    <glyph glyph-name="omacron" unicode="&#x14d;" 
d="M255 850h307v-84h-307v84zM38 350q0 157 105.5 260.5t257.5 103.5q153 0 258.5 -103.5t105.5 -260.5t-105.5 -260.5t-258.5 -103.5q-152 0 -257.5 103.5t-105.5 260.5zM183 350q0 -100 61 -163.5t157 -63.5q97 0 158 63.5t61 163.5q0 101 -61 164t-158 63q-96 0 -157 -63
t-61 -164z" />
    <glyph glyph-name="Ohungarumlaut" unicode="&#x150;" 
d="M383 797l-152 -66l-40 74l230 124l40 -79l147 79l48 -95l-238 -103zM401 714q153 0 258.5 -103.5t105.5 -260.5t-105.5 -260.5t-258.5 -103.5q-152 0 -257.5 103.5t-105.5 260.5t105.5 260.5t257.5 103.5zM401 123q97 0 158 63.5t61 163.5q0 101 -61 164t-158 63
q-96 0 -157 -63t-61 -164q0 -100 61 -163.5t157 -63.5z" />
    <glyph glyph-name="ohungarumlaut" unicode="&#x151;" 
d="M381 797l-152 -66l-40 74l230 124l40 -79l147 79l48 -95l-238 -103zM401 714q153 0 258.5 -103.5t105.5 -260.5t-105.5 -260.5t-258.5 -103.5q-152 0 -257.5 103.5t-105.5 260.5t105.5 260.5t257.5 103.5zM401 123q97 0 158 63.5t61 163.5q0 101 -61 164t-158 63
q-96 0 -157 -63t-61 -164q0 -100 61 -163.5t157 -63.5z" />
    <glyph glyph-name="OE" unicode="&#x152;" horiz-adv-x="1062" 
d="M526 0v19q-69 -23 -127 -23q-153 0 -257 99.5t-104 254.5t104 254.5t257 99.5q56 0 127 -22v18h463v-130h-324v-149h281v-126h-281v-165h330v-130h-469zM526 169v363q-57 43 -127 43q-92 0 -154 -62t-62 -163q0 -100 62 -161.5t154 -61.5q71 0 127 42z" />
    <glyph glyph-name="oe" unicode="&#x153;" horiz-adv-x="1062" 
d="M526 0v19q-69 -23 -127 -23q-153 0 -257 99.5t-104 254.5t104 254.5t257 99.5q56 0 127 -22v18h463v-130h-324v-149h281v-126h-281v-165h330v-130h-469zM526 169v363q-57 43 -127 43q-92 0 -154 -62t-62 -163q0 -100 62 -161.5t154 -61.5q71 0 127 42z" />
    <glyph glyph-name="Racute" unicode="&#x154;" horiz-adv-x="669" 
d="M482 834l-238 -103l-40 74l230 124zM634 0h-154l-148 239h-4h-106v-239h-139v700h245q128 0 202 -62t74 -168q0 -72 -35 -125t-99 -80zM222 570v-201h124q56 0 84.5 28.5t28.5 72.5q0 43 -29.5 71.5t-83.5 28.5h-124z" />
    <glyph glyph-name="racute" unicode="&#x155;" horiz-adv-x="669" 
d="M489 834l-238 -103l-40 74l230 124zM634 0h-154l-148 239h-4h-106v-239h-139v700h245q128 0 202 -62t74 -168q0 -72 -35 -125t-99 -80zM222 570v-201h124q56 0 84.5 28.5t28.5 72.5q0 43 -29.5 71.5t-83.5 28.5h-124z" />
    <glyph glyph-name="Rcommaaccent" unicode="&#x156;" horiz-adv-x="669" 
d="M470 265l164 -265h-154l-148 239h-4h-106v-239h-139v700h245q128 0 202 -62t74 -168q0 -72 -35 -125t-99 -80zM222 570v-201h124q56 0 84.5 28.5t28.5 72.5q0 43 -29.5 71.5t-83.5 28.5h-124zM331 -163l-13 2q-19 3 -34 18.5t-15 39.5q0 27 19 45.5t46 18.5t45 -20.5
t18 -52.5q0 -41 -27 -87t-68 -80h-48q23 16 43.5 52t20.5 60z" />
    <glyph glyph-name="rcommaaccent" unicode="&#x157;" horiz-adv-x="669" 
d="M470 265l164 -265h-154l-148 239h-4h-106v-239h-139v700h245q128 0 202 -62t74 -168q0 -72 -35 -125t-99 -80zM222 570v-201h124q56 0 84.5 28.5t28.5 72.5q0 43 -29.5 71.5t-83.5 28.5h-124zM343 -163l-13 2q-19 3 -34 18.5t-15 39.5q0 27 19 45.5t46 18.5t45 -20.5
t18 -52.5q0 -41 -27 -87t-68 -80h-48q23 16 43.5 52t20.5 60z" />
    <glyph glyph-name="Rcaron" unicode="&#x158;" horiz-adv-x="669" 
d="M489 875l-170 -145l-171 145l53 57l118 -97l117 97zM634 0h-154l-148 239h-4h-106v-239h-139v700h245q128 0 202 -62t74 -168q0 -72 -35 -125t-99 -80zM222 570v-201h124q56 0 84.5 28.5t28.5 72.5q0 43 -29.5 71.5t-83.5 28.5h-124z" />
    <glyph glyph-name="rcaron" unicode="&#x159;" horiz-adv-x="669" 
d="M489 875l-170 -145l-171 145l53 57l118 -97l117 97zM634 0h-154l-148 239h-4h-106v-239h-139v700h245q128 0 202 -62t74 -168q0 -72 -35 -125t-99 -80zM222 570v-201h124q56 0 84.5 28.5t28.5 72.5q0 43 -29.5 71.5t-83.5 28.5h-124z" />
    <glyph glyph-name="Sacute" unicode="&#x15a;" horiz-adv-x="608" 
d="M432 929l48 -95l-238 -103l-40 74zM571 524l-134 -37q-12 51 -49.5 78.5t-86.5 27.5t-78.5 -20t-29.5 -55q0 -39 68 -68q18 -8 99 -35q41 -14 63 -23t56.5 -28.5t53 -39.5t32.5 -52.5t14 -71.5q0 -94 -74.5 -154t-193.5 -60q-108 0 -182.5 56.5t-103.5 153.5l136 37
q11 -51 54.5 -86t105.5 -35q51 0 82 23t31 58q0 14 -5 26t-17 22t-24 17.5t-33 16.5t-36 14t-41.5 14.5t-41.5 14.5q-40 14 -66 26.5t-57 35t-47 56t-16 76.5q0 83 73.5 142.5t182.5 59.5q97 0 169.5 -53t95.5 -137z" />
    <glyph glyph-name="sacute" unicode="&#x15b;" horiz-adv-x="608" 
d="M443 929l48 -95l-238 -103l-40 74zM571 524l-134 -37q-12 51 -49.5 78.5t-86.5 27.5t-78.5 -20t-29.5 -55q0 -39 68 -68q18 -8 99 -35q41 -14 63 -23t56.5 -28.5t53 -39.5t32.5 -52.5t14 -71.5q0 -94 -74.5 -154t-193.5 -60q-108 0 -182.5 56.5t-103.5 153.5l136 37
q11 -51 54.5 -86t105.5 -35q51 0 82 23t31 58q0 14 -5 26t-17 22t-24 17.5t-33 16.5t-36 14t-41.5 14.5t-41.5 14.5q-40 14 -66 26.5t-57 35t-47 56t-16 76.5q0 83 73.5 142.5t182.5 59.5q97 0 169.5 -53t95.5 -137z" />
    <glyph glyph-name="Scircumflex" unicode="&#x15c;" horiz-adv-x="608" 
d="M143 788l171 145l170 -145l-53 -57l-117 97l-118 -97zM571 524l-134 -37q-12 51 -49.5 78.5t-86.5 27.5t-78.5 -20t-29.5 -55q0 -39 68 -68q18 -8 99 -35q41 -14 63 -23t56.5 -28.5t53 -39.5t32.5 -52.5t14 -71.5q0 -94 -74.5 -154t-193.5 -60q-108 0 -182.5 56.5
t-103.5 153.5l136 37q11 -51 54.5 -86t105.5 -35q51 0 82 23t31 58q0 14 -5 26t-17 22t-24 17.5t-33 16.5t-36 14t-41.5 14.5t-41.5 14.5q-40 14 -66 26.5t-57 35t-47 56t-16 76.5q0 83 73.5 142.5t182.5 59.5q97 0 169.5 -53t95.5 -137z" />
    <glyph glyph-name="scircumflex" unicode="&#x15d;" horiz-adv-x="608" 
d="M143 788l171 145l170 -145l-53 -57l-117 97l-118 -97zM571 524l-134 -37q-12 51 -49.5 78.5t-86.5 27.5t-78.5 -20t-29.5 -55q0 -39 68 -68q18 -8 99 -35q41 -14 63 -23t56.5 -28.5t53 -39.5t32.5 -52.5t14 -71.5q0 -94 -74.5 -154t-193.5 -60q-108 0 -182.5 56.5
t-103.5 153.5l136 37q11 -51 54.5 -86t105.5 -35q51 0 82 23t31 58q0 14 -5 26t-17 22t-24 17.5t-33 16.5t-36 14t-41.5 14.5t-41.5 14.5q-40 14 -66 26.5t-57 35t-47 56t-16 76.5q0 83 73.5 142.5t182.5 59.5q97 0 169.5 -53t95.5 -137z" />
    <glyph glyph-name="Scedilla" unicode="&#x15e;" horiz-adv-x="608" 
d="M571 524l-134 -37q-12 51 -49.5 78.5t-86.5 27.5t-78.5 -20t-29.5 -55q0 -39 68 -68q18 -8 99 -35q41 -14 63 -23t56.5 -28.5t53 -39.5t32.5 -52.5t14 -71.5q0 -82 -56.5 -138.5t-152.5 -71.5l-17 -44q44 1 76 -27.5t32 -74.5q0 -52 -33 -78.5t-83 -26.5h-107l29 74h78
q38 0 38 31q0 29 -38 31h-92l38 112q-100 5 -169 61t-97 148l136 37q11 -51 54.5 -86t105.5 -35q51 0 82 23t31 58q0 14 -5 26t-17 22t-24 17.5t-33 16.5t-36 14t-41.5 14.5t-41.5 14.5q-40 14 -66 26.5t-57 35t-47 56t-16 76.5q0 83 73.5 142.5t182.5 59.5q97 0 169.5 -53
t95.5 -137z" />
    <glyph glyph-name="scedilla" unicode="&#x15f;" horiz-adv-x="608" 
d="M571 524l-134 -37q-12 51 -49.5 78.5t-86.5 27.5t-78.5 -20t-29.5 -55q0 -39 68 -68q18 -8 99 -35q41 -14 63 -23t56.5 -28.5t53 -39.5t32.5 -52.5t14 -71.5q0 -79 -54 -135.5t-146 -72.5l-18 -46q44 1 76 -27.5t32 -74.5q0 -52 -33 -78.5t-83 -26.5h-107l29 74h78
q38 0 38 31q0 29 -38 31h-92l38 111q-103 3 -174.5 59t-99.5 151l136 37q11 -51 54.5 -86t105.5 -35q51 0 82 23t31 58q0 14 -5 26t-17 22t-24 17.5t-33 16.5t-36 14t-41.5 14.5t-41.5 14.5q-40 14 -66 26.5t-57 35t-47 56t-16 76.5q0 83 73.5 142.5t182.5 59.5
q97 0 169.5 -53t95.5 -137z" />
    <glyph glyph-name="Scaron" unicode="&#x160;" horiz-adv-x="608" 
d="M146 875l171 -145l170 145l-53 57l-117 -97l-118 97zM571 524l-134 -37q-12 51 -49.5 78.5t-86.5 27.5t-78.5 -20t-29.5 -55q0 -39 68 -68q18 -8 99 -35q41 -14 63 -23t56.5 -28.5t53 -39.5t32.5 -52.5t14 -71.5q0 -94 -74.5 -154t-193.5 -60q-108 0 -182.5 56.5
t-103.5 153.5l136 37q11 -51 54.5 -86t105.5 -35q51 0 82 23t31 58q0 14 -5 26t-17 22t-24 17.5t-33 16.5t-36 14t-41.5 14.5t-41.5 14.5q-40 14 -66 26.5t-57 35t-47 56t-16 76.5q0 83 73.5 142.5t182.5 59.5q97 0 169.5 -53t95.5 -137z" />
    <glyph glyph-name="scaron" unicode="&#x161;" horiz-adv-x="608" 
d="M157 875l171 -145l170 145l-53 57l-117 -97l-118 97zM571 524l-134 -37q-12 51 -49.5 78.5t-86.5 27.5t-78.5 -20t-29.5 -55q0 -39 68 -68q18 -8 99 -35q41 -14 63 -23t56.5 -28.5t53 -39.5t32.5 -52.5t14 -71.5q0 -94 -74.5 -154t-193.5 -60q-108 0 -182.5 56.5
t-103.5 153.5l136 37q11 -51 54.5 -86t105.5 -35q51 0 82 23t31 58q0 14 -5 26t-17 22t-24 17.5t-33 16.5t-36 14t-41.5 14.5t-41.5 14.5q-40 14 -66 26.5t-57 35t-47 56t-16 76.5q0 83 73.5 142.5t182.5 59.5q97 0 169.5 -53t95.5 -137z" />
    <glyph glyph-name="Tcedilla" unicode="&#x162;" horiz-adv-x="605" 
d="M371 0h-32l-21 -54q44 1 76 -27.5t32 -74.5q0 -52 -33 -78.5t-83 -26.5h-107l29 74h78q38 0 38 31q0 29 -38 31h-92l43 125h-29v570h-218v130h577v-130h-220v-570z" />
    <glyph glyph-name="tcedilla" unicode="&#x163;" horiz-adv-x="605" 
d="M371 0h-32l-21 -54q44 1 76 -27.5t32 -74.5q0 -52 -33 -78.5t-83 -26.5h-107l29 74h78q38 0 38 31q0 29 -38 31h-92l43 125h-29v570h-218v130h577v-130h-220v-570z" />
    <glyph glyph-name="Tcaron" unicode="&#x164;" horiz-adv-x="605" 
d="M486 875l-170 -145l-171 145l53 57l118 -97l117 97zM14 700h577v-130h-220v-570h-139v570h-218v130z" />
    <glyph glyph-name="tcaron" unicode="&#x165;" horiz-adv-x="605" 
d="M486 875l-170 -145l-171 145l53 57l118 -97l117 97zM14 700h577v-130h-220v-570h-139v570h-218v130z" />
    <glyph glyph-name="Tbar" unicode="&#x166;" horiz-adv-x="605" 
d="M591 570h-220v-150h110v-107h-110v-313h-139v313h-108v107h108v150h-218v130h577v-130z" />
    <glyph glyph-name="tbar" unicode="&#x167;" horiz-adv-x="605" 
d="M591 570h-220v-150h110v-107h-110v-313h-139v313h-108v107h108v150h-218v130h577v-130z" />
    <glyph glyph-name="Umacron" unicode="&#x16a;" horiz-adv-x="752" 
d="M225 850h307v-84h-307v84zM544 700h140v-396q0 -151 -83.5 -234.5t-224.5 -83.5q-142 0 -225 83.5t-83 234.5v396h140v-401q0 -85 44 -134t124 -49t124 49t44 134v401z" />
    <glyph glyph-name="umacron" unicode="&#x16b;" horiz-adv-x="752" 
d="M225 850h307v-84h-307v84zM544 700h140v-396q0 -151 -83.5 -234.5t-224.5 -83.5q-142 0 -225 83.5t-83 234.5v396h140v-401q0 -85 44 -134t124 -49t124 49t44 134v401z" />
    <glyph glyph-name="Ubreve" unicode="&#x16c;" horiz-adv-x="752" 
d="M225 866h85q5 -21 24.5 -36t44.5 -15q23 0 43 15t25 36h83q-12 -54 -54.5 -88.5t-96.5 -34.5q-58 0 -100.5 34.5t-53.5 88.5zM544 700h140v-396q0 -151 -83.5 -234.5t-224.5 -83.5q-142 0 -225 83.5t-83 234.5v396h140v-401q0 -85 44 -134t124 -49t124 49t44 134v401z
" />
    <glyph glyph-name="ubreve" unicode="&#x16d;" horiz-adv-x="752" 
d="M225 866h85q5 -21 24.5 -36t44.5 -15q23 0 43 15t25 36h83q-12 -54 -54.5 -88.5t-96.5 -34.5q-58 0 -100.5 34.5t-53.5 88.5zM544 700h140v-396q0 -151 -83.5 -234.5t-224.5 -83.5q-142 0 -225 83.5t-83 234.5v396h140v-401q0 -85 44 -134t124 -49t124 49t44 134v401z
" />
    <glyph glyph-name="Uring" unicode="&#x16e;" horiz-adv-x="752" 
d="M375 660q-51 0 -87.5 36t-36.5 87q0 50 36.5 86t87.5 36t87 -36t36 -86q0 -51 -36 -87t-87 -36zM375 733q21 0 36.5 15t15.5 35q0 22 -15 37t-37 15q-21 0 -35.5 -15t-14.5 -37q0 -20 15 -35t35 -15zM544 700h140v-396q0 -151 -83.5 -234.5t-224.5 -83.5
q-142 0 -225 83.5t-83 234.5v396h140v-401q0 -85 44 -134t124 -49t124 49t44 134v401z" />
    <glyph glyph-name="uring" unicode="&#x16f;" horiz-adv-x="752" 
d="M375 660q-51 0 -87.5 36t-36.5 87q0 50 36.5 86t87.5 36t87 -36t36 -86q0 -51 -36 -87t-87 -36zM375 733q21 0 36.5 15t15.5 35q0 22 -15 37t-37 15q-21 0 -35.5 -15t-14.5 -37q0 -20 15 -35t35 -15zM544 700h140v-396q0 -151 -83.5 -234.5t-224.5 -83.5
q-142 0 -225 83.5t-83 234.5v396h140v-401q0 -85 44 -134t124 -49t124 49t44 134v401z" />
    <glyph glyph-name="Uhungarumlaut" unicode="&#x170;" horiz-adv-x="752" 
d="M351 797l-152 -66l-40 74l230 124l40 -79l147 79l48 -95l-238 -103zM544 700h140v-396q0 -151 -83.5 -234.5t-224.5 -83.5q-142 0 -225 83.5t-83 234.5v396h140v-401q0 -85 44 -134t124 -49t124 49t44 134v401z" />
    <glyph glyph-name="uhungarumlaut" unicode="&#x171;" horiz-adv-x="752" 
d="M351 797l-152 -66l-40 74l230 124l40 -79l147 79l48 -95l-238 -103zM544 700h140v-396q0 -151 -83.5 -234.5t-224.5 -83.5q-142 0 -225 83.5t-83 234.5v396h140v-401q0 -85 44 -134t124 -49t124 49t44 134v401z" />
    <glyph glyph-name="Uogonek" unicode="&#x172;" horiz-adv-x="752" 
d="M684 700v-396q0 -120 -54.5 -198.5t-150.5 -106.5q-85 -34 -85 -93q0 -27 18.5 -45.5t49.5 -18.5q25 0 49.5 18t37.5 44l71 -47q-21 -44 -65.5 -73t-92.5 -29q-70 0 -117.5 38.5t-47.5 101.5q0 55 44 92q-127 11 -200 93.5t-73 223.5v396h140v-401q0 -85 44 -134t124 -49
t124 49t44 134v401h140z" />
    <glyph glyph-name="uogonek" unicode="&#x173;" horiz-adv-x="752" 
d="M684 700v-396q0 -120 -54.5 -198.5t-150.5 -106.5q-85 -34 -85 -93q0 -27 18.5 -45.5t49.5 -18.5q25 0 49.5 18t37.5 44l71 -47q-21 -44 -65.5 -73t-92.5 -29q-70 0 -117.5 38.5t-47.5 101.5q0 55 44 92q-127 11 -200 93.5t-73 223.5v396h140v-401q0 -85 44 -134t124 -49
t124 49t44 134v401h140z" />
    <glyph glyph-name="Wcircumflex" unicode="&#x174;" horiz-adv-x="1017" 
d="M333 788l171 145l170 -145l-53 -57l-117 97l-118 -97zM864 700h149l-281 -700h-97l-116 317l-11 36l-10 -36l-116 -317h-97l-281 700h149l172 -425l8 -30l8 30l129 339h76l130 -339l8 -29l8 29z" />
    <glyph glyph-name="wcircumflex" unicode="&#x175;" horiz-adv-x="1017" 
d="M333 788l171 145l170 -145l-53 -57l-117 97l-118 -97zM864 700h149l-281 -700h-97l-116 317l-11 36l-10 -36l-116 -317h-97l-281 700h149l172 -425l8 -30l8 30l129 339h76l130 -339l8 -29l8 29z" />
    <glyph glyph-name="Ycircumflex" unicode="&#x176;" horiz-adv-x="706" 
d="M178 788l171 145l170 -145l-53 -57l-117 97l-118 -97zM533 700h169l-279 -387v-313h-140v313l-279 387h170l166 -230l13 -25l13 25z" />
    <glyph glyph-name="ycircumflex" unicode="&#x177;" horiz-adv-x="706" 
d="M178 788l171 145l170 -145l-53 -57l-117 97l-118 -97zM533 700h169l-279 -387v-313h-140v313l-279 387h170l166 -230l13 -25l13 25z" />
    <glyph glyph-name="Ydieresis" unicode="&#x178;" horiz-adv-x="706" 
d="M220 767q-29 0 -48 18.5t-19 46.5q0 27 19.5 46t47.5 19q27 0 45.5 -19t18.5 -46q0 -28 -18.5 -46.5t-45.5 -18.5zM479 767q-28 0 -46.5 18.5t-18.5 46.5q0 27 18.5 46t46.5 19t47 -19t19 -46q0 -28 -19 -46.5t-47 -18.5zM533 700h169l-279 -387v-313h-140v313l-279 387
h170l166 -230l13 -25l13 25z" />
    <glyph glyph-name="Zacute" unicode="&#x179;" horiz-adv-x="705" 
d="M475 929l48 -95l-238 -103l-40 74zM645 700v-130l-379 -425l-20 -17l31 2h368v-130h-585v130l384 426l20 16l-31 -2h-363v130h575z" />
    <glyph glyph-name="zacute" unicode="&#x17a;" horiz-adv-x="705" 
d="M475 929l48 -95l-238 -103l-40 74zM645 700v-130l-379 -425l-20 -17l31 2h368v-130h-585v130l384 426l20 16l-31 -2h-363v130h575z" />
    <glyph glyph-name="Zdotaccent" unicode="&#x17b;" horiz-adv-x="705" 
d="M363 767q-28 0 -47.5 18.5t-19.5 46.5q0 27 19.5 46t47.5 19q27 0 45.5 -19t18.5 -46q0 -28 -18.5 -46.5t-45.5 -18.5zM645 700v-130l-379 -425l-20 -17l31 2h368v-130h-585v130l384 426l20 16l-31 -2h-363v130h575z" />
    <glyph glyph-name="zdotaccent" unicode="&#x17c;" horiz-adv-x="705" 
d="M363 767q-28 0 -47.5 18.5t-19.5 46.5q0 27 19.5 46t47.5 19q27 0 45.5 -19t18.5 -46q0 -28 -18.5 -46.5t-45.5 -18.5zM645 700v-130l-379 -425l-20 -17l31 2h368v-130h-585v130l384 426l20 16l-31 -2h-363v130h575z" />
    <glyph glyph-name="Zcaron" unicode="&#x17d;" horiz-adv-x="705" 
d="M189 875l171 -145l170 145l-53 57l-117 -97l-118 97zM645 700v-130l-379 -425l-20 -17l31 2h368v-130h-585v130l384 426l20 16l-31 -2h-363v130h575z" />
    <glyph glyph-name="zcaron" unicode="&#x17e;" horiz-adv-x="705" 
d="M189 875l171 -145l170 145l-53 57l-117 -97l-118 97zM645 700v-130l-379 -425l-20 -17l31 2h368v-130h-585v130l384 426l20 16l-31 -2h-363v130h575z" />
    <glyph glyph-name="Scommaaccent" unicode="&#x218;" horiz-adv-x="608" 
d="M571 524l-134 -37q-12 51 -49.5 78.5t-86.5 27.5t-78.5 -20t-29.5 -55q0 -39 68 -68q18 -8 99 -35q41 -14 63 -23t56.5 -28.5t53 -39.5t32.5 -52.5t14 -71.5q0 -94 -74.5 -154t-193.5 -60q-108 0 -182.5 56.5t-103.5 153.5l136 37q11 -51 54.5 -86t105.5 -35q51 0 82 23
t31 58q0 14 -5 26t-17 22t-24 17.5t-33 16.5t-36 14t-41.5 14.5t-41.5 14.5q-40 14 -66 26.5t-57 35t-47 56t-16 76.5q0 83 73.5 142.5t182.5 59.5q97 0 169.5 -53t95.5 -137zM284 -167l13 4l-13 2q-19 3 -34 18.5t-15 39.5q0 27 19 45.5t46 18.5t45 -20.5t18 -52.5
q0 -41 -27 -87t-68 -80h-48q23 16 43.5 52t20.5 60z" />
    <glyph glyph-name="scommaaccent" unicode="&#x219;" horiz-adv-x="608" 
d="M571 524l-134 -37q-12 51 -49.5 78.5t-86.5 27.5t-78.5 -20t-29.5 -55q0 -39 68 -68q18 -8 99 -35q41 -14 63 -23t56.5 -28.5t53 -39.5t32.5 -52.5t14 -71.5q0 -94 -74.5 -154t-193.5 -60q-108 0 -182.5 56.5t-103.5 153.5l136 37q11 -51 54.5 -86t105.5 -35q51 0 82 23
t31 58q0 14 -5 26t-17 22t-24 17.5t-33 16.5t-36 14t-41.5 14.5t-41.5 14.5q-40 14 -66 26.5t-57 35t-47 56t-16 76.5q0 83 73.5 142.5t182.5 59.5q97 0 169.5 -53t95.5 -137zM284 -167l13 4l-13 2q-19 3 -34 18.5t-15 39.5q0 27 19 45.5t46 18.5t45 -20.5t18 -52.5
q0 -41 -27 -87t-68 -80h-48q23 16 43.5 52t20.5 60z" />
    <glyph glyph-name="uni021A" unicode="&#x21a;" horiz-adv-x="605" 
d="M14 700h577v-130h-220v-570h-139v570h-218v130zM291 -163l-13 2q-19 3 -34 18.5t-15 39.5q0 27 19 45.5t46 18.5t45 -20.5t18 -52.5q0 -41 -27 -87t-68 -80h-48q23 16 43.5 52t20.5 60z" />
    <glyph glyph-name="uni021B" unicode="&#x21b;" horiz-adv-x="605" 
d="M14 700h577v-130h-220v-570h-139v570h-218v130zM291 -163l-13 2q-19 3 -34 18.5t-15 39.5q0 27 19 45.5t46 18.5t45 -20.5t18 -52.5q0 -41 -27 -87t-68 -80h-48q23 16 43.5 52t20.5 60z" />
    <glyph glyph-name="dotlessj" unicode="&#x237;" horiz-adv-x="671" 
d="M463 700h140v-396q0 -151 -83.5 -234.5t-224.5 -83.5q-100 0 -177.5 51.5t-107.5 132.5l137 37q18 -43 57 -67t91 -24q80 0 124 48.5t44 134.5v401z" />
    <glyph glyph-name="circumflex" unicode="&#x2c6;" horiz-adv-x="378" 
d="M1 788l171 145l170 -145l-53 -57l-117 97l-118 -97z" />
    <glyph glyph-name="caron" unicode="&#x2c7;" horiz-adv-x="378" 
d="M1 875l171 -145l170 145l-53 57l-117 -97l-118 97z" />
    <glyph glyph-name="breve" unicode="&#x2d8;" horiz-adv-x="342" 
d="M1 866h85q5 -21 24.5 -36t44.5 -15q23 0 43 15t25 36h83q-12 -54 -54.5 -88.5t-96.5 -34.5q-58 0 -100.5 34.5t-53.5 88.5z" />
    <glyph glyph-name="dotaccent" unicode="&#x2d9;" horiz-adv-x="169" 
d="M68 767q-28 0 -47.5 18.5t-19.5 46.5q0 27 19.5 46t47.5 19q27 0 45.5 -19t18.5 -46q0 -28 -18.5 -46.5t-45.5 -18.5z" />
    <glyph glyph-name="ring" unicode="&#x2da;" horiz-adv-x="284" 
d="M125 660q-51 0 -87.5 36t-36.5 87q0 50 36.5 86t87.5 36t87 -36t36 -86q0 -51 -36 -87t-87 -36zM125 733q21 0 36.5 15t15.5 35q0 22 -15 37t-37 15q-21 0 -35.5 -15t-14.5 -37q0 -20 15 -35t35 -15z" />
    <glyph glyph-name="ogonek" unicode="&#x2db;" horiz-adv-x="600" 
d="M349 -99l72 -48q-24 -45 -69 -71.5t-94 -26.5q-77 0 -125.5 42t-48.5 113q0 62 44.5 105t84.5 43l90 -58q-46 0 -81.5 -23t-35.5 -67q0 -28 20.5 -48t54.5 -20q25 0 50 16.5t38 42.5z" />
    <glyph glyph-name="tilde" unicode="&#x2dc;" horiz-adv-x="467" 
d="M330 884h109q0 -60 -40 -99t-102 -39q-37 0 -83 30t-66 30t-33 -12.5t-13 -31.5h-108q0 60 40 99.5t102 39.5q31 0 58.5 -15.5t49.5 -30.5t40 -15q20 0 33 12.5t13 31.5z" />
    <glyph glyph-name="hungarumlaut" unicode="&#x2dd;" horiz-adv-x="503" 
d="M449 834l-238 -103l-35 66l-152 -66l-40 74l230 124l40 -79l147 79z" />
    <glyph glyph-name="commaaccent" unicode="&#x326;" horiz-adv-x="0" 
d="M124 -167l13 4l-13 2q-19 3 -34 18.5t-15 39.5q0 27 18.5 45.5t46.5 18.5q27 0 45 -20.5t18 -52.5q0 -42 -27 -87.5t-68 -79.5h-48q23 17 43.5 52.5t20.5 59.5z" />
    <glyph glyph-name="Wgrave" unicode="&#x1e80;" horiz-adv-x="1017" 
d="M561 731l-238 103l48 95l231 -124zM864 700h149l-281 -700h-97l-116 317l-11 36l-10 -36l-116 -317h-97l-281 700h149l172 -425l8 -30l8 30l129 339h76l130 -339l8 -29l8 29z" />
    <glyph glyph-name="wgrave" unicode="&#x1e81;" horiz-adv-x="1017" 
d="M561 731l-238 103l48 95l231 -124zM864 700h149l-281 -700h-97l-116 317l-11 36l-10 -36l-116 -317h-97l-281 700h149l172 -425l8 -30l8 30l129 339h76l130 -339l8 -29l8 29z" />
    <glyph glyph-name="Wacute" unicode="&#x1e82;" horiz-adv-x="1017" 
d="M622 929l48 -95l-238 -103l-40 74zM864 700h149l-281 -700h-97l-116 317l-11 36l-10 -36l-116 -317h-97l-281 700h149l172 -425l8 -30l8 30l129 339h76l130 -339l8 -29l8 29z" />
    <glyph glyph-name="wacute" unicode="&#x1e83;" horiz-adv-x="1017" 
d="M622 929l48 -95l-238 -103l-40 74zM864 700h149l-281 -700h-97l-116 317l-11 36l-10 -36l-116 -317h-97l-281 700h149l172 -425l8 -30l8 30l129 339h76l130 -339l8 -29l8 29z" />
    <glyph glyph-name="Wdieresis" unicode="&#x1e84;" horiz-adv-x="1017" 
d="M375 767q-29 0 -48 18.5t-19 46.5q0 27 19.5 46t47.5 19q27 0 45.5 -19t18.5 -46q0 -28 -18.5 -46.5t-45.5 -18.5zM634 767q-28 0 -46.5 18.5t-18.5 46.5q0 27 18.5 46t46.5 19t47 -19t19 -46q0 -28 -19 -46.5t-47 -18.5zM864 700h149l-281 -700h-97l-116 317l-11 36
l-10 -36l-116 -317h-97l-281 700h149l172 -425l8 -30l8 30l129 339h76l130 -339l8 -29l8 29z" />
    <glyph glyph-name="wdieresis" unicode="&#x1e85;" horiz-adv-x="1017" 
d="M375 767q-29 0 -48 18.5t-19 46.5q0 27 19.5 46t47.5 19q27 0 45.5 -19t18.5 -46q0 -28 -18.5 -46.5t-45.5 -18.5zM634 767q-28 0 -46.5 18.5t-18.5 46.5q0 27 18.5 46t46.5 19t47 -19t19 -46q0 -28 -19 -46.5t-47 -18.5zM864 700h149l-281 -700h-97l-116 317l-11 36
l-10 -36l-116 -317h-97l-281 700h149l172 -425l8 -30l8 30l129 339h76l130 -339l8 -29l8 29z" />
    <glyph glyph-name="Germandbls" unicode="&#x1e9e;" horiz-adv-x="818" 
d="M83 700h630l-164 -283q111 -8 171 -64t60 -143q0 -96 -70 -160t-181 -64q-80 0 -148 37.5t-102 98.5l132 36q40 -54 112 -54q53 0 85 30t32 74q0 41 -31.5 69.5t-85.5 29.5h-106v110l77 134l19 21l-30 -2h-261v-570h-139v700z" />
    <glyph glyph-name="Ygrave" unicode="&#x1ef2;" horiz-adv-x="706" 
d="M406 731l-238 103l48 95l231 -124zM533 700h169l-279 -387v-313h-140v313l-279 387h170l166 -230l13 -25l13 25z" />
    <glyph glyph-name="ygrave" unicode="&#x1ef3;" horiz-adv-x="706" 
d="M406 731l-238 103l48 95l231 -124zM533 700h169l-279 -387v-313h-140v313l-279 387h170l166 -230l13 -25l13 25z" />
    <glyph glyph-name="uni2009" unicode="&#x2009;" horiz-adv-x="150" 
 />
    <glyph glyph-name="uni200A" unicode="&#x200a;" horiz-adv-x="50" 
 />
    <glyph glyph-name="endash" unicode="&#x2013;" horiz-adv-x="505" 
d="M40 420h425v-130h-425v130z" />
    <glyph glyph-name="emdash" unicode="&#x2014;" horiz-adv-x="944" 
d="M40 420h864v-130h-864v130z" />
    <glyph glyph-name="quoteleft" unicode="&#x2018;" horiz-adv-x="320" 
d="M171 592l-14 -4l14 -2q20 -3 36.5 -20t16.5 -43q0 -28 -20.5 -48t-49.5 -20t-48.5 21.5t-19.5 56.5q0 45 29.5 94.5t72.5 85.5h52q-25 -18 -47 -56.5t-22 -64.5z" />
    <glyph glyph-name="quoteright" unicode="&#x2019;" horiz-adv-x="320" 
d="M152 575l14 4l-14 2q-20 3 -36.5 20t-16.5 43q0 28 20.5 48t49.5 20t48.5 -21.5t19.5 -56.5q0 -45 -29.5 -94.5t-72.5 -85.5h-52q25 18 47 56.5t22 64.5z" />
    <glyph glyph-name="quotesinglbase" unicode="&#x201a;" horiz-adv-x="320" 
d="M152 -11l14 4l-14 2q-20 3 -36.5 20t-16.5 43q0 28 20.5 48t49.5 20t48.5 -21.5t19.5 -56.5q0 -45 -29.5 -94.5t-72.5 -85.5h-52q25 18 47 56.5t22 64.5z" />
    <glyph glyph-name="quotedblleft" unicode="&#x201c;" horiz-adv-x="535" 
d="M171 592l-14 -4l14 -2q20 -3 36.5 -20t16.5 -43q0 -28 -20.5 -48t-49.5 -20t-48.5 21.5t-19.5 56.5q0 45 29.5 94.5t72.5 85.5h52q-25 -18 -47 -56.5t-22 -64.5zM386 592l-14 -4l14 -2q20 -3 36.5 -20t16.5 -43q0 -28 -20.5 -48t-49.5 -20t-48.5 21.5t-19.5 56.5
q0 45 29.5 94.5t72.5 85.5h52q-25 -18 -47 -56.5t-22 -64.5z" />
    <glyph glyph-name="quotedblright" unicode="&#x201d;" horiz-adv-x="535" 
d="M149 575l14 4l-14 2q-20 3 -36.5 20t-16.5 43q0 28 20.5 48t49.5 20t48.5 -21.5t19.5 -56.5q0 -45 -29.5 -94.5t-72.5 -85.5h-52q25 18 47 56.5t22 64.5zM363 575l14 4l-14 2q-20 3 -36.5 20t-16.5 43q0 28 20.5 48t49.5 20t48.5 -21.5t19.5 -56.5q0 -45 -29.5 -94.5
t-72.5 -85.5h-52q25 18 47 56.5t22 64.5z" />
    <glyph glyph-name="quotedblbase" unicode="&#x201e;" horiz-adv-x="530" 
d="M149 -11l14 4l-14 2q-20 3 -36.5 20t-16.5 43q0 28 20.5 48t49.5 20t48.5 -21.5t19.5 -56.5q0 -45 -29.5 -94.5t-72.5 -85.5h-52q25 18 47 56.5t22 64.5zM359 -11l14 4l-14 2q-20 3 -36.5 20t-16.5 43q0 28 20.5 48t49.5 20t48.5 -21.5t19.5 -56.5q0 -45 -29.5 -94.5
t-72.5 -85.5h-52q25 18 47 56.5t22 64.5z" />
    <glyph glyph-name="bullet" unicode="&#x2022;" horiz-adv-x="400" 
d="M201 237q-49 0 -83.5 34.5t-34.5 83.5q0 48 34.5 82t83.5 34q48 0 82 -34t34 -82q0 -49 -34 -83.5t-82 -34.5z" />
    <glyph glyph-name="ellipsis" unicode="&#x2026;" horiz-adv-x="764" 
d="M117 -14q-23 0 -40 17t-17 41q0 23 17 39.5t40 16.5t40 -16.5t17 -39.5q0 -24 -17 -41t-40 -17zM377 -14q-23 0 -40 17t-17 41q0 23 17 39.5t40 16.5t40 -16.5t17 -39.5q0 -24 -17 -41t-40 -17zM647 -14q-23 0 -40 17t-17 41q0 23 17 39.5t40 16.5t40 -16.5t17 -39.5
q0 -24 -17 -41t-40 -17z" />
    <glyph glyph-name="perthousand" unicode="&#x2030;" horiz-adv-x="1360" 
d="M222 312q-82 0 -133 55.5t-51 145.5q0 89 51 145t133 56t133 -56t51 -145q0 -90 -51 -145.5t-133 -55.5zM205 0l429 700h91l-428 -700h-92zM222 408q38 0 61 29t23 76q0 48 -23 76.5t-61 28.5t-61.5 -28.5t-23.5 -76.5q0 -47 23.5 -76t61.5 -29zM714 -14q-82 0 -133 55.5
t-51 145.5q0 89 51 145t133 56t133 -56t51 -145q0 -90 -51 -145.5t-133 -55.5zM1138 -14q-82 0 -133 55.5t-51 145.5q0 89 51 145t133 56t133 -56t51 -145q0 -90 -51 -145.5t-133 -55.5zM714 82q38 0 61 29t23 76q0 48 -23 76.5t-61 28.5t-61.5 -28.5t-23.5 -76.5
q0 -47 23.5 -76t61.5 -29zM1138 82q38 0 61 29t23 76q0 48 -23 76.5t-61 28.5t-61.5 -28.5t-23.5 -76.5q0 -47 23.5 -76t61.5 -29z" />
    <glyph glyph-name="guilsinglleft" unicode="&#x2039;" horiz-adv-x="477" 
d="M321 592l-235 -235l235 -234l76 77l-165 157l164 159z" />
    <glyph glyph-name="guilsinglright" unicode="&#x203a;" horiz-adv-x="477" 
d="M159 592l235 -235l-235 -234l-76 77l165 157l-164 159z" />
    <glyph glyph-name="fraction" unicode="&#x2044;" horiz-adv-x="643" 
d="M60 0l429 700h91l-428 -700h-92z" />
    <glyph glyph-name="Euro" unicode="&#x20ac;" horiz-adv-x="802" 
d="M637 227l139 -35q-43 -94 -131 -149t-197 -55q-122 0 -217 69.5t-129 183.5h-64v92h49v17v17h-48v91h63q34 114 128.5 184t217.5 70q102 0 186 -49.5t130 -134.5l-141 -35q-28 39 -74 61.5t-100 22.5q-65 0 -118 -32t-82 -87h210v-91h-234q-1 -6 -1 -17t1 -17h234v-92
h-208q29 -54 81.5 -85t116.5 -31q60 0 110.5 27.5t77.5 74.5z" />
    <glyph glyph-name="afii61352" unicode="&#x2116;" horiz-adv-x="1117" 
d="M754 540q0 74 49.5 123t121.5 49t122 -49t50 -123q0 -73 -50 -122t-122 -49t-121.5 48.5t-49.5 122.5zM557 700h140v-700h-131l-328 428l-14 24l2 -27v-425h-140v700h131l328 -423l14 -25l-2 27v421zM833 540q0 -42 26 -69t66 -27q41 0 67 27t26 69q0 43 -26 70t-67 27
q-40 0 -66 -27t-26 -70zM764 328h323v-68h-323v68z" />
    <glyph glyph-name="trademark" unicode="&#x2122;" horiz-adv-x="841" 
d="M14 621v79h320v-79h-117v-271h-87v271h-116zM679 700h79v-349h-79v200l2 29l-15 -29l-74 -113h-34l-76 113l-15 29l2 -29v-201h-80v350h80l106 -154z" />
    <glyph glyph-name="minus" unicode="&#x2212;" horiz-adv-x="660" 
d="M83 412h494v-114h-494v114z" />
    <glyph glyph-name="notequal" unicode="&#x2260;" horiz-adv-x="660" 
d="M577 401h-153l-54 -108h207v-114h-265l-54 -106h-132l54 106h-97v114h156l55 108h-211v114h270l59 116h129l-59 -116h95v-114z" />
    <glyph glyph-name="lessequal" unicode="&#x2264;" horiz-adv-x="665" 
d="M516 179l-224 188l282 244h-162l-294 -244l232 -188h166zM582 105h-494v-114h494v114z" />
    <glyph glyph-name="greaterequal" unicode="&#x2265;" horiz-adv-x="665" 
d="M149 179l224 188l-282 244h162l294 -244l-232 -188h-166zM83 105h494v-114h-494v114z" />
    <glyph glyph-name="Cacute.loclPLK" horiz-adv-x="756" 
d="M469 954l87 -51l-138 -166l-63 39zM719 529l-142 -38q-28 39 -76 62.5t-100 23.5q-98 0 -158 -63.5t-60 -163.5q0 -101 61.5 -163t156.5 -62q59 0 110.5 28.5t78.5 74.5l140 -37q-44 -94 -132 -149.5t-197 -55.5q-152 0 -257.5 103.5t-105.5 260.5t105.5 260.5
t257.5 103.5q102 0 186.5 -50t131.5 -135z" />
    <glyph glyph-name="N.ss02" horiz-adv-x="783" 
d="M557 700h140v-700h-140v227l-319 276l-14 15l2 -27v-491h-140v700h131l328 -281l14 -15l-2 27v269z" />
    <glyph glyph-name="Nacute.loclPLK" horiz-adv-x="783" 
d="M464 954l87 -51l-138 -166l-63 39zM557 700h140v-700h-131l-328 428l-14 24l2 -27v-425h-140v700h131l328 -423l14 -25l-2 27v421z" />
    <glyph glyph-name="Nacute.loclPLK.ss02" horiz-adv-x="783" 
d="M464 954l87 -51l-138 -166l-63 39zM557 700h140v-700h-140v227l-319 276l-14 15l2 -27v-491h-140v700h131l328 -281l14 -15l-2 27v269z" />
    <glyph glyph-name="Nacute.ss02" horiz-adv-x="783" 
d="M508 929l48 -95l-238 -103l-40 74zM557 700h140v-700h-140v227l-319 276l-14 15l2 -27v-491h-140v700h131l328 -281l14 -15l-2 27v269z" />
    <glyph glyph-name="Ncaron.ss02" horiz-adv-x="783" 
d="M223 875l171 -145l170 145l-53 57l-117 -97l-118 97zM557 700h140v-700h-140v227l-319 276l-14 15l2 -27v-491h-140v700h131l328 -281l14 -15l-2 27v269z" />
    <glyph glyph-name="Ncommaaccent.ss02" horiz-adv-x="783" 
d="M557 700h140v-700h-140v227l-319 276l-14 15l2 -27v-491h-140v700h131l328 -281l14 -15l-2 27v269zM381 -167l13 4l-13 2q-19 3 -34 18.5t-15 39.5q0 27 19 45.5t46 18.5t45 -20.5t18 -52.5q0 -41 -27 -87t-68 -80h-48q23 16 43.5 52t20.5 60z" />
    <glyph glyph-name="Ntilde.ss02" horiz-adv-x="783" 
d="M507 884h109q0 -60 -40 -99t-102 -39q-37 0 -83 30t-66 30t-33 -12.5t-13 -31.5h-108q0 60 40 99.5t102 39.5q39 0 84 -30.5t64 -30.5q20 0 33 12.5t13 31.5zM557 700h140v-700h-140v227l-319 276l-14 15l2 -27v-491h-140v700h131l328 -281l14 -15l-2 27v269z" />
    <glyph glyph-name="Oacute.loclPLK" 
d="M476 954l87 -51l-138 -166l-63 39zM38 350q0 157 105.5 260.5t257.5 103.5q153 0 258.5 -103.5t105.5 -260.5t-105.5 -260.5t-258.5 -103.5q-152 0 -257.5 103.5t-105.5 260.5zM183 350q0 -100 61 -163.5t157 -63.5q97 0 158 63.5t61 163.5q0 101 -61 164t-158 63
q-96 0 -157 -63t-61 -164z" />
    <glyph glyph-name="Q.ss01" horiz-adv-x="828" 
d="M697 137h97v-137h-382h-12q-152 0 -257 101.5t-105 255.5t105 256t257 102t257.5 -102t105.5 -256q0 -128 -76 -223zM183 357q0 -99 62 -159.5t155 -60.5q92 0 155 60.5t63 159.5q0 98 -63 159t-155 61q-93 0 -155 -60.5t-62 -159.5z" />
    <glyph glyph-name="Sacute.loclPLK" horiz-adv-x="608" 
d="M387 954l87 -51l-138 -166l-63 39zM571 524l-134 -37q-12 51 -49.5 78.5t-86.5 27.5t-78.5 -20t-29.5 -55q0 -39 68 -68q18 -8 99 -35q41 -14 63 -23t56.5 -28.5t53 -39.5t32.5 -52.5t14 -71.5q0 -94 -74.5 -154t-193.5 -60q-108 0 -182.5 56.5t-103.5 153.5l136 37
q11 -51 54.5 -86t105.5 -35q51 0 82 23t31 58q0 14 -5 26t-17 22t-24 17.5t-33 16.5t-36 14t-41.5 14.5t-41.5 14.5q-40 14 -66 26.5t-57 35t-47 56t-16 76.5q0 83 73.5 142.5t182.5 59.5q97 0 169.5 -53t95.5 -137z" />
    <glyph glyph-name="Zacute.loclPLK" horiz-adv-x="705" 
d="M430 954l87 -51l-138 -166l-63 39zM645 700v-130l-379 -425l-20 -17l31 2h368v-130h-585v130l384 426l20 16l-31 -2h-363v130h575z" />
    <glyph glyph-name="cacute.loclPLK" horiz-adv-x="756" 
d="M469 954l87 -51l-138 -166l-63 39zM719 529l-142 -38q-28 39 -76 62.5t-100 23.5q-98 0 -158 -63.5t-60 -163.5q0 -101 61.5 -163t156.5 -62q59 0 110.5 28.5t78.5 74.5l140 -37q-44 -94 -132 -149.5t-197 -55.5q-152 0 -257.5 103.5t-105.5 260.5t105.5 260.5
t257.5 103.5q102 0 186.5 -50t131.5 -135z" />
    <glyph glyph-name="n.ss02" horiz-adv-x="783" 
d="M557 700h140v-700h-140v227l-319 276l-14 15l2 -27v-491h-140v700h131l328 -281l14 -15l-2 27v269z" />
    <glyph glyph-name="nacute.loclPLK" horiz-adv-x="783" 
d="M464 954l87 -51l-138 -166l-63 39zM557 700h140v-700h-131l-328 428l-14 24l2 -27v-425h-140v700h131l328 -423l14 -25l-2 27v421z" />
    <glyph glyph-name="nacute.loclPLK.ss02" horiz-adv-x="783" 
d="M464 954l87 -51l-138 -166l-63 39zM557 700h140v-700h-140v227l-319 276l-14 15l2 -27v-491h-140v700h131l328 -281l14 -15l-2 27v269z" />
    <glyph glyph-name="nacute.ss02" horiz-adv-x="783" 
d="M508 929l48 -95l-238 -103l-40 74zM557 700h140v-700h-140v227l-319 276l-14 15l2 -27v-491h-140v700h131l328 -281l14 -15l-2 27v269z" />
    <glyph glyph-name="ncaron.ss02" horiz-adv-x="783" 
d="M223 875l171 -145l170 145l-53 57l-117 -97l-118 97zM557 700h140v-700h-140v227l-319 276l-14 15l2 -27v-491h-140v700h131l328 -281l14 -15l-2 27v269z" />
    <glyph glyph-name="ncommaaccent.ss02" horiz-adv-x="783" 
d="M557 700h140v-700h-140v227l-319 276l-14 15l2 -27v-491h-140v700h131l328 -281l14 -15l-2 27v269zM381 -167l13 4l-13 2q-19 3 -34 18.5t-15 39.5q0 27 19 45.5t46 18.5t45 -20.5t18 -52.5q0 -41 -27 -87t-68 -80h-48q23 16 43.5 52t20.5 60z" />
    <glyph glyph-name="ntilde.ss02" horiz-adv-x="783" 
d="M507 884h109q0 -60 -40 -99t-102 -39q-37 0 -83 30t-66 30t-33 -12.5t-13 -31.5h-108q0 60 40 99.5t102 39.5q39 0 84 -30.5t64 -30.5q20 0 33 12.5t13 31.5zM557 700h140v-700h-140v227l-319 276l-14 15l2 -27v-491h-140v700h131l328 -281l14 -15l-2 27v269z" />
    <glyph glyph-name="oacute.loclPLK" 
d="M476 954l87 -51l-138 -166l-63 39zM38 350q0 157 105.5 260.5t257.5 103.5q153 0 258.5 -103.5t105.5 -260.5t-105.5 -260.5t-258.5 -103.5q-152 0 -257.5 103.5t-105.5 260.5zM183 350q0 -100 61 -163.5t157 -63.5q97 0 158 63.5t61 163.5q0 101 -61 164t-158 63
q-96 0 -157 -63t-61 -164z" />
    <glyph glyph-name="q.ss01" horiz-adv-x="828" 
d="M697 137h97v-137h-382h-12q-152 0 -257 101.5t-105 255.5t105 256t257 102t257.5 -102t105.5 -256q0 -128 -76 -223zM183 357q0 -99 62 -159.5t155 -60.5q92 0 155 60.5t63 159.5q0 98 -63 159t-155 61q-93 0 -155 -60.5t-62 -159.5z" />
    <glyph glyph-name="sacute.loclPLK" horiz-adv-x="608" 
d="M387 954l87 -51l-138 -166l-63 39zM571 524l-134 -37q-12 51 -49.5 78.5t-86.5 27.5t-78.5 -20t-29.5 -55q0 -39 68 -68q18 -8 99 -35q41 -14 63 -23t56.5 -28.5t53 -39.5t32.5 -52.5t14 -71.5q0 -94 -74.5 -154t-193.5 -60q-108 0 -182.5 56.5t-103.5 153.5l136 37
q11 -51 54.5 -86t105.5 -35q51 0 82 23t31 58q0 14 -5 26t-17 22t-24 17.5t-33 16.5t-36 14t-41.5 14.5t-41.5 14.5q-40 14 -66 26.5t-57 35t-47 56t-16 76.5q0 83 73.5 142.5t182.5 59.5q97 0 169.5 -53t95.5 -137z" />
    <glyph glyph-name="zacute.loclPLK" horiz-adv-x="705" 
d="M430 954l87 -51l-138 -166l-63 39zM645 700v-130l-379 -425l-20 -17l31 2h368v-130h-585v130l384 426l20 16l-31 -2h-363v130h575z" />
    <glyph glyph-name="colon.case" horiz-adv-x="303" 
d="M152 419q-29 0 -49 20.5t-20 49.5q0 28 20.5 48t48.5 20t48.5 -20t20.5 -48q0 -29 -20 -49.5t-49 -20.5zM152 122q-29 0 -49 20.5t-20 49.5q0 28 20.5 48t48.5 20t48.5 -20t20.5 -48q0 -29 -20 -49.5t-49 -20.5z" />
    <glyph glyph-name="semicolon.case" horiz-adv-x="324" 
d="M165 424q-29 0 -49 20.5t-20 49.5q0 28 20.5 48t48.5 20t48.5 -20t20.5 -48q0 -29 -20 -49.5t-49 -20.5zM149 128l14 4l-14 2q-20 3 -36.5 20t-16.5 43q0 28 20.5 48t49.5 20t48.5 -21.5t19.5 -56.5q0 -45 -29.5 -94.5t-72.5 -85.5h-52q25 18 47 56.5t22 64.5z" />
    <glyph glyph-name="apple" horiz-adv-x="784" 
d="M657 82h44v45q0 91 -4.5 142t-8 61t-9.5 19l-25 29l-11 13l11 12l22 26q8 8 12 19t8.5 62t4.5 146v44h-44q-94 0 -145.5 -4.5t-62 -8.5t-19.5 -12l-20 -17l-17 -16l-18 16l-20 19q-8 7 -19 10.5t-63 8t-147 4.5h-43v-44q0 -93 4 -145t8 -62.5t11 -19.5l24 -27l10 -11
l-10 -12l-24 -27q-7 -8 -11 -18.5t-8 -62.5t-4 -146v-43h43q93 0 145 4t63 8t19 12l27 23l11 10l13 -10l27 -23q8 -8 18.5 -11.5t62 -8t145.5 -4.5zM391 256l-89 -79q-25 -5 -132 -7q4 111 7 132l79 89l-79 89q-3 20 -7 133q98 -2 133 -7l88 -81l91 81q35 5 132 7
q-4 -112 -7 -133l-81 -89l81 -91q4 -36 7 -130q-106 2 -133 7zM117 39l3 12q-4 3 -15 3q-21 0 -21 -17q0 -11 15 -16q9 -3 9 -6q0 -5 -7 -5q-2 0 -14 4l-4 -12q6 -3 16 -3q24 0 24 17q0 11 -14 16q-11 4 -11 7q0 4 7 4q4 0 12 -4zM562 40l4 12q-4 2 -14 2q-13 0 -21 -7.5
t-8 -21.5q0 -26 28 -26q8 0 14 2l-3 12q-3 -3 -9 -3q-15 0 -15 16q0 17 15 17q6 0 9 -3zM621 26q0 12 -7.5 20t-19.5 8t-19.5 -8t-7.5 -20q0 -27 27 -27t27 27zM141 20v-20h14v20l17 33h-16l-8 -23l-7 23h-17zM177 53v-53h13v35l19 -35h15v53h-13v-32l-16 32h-18zM229 42h14
v-42h13v42h14v11h-41v-11zM290 33v20h-15v-53h15v21h18v-21h14v53h-14v-20h-18zM327 53l17 -53h16l17 53h-15l-10 -39l-9 39h-16zM397 0v53h-15v-53h15zM420 21h19v11h-19v10h21v11h-36v-53h36v11h-21v10zM445 53l13 -53h15l7 35l6 -35h16l13 53h-14l-7 -36l-6 36h-15
l-6 -36l-7 36h-15zM672 40v-40h14l-2 53h-19l-9 -34l-8 34h-19l-4 -53h15v40l11 -39h10zM582 26q0 17 12 17q11 0 11 -17q0 -16 -11 -16q-12 0 -12 16zM516 -1q-6 0 -6 6t6 6t6 -6t-6 -6z" />
    </font>
</defs>
</svg>
