<svg xmlns="http://www.w3.org/2000/svg">
<defs>
<font id="NovecentowideNormal" horiz-adv-x="813" >
  <font-face 
    font-family="NovecentowideNormal"
    font-weight="400"
    font-stretch="expanded"
    units-per-em="1000"
    panose-1="0 0 5 5 0 0 0 0 0 0"
    ascent="800"
    descent="-200"
    x-height="700"
    cap-height="700"
    bbox="-45 -255 1282 934"
    underline-thickness="50"
    underline-position="-150"
    unicode-range="U+0020-2265"
  />
<missing-glyph horiz-adv-x="802" 
d="M666 82h44v45q0 91 -4.5 142t-8 61t-9.5 19l-25 29l-11 13l11 12l22 26q8 8 12 19t8.5 62t4.5 146v44h-44q-94 0 -145.5 -4.5t-62 -8.5t-19.5 -12l-20 -17l-17 -16l-18 16l-20 19q-8 7 -19 10.5t-63 8t-147 4.5h-43v-44q0 -93 4 -145t8 -62.5t11 -19.5l24 -27l10 -11
l-10 -12l-24 -27q-7 -8 -11 -18.5t-8 -62.5t-4 -146v-43h43q93 0 145 4t63 8t19 12l27 23l11 10l13 -10l27 -23q8 -8 18.5 -11.5t62 -8t145.5 -4.5zM400 256l-89 -79q-25 -5 -132 -7q4 111 7 132l79 89l-79 89q-3 20 -7 133q98 -2 133 -7l88 -81l91 81q35 5 132 7
q-4 -112 -7 -133l-81 -89l81 -91q4 -36 7 -130q-106 2 -133 7zM126 39l3 12q-5 3 -15 3q-21 0 -21 -17q0 -11 15 -16q9 -3 9 -6q0 -5 -7 -5q-2 0 -14 4l-4 -12q6 -3 16 -3q24 0 24 17q0 11 -14 16q-11 4 -11 7q0 4 7 4q4 0 12 -4zM571 40l4 12q-4 2 -14 2q-13 0 -21 -7.5
t-8 -21.5q0 -26 28 -26q8 0 14 2l-3 12q-3 -3 -9 -3q-15 0 -15 16q0 17 15 17q6 0 9 -3zM630 26q0 12 -7.5 20t-19.5 8t-19.5 -8t-7.5 -20q0 -27 27 -27t27 27zM150 20v-20h14v20l17 33h-16l-8 -23l-7 23h-17zM186 53v-53h13v35l19 -35h15v53h-13v-32l-16 32h-18zM238 42h14
v-42h13v42h14v11h-41v-11zM299 33v20h-15v-53h15v21h18v-21h14v53h-14v-20h-18zM336 53l17 -53h16l17 53h-15l-10 -39l-9 39h-16zM406 0v53h-15v-53h15zM429 21h19v11h-19v10h21v11h-36v-53h36v11h-21v10zM454 53l13 -53h15l7 35l6 -35h16l13 53h-14l-7 -36l-6 36h-15
l-6 -36l-7 36h-15zM681 40v-40h14l-2 53h-19l-9 -34l-8 34h-19l-4 -53h15v40l11 -39h10zM591 26q0 17 12 17q11 0 11 -17q0 -16 -11 -16q-12 0 -12 16zM525 -1q-6 0 -6 6t6 6t6 -6t-6 -6z" />
    <glyph glyph-name=".notdef" horiz-adv-x="802" 
d="M666 82h44v45q0 91 -4.5 142t-8 61t-9.5 19l-25 29l-11 13l11 12l22 26q8 8 12 19t8.5 62t4.5 146v44h-44q-94 0 -145.5 -4.5t-62 -8.5t-19.5 -12l-20 -17l-17 -16l-18 16l-20 19q-8 7 -19 10.5t-63 8t-147 4.5h-43v-44q0 -93 4 -145t8 -62.5t11 -19.5l24 -27l10 -11
l-10 -12l-24 -27q-7 -8 -11 -18.5t-8 -62.5t-4 -146v-43h43q93 0 145 4t63 8t19 12l27 23l11 10l13 -10l27 -23q8 -8 18.5 -11.5t62 -8t145.5 -4.5zM400 256l-89 -79q-25 -5 -132 -7q4 111 7 132l79 89l-79 89q-3 20 -7 133q98 -2 133 -7l88 -81l91 81q35 5 132 7
q-4 -112 -7 -133l-81 -89l81 -91q4 -36 7 -130q-106 2 -133 7zM126 39l3 12q-5 3 -15 3q-21 0 -21 -17q0 -11 15 -16q9 -3 9 -6q0 -5 -7 -5q-2 0 -14 4l-4 -12q6 -3 16 -3q24 0 24 17q0 11 -14 16q-11 4 -11 7q0 4 7 4q4 0 12 -4zM571 40l4 12q-4 2 -14 2q-13 0 -21 -7.5
t-8 -21.5q0 -26 28 -26q8 0 14 2l-3 12q-3 -3 -9 -3q-15 0 -15 16q0 17 15 17q6 0 9 -3zM630 26q0 12 -7.5 20t-19.5 8t-19.5 -8t-7.5 -20q0 -27 27 -27t27 27zM150 20v-20h14v20l17 33h-16l-8 -23l-7 23h-17zM186 53v-53h13v35l19 -35h15v53h-13v-32l-16 32h-18zM238 42h14
v-42h13v42h14v11h-41v-11zM299 33v20h-15v-53h15v21h18v-21h14v53h-14v-20h-18zM336 53l17 -53h16l17 53h-15l-10 -39l-9 39h-16zM406 0v53h-15v-53h15zM429 21h19v11h-19v10h21v11h-36v-53h36v11h-21v10zM454 53l13 -53h15l7 35l6 -35h16l13 53h-14l-7 -36l-6 36h-15
l-6 -36l-7 36h-15zM681 40v-40h14l-2 53h-19l-9 -34l-8 34h-19l-4 -53h15v40l11 -39h10zM591 26q0 17 12 17q11 0 11 -17q0 -16 -11 -16q-12 0 -12 16zM525 -1q-6 0 -6 6t6 6t6 -6t-6 -6z" />
    <glyph glyph-name=".null" horiz-adv-x="0" 
 />
    <glyph glyph-name="nonmarkingreturn" horiz-adv-x="333" 
 />
    <glyph glyph-name="space" unicode=" " horiz-adv-x="400" 
 />
    <glyph glyph-name="exclam" unicode="!" horiz-adv-x="267" 
d="M92 228v472h83v-472h-83zM92 0v157h83v-157h-83z" />
    <glyph glyph-name="quotedbl" unicode="&#x22;" horiz-adv-x="444" 
d="M83 495v217h83v-217h-83zM260 495v217h83v-217h-83z" />
    <glyph glyph-name="numbersign" unicode="#" horiz-adv-x="858" 
d="M776 424h-158l-71 -139h159l-39 -73h-157l-108 -212h-84l108 212h-152l-108 -212h-84l108 212h-147l39 73h146l71 139h-148l39 74h147l103 202h82l-103 -202h154l103 202h82l-103 -202h159zM464 285l71 139h-153l-71 -139h153z" />
    <glyph glyph-name="dollar" unicode="$" horiz-adv-x="606" 
d="M550 526l-83 -22q-12 62 -59 98t-112 36q-69 0 -111.5 -29.5t-42.5 -82.5q0 -32 27.5 -56.5t53 -34t84.5 -27.5q15 -5 22 -7q30 -9 44.5 -13.5t43.5 -16t44.5 -21t37.5 -26.5t32.5 -35t19 -43.5t8.5 -54.5q0 -81 -59.5 -137t-157.5 -66v-78h-84v79q-91 12 -149 66.5
t-75 137.5l85 23q7 -64 57.5 -107.5t130.5 -43.5q74 0 118.5 34.5t44.5 88.5q0 18 -6 33.5t-14.5 26.5t-25 22.5t-28.5 18.5t-35.5 15.5t-36.5 13t-39.5 12.5t-36.5 11q-33 10 -53 17.5t-50.5 23.5t-47.5 33.5t-30.5 45.5t-13.5 62q0 73 57.5 125.5t147.5 63.5v78h84v-79
q80 -11 136 -60.5t72 -124.5z" />
    <glyph glyph-name="percent" unicode="%" horiz-adv-x="905" 
d="M226 312q-82 0 -132.5 55.5t-50.5 145.5t50.5 145.5t132.5 55.5t133 -56t51 -145q0 -90 -51 -145.5t-133 -55.5zM198 0l441 700h62l-441 -700h-62zM226 377q52 0 84 37t32 99t-32 99t-84 37q-51 0 -83 -37t-32 -99t32 -99t83 -37zM678 -14q-82 0 -132.5 55.5t-50.5 145.5
t50.5 145.5t132.5 55.5t133 -56t51 -145q0 -90 -51 -145.5t-133 -55.5zM678 51q52 0 84 37t32 99t-32 99t-84 37q-51 0 -83 -37t-32 -99t32 -99t83 -37z" />
    <glyph glyph-name="ampersand" unicode="&#x26;" horiz-adv-x="703" 
d="M692 398v-72h-124v-80q0 -122 -66 -191t-204 -69q-112 0 -183.5 60t-71.5 154q0 67 44.5 111.5t106.5 51.5q-53 8 -94 48t-41 107q0 80 60 138t176 58q103 0 170 -52t86 -148l-74 -21q-18 75 -60 110t-120 35t-113 -39t-35 -84q0 -51 40 -84t114 -33h389zM485 249v77
h-187q-78 0 -123.5 -32t-45.5 -93q0 -60 48 -99t121 -39q100 0 143.5 46.5t43.5 139.5z" />
    <glyph glyph-name="quotesingle" unicode="'" horiz-adv-x="267" 
d="M92 495v217h83v-217h-83z" />
    <glyph glyph-name="parenleft" unicode="(" horiz-adv-x="364" 
d="M308 841l24 -80q-102 -35 -151 -135t-49 -278t48.5 -278t151.5 -135l-24 -79q-43 15 -79.5 38.5t-71.5 64t-59.5 93t-39 128.5t-14.5 168q0 399 264 493z" />
    <glyph glyph-name="parenright" unicode=")" horiz-adv-x="364" 
d="M56 841l-24 -80q102 -35 151 -135t49 -278t-48.5 -278t-151.5 -135l24 -79q43 15 79.5 38.5t71.5 64t59.5 93t39 128.5t14.5 168q0 399 -264 493z" />
    <glyph glyph-name="asterisk" unicode="*" horiz-adv-x="521" 
d="M411 611l18 -56l-124 -37l78 -105l-47 -35l-76 109l-75 -109l-47 34l77 106l-123 37l18 56l121 -40v129h59l-2 -129z" />
    <glyph glyph-name="plus" unicode="+" horiz-adv-x="658" 
d="M567 392v-73h-189v-197h-80v197h-206v73h207v199h79v-199h189z" />
    <glyph glyph-name="comma" unicode="," horiz-adv-x="237" 
d="M109 -12l10 4l-10 1q-17 0 -31 13.5t-14 34.5q0 22 15 36.5t37 14.5t37 -17t15 -44q0 -43 -23.5 -86t-56.5 -75h-37q23 22 40.5 55.5t17.5 62.5z" />
    <glyph glyph-name="hyphen" unicode="-" horiz-adv-x="389" 
d="M40 395h309v-80h-309v80z" />
    <glyph glyph-name="period" unicode="." horiz-adv-x="222" 
d="M111 -14q-22 0 -36.5 15t-14.5 36q0 22 15 36.5t36 14.5q22 0 36.5 -15t14.5 -36t-15 -36t-36 -15z" />
    <glyph glyph-name="slash" unicode="/" horiz-adv-x="463" 
d="M11 0l358 700h82l-356 -700h-84z" />
    <glyph glyph-name="zero" unicode="0" horiz-adv-x="746" 
d="M373 714q148 0 239 -102.5t91 -261.5t-91 -261.5t-239 -102.5t-239 102.5t-91 261.5t91 261.5t239 102.5zM373 629q-112 0 -176 -76.5t-64 -202.5t64 -202.5t176 -76.5t176 76.5t64 202.5t-64 202.5t-176 76.5z" />
    <glyph glyph-name="one" unicode="1" horiz-adv-x="417" 
d="M265 700h60v-700h-87v542l2 30l-16 -19l-125 -121l-56 52z" />
    <glyph glyph-name="two" unicode="2" horiz-adv-x="609" 
d="M397 252l-225 -171h376v-81h-490v81l318 259q36 28 59 70t23 84q0 62 -42.5 102t-109.5 40q-68 0 -112 -36t-61 -97l-81 21q26 93 93 141.5t163 48.5q105 0 172.5 -62.5t67.5 -157.5q0 -76 -40.5 -133t-110.5 -109z" />
    <glyph glyph-name="three" unicode="3" horiz-adv-x="598" 
d="M135 504l-78 21q20 88 86 138.5t163 50.5q117 0 178 -55.5t61 -134.5q0 -63 -46.5 -111.5t-103.5 -48.5q67 0 113 -46.5t46 -114.5q0 -98 -69 -157.5t-178 -59.5q-99 0 -173.5 55.5t-90.5 144.5l79 22q11 -65 60 -104t124 -39q77 0 117.5 39.5t40.5 99.5q0 63 -50 92.5
t-117 29.5h-58v72h58q80 0 119 36.5t39 87.5q0 44 -37.5 79t-114.5 35q-132 0 -168 -132z" />
    <glyph glyph-name="four" unicode="4" horiz-adv-x="645" 
d="M585 250v-77h-80v-173h-84v173h-378v77l390 450h72v-450h80zM141 250h280v307l1 18l-13 -18z" />
    <glyph glyph-name="five" unicode="5" horiz-adv-x="620" 
d="M209 619l-35 -209q41 47 138 47q106 0 177 -65.5t71 -166.5q0 -103 -70.5 -171t-177.5 -68q-105 0 -174.5 56.5t-85.5 144.5l80 21q11 -67 56.5 -106t120.5 -39q71 0 117 45.5t46 116.5t-46 116t-117 45q-118 0 -153 -84l-75 22l61 376h376v-81h-309z" />
    <glyph glyph-name="six" unicode="6" horiz-adv-x="609" 
d="M408 700l-219 -291q44 56 119 56q115 2 186 -66.5t71 -172.5q0 -105 -73 -172.5t-187 -67.5q-112 0 -187 68t-75 175q0 65 23.5 121.5t75.5 124.5l171 225h95zM304 63q76 0 123 45.5t48 119.5q1 73 -46 117.5t-125 44.5q-77 0 -124 -44.5t-47 -117.5q0 -74 47 -119.5
t124 -45.5z" />
    <glyph glyph-name="seven" unicode="7" horiz-adv-x="556" 
d="M44 700h501v-53l-364 -647h-93l331 588l22 33l-32 -2h-365v81z" />
    <glyph glyph-name="eight" unicode="8" horiz-adv-x="610" 
d="M43 194q0 71 49.5 122t113.5 56q-41 5 -86 47.5t-45 109.5q0 78 64.5 131.5t165.5 53.5t165.5 -53.5t64.5 -131.5q0 -67 -45 -109.5t-86 -47.5q64 -5 113.5 -56t49.5 -122q0 -92 -73 -149.5t-189 -58.5q-116 1 -189 58.5t-73 149.5zM156 525q0 -51 39 -84.5t110 -32.5
q71 0 110 33t39 84q0 52 -40.5 85.5t-108.5 33.5t-108.5 -33.5t-40.5 -85.5zM131 199q0 -63 48 -100.5t126 -38.5q78 1 125.5 38.5t47.5 100.5q0 60 -48 97t-125 37q-78 0 -126 -37t-48 -97z" />
    <glyph glyph-name="nine" unicode="9" horiz-adv-x="613" 
d="M178 0l248 291q-49 -57 -125 -57q-120 -1 -189 67.5t-69 171.5q0 109 74 175t189 66q114 0 189 -65t75 -179q0 -128 -136 -286l-157 -184h-99zM307 637q-74 0 -123.5 -42.5t-49.5 -123.5q0 -78 49.5 -119.5t123.5 -41.5q75 0 124 42.5t49 118.5q0 82 -49 124t-124 42z
" />
    <glyph glyph-name="colon" unicode=":" horiz-adv-x="222" 
d="M111 295q-22 0 -36.5 15t-14.5 36q0 22 15 36.5t36 14.5q22 0 36.5 -15t14.5 -36t-15 -36t-36 -15zM111 -14q-22 0 -36.5 15t-14.5 36q0 22 15 36.5t36 14.5q22 0 36.5 -15t14.5 -36t-15 -36t-36 -15z" />
    <glyph glyph-name="semicolon" unicode=";" horiz-adv-x="237" 
d="M115 295q-22 0 -36.5 15t-14.5 36q0 22 15 36.5t36 14.5q22 0 36.5 -15t14.5 -36t-15 -36t-36 -15zM109 -15l10 4l-10 1q-17 0 -31 13.5t-14 34.5q0 22 15 36.5t37 14.5t37 -17t15 -44q0 -43 -23.5 -86t-56.5 -75h-37q23 22 40.5 55.5t17.5 62.5z" />
    <glyph glyph-name="less" unicode="&#x3c;" horiz-adv-x="647" 
d="M555 120l-346 245l346 244h-111l-352 -244l352 -245h111z" />
    <glyph glyph-name="equal" unicode="=" horiz-adv-x="658" 
d="M92 483h475v-73h-475v73zM92 293h475v-73h-475v73z" />
    <glyph glyph-name="greater" unicode="&#x3e;" horiz-adv-x="647" 
d="M92 120l346 245l-346 244h111l352 -244l-352 -245h-111z" />
    <glyph glyph-name="question" unicode="?" horiz-adv-x="574" 
d="M232 228v102q118 53 163.5 92.5t45.5 91.5q0 49 -35 85.5t-114 36.5q-74 0 -115.5 -33t-59.5 -99l-74 21q21 89 87.5 139t164.5 50q117 0 176.5 -56.5t59.5 -139.5q0 -43 -17.5 -78.5t-53 -63t-65.5 -44t-78 -37.5v-67h-85zM232 0v157h85v-157h-85z" />
    <glyph glyph-name="at" unicode="@" horiz-adv-x="795" 
d="M501 530h59v-267q0 -30 15 -49t40 -19q39 0 60 44t21 112q0 135 -84.5 224t-214.5 89q-129 0 -213.5 -89t-84.5 -224q0 -134 85 -225.5t213 -91.5q43 0 78 6.5t56 16t35 19t21 16t8 6.5l38 -21q-2 -4 -9.5 -12.5t-27 -22.5t-44.5 -26t-66.5 -21t-88.5 -9
q-153 0 -253.5 105t-100.5 260q0 157 100 260t254 103t254.5 -103t100.5 -260q0 -85 -37.5 -143.5t-105.5 -58.5q-38 0 -65.5 20t-37.5 52q-37 -70 -131 -70q-79 0 -129 54t-50 139q0 90 51 147.5t132 57.5q37 0 67.5 -13.5t42.5 -26.5t12 -19v40zM501 347v38q0 45 -33 74
t-85 29q-53 0 -86.5 -40t-32.5 -103q0 -58 33.5 -95t85.5 -37q54 0 86 38t32 96z" />
    <glyph glyph-name="A" unicode="A" horiz-adv-x="778" 
d="M671 0l-85 170h-394l-85 -170h-96l350 700h56l350 -700h-96zM232 251h314l-150 300l-7 21l-7 -21z" />
    <glyph glyph-name="B" unicode="B" horiz-adv-x="648" 
d="M92 700h265q91 0 147.5 -48.5t56.5 -125.5q0 -50 -34 -91.5t-77 -51.5q57 -6 106 -55.5t49 -119.5q0 -93 -61.5 -150.5t-170.5 -57.5h-281v700zM179 413h162q59 0 95.5 29.5t36.5 77.5t-36.5 77t-95.5 29h-162v-213zM179 74h188q65 0 107 36.5t42 96.5q0 57 -45 94.5
t-109 37.5h-183v-265z" />
    <glyph glyph-name="C" unicode="C" horiz-adv-x="761" 
d="M724 531l-89 -24q-35 56 -96 89t-133 33q-119 0 -196 -77.5t-77 -201.5q0 -123 78 -200.5t195 -77.5q79 0 144 38.5t98 102.5l87 -24q-45 -94 -132.5 -148.5t-196.5 -54.5q-152 0 -257.5 103.5t-105.5 260.5t105.5 260.5t257.5 103.5q102 0 186.5 -49.5t131.5 -133.5z
" />
    <glyph glyph-name="D" unicode="D" horiz-adv-x="794" 
d="M92 700h296q153 0 257.5 -99.5t104.5 -254.5q0 -152 -103 -249t-253 -97h-302v700zM179 81h215q112 0 189 72.5t77 192.5q0 123 -78 198t-194 75h-209v-538z" />
    <glyph glyph-name="E" unicode="E" horiz-adv-x="632" 
d="M179 81h389v-81h-476v700h470v-81h-383v-211h308v-79h-308v-248z" />
    <glyph glyph-name="F" unicode="F" horiz-adv-x="595" 
d="M552 619h-373v-231h298v-79h-298v-309h-87v700h460v-81z" />
    <glyph glyph-name="G" unicode="G" horiz-adv-x="795" 
d="M659 -1v103q-34 -43 -98.5 -79.5t-154.5 -36.5q-152 0 -257.5 103.5t-105.5 260.5t105.5 260.5t257.5 103.5q106 -2 188.5 -51t129.5 -132l-88 -23q-35 56 -96.5 88.5t-133.5 32.5q-119 0 -196 -77.5t-77 -201.5t79 -202t198 -78q93 0 159.5 43.5t90.5 96.5v81h-212v73
h287v-365h-76z" />
    <glyph glyph-name="H" unicode="H" horiz-adv-x="734" 
d="M555 700h87v-700h-87v321h-376v-321h-87v700h87v-297h376v297z" />
    <glyph glyph-name="I" unicode="I" horiz-adv-x="271" 
d="M179 0h-87v700h87v-700z" />
    <glyph glyph-name="J" unicode="J" horiz-adv-x="657" 
d="M495 700h88v-409q0 -144 -78 -225t-217 -81q-101 0 -177 54t-101 140l86 23q17 -62 69.5 -98.5t122.5 -36.5q101 0 154 58t53 162v413z" />
    <glyph glyph-name="K" unicode="K" horiz-adv-x="692" 
d="M533 700h102l-285 -285l317 -415h-108l-269 354l-111 -110v-244h-87v700h87v-351z" />
    <glyph glyph-name="L" unicode="L" horiz-adv-x="572" 
d="M179 81h373v-81h-460v700h87v-619z" />
    <glyph glyph-name="M" unicode="M" horiz-adv-x="836" 
d="M662 700h82v-700h-87v516l2 30l-14 -30l-208 -344h-38l-208 344l-14 29l2 -29v-516h-87v700h82l234 -387l10 -20l9 20z" />
    <glyph glyph-name="N" unicode="N" horiz-adv-x="780" 
d="M592 700h88v-700h-82l-398 526l-14 22l2 -29v-519h-87v700h81l399 -523l13 -23l-2 29v517z" />
    <glyph glyph-name="O" unicode="O" 
d="M43 350q0 157 105.5 260.5t257.5 103.5q153 0 258.5 -103.5t105.5 -260.5t-105.5 -260.5t-258.5 -103.5q-152 0 -257.5 103.5t-105.5 260.5zM133 350q0 -123 77.5 -201t195.5 -78t196 78t78 201q0 124 -78 201.5t-196 77.5t-195.5 -77.5t-77.5 -201.5z" />
    <glyph glyph-name="P" unicode="P" horiz-adv-x="602" 
d="M92 700h218q123 0 192.5 -59.5t69.5 -164.5t-69.5 -165t-192.5 -60h-131v-251h-87v700zM179 333h130q83 0 128 38t45 105q0 68 -46 105.5t-127 37.5h-130v-286z" />
    <glyph glyph-name="Q" unicode="Q" 
d="M359 -132v121q-136 17 -226 117.5t-90 243.5q0 157 105.5 260.5t257.5 103.5q153 0 258.5 -103.5t105.5 -260.5q0 -146 -92.5 -247t-231.5 -115v-120h-87zM406 71q118 0 196 78t78 201q0 124 -78 201.5t-196 77.5t-195.5 -77.5t-77.5 -201.5q0 -123 77.5 -201t195.5 -78z
" />
    <glyph glyph-name="R" unicode="R" horiz-adv-x="641" 
d="M599 0h-98l-163 260q-9 -1 -30 -1h-129v-259h-87v700h216q123 0 193.5 -59t70.5 -161q0 -75 -38 -127.5t-108 -75.5zM179 341h138q80 0 122.5 38t42.5 101q0 65 -43.5 102t-121.5 37h-138v-278z" />
    <glyph glyph-name="S" unicode="S" horiz-adv-x="597" 
d="M550 526l-83 -22q-12 62 -59 98t-112 36q-69 0 -111.5 -29.5t-42.5 -82.5q0 -32 27.5 -56.5t53 -34t84.5 -27.5q15 -5 22 -7q30 -9 44.5 -13.5t43.5 -16t44.5 -21t37.5 -26.5t32.5 -35t19 -43.5t8.5 -54.5q0 -89 -71 -147t-185 -58q-109 0 -179.5 57t-89.5 150l85 23
q7 -64 57.5 -107.5t130.5 -43.5q74 0 118.5 34.5t44.5 88.5q0 18 -6 33.5t-14.5 26.5t-25 22.5t-28.5 18.5t-35.5 15.5t-36.5 13t-39.5 12.5t-36.5 11q-33 10 -53 17.5t-50.5 23.5t-47.5 33.5t-30.5 45.5t-13.5 62q0 82 69.5 136.5t175.5 54.5q96 0 164.5 -51.5t87.5 -136.5
z" />
    <glyph glyph-name="T" unicode="T" horiz-adv-x="595" 
d="M21 700h552v-81h-233v-619h-87v619h-232v81z" />
    <glyph glyph-name="U" unicode="U" horiz-adv-x="737" 
d="M575 700h88v-409q0 -144 -77.5 -225t-216.5 -81t-217 81t-78 225v409h88v-413q0 -103 53.5 -161.5t153.5 -58.5t153 58t53 162v413z" />
    <glyph glyph-name="V" unicode="V" horiz-adv-x="757" 
d="M648 700h97l-333 -700h-67l-334 700h98l262 -553l7 -21l8 21z" />
    <glyph glyph-name="W" unicode="W" horiz-adv-x="989" 
d="M885 700h93l-278 -700h-59l-139 386l-7 26l-7 -26l-140 -386h-58l-279 700h93l208 -525l6 -24l7 24l146 404h47l147 -404l6 -23l6 23z" />
    <glyph glyph-name="X" unicode="X" horiz-adv-x="669" 
d="M340 280l-5 13l-6 -13l-207 -280h-106l266 363l-246 337h106l187 -258l6 -13l5 13l187 258h106l-246 -337l266 -363h-106z" />
    <glyph glyph-name="Y" unicode="Y" horiz-adv-x="674" 
d="M556 700h105l-280 -362v-338h-88v338l-280 362h105l206 -262l13 -21l12 21z" />
    <glyph glyph-name="Z" unicode="Z" horiz-adv-x="691" 
d="M631 700v-80l-438 -521l-21 -20l31 2h428v-81h-571v80l441 522l20 19l-31 -2h-420v81h561z" />
    <glyph glyph-name="bracketleft" unicode="[" horiz-adv-x="342" 
d="M179 776v-848h134v-80h-221v1008h221v-80h-134z" />
    <glyph glyph-name="backslash" unicode="\" horiz-adv-x="463" 
d="M452 0l-358 700h-82l356 -700h84z" />
    <glyph glyph-name="bracketright" unicode="]" horiz-adv-x="351" 
d="M172 776v-848h-134v-80h221v1008h-221v-80h134z" />
    <glyph glyph-name="asciicircum" unicode="^" horiz-adv-x="652" 
d="M560 477l-44 -41l-190 195l-190 -195l-44 41l194 195l40 40z" />
    <glyph glyph-name="underscore" unicode="_" horiz-adv-x="762" 
d="M92 0h578v-71h-578v71z" />
    <glyph glyph-name="grave" unicode="`" horiz-adv-x="308" 
d="M244 737l-220 104l32 61l215 -116z" />
    <glyph glyph-name="a" unicode="a" horiz-adv-x="778" 
d="M671 0l-85 170h-394l-85 -170h-96l350 700h56l350 -700h-96zM232 251h314l-150 300l-7 21l-7 -21z" />
    <glyph glyph-name="b" unicode="b" horiz-adv-x="648" 
d="M92 700h265q91 0 147.5 -48.5t56.5 -125.5q0 -50 -34 -91.5t-77 -51.5q57 -6 106 -55.5t49 -119.5q0 -93 -61.5 -150.5t-170.5 -57.5h-281v700zM179 413h162q59 0 95.5 29.5t36.5 77.5t-36.5 77t-95.5 29h-162v-213zM179 74h188q65 0 107 36.5t42 96.5q0 57 -45 94.5
t-109 37.5h-183v-265z" />
    <glyph glyph-name="c" unicode="c" horiz-adv-x="761" 
d="M724 531l-89 -24q-35 56 -96 89t-133 33q-119 0 -196 -77.5t-77 -201.5q0 -123 78 -200.5t195 -77.5q79 0 144 38.5t98 102.5l87 -24q-45 -94 -132.5 -148.5t-196.5 -54.5q-152 0 -257.5 103.5t-105.5 260.5t105.5 260.5t257.5 103.5q102 0 186.5 -49.5t131.5 -133.5z
" />
    <glyph glyph-name="d" unicode="d" horiz-adv-x="794" 
d="M92 700h296q153 0 257.5 -99.5t104.5 -254.5q0 -152 -103 -249t-253 -97h-302v700zM179 81h215q112 0 189 72.5t77 192.5q0 123 -78 198t-194 75h-209v-538z" />
    <glyph glyph-name="e" unicode="e" horiz-adv-x="632" 
d="M179 81h389v-81h-476v700h470v-81h-383v-211h308v-79h-308v-248z" />
    <glyph glyph-name="f" unicode="f" horiz-adv-x="595" 
d="M552 619h-373v-231h298v-79h-298v-309h-87v700h460v-81z" />
    <glyph glyph-name="g" unicode="g" horiz-adv-x="795" 
d="M659 -1v103q-34 -43 -98.5 -79.5t-154.5 -36.5q-152 0 -257.5 103.5t-105.5 260.5t105.5 260.5t257.5 103.5q106 -2 188.5 -51t129.5 -132l-88 -23q-35 56 -96.5 88.5t-133.5 32.5q-119 0 -196 -77.5t-77 -201.5t79 -202t198 -78q93 0 159.5 43.5t90.5 96.5v81h-212v73
h287v-365h-76z" />
    <glyph glyph-name="h" unicode="h" horiz-adv-x="734" 
d="M555 700h87v-700h-87v321h-376v-321h-87v700h87v-297h376v297z" />
    <glyph glyph-name="i" unicode="i" horiz-adv-x="271" 
d="M179 0h-87v700h87v-700z" />
    <glyph glyph-name="j" unicode="j" horiz-adv-x="657" 
d="M495 700h88v-409q0 -144 -78 -225t-217 -81q-101 0 -177 54t-101 140l86 23q17 -62 69.5 -98.5t122.5 -36.5q101 0 154 58t53 162v413z" />
    <glyph glyph-name="k" unicode="k" horiz-adv-x="692" 
d="M533 700h102l-285 -285l317 -415h-108l-269 354l-111 -110v-244h-87v700h87v-351z" />
    <glyph glyph-name="l" unicode="l" horiz-adv-x="572" 
d="M179 81h373v-81h-460v700h87v-619z" />
    <glyph glyph-name="m" unicode="m" horiz-adv-x="836" 
d="M662 700h82v-700h-87v516l2 30l-14 -30l-208 -344h-38l-208 344l-14 29l2 -29v-516h-87v700h82l234 -387l10 -20l9 20z" />
    <glyph glyph-name="n" unicode="n" horiz-adv-x="763" 
d="M592 700h88v-700h-82l-398 526l-14 22l2 -29v-519h-87v700h81l399 -523l13 -23l-2 29v517z" />
    <glyph glyph-name="o" unicode="o" 
d="M43 350q0 157 105.5 260.5t257.5 103.5q153 0 258.5 -103.5t105.5 -260.5t-105.5 -260.5t-258.5 -103.5q-152 0 -257.5 103.5t-105.5 260.5zM133 350q0 -123 77.5 -201t195.5 -78t196 78t78 201q0 124 -78 201.5t-196 77.5t-195.5 -77.5t-77.5 -201.5z" />
    <glyph glyph-name="p" unicode="p" horiz-adv-x="602" 
d="M92 700h218q123 0 192.5 -59.5t69.5 -164.5t-69.5 -165t-192.5 -60h-131v-251h-87v700zM179 333h130q83 0 128 38t45 105q0 68 -46 105.5t-127 37.5h-130v-286z" />
    <glyph glyph-name="q" unicode="q" 
d="M359 -132v121q-136 17 -226 117.5t-90 243.5q0 157 105.5 260.5t257.5 103.5q153 0 258.5 -103.5t105.5 -260.5q0 -146 -92.5 -247t-231.5 -115v-120h-87zM406 71q118 0 196 78t78 201q0 124 -78 201.5t-196 77.5t-195.5 -77.5t-77.5 -201.5q0 -123 77.5 -201t195.5 -78z
" />
    <glyph glyph-name="r" unicode="r" horiz-adv-x="641" 
d="M599 0h-98l-163 260q-9 -1 -30 -1h-129v-259h-87v700h216q123 0 193.5 -59t70.5 -161q0 -75 -38 -127.5t-108 -75.5zM179 341h138q80 0 122.5 38t42.5 101q0 65 -43.5 102t-121.5 37h-138v-278z" />
    <glyph glyph-name="s" unicode="s" horiz-adv-x="597" 
d="M550 526l-83 -22q-12 62 -59 98t-112 36q-69 0 -111.5 -29.5t-42.5 -82.5q0 -32 27.5 -56.5t53 -34t84.5 -27.5q15 -5 22 -7q30 -9 44.5 -13.5t43.5 -16t44.5 -21t37.5 -26.5t32.5 -35t19 -43.5t8.5 -54.5q0 -89 -71 -147t-185 -58q-109 0 -179.5 57t-89.5 150l85 23
q7 -64 57.5 -107.5t130.5 -43.5q74 0 118.5 34.5t44.5 88.5q0 18 -6 33.5t-14.5 26.5t-25 22.5t-28.5 18.5t-35.5 15.5t-36.5 13t-39.5 12.5t-36.5 11q-33 10 -53 17.5t-50.5 23.5t-47.5 33.5t-30.5 45.5t-13.5 62q0 82 69.5 136.5t175.5 54.5q96 0 164.5 -51.5t87.5 -136.5
z" />
    <glyph glyph-name="t" unicode="t" horiz-adv-x="595" 
d="M21 700h552v-81h-233v-619h-87v619h-232v81z" />
    <glyph glyph-name="u" unicode="u" horiz-adv-x="737" 
d="M575 700h88v-409q0 -144 -77.5 -225t-216.5 -81t-217 81t-78 225v409h88v-413q0 -103 53.5 -161.5t153.5 -58.5t153 58t53 162v413z" />
    <glyph glyph-name="v" unicode="v" horiz-adv-x="757" 
d="M648 700h97l-333 -700h-67l-334 700h98l262 -553l7 -21l8 21z" />
    <glyph glyph-name="w" unicode="w" horiz-adv-x="989" 
d="M885 700h93l-278 -700h-59l-139 386l-7 26l-7 -26l-140 -386h-58l-279 700h93l208 -525l6 -24l7 24l146 404h47l147 -404l6 -23l6 23z" />
    <glyph glyph-name="x" unicode="x" horiz-adv-x="669" 
d="M340 280l-5 13l-6 -13l-207 -280h-106l266 363l-246 337h106l187 -258l6 -13l5 13l187 258h106l-246 -337l266 -363h-106z" />
    <glyph glyph-name="y" unicode="y" horiz-adv-x="674" 
d="M556 700h105l-280 -362v-338h-88v338l-280 362h105l206 -262l13 -21l12 21z" />
    <glyph glyph-name="z" unicode="z" horiz-adv-x="691" 
d="M631 700v-80l-438 -521l-21 -20l31 2h428v-81h-571v80l441 522l20 19l-31 -2h-420v81h561z" />
    <glyph glyph-name="braceleft" unicode="{" horiz-adv-x="394" 
d="M243 626v-115q0 -38 -5 -68.5t-12.5 -46.5t-15.5 -27t-13.5 -14t-7.5 -3q2 0 7.5 -3.5t13.5 -14t15.5 -27t12.5 -47t5 -68.5v-114q0 -90 37 -124t97 -34v-80q-105 0 -163 59.5t-58 177.5v121q0 38 -6.5 67.5t-16 45t-19 25.5t-16.5 13l-6 3q3 1 7 3t15 12.5t19.5 25.5
t15.5 45t7 68v121q0 118 58 177.5t163 59.5v-80q-60 0 -97 -34t-37 -124z" />
    <glyph glyph-name="bar" unicode="|" horiz-adv-x="254" 
d="M162 -74h-70v849h70v-849z" />
    <glyph glyph-name="braceright" unicode="}" horiz-adv-x="402" 
d="M159 626v-115q0 -38 5 -68.5t12.5 -46.5t15.5 -27t13.5 -14t7.5 -3q-2 0 -7.5 -3.5t-13.5 -14t-15.5 -27t-12.5 -47t-5 -68.5v-114q0 -90 -37 -124t-97 -34v-80q105 0 163 59.5t58 177.5v121q0 38 6.5 67.5t16 45t19 25.5t16.5 13l6 3q-3 1 -7 3t-15 12.5t-19.5 25.5
t-15.5 45t-7 68v121q0 118 -58 177.5t-163 59.5v-80q60 0 97 -34t37 -124z" />
    <glyph glyph-name="asciitilde" unicode="~" horiz-adv-x="491" 
d="M377 419l71 -19q-8 -43 -42.5 -71t-83.5 -28q-31 0 -57.5 17.5t-49.5 35t-43 17.5q-24 0 -39.5 -14.5t-17.5 -37.5l-72 19q9 43 44 70.5t83 27.5q26 0 49 -11t37 -23.5t31 -23.5t32 -11q25 0 40.5 14.5t17.5 37.5z" />
    <glyph glyph-name="exclamdown" unicode="&#xa1;" horiz-adv-x="267" 
d="M92 700h83v-157h-83v157zM92 472h83v-472h-83v472z" />
    <glyph glyph-name="cent" unicode="&#xa2;" horiz-adv-x="569" 
d="M468 262l75 -21q-26 -62 -80.5 -102.5t-124.5 -49.5v-102h-71v102q-95 14 -159.5 86.5t-64.5 173.5q0 102 64 174.5t160 86.5v103h71v-103q65 -8 117.5 -45t80.5 -93l-75 -21q-51 85 -158 85q-79 0 -128.5 -51t-49.5 -136q0 -84 49.5 -135t128.5 -51q56 0 99.5 26
t65.5 73z" />
    <glyph glyph-name="sterling" unicode="&#xa3;" horiz-adv-x="704" 
d="M206 70h405v-70h-519v70q57 12 76 61t11 134l-5 53h-82v71h76l-9 102q-9 93 52.5 157t156.5 66q35 1 69.5 -8t69 -29.5t61 -59t39.5 -91.5l-74 -22q-41 137 -163 132q-62 -2 -96.5 -44.5t-28.5 -105.5l9 -97h226v-71h-220l5 -51q15 -156 -59 -197z" />
    <glyph glyph-name="currency" unicode="&#xa4;" horiz-adv-x="655" 
d="M486 550l71 71l45 -45l-71 -71q60 -71 60 -164q0 -89 -54 -159l72 -73l-44 -45l-73 73q-73 -60 -165 -60t-164 59l-73 -72l-45 45l73 73q-54 70 -54 159q0 92 59 164l-70 71l44 45l72 -71q70 54 158 54q89 0 159 -54zM327 529q-77 0 -130.5 -54.5t-53.5 -132.5
q0 -79 53.5 -133.5t130.5 -54.5q78 0 132 54.5t54 133.5q0 78 -54 132.5t-132 54.5z" />
    <glyph glyph-name="yen" unicode="&#xa5;" horiz-adv-x="674" 
d="M661 700l-210 -272h134v-61h-182l-22 -29v-10h204v-61h-204v-267h-88v267h-197v61h197v10l-22 29h-175v61h127l-210 272h105l206 -262l13 -21l12 21l207 262h105z" />
    <glyph glyph-name="brokenbar" unicode="&#xa6;" horiz-adv-x="254" 
d="M92 775h70v-280h-70v280zM92 216h70v-290h-70v290z" />
    <glyph glyph-name="dieresis" unicode="&#xa8;" horiz-adv-x="399" 
d="M62 765q-22 0 -36.5 14.5t-14.5 35.5t14.5 35.5t36.5 14.5q20 0 34.5 -15t14.5 -35q0 -21 -14.5 -35.5t-34.5 -14.5zM300 765q-21 0 -35.5 14.5t-14.5 35.5q0 20 14.5 35t35.5 15t35.5 -15t14.5 -35q0 -21 -14.5 -35.5t-35.5 -14.5z" />
    <glyph glyph-name="copyright" unicode="&#xa9;" 
d="M406 714q153 0 258.5 -103.5t105.5 -260.5t-105.5 -260.5t-258.5 -103.5q-152 0 -257.5 103.5t-105.5 260.5t105.5 260.5t257.5 103.5zM406 652q-127 0 -211 -84t-84 -218q0 -132 84 -216.5t211 -84.5t212 84.5t85 216.5q0 133 -85 217.5t-212 84.5zM520 291l50 -15
q-19 -45 -63.5 -74t-96.5 -29q-74 0 -124.5 50.5t-50.5 125.5q0 76 50 126t125 50q48 0 91.5 -26t63.5 -67l-50 -15q-15 26 -44 42t-61 16q-54 0 -87.5 -35t-33.5 -91t33.5 -91t87.5 -35q35 0 65.5 19t44.5 49z" />
    <glyph glyph-name="ordfeminine" unicode="&#xaa;" horiz-adv-x="398" 
d="M112 447l-35 -72h-57l166 333h26l166 -333h-56l-35 72h-175zM194 615l-59 -122h129l-60 122l-5 16zM20 282v46h358v-46h-358z" />
    <glyph glyph-name="guillemotleft" unicode="&#xab;" horiz-adv-x="751" 
d="M345 589l-236 -234l235 -234l48 49l-191 185l191 185zM630 589l-236 -234l235 -234l48 49l-191 185l191 185z" />
    <glyph glyph-name="softhyphen" unicode="&#xad;" horiz-adv-x="389" 
d="M40 395h309v-80h-309v80z" />
    <glyph glyph-name="registered" unicode="&#xae;" 
d="M406 714q153 0 258.5 -103.5t105.5 -260.5t-105.5 -260.5t-258.5 -103.5q-152 0 -257.5 103.5t-105.5 260.5t105.5 260.5t257.5 103.5zM406 49q127 0 212 84.5t85 216.5q0 133 -85 217.5t-212 84.5t-211 -84t-84 -218q0 -132 84 -216.5t211 -84.5zM297 526h112
q61 0 96.5 -29.5t35.5 -80.5q0 -77 -74 -102l86 -140h-54l-83 132h-7h-62v-132h-50v352zM347 353h66q78 0 78 63q0 64 -78 64h-66v-127z" />
    <glyph glyph-name="macron" unicode="&#xaf;" horiz-adv-x="367" 
d="M11 741h307v-55h-307v55z" />
    <glyph glyph-name="degree" unicode="&#xb0;" horiz-adv-x="295" 
d="M148 590q-43 0 -74 30.5t-31 73.5t30.5 73.5t74.5 30.5q43 0 73.5 -30.5t30.5 -73.5t-30.5 -73.5t-73.5 -30.5zM148 638q23 0 40 17t17 40q0 24 -17 40.5t-40 16.5t-40 -16.5t-17 -40.5q0 -23 17 -40t40 -17z" />
    <glyph glyph-name="plusminus" unicode="&#xb1;" horiz-adv-x="658" 
d="M378 392h189v-73h-189v-164h-80v164h-206v73h207v199h79v-199zM92 -9v73h475v-73h-475z" />
    <glyph glyph-name="acute" unicode="&#xb4;" horiz-adv-x="308" 
d="M213 902l32 -61l-220 -104l-28 49z" />
    <glyph glyph-name="periodcentered" unicode="&#xb7;" horiz-adv-x="222" 
d="M111 295q-22 0 -36.5 15t-14.5 36q0 22 15 36.5t36 14.5q22 0 36.5 -15t14.5 -36t-15 -36t-36 -15z" />
    <glyph glyph-name="cedilla" unicode="&#xb8;" horiz-adv-x="243" 
d="M109 0l-20 -50q46 1 75 -25t29 -69q0 -44 -29.5 -69t-76.5 -25h-76l20 50h56q25 0 39.5 12t14.5 32t-15 32.5t-39 13.5h-66l34 98h54z" />
    <glyph glyph-name="ordmasculine" unicode="&#xba;" horiz-adv-x="363" 
d="M10 540q0 74 49.5 123t121.5 49t122 -49t50 -123q0 -73 -50 -122t-122 -49t-121.5 48.5t-49.5 122.5zM63 540q0 -52 33.5 -86.5t84.5 -34.5q52 0 85.5 34t33.5 87t-33.5 87.5t-85.5 34.5q-51 0 -84.5 -34.5t-33.5 -87.5zM20 328h323v-46h-323v46z" />
    <glyph glyph-name="guillemotright" unicode="&#xbb;" horiz-adv-x="751" 
d="M130 589l236 -234l-235 -234l-48 49l191 185l-191 185zM415 589l236 -234l-235 -234l-48 49l191 185l-191 185z" />
    <glyph glyph-name="questiondown" unicode="&#xbf;" horiz-adv-x="574" 
d="M342 700v-157h-85v157h85zM342 472v-102q-118 -53 -163.5 -92.5t-45.5 -91.5q0 -49 35 -85.5t114 -36.5q74 0 115.5 33t59.5 99l74 -21q-21 -89 -87.5 -139t-164.5 -50q-117 0 -176.5 56.5t-59.5 139.5q0 43 17.5 78.5t53 63t65.5 44t78 37.5v67h85z" />
    <glyph glyph-name="Agrave" unicode="&#xc0;" horiz-adv-x="778" 
d="M470 786l-27 -49l-220 104l32 61zM671 0l-85 170h-394l-85 -170h-96l350 700h56l350 -700h-96zM232 251h314l-150 300l-7 21l-7 -21z" />
    <glyph glyph-name="Aacute" unicode="&#xc1;" horiz-adv-x="778" 
d="M536 841l-220 -104l-28 49l216 116zM671 0l-85 170h-394l-85 -170h-96l350 700h56l350 -700h-96zM232 251h314l-150 300l-7 21l-7 -21z" />
    <glyph glyph-name="Acircumflex" unicode="&#xc2;" horiz-adv-x="778" 
d="M386 845l-124 -104l-36 39l160 135l159 -135l-36 -39zM671 0l-85 170h-394l-85 -170h-96l350 700h56l350 -700h-96zM232 251h314l-150 300l-7 21l-7 -21z" />
    <glyph glyph-name="Atilde" unicode="&#xc3;" horiz-adv-x="778" 
d="M501 863h70q0 -46 -32 -76.5t-81 -30.5q-32 0 -73.5 29t-62.5 29q-22 0 -35.5 -13.5t-13.5 -33.5h-70q0 46 32 76.5t81 30.5q35 0 76 -29t60 -29q21 0 34.5 13.5t14.5 33.5zM671 0l-85 170h-394l-85 -170h-96l350 700h56l350 -700h-96zM232 251h314l-150 300l-7 21
l-7 -21z" />
    <glyph glyph-name="Adieresis" unicode="&#xc4;" horiz-adv-x="778" 
d="M267 765q-22 0 -36.5 14.5t-14.5 35.5t15 35.5t36 14.5q20 0 34.5 -15t14.5 -35q0 -21 -14.5 -35.5t-34.5 -14.5zM505 765q-21 0 -35.5 14.5t-14.5 35.5q0 20 14.5 35t35.5 15t35.5 -15t14.5 -35q0 -21 -14.5 -35.5t-35.5 -14.5zM671 0l-85 170h-394l-85 -170h-96
l350 700h56l350 -700h-96zM232 251h314l-150 300l-7 21l-7 -21z" />
    <glyph glyph-name="Aring" unicode="&#xc5;" horiz-adv-x="778" 
d="M671 0l-85 170h-394l-85 -170h-96l339 678q-29 11 -47.5 37.5t-18.5 58.5q0 43 30.5 73.5t74.5 30.5q43 0 73.5 -30.5t30.5 -73.5q0 -32 -18 -58.5t-47 -37.5l339 -678h-96zM332 775q0 -23 17 -40t40 -17t40 17t17 40q0 24 -17 40.5t-40 16.5t-40 -16.5t-17 -40.5z
M232 251h314l-150 300l-7 21l-7 -21z" />
    <glyph glyph-name="AE" unicode="&#xc6;" horiz-adv-x="982" 
d="M566 81h352v-81h-440v172h-248l-114 -172h-105l467 700h434v-81h-346v-211h307v-79h-307v-248zM274 237h204v314l-18 -34z" />
    <glyph glyph-name="Ccedilla" unicode="&#xc7;" horiz-adv-x="761" 
d="M648 213l87 -24q-42 -89 -124 -143.5t-185 -59.5l-15 -36q46 1 75 -25t29 -69q0 -44 -29.5 -69t-76.5 -25h-76l20 50h56q25 0 39.5 12t14.5 32t-15 32.5t-39 13.5h-66l30 85q-141 12 -235.5 114t-94.5 249q0 157 105.5 260.5t257.5 103.5q102 0 186.5 -49.5t131.5 -133.5
l-89 -24q-35 56 -96 89t-133 33q-119 0 -196 -77.5t-77 -201.5q0 -123 78 -200.5t195 -77.5q79 0 144 38.5t98 102.5z" />
    <glyph glyph-name="Egrave" unicode="&#xc8;" horiz-adv-x="632" 
d="M416 786l-27 -49l-220 104l32 61zM179 81h389v-81h-476v700h470v-81h-383v-211h308v-79h-308v-248z" />
    <glyph glyph-name="Eacute" unicode="&#xc9;" horiz-adv-x="632" 
d="M482 841l-220 -104l-28 49l216 116zM179 81h389v-81h-476v700h470v-81h-383v-211h308v-79h-308v-248z" />
    <glyph glyph-name="Ecircumflex" unicode="&#xca;" horiz-adv-x="632" 
d="M332 845l-124 -104l-36 39l160 135l159 -135l-36 -39zM179 81h389v-81h-476v700h470v-81h-383v-211h308v-79h-308v-248z" />
    <glyph glyph-name="Edieresis" unicode="&#xcb;" horiz-adv-x="632" 
d="M213 765q-22 0 -36.5 14.5t-14.5 35.5t15 35.5t36 14.5q20 0 34.5 -15t14.5 -35q0 -21 -14.5 -35.5t-34.5 -14.5zM451 765q-21 0 -35.5 14.5t-14.5 35.5q0 20 14.5 35t35.5 15t35.5 -15t14.5 -35q0 -21 -14.5 -35.5t-35.5 -14.5zM179 81h389v-81h-476v700h470v-81h-383
v-211h308v-79h-308v-248z" />
    <glyph glyph-name="Igrave" unicode="&#xcc;" horiz-adv-x="271" 
d="M191 737l-220 104l32 61l215 -116zM179 0h-87v700h87v-700z" />
    <glyph glyph-name="Iacute" unicode="&#xcd;" horiz-adv-x="271" 
d="M252 902l32 -61l-220 -104l-28 49zM179 0h-87v700h87v-700z" />
    <glyph glyph-name="Icircumflex" unicode="&#xce;" horiz-adv-x="271" 
d="M-26 780l160 135l159 -135l-36 -39l-123 104l-124 -104zM179 0h-87v700h87v-700z" />
    <glyph glyph-name="Idieresis" unicode="&#xcf;" horiz-adv-x="271" 
d="M15 765q-22 0 -36.5 14.5t-14.5 35.5t15 35.5t36 14.5q20 0 34.5 -15t14.5 -35q0 -21 -14.5 -35.5t-34.5 -14.5zM253 765q-21 0 -35.5 14.5t-14.5 35.5q0 20 14.5 35t35.5 15t35.5 -15t14.5 -35q0 -21 -14.5 -35.5t-35.5 -14.5zM179 0h-87v700h87v-700z" />
    <glyph glyph-name="Eth" unicode="&#xd0;" horiz-adv-x="799" 
d="M97 700h296q153 0 257.5 -99.5t104.5 -254.5q0 -152 -103 -249t-253 -97h-302v316h-54v80h54v304zM184 81h215q112 0 189 72.5t77 192.5q0 123 -78 198t-194 75h-209v-223h174v-80h-174v-235z" />
    <glyph glyph-name="Ntilde" unicode="&#xd1;" horiz-adv-x="780" 
d="M509 863h70q0 -46 -32 -76.5t-81 -30.5q-32 0 -73.5 29t-62.5 29q-22 0 -35.5 -13.5t-13.5 -33.5h-70q0 46 32 76.5t81 30.5q35 0 76 -29t60 -29q21 0 34.5 13.5t14.5 33.5zM592 700h88v-700h-82l-398 526l-14 22l2 -29v-519h-87v700h81l399 -523l13 -23l-2 29v517z" />
    <glyph glyph-name="Ograve" unicode="&#xd2;" 
d="M466 737l-220 104l32 61l215 -116zM43 350q0 157 105.5 260.5t257.5 103.5q153 0 258.5 -103.5t105.5 -260.5t-105.5 -260.5t-258.5 -103.5q-152 0 -257.5 103.5t-105.5 260.5zM133 350q0 -123 77.5 -201t195.5 -78t196 78t78 201q0 124 -78 201.5t-196 77.5
t-195.5 -77.5t-77.5 -201.5z" />
    <glyph glyph-name="Oacute" unicode="&#xd3;" 
d="M527 902l32 -61l-220 -104l-28 49zM43 350q0 157 105.5 260.5t257.5 103.5q153 0 258.5 -103.5t105.5 -260.5t-105.5 -260.5t-258.5 -103.5q-152 0 -257.5 103.5t-105.5 260.5zM133 350q0 -123 77.5 -201t195.5 -78t196 78t78 201q0 124 -78 201.5t-196 77.5
t-195.5 -77.5t-77.5 -201.5z" />
    <glyph glyph-name="Ocircumflex" unicode="&#xd4;" 
d="M249 780l160 135l159 -135l-36 -39l-123 104l-124 -104zM43 350q0 157 105.5 260.5t257.5 103.5q153 0 258.5 -103.5t105.5 -260.5t-105.5 -260.5t-258.5 -103.5q-152 0 -257.5 103.5t-105.5 260.5zM133 350q0 -123 77.5 -201t195.5 -78t196 78t78 201q0 124 -78 201.5
t-196 77.5t-195.5 -77.5t-77.5 -201.5z" />
    <glyph glyph-name="Otilde" unicode="&#xd5;" 
d="M524 863h70q0 -46 -32 -76.5t-81 -30.5q-32 0 -73.5 29t-62.5 29q-22 0 -35.5 -13.5t-13.5 -33.5h-70q0 46 32 76.5t81 30.5q35 0 76 -29t60 -29q21 0 34.5 13.5t14.5 33.5zM43 350q0 157 105.5 260.5t257.5 103.5q153 0 258.5 -103.5t105.5 -260.5t-105.5 -260.5
t-258.5 -103.5q-152 0 -257.5 103.5t-105.5 260.5zM133 350q0 -123 77.5 -201t195.5 -78t196 78t78 201q0 124 -78 201.5t-196 77.5t-195.5 -77.5t-77.5 -201.5z" />
    <glyph glyph-name="Odieresis" unicode="&#xd6;" 
d="M290 765q-22 0 -36.5 14.5t-14.5 35.5t14.5 35.5t36.5 14.5q20 0 34.5 -15t14.5 -35q0 -21 -14.5 -35.5t-34.5 -14.5zM528 765q-21 0 -35.5 14.5t-14.5 35.5q0 20 14.5 35t35.5 15t35.5 -15t14.5 -35q0 -21 -14.5 -35.5t-35.5 -14.5zM43 350q0 157 105.5 260.5
t257.5 103.5q153 0 258.5 -103.5t105.5 -260.5t-105.5 -260.5t-258.5 -103.5q-152 0 -257.5 103.5t-105.5 260.5zM133 350q0 -123 77.5 -201t195.5 -78t196 78t78 201q0 124 -78 201.5t-196 77.5t-195.5 -77.5t-77.5 -201.5z" />
    <glyph glyph-name="multiply" unicode="&#xd7;" horiz-adv-x="584" 
d="M435 557l57 -57l-143 -143l143 -143l-58 -57l-142 143l-143 -142l-57 57l143 142l-143 143l57 57l143 -143z" />
    <glyph glyph-name="Oslash" unicode="&#xd8;" 
d="M694 665l-37 -48q113 -105 113 -267q0 -157 -105.5 -260.5t-258.5 -103.5q-105 0 -190 51l-39 -51l-62 47l39 51q-111 106 -111 266q0 157 105.5 260.5t257.5 103.5q103 0 190 -51l36 48zM207 153l337 442q-62 34 -138 34q-118 0 -195.5 -77.5t-77.5 -201.5
q0 -118 74 -197zM605 548l-337 -443q62 -34 138 -34q118 0 196 78t78 201q0 121 -75 198z" />
    <glyph glyph-name="Ugrave" unicode="&#xd9;" horiz-adv-x="737" 
d="M424 737l-220 104l32 61l215 -116zM575 700h88v-409q0 -144 -77.5 -225t-216.5 -81t-217 81t-78 225v409h88v-413q0 -103 53.5 -161.5t153.5 -58.5t153 58t53 162v413z" />
    <glyph glyph-name="Uacute" unicode="&#xda;" horiz-adv-x="737" 
d="M485 902l32 -61l-220 -104l-28 49zM575 700h88v-409q0 -144 -77.5 -225t-216.5 -81t-217 81t-78 225v409h88v-413q0 -103 53.5 -161.5t153.5 -58.5t153 58t53 162v413z" />
    <glyph glyph-name="Ucircumflex" unicode="&#xdb;" horiz-adv-x="737" 
d="M207 780l160 135l159 -135l-36 -39l-123 104l-124 -104zM575 700h88v-409q0 -144 -77.5 -225t-216.5 -81t-217 81t-78 225v409h88v-413q0 -103 53.5 -161.5t153.5 -58.5t153 58t53 162v413z" />
    <glyph glyph-name="Udieresis" unicode="&#xdc;" horiz-adv-x="737" 
d="M248 765q-22 0 -36.5 14.5t-14.5 35.5t14.5 35.5t36.5 14.5q20 0 34.5 -15t14.5 -35q0 -21 -14.5 -35.5t-34.5 -14.5zM486 765q-21 0 -35.5 14.5t-14.5 35.5q0 20 14.5 35t35.5 15t35.5 -15t14.5 -35q0 -21 -14.5 -35.5t-35.5 -14.5zM575 700h88v-409q0 -144 -77.5 -225
t-216.5 -81t-217 81t-78 225v409h88v-413q0 -103 53.5 -161.5t153.5 -58.5t153 58t53 162v413z" />
    <glyph glyph-name="Yacute" unicode="&#xdd;" horiz-adv-x="674" 
d="M450 902l32 -61l-220 -104l-28 49zM556 700h105l-280 -362v-338h-88v338l-280 362h105l206 -262l13 -21l12 21z" />
    <glyph glyph-name="Thorn" unicode="&#xde;" horiz-adv-x="609" 
d="M179 575h149q106 0 172 -63.5t66 -161.5q0 -97 -66 -159t-172 -62h-149v-129h-87v700h87v-125zM179 210h151q67 0 106.5 39t39.5 101q0 61 -40 102t-106 41h-151v-283z" />
    <glyph glyph-name="germandbls" unicode="&#xdf;" horiz-adv-x="778" 
d="M92 700h574l-168 -295q111 -4 174 -60t63 -145q0 -92 -66.5 -153t-170.5 -61q-78 0 -145 37.5t-99 100.5l82 22q24 -40 66 -62.5t93 -22.5q67 0 109.5 39.5t42.5 98.5q0 55 -40 93t-112 41h-82v72l113 196l16 20l-30 -2h-333v-619h-87v700z" />
    <glyph glyph-name="agrave" unicode="&#xe0;" horiz-adv-x="778" 
d="M470 786l-27 -49l-220 104l32 61zM671 0l-85 170h-394l-85 -170h-96l350 700h56l350 -700h-96zM232 251h314l-150 300l-7 21l-7 -21z" />
    <glyph glyph-name="aacute" unicode="&#xe1;" horiz-adv-x="778" 
d="M536 841l-220 -104l-28 49l216 116zM671 0l-85 170h-394l-85 -170h-96l350 700h56l350 -700h-96zM232 251h314l-150 300l-7 21l-7 -21z" />
    <glyph glyph-name="acircumflex" unicode="&#xe2;" horiz-adv-x="778" 
d="M386 845l-124 -104l-36 39l160 135l159 -135l-36 -39zM671 0l-85 170h-394l-85 -170h-96l350 700h56l350 -700h-96zM232 251h314l-150 300l-7 21l-7 -21z" />
    <glyph glyph-name="atilde" unicode="&#xe3;" horiz-adv-x="778" 
d="M501 863h70q0 -46 -32 -76.5t-81 -30.5q-32 0 -73.5 29t-62.5 29q-22 0 -35.5 -13.5t-13.5 -33.5h-70q0 46 32 76.5t81 30.5q35 0 76 -29t60 -29q21 0 34.5 13.5t14.5 33.5zM671 0l-85 170h-394l-85 -170h-96l350 700h56l350 -700h-96zM232 251h314l-150 300l-7 21
l-7 -21z" />
    <glyph glyph-name="adieresis" unicode="&#xe4;" horiz-adv-x="778" 
d="M267 765q-22 0 -36.5 14.5t-14.5 35.5t15 35.5t36 14.5q20 0 34.5 -15t14.5 -35q0 -21 -14.5 -35.5t-34.5 -14.5zM505 765q-21 0 -35.5 14.5t-14.5 35.5q0 20 14.5 35t35.5 15t35.5 -15t14.5 -35q0 -21 -14.5 -35.5t-35.5 -14.5zM671 0l-85 170h-394l-85 -170h-96
l350 700h56l350 -700h-96zM232 251h314l-150 300l-7 21l-7 -21z" />
    <glyph glyph-name="aring" unicode="&#xe5;" horiz-adv-x="778" 
d="M671 0l-85 170h-394l-85 -170h-96l339 678q-29 11 -47.5 37.5t-18.5 58.5q0 43 30.5 73.5t74.5 30.5q43 0 73.5 -30.5t30.5 -73.5q0 -32 -18 -58.5t-47 -37.5l339 -678h-96zM332 775q0 -23 17 -40t40 -17t40 17t17 40q0 24 -17 40.5t-40 16.5t-40 -16.5t-17 -40.5z
M232 251h314l-150 300l-7 21l-7 -21z" />
    <glyph glyph-name="ae" unicode="&#xe6;" horiz-adv-x="982" 
d="M566 81h352v-81h-440v172h-248l-114 -172h-105l467 700h434v-81h-346v-211h307v-79h-307v-248zM274 237h204v314l-18 -34z" />
    <glyph glyph-name="ccedilla" unicode="&#xe7;" horiz-adv-x="761" 
d="M648 213l87 -24q-42 -89 -124 -143.5t-185 -59.5l-15 -36q46 1 75 -25t29 -69q0 -44 -29.5 -69t-76.5 -25h-76l20 50h56q25 0 39.5 12t14.5 32t-15 32.5t-39 13.5h-66l30 85q-141 12 -235.5 114t-94.5 249q0 157 105.5 260.5t257.5 103.5q102 0 186.5 -49.5t131.5 -133.5
l-89 -24q-35 56 -96 89t-133 33q-119 0 -196 -77.5t-77 -201.5q0 -123 78 -200.5t195 -77.5q79 0 144 38.5t98 102.5z" />
    <glyph glyph-name="egrave" unicode="&#xe8;" horiz-adv-x="632" 
d="M412 786l-27 -49l-220 104l32 61zM179 81h389v-81h-476v700h470v-81h-383v-211h308v-79h-308v-248z" />
    <glyph glyph-name="eacute" unicode="&#xe9;" horiz-adv-x="632" 
d="M478 841l-220 -104l-28 49l216 116zM179 81h389v-81h-476v700h470v-81h-383v-211h308v-79h-308v-248z" />
    <glyph glyph-name="ecircumflex" unicode="&#xea;" horiz-adv-x="632" 
d="M328 845l-124 -104l-36 39l160 135l159 -135l-36 -39zM179 81h389v-81h-476v700h470v-81h-383v-211h308v-79h-308v-248z" />
    <glyph glyph-name="edieresis" unicode="&#xeb;" horiz-adv-x="632" 
d="M209 765q-22 0 -36.5 14.5t-14.5 35.5t15 35.5t36 14.5q20 0 34.5 -15t14.5 -35q0 -21 -14.5 -35.5t-34.5 -14.5zM447 765q-21 0 -35.5 14.5t-14.5 35.5q0 20 14.5 35t35.5 15t35.5 -15t14.5 -35q0 -21 -14.5 -35.5t-35.5 -14.5zM179 81h389v-81h-476v700h470v-81h-383
v-211h308v-79h-308v-248z" />
    <glyph glyph-name="igrave" unicode="&#xec;" horiz-adv-x="271" 
d="M191 737l-220 104l32 61l215 -116zM179 0h-87v700h87v-700z" />
    <glyph glyph-name="iacute" unicode="&#xed;" horiz-adv-x="271" 
d="M252 902l32 -61l-220 -104l-28 49zM179 0h-87v700h87v-700z" />
    <glyph glyph-name="icircumflex" unicode="&#xee;" horiz-adv-x="271" 
d="M-26 780l160 135l159 -135l-36 -39l-123 104l-124 -104zM179 0h-87v700h87v-700z" />
    <glyph glyph-name="idieresis" unicode="&#xef;" horiz-adv-x="271" 
d="M15 765q-22 0 -36.5 14.5t-14.5 35.5t15 35.5t36 14.5q20 0 34.5 -15t14.5 -35q0 -21 -14.5 -35.5t-34.5 -14.5zM253 765q-21 0 -35.5 14.5t-14.5 35.5q0 20 14.5 35t35.5 15t35.5 -15t14.5 -35q0 -21 -14.5 -35.5t-35.5 -14.5zM179 0h-87v700h87v-700z" />
    <glyph glyph-name="eth" unicode="&#xf0;" horiz-adv-x="799" 
d="M97 700h296q153 0 257.5 -99.5t104.5 -254.5q0 -152 -103 -249t-253 -97h-302v316h-54v80h54v304zM184 81h215q112 0 189 72.5t77 192.5q0 123 -78 198t-194 75h-209v-223h174v-80h-174v-235z" />
    <glyph glyph-name="ntilde" unicode="&#xf1;" horiz-adv-x="763" 
d="M494 863h70q0 -46 -32 -76.5t-81 -30.5q-32 0 -73.5 29t-62.5 29q-22 0 -35.5 -13.5t-13.5 -33.5h-70q0 46 32 76.5t81 30.5q35 0 76 -29t60 -29q21 0 34.5 13.5t14.5 33.5zM592 700h88v-700h-82l-398 526l-14 22l2 -29v-519h-87v700h81l399 -523l13 -23l-2 29v517z" />
    <glyph glyph-name="ograve" unicode="&#xf2;" 
d="M464 737l-220 104l32 61l215 -116zM43 350q0 157 105.5 260.5t257.5 103.5q153 0 258.5 -103.5t105.5 -260.5t-105.5 -260.5t-258.5 -103.5q-152 0 -257.5 103.5t-105.5 260.5zM133 350q0 -123 77.5 -201t195.5 -78t196 78t78 201q0 124 -78 201.5t-196 77.5
t-195.5 -77.5t-77.5 -201.5z" />
    <glyph glyph-name="oacute" unicode="&#xf3;" 
d="M525 902l32 -61l-220 -104l-28 49zM43 350q0 157 105.5 260.5t257.5 103.5q153 0 258.5 -103.5t105.5 -260.5t-105.5 -260.5t-258.5 -103.5q-152 0 -257.5 103.5t-105.5 260.5zM133 350q0 -123 77.5 -201t195.5 -78t196 78t78 201q0 124 -78 201.5t-196 77.5
t-195.5 -77.5t-77.5 -201.5z" />
    <glyph glyph-name="ocircumflex" unicode="&#xf4;" 
d="M247 780l160 135l159 -135l-36 -39l-123 104l-124 -104zM43 350q0 157 105.5 260.5t257.5 103.5q153 0 258.5 -103.5t105.5 -260.5t-105.5 -260.5t-258.5 -103.5q-152 0 -257.5 103.5t-105.5 260.5zM133 350q0 -123 77.5 -201t195.5 -78t196 78t78 201q0 124 -78 201.5
t-196 77.5t-195.5 -77.5t-77.5 -201.5z" />
    <glyph glyph-name="otilde" unicode="&#xf5;" 
d="M522 863h70q0 -46 -32 -76.5t-81 -30.5q-32 0 -73.5 29t-62.5 29q-22 0 -35.5 -13.5t-13.5 -33.5h-70q0 46 32 76.5t81 30.5q35 0 76 -29t60 -29q21 0 34.5 13.5t14.5 33.5zM43 350q0 157 105.5 260.5t257.5 103.5q153 0 258.5 -103.5t105.5 -260.5t-105.5 -260.5
t-258.5 -103.5q-152 0 -257.5 103.5t-105.5 260.5zM133 350q0 -123 77.5 -201t195.5 -78t196 78t78 201q0 124 -78 201.5t-196 77.5t-195.5 -77.5t-77.5 -201.5z" />
    <glyph glyph-name="odieresis" unicode="&#xf6;" 
d="M288 765q-22 0 -36.5 14.5t-14.5 35.5t14.5 35.5t36.5 14.5q20 0 34.5 -15t14.5 -35q0 -21 -14.5 -35.5t-34.5 -14.5zM526 765q-21 0 -35.5 14.5t-14.5 35.5q0 20 14.5 35t35.5 15t35.5 -15t14.5 -35q0 -21 -14.5 -35.5t-35.5 -14.5zM43 350q0 157 105.5 260.5
t257.5 103.5q153 0 258.5 -103.5t105.5 -260.5t-105.5 -260.5t-258.5 -103.5q-152 0 -257.5 103.5t-105.5 260.5zM133 350q0 -123 77.5 -201t195.5 -78t196 78t78 201q0 124 -78 201.5t-196 77.5t-195.5 -77.5t-77.5 -201.5z" />
    <glyph glyph-name="divide" unicode="&#xf7;" horiz-adv-x="658" 
d="M328 527q-22 0 -36.5 15t-14.5 36q0 22 15 36.5t36 14.5q22 0 36.5 -15t14.5 -36t-15 -36t-36 -15zM92 392h475v-73h-475v73zM328 83q-22 0 -36.5 15t-14.5 36q0 22 15 36.5t36 14.5q22 0 36.5 -15t14.5 -36t-15 -36t-36 -15z" />
    <glyph glyph-name="oslash" unicode="&#xf8;" 
d="M694 665l-37 -48q113 -105 113 -267q0 -157 -105.5 -260.5t-258.5 -103.5q-105 0 -190 51l-39 -51l-62 47l39 51q-111 106 -111 266q0 157 105.5 260.5t257.5 103.5q103 0 190 -51l36 48zM207 153l337 442q-62 34 -138 34q-118 0 -195.5 -77.5t-77.5 -201.5
q0 -118 74 -197zM605 548l-337 -443q62 -34 138 -34q118 0 196 78t78 201q0 121 -75 198z" />
    <glyph glyph-name="ugrave" unicode="&#xf9;" horiz-adv-x="737" 
d="M424 737l-220 104l32 61l215 -116zM575 700h88v-409q0 -144 -77.5 -225t-216.5 -81t-217 81t-78 225v409h88v-413q0 -103 53.5 -161.5t153.5 -58.5t153 58t53 162v413z" />
    <glyph glyph-name="uacute" unicode="&#xfa;" horiz-adv-x="737" 
d="M485 902l32 -61l-220 -104l-28 49zM575 700h88v-409q0 -144 -77.5 -225t-216.5 -81t-217 81t-78 225v409h88v-413q0 -103 53.5 -161.5t153.5 -58.5t153 58t53 162v413z" />
    <glyph glyph-name="ucircumflex" unicode="&#xfb;" horiz-adv-x="737" 
d="M207 780l160 135l159 -135l-36 -39l-123 104l-124 -104zM575 700h88v-409q0 -144 -77.5 -225t-216.5 -81t-217 81t-78 225v409h88v-413q0 -103 53.5 -161.5t153.5 -58.5t153 58t53 162v413z" />
    <glyph glyph-name="udieresis" unicode="&#xfc;" horiz-adv-x="737" 
d="M248 765q-22 0 -36.5 14.5t-14.5 35.5t14.5 35.5t36.5 14.5q20 0 34.5 -15t14.5 -35q0 -21 -14.5 -35.5t-34.5 -14.5zM486 765q-21 0 -35.5 14.5t-14.5 35.5q0 20 14.5 35t35.5 15t35.5 -15t14.5 -35q0 -21 -14.5 -35.5t-35.5 -14.5zM575 700h88v-409q0 -144 -77.5 -225
t-216.5 -81t-217 81t-78 225v409h88v-413q0 -103 53.5 -161.5t153.5 -58.5t153 58t53 162v413z" />
    <glyph glyph-name="yacute" unicode="&#xfd;" horiz-adv-x="674" 
d="M450 902l32 -61l-220 -104l-28 49zM556 700h105l-280 -362v-338h-88v338l-280 362h105l206 -262l13 -21l12 21z" />
    <glyph glyph-name="thorn" unicode="&#xfe;" horiz-adv-x="609" 
d="M179 575h149q106 0 172 -63.5t66 -161.5q0 -97 -66 -159t-172 -62h-149v-129h-87v700h87v-125zM179 210h151q67 0 106.5 39t39.5 101q0 61 -40 102t-106 41h-151v-283z" />
    <glyph glyph-name="ydieresis" unicode="&#xff;" horiz-adv-x="674" 
d="M213 765q-22 0 -36.5 14.5t-14.5 35.5t15 35.5t36 14.5q20 0 34.5 -15t14.5 -35q0 -21 -14.5 -35.5t-34.5 -14.5zM451 765q-21 0 -35.5 14.5t-14.5 35.5q0 20 14.5 35t35.5 15t35.5 -15t14.5 -35q0 -21 -14.5 -35.5t-35.5 -14.5zM556 700h105l-280 -362v-338h-88v338
l-280 362h105l206 -262l13 -21l12 21z" />
    <glyph glyph-name="Amacron" unicode="&#x100;" horiz-adv-x="778" 
d="M546 841v-55h-307v55h307zM671 0l-85 170h-394l-85 -170h-96l350 700h56l350 -700h-96zM232 251h314l-150 300l-7 21l-7 -21z" />
    <glyph glyph-name="amacron" unicode="&#x101;" horiz-adv-x="778" 
d="M546 841v-55h-307v55h307zM671 0l-85 170h-394l-85 -170h-96l350 700h56l350 -700h-96zM232 251h314l-150 300l-7 21l-7 -21z" />
    <glyph glyph-name="Abreve" unicode="&#x102;" horiz-adv-x="778" 
d="M475 858h54q-10 -49 -48 -81t-88 -32q-53 0 -91 31.5t-47 81.5h55q6 -28 29.5 -47t53.5 -19q29 0 52.5 19.5t29.5 46.5zM671 0l-85 170h-394l-85 -170h-96l350 700h56l350 -700h-96zM232 251h314l-150 300l-7 21l-7 -21z" />
    <glyph glyph-name="abreve" unicode="&#x103;" horiz-adv-x="778" 
d="M475 858h54q-10 -49 -48 -81t-88 -32q-53 0 -91 31.5t-47 81.5h55q6 -28 29.5 -47t53.5 -19q29 0 52.5 19.5t29.5 46.5zM671 0l-85 170h-394l-85 -170h-96l350 700h56l350 -700h-96zM232 251h314l-150 300l-7 21l-7 -21z" />
    <glyph glyph-name="Aogonek" unicode="&#x104;" horiz-adv-x="778" 
d="M763 -122l47 -31q-20 -38 -60.5 -63t-85.5 -25q-65 0 -107 38t-42 99q0 62 43 102t93 43l-65 129h-394l-85 -170h-96l350 700h56l350 -700h-54q-53 0 -93 -26t-40 -78q0 -34 23.5 -57.5t62.5 -23.5q30 0 57 18.5t40 44.5zM232 251h314l-150 300l-7 21l-7 -21z" />
    <glyph glyph-name="aogonek" unicode="&#x105;" horiz-adv-x="778" 
d="M763 -122l47 -31q-20 -38 -60.5 -63t-85.5 -25q-65 0 -107 38t-42 99q0 62 43 102t93 43l-65 129h-394l-85 -170h-96l350 700h56l350 -700h-54q-53 0 -93 -26t-40 -78q0 -34 23.5 -57.5t62.5 -23.5q30 0 57 18.5t40 44.5zM232 251h314l-150 300l-7 21l-7 -21z" />
    <glyph glyph-name="Cacute" unicode="&#x106;" horiz-adv-x="761" 
d="M518 902l32 -61l-220 -104l-28 49zM724 531l-89 -24q-35 56 -96 89t-133 33q-119 0 -196 -77.5t-77 -201.5q0 -123 78 -200.5t195 -77.5q79 0 144 38.5t98 102.5l87 -24q-45 -94 -132.5 -148.5t-196.5 -54.5q-152 0 -257.5 103.5t-105.5 260.5t105.5 260.5t257.5 103.5
q102 0 186.5 -49.5t131.5 -133.5z" />
    <glyph glyph-name="cacute" unicode="&#x107;" horiz-adv-x="761" 
d="M518 902l32 -61l-220 -104l-28 49zM724 531l-89 -24q-35 56 -96 89t-133 33q-119 0 -196 -77.5t-77 -201.5q0 -123 78 -200.5t195 -77.5q79 0 144 38.5t98 102.5l87 -24q-45 -94 -132.5 -148.5t-196.5 -54.5q-152 0 -257.5 103.5t-105.5 260.5t105.5 260.5t257.5 103.5
q102 0 186.5 -49.5t131.5 -133.5z" />
    <glyph glyph-name="Cdotaccent" unicode="&#x10a;" horiz-adv-x="761" 
d="M405 765q-22 0 -36.5 14.5t-14.5 35.5t15 35.5t36 14.5q20 0 34.5 -15t14.5 -35q0 -21 -14.5 -35.5t-34.5 -14.5zM724 531l-89 -24q-35 56 -96 89t-133 33q-119 0 -196 -77.5t-77 -201.5q0 -123 78 -200.5t195 -77.5q79 0 144 38.5t98 102.5l87 -24
q-45 -94 -132.5 -148.5t-196.5 -54.5q-152 0 -257.5 103.5t-105.5 260.5t105.5 260.5t257.5 103.5q102 0 186.5 -49.5t131.5 -133.5z" />
    <glyph glyph-name="cdotaccent" unicode="&#x10b;" horiz-adv-x="761" 
d="M405 765q-22 0 -36.5 14.5t-14.5 35.5t15 35.5t36 14.5q20 0 34.5 -15t14.5 -35q0 -21 -14.5 -35.5t-34.5 -14.5zM724 531l-89 -24q-35 56 -96 89t-133 33q-119 0 -196 -77.5t-77 -201.5q0 -123 78 -200.5t195 -77.5q79 0 144 38.5t98 102.5l87 -24
q-45 -94 -132.5 -148.5t-196.5 -54.5q-152 0 -257.5 103.5t-105.5 260.5t105.5 260.5t257.5 103.5q102 0 186.5 -49.5t131.5 -133.5z" />
    <glyph glyph-name="Ccaron" unicode="&#x10c;" horiz-adv-x="761" 
d="M242 866l160 -135l159 135l-36 39l-123 -104l-124 104zM724 531l-89 -24q-35 56 -96 89t-133 33q-119 0 -196 -77.5t-77 -201.5q0 -123 78 -200.5t195 -77.5q79 0 144 38.5t98 102.5l87 -24q-45 -94 -132.5 -148.5t-196.5 -54.5q-152 0 -257.5 103.5t-105.5 260.5
t105.5 260.5t257.5 103.5q102 0 186.5 -49.5t131.5 -133.5z" />
    <glyph glyph-name="ccaron" unicode="&#x10d;" horiz-adv-x="761" 
d="M242 866l160 -135l159 135l-36 39l-123 -104l-124 104zM724 531l-89 -24q-35 56 -96 89t-133 33q-119 0 -196 -77.5t-77 -201.5q0 -123 78 -200.5t195 -77.5q79 0 144 38.5t98 102.5l87 -24q-45 -94 -132.5 -148.5t-196.5 -54.5q-152 0 -257.5 103.5t-105.5 260.5
t105.5 260.5t257.5 103.5q102 0 186.5 -49.5t131.5 -133.5z" />
    <glyph glyph-name="Dcaron" unicode="&#x10e;" horiz-adv-x="794" 
d="M211 866l160 -135l159 135l-36 39l-123 -104l-124 104zM92 700h296q153 0 257.5 -99.5t104.5 -254.5q0 -152 -103 -249t-253 -97h-302v700zM179 81h215q112 0 189 72.5t77 192.5q0 123 -78 198t-194 75h-209v-538z" />
    <glyph glyph-name="dcaron" unicode="&#x10f;" horiz-adv-x="794" 
d="M211 866l160 -135l159 135l-36 39l-123 -104l-124 104zM92 700h296q153 0 257.5 -99.5t104.5 -254.5q0 -152 -103 -249t-253 -97h-302v700zM179 81h215q112 0 189 72.5t77 192.5q0 123 -78 198t-194 75h-209v-538z" />
    <glyph glyph-name="Dcroat" unicode="&#x110;" horiz-adv-x="799" 
d="M97 700h296q153 0 257.5 -99.5t104.5 -254.5q0 -152 -103 -249t-253 -97h-302v316h-54v80h54v304zM184 81h215q112 0 189 72.5t77 192.5q0 123 -78 198t-194 75h-209v-223h174v-80h-174v-235z" />
    <glyph glyph-name="dcroat" unicode="&#x111;" horiz-adv-x="799" 
d="M97 700h296q153 0 257.5 -99.5t104.5 -254.5q0 -152 -103 -249t-253 -97h-302v316h-54v80h54v304zM184 81h215q112 0 189 72.5t77 192.5q0 123 -78 198t-194 75h-209v-223h174v-80h-174v-235z" />
    <glyph glyph-name="Emacron" unicode="&#x112;" horiz-adv-x="632" 
d="M492 841v-55h-307v55h307zM179 81h389v-81h-476v700h470v-81h-383v-211h308v-79h-308v-248z" />
    <glyph glyph-name="emacron" unicode="&#x113;" horiz-adv-x="632" 
d="M488 841v-55h-307v55h307zM179 81h389v-81h-476v700h470v-81h-383v-211h308v-79h-308v-248z" />
    <glyph glyph-name="Edotaccent" unicode="&#x116;" horiz-adv-x="632" 
d="M337 765q-22 0 -36.5 14.5t-14.5 35.5t15 35.5t36 14.5q20 0 34.5 -15t14.5 -35q0 -21 -14.5 -35.5t-34.5 -14.5zM179 81h389v-81h-476v700h470v-81h-383v-211h308v-79h-308v-248z" />
    <glyph glyph-name="edotaccent" unicode="&#x117;" horiz-adv-x="632" 
d="M337 765q-22 0 -36.5 14.5t-14.5 35.5t15 35.5t36 14.5q20 0 34.5 -15t14.5 -35q0 -21 -14.5 -35.5t-34.5 -14.5zM179 81h389v-81h-476v700h470v-81h-383v-211h308v-79h-308v-248z" />
    <glyph glyph-name="Eogonek" unicode="&#x118;" horiz-adv-x="632" 
d="M524 -122l47 -31q-20 -38 -60.5 -63t-85.5 -25q-65 0 -107 38t-42 99t45 104h-229v700h470v-81h-383v-211h308v-79h-308v-248h389v-81h-94q-53 0 -93 -26t-40 -78q0 -34 23.5 -57.5t62.5 -23.5q30 0 57 18.5t40 44.5z" />
    <glyph glyph-name="eogonek" unicode="&#x119;" horiz-adv-x="632" 
d="M541 -122l47 -31q-20 -38 -60.5 -63t-85.5 -25q-65 0 -107 38t-42 99t45 104h-246v700h470v-81h-383v-211h308v-79h-308v-248h389v-81h-77q-53 0 -93 -26t-40 -78q0 -34 23.5 -57.5t62.5 -23.5q30 0 57 18.5t40 44.5z" />
    <glyph glyph-name="Ecaron" unicode="&#x11a;" horiz-adv-x="632" 
d="M493 866l-159 -135l-160 135l36 39l124 -104l123 104zM179 81h389v-81h-476v700h470v-81h-383v-211h308v-79h-308v-248z" />
    <glyph glyph-name="ecaron" unicode="&#x11b;" horiz-adv-x="632" 
d="M489 866l-159 -135l-160 135l36 39l124 -104l123 104zM179 81h389v-81h-476v700h470v-81h-383v-211h308v-79h-308v-248z" />
    <glyph glyph-name="Gcircumflex" unicode="&#x11c;" horiz-adv-x="795" 
d="M237 780l160 135l159 -135l-36 -39l-123 104l-124 -104zM659 -1v103q-34 -43 -98.5 -79.5t-154.5 -36.5q-152 0 -257.5 103.5t-105.5 260.5t105.5 260.5t257.5 103.5q106 -2 188.5 -51t129.5 -132l-88 -23q-35 56 -96.5 88.5t-133.5 32.5q-119 0 -196 -77.5t-77 -201.5
t79 -202t198 -78q93 0 159.5 43.5t90.5 96.5v81h-212v73h287v-365h-76z" />
    <glyph glyph-name="gcircumflex" unicode="&#x11d;" horiz-adv-x="795" 
d="M237 780l160 135l159 -135l-36 -39l-123 104l-124 -104zM659 -1v103q-34 -43 -98.5 -79.5t-154.5 -36.5q-152 0 -257.5 103.5t-105.5 260.5t105.5 260.5t257.5 103.5q106 -2 188.5 -51t129.5 -132l-88 -23q-35 56 -96.5 88.5t-133.5 32.5q-119 0 -196 -77.5t-77 -201.5
t79 -202t198 -78q93 0 159.5 43.5t90.5 96.5v81h-212v73h287v-365h-76z" />
    <glyph glyph-name="Gbreve" unicode="&#x11e;" horiz-adv-x="795" 
d="M266 858h55q6 -28 29.5 -47t53.5 -19q29 0 52.5 19.5t29.5 46.5h54q-10 -49 -48 -81t-88 -32q-53 0 -91 31.5t-47 81.5zM659 -1v103q-34 -43 -98.5 -79.5t-154.5 -36.5q-152 0 -257.5 103.5t-105.5 260.5t105.5 260.5t257.5 103.5q106 -2 188.5 -51t129.5 -132l-88 -23
q-35 56 -96.5 88.5t-133.5 32.5q-119 0 -196 -77.5t-77 -201.5t79 -202t198 -78q93 0 159.5 43.5t90.5 96.5v81h-212v73h287v-365h-76z" />
    <glyph glyph-name="gbreve" unicode="&#x11f;" horiz-adv-x="795" 
d="M266 858h55q6 -28 29.5 -47t53.5 -19q29 0 52.5 19.5t29.5 46.5h54q-10 -49 -48 -81t-88 -32q-53 0 -91 31.5t-47 81.5zM659 -1v103q-34 -43 -98.5 -79.5t-154.5 -36.5q-152 0 -257.5 103.5t-105.5 260.5t105.5 260.5t257.5 103.5q106 -2 188.5 -51t129.5 -132l-88 -23
q-35 56 -96.5 88.5t-133.5 32.5q-119 0 -196 -77.5t-77 -201.5t79 -202t198 -78q93 0 159.5 43.5t90.5 96.5v81h-212v73h287v-365h-76z" />
    <glyph glyph-name="Gdotaccent" unicode="&#x120;" horiz-adv-x="795" 
d="M402 765q-22 0 -36.5 14.5t-14.5 35.5t14.5 35.5t36.5 14.5q20 0 34.5 -15t14.5 -35q0 -21 -14.5 -35.5t-34.5 -14.5zM659 -1v103q-34 -43 -98.5 -79.5t-154.5 -36.5q-152 0 -257.5 103.5t-105.5 260.5t105.5 260.5t257.5 103.5q106 -2 188.5 -51t129.5 -132l-88 -23
q-35 56 -96.5 88.5t-133.5 32.5q-119 0 -196 -77.5t-77 -201.5t79 -202t198 -78q93 0 159.5 43.5t90.5 96.5v81h-212v73h287v-365h-76z" />
    <glyph glyph-name="gdotaccent" unicode="&#x121;" horiz-adv-x="795" 
d="M402 765q-22 0 -36.5 14.5t-14.5 35.5t14.5 35.5t36.5 14.5q20 0 34.5 -15t14.5 -35q0 -21 -14.5 -35.5t-34.5 -14.5zM659 -1v103q-34 -43 -98.5 -79.5t-154.5 -36.5q-152 0 -257.5 103.5t-105.5 260.5t105.5 260.5t257.5 103.5q106 -2 188.5 -51t129.5 -132l-88 -23
q-35 56 -96.5 88.5t-133.5 32.5q-119 0 -196 -77.5t-77 -201.5t79 -202t198 -78q93 0 159.5 43.5t90.5 96.5v81h-212v73h287v-365h-76z" />
    <glyph glyph-name="Gcommaaccent" unicode="&#x122;" horiz-adv-x="795" 
d="M659 -1v103q-34 -43 -98.5 -79.5t-154.5 -36.5q-152 0 -257.5 103.5t-105.5 260.5t105.5 260.5t257.5 103.5q106 -2 188.5 -51t129.5 -132l-88 -23q-35 56 -96.5 88.5t-133.5 32.5q-119 0 -196 -77.5t-77 -201.5t79 -202t198 -78q93 0 159.5 43.5t90.5 96.5v81h-212v73
h287v-365h-76zM392 -141l10 4l-10 1q-16 0 -30 13t-14 34t15 35t36 14t35.5 -16.5t14.5 -42.5q0 -41 -22.5 -83t-54.5 -73h-36q23 22 39.5 54t16.5 60z" />
    <glyph glyph-name="gcommaaccent" unicode="&#x123;" horiz-adv-x="795" 
d="M659 -1v103q-34 -43 -98.5 -79.5t-154.5 -36.5q-152 0 -257.5 103.5t-105.5 260.5t105.5 260.5t257.5 103.5q106 -2 188.5 -51t129.5 -132l-88 -23q-35 56 -96.5 88.5t-133.5 32.5q-119 0 -196 -77.5t-77 -201.5t79 -202t198 -78q93 0 159.5 43.5t90.5 96.5v81h-212v73
h287v-365h-76zM392 -141l10 4l-10 1q-16 0 -30 13t-14 34t15 35t36 14t35.5 -16.5t14.5 -42.5q0 -41 -22.5 -83t-54.5 -73h-36q23 22 39.5 54t16.5 60z" />
    <glyph glyph-name="Hcircumflex" unicode="&#x124;" horiz-adv-x="734" 
d="M365 845l-124 -104l-36 39l160 135l159 -135l-36 -39zM555 700h87v-700h-87v321h-376v-321h-87v700h87v-297h376v297z" />
    <glyph glyph-name="hcircumflex" unicode="&#x125;" horiz-adv-x="734" 
d="M365 845l-124 -104l-36 39l160 135l159 -135l-36 -39zM555 700h87v-700h-87v321h-376v-321h-87v700h87v-297h376v297z" />
    <glyph glyph-name="Hbar" unicode="&#x126;" horiz-adv-x="734" 
d="M706 622v-69h-65v-553h-87v321h-376v-321h-87v553h-64v69h64v78h87v-78h376v78h87v-78h65zM554 403v150h-376v-150h376z" />
    <glyph glyph-name="hbar" unicode="&#x127;" horiz-adv-x="734" 
d="M706 622v-69h-65v-553h-87v321h-376v-321h-87v553h-64v69h64v78h87v-78h376v78h87v-78h65zM554 403v150h-376v-150h376z" />
    <glyph glyph-name="Imacron" unicode="&#x12a;" horiz-adv-x="271" 
d="M-13 841h307v-55h-307v55zM179 0h-87v700h87v-700z" />
    <glyph glyph-name="imacron" unicode="&#x12b;" horiz-adv-x="271" 
d="M-13 841h307v-55h-307v55zM179 0h-87v700h87v-700z" />
    <glyph glyph-name="Iogonek" unicode="&#x12e;" horiz-adv-x="271" 
d="M203 -122l47 -31q-20 -38 -60.5 -63t-85.5 -25q-65 0 -107 38t-42 99q0 63 43.5 102.5t93.5 42.5v659h87v-700h-26q-53 0 -93 -26t-40 -78q0 -34 23.5 -57.5t62.5 -23.5q30 0 57 18.5t40 44.5z" />
    <glyph glyph-name="iogonek" unicode="&#x12f;" horiz-adv-x="271" 
d="M203 -122l47 -31q-20 -38 -60.5 -63t-85.5 -25q-65 0 -107 38t-42 99q0 63 43.5 102.5t93.5 42.5v659h87v-700h-26q-53 0 -93 -26t-40 -78q0 -34 23.5 -57.5t62.5 -23.5q30 0 57 18.5t40 44.5z" />
    <glyph glyph-name="Idotaccent" unicode="&#x130;" horiz-adv-x="271" 
d="M139 765q-22 0 -36.5 14.5t-14.5 35.5t15 35.5t36 14.5q20 0 34.5 -15t14.5 -35q0 -21 -14.5 -35.5t-34.5 -14.5zM179 0h-87v700h87v-700z" />
    <glyph glyph-name="dotlessi" unicode="&#x131;" horiz-adv-x="271" 
d="M179 0h-87v700h87v-700z" />
    <glyph glyph-name="IJ" unicode="&#x132;" horiz-adv-x="928" 
d="M179 0h-87v700h87v-700zM766 700h88v-409q0 -144 -78 -225t-217 -81q-101 0 -177 54t-101 140l86 23q17 -62 69.5 -98.5t122.5 -36.5q101 0 154 58t53 162v413z" />
    <glyph glyph-name="ij" unicode="&#x133;" horiz-adv-x="928" 
d="M179 0h-87v700h87v-700zM766 700h88v-409q0 -144 -78 -225t-217 -81q-101 0 -177 54t-101 140l86 23q17 -62 69.5 -98.5t122.5 -36.5q101 0 154 58t53 162v413z" />
    <glyph glyph-name="Jcircumflex" unicode="&#x134;" horiz-adv-x="657" 
d="M390 780l160 135l159 -135l-36 -39l-123 104l-124 -104zM495 700h88v-409q0 -144 -78 -225t-217 -81q-101 0 -177 54t-101 140l86 23q17 -62 69.5 -98.5t122.5 -36.5q101 0 154 58t53 162v413z" />
    <glyph glyph-name="jcircumflex" unicode="&#x135;" horiz-adv-x="657" 
d="M390 780l160 135l159 -135l-36 -39l-123 104l-124 -104zM495 700h88v-409q0 -144 -78 -225t-217 -81q-101 0 -177 54t-101 140l86 23q17 -62 69.5 -98.5t122.5 -36.5q101 0 154 58t53 162v413z" />
    <glyph glyph-name="Kcommaaccent" unicode="&#x136;" horiz-adv-x="692" 
d="M533 700h102l-285 -285l317 -415h-108l-269 354l-111 -110v-244h-87v700h87v-351zM338 -141l10 4l-10 1q-16 0 -30 13t-14 34t15 35t36 14t35.5 -16.5t14.5 -42.5q0 -41 -22.5 -83t-54.5 -73h-36q23 22 39.5 54t16.5 60z" />
    <glyph glyph-name="kcommaaccent" unicode="&#x137;" horiz-adv-x="692" 
d="M533 700h102l-285 -285l317 -415h-108l-269 354l-111 -110v-244h-87v700h87v-351zM346 -141l10 4l-10 1q-16 0 -30 13t-14 34t15 35t36 14t35.5 -16.5t14.5 -42.5q0 -41 -22.5 -83t-54.5 -73h-36q23 22 39.5 54t16.5 60z" />
    <glyph glyph-name="Lacute" unicode="&#x139;" horiz-adv-x="572" 
d="M255 902l32 -61l-220 -104l-28 49zM179 81h373v-81h-460v700h87v-619z" />
    <glyph glyph-name="lacute" unicode="&#x13a;" horiz-adv-x="572" 
d="M255 902l32 -61l-220 -104l-28 49zM179 81h373v-81h-460v700h87v-619z" />
    <glyph glyph-name="Lcommaaccent" unicode="&#x13b;" horiz-adv-x="572" 
d="M179 81h373v-81h-460v700h87v-619zM322 -137l-10 1q-16 0 -30 13t-14 34t15 35t36 14t35.5 -16.5t14.5 -42.5q0 -41 -22.5 -83t-54.5 -73h-36q23 22 39.5 54t16.5 60z" />
    <glyph glyph-name="lcommaaccent" unicode="&#x13c;" horiz-adv-x="572" 
d="M179 81h373v-81h-460v700h87v-619zM307 -137l-10 1q-16 0 -30 13t-14 34t15 35t36 14t35.5 -16.5t14.5 -42.5q0 -41 -22.5 -83t-54.5 -73h-36q23 22 39.5 54t16.5 60z" />
    <glyph glyph-name="Lcaron" unicode="&#x13d;" horiz-adv-x="572" 
d="M314 619l-10 1q-17 0 -31 13.5t-14 34.5q0 22 15 36.5t37 14.5t37 -17t15 -44q0 -43 -23.5 -86t-56.5 -75h-37q23 22 40.5 55.5t17.5 62.5zM179 81h373v-81h-460v700h87v-619z" />
    <glyph glyph-name="lcaron" unicode="&#x13e;" horiz-adv-x="572" 
d="M322 619l-10 1q-17 0 -31 13.5t-14 34.5q0 22 15 36.5t37 14.5t37 -17t15 -44q0 -43 -23.5 -86t-56.5 -75h-37q23 22 40.5 55.5t17.5 62.5zM179 81h373v-81h-460v700h87v-619z" />
    <glyph glyph-name="Ldot" unicode="&#x13f;" horiz-adv-x="572" 
d="M179 81h373v-81h-460v700h87v-619zM390 333q-22 0 -36.5 14.5t-14.5 35.5t14.5 35.5t36.5 14.5q20 0 34.5 -15t14.5 -35q0 -21 -14.5 -35.5t-34.5 -14.5z" />
    <glyph glyph-name="ldot" unicode="&#x140;" horiz-adv-x="572" 
d="M179 81h373v-81h-460v700h87v-619zM390 333q-22 0 -36.5 14.5t-14.5 35.5t14.5 35.5t36.5 14.5q20 0 34.5 -15t14.5 -35q0 -21 -14.5 -35.5t-34.5 -14.5z" />
    <glyph glyph-name="Lslash" unicode="&#x141;" horiz-adv-x="572" 
d="M179 81h373v-81h-460v700h87v-331l296 150v-83l-296 -150v-205z" />
    <glyph glyph-name="lslash" unicode="&#x142;" horiz-adv-x="572" 
d="M179 81h373v-81h-460v700h87v-331l296 150v-83l-296 -150v-205z" />
    <glyph glyph-name="Nacute" unicode="&#x143;" horiz-adv-x="780" 
d="M512 902l32 -61l-220 -104l-28 49zM592 700h88v-700h-82l-398 526l-14 22l2 -29v-519h-87v700h81l399 -523l13 -23l-2 29v517z" />
    <glyph glyph-name="nacute" unicode="&#x144;" horiz-adv-x="763" 
d="M497 902l32 -61l-220 -104l-28 49zM592 700h88v-700h-82l-398 526l-14 22l2 -29v-519h-87v700h81l399 -523l13 -23l-2 29v517z" />
    <glyph glyph-name="Ncommaaccent" unicode="&#x145;" horiz-adv-x="780" 
d="M592 700h88v-700h-82l-398 526l-14 22l2 -29v-519h-87v700h81l399 -523l13 -23l-2 29v517zM387 -141l10 4l-10 1q-16 0 -30 13t-14 34t15 35t36 14t35.5 -16.5t14.5 -42.5q0 -41 -22.5 -83t-54.5 -73h-36q23 22 39.5 54t16.5 60z" />
    <glyph glyph-name="ncommaaccent" unicode="&#x146;" horiz-adv-x="763" 
d="M592 700h88v-700h-82l-398 526l-14 22l2 -29v-519h-87v700h81l399 -523l13 -23l-2 29v517zM378 -141l10 4l-10 1q-16 0 -30 13t-14 34t15 35t36 14t35.5 -16.5t14.5 -42.5q0 -41 -22.5 -83t-54.5 -73h-36q23 22 39.5 54t16.5 60z" />
    <glyph glyph-name="Ncaron" unicode="&#x147;" horiz-adv-x="780" 
d="M236 866l160 -135l159 135l-36 39l-123 -104l-124 104zM592 700h88v-700h-82l-398 526l-14 22l2 -29v-519h-87v700h81l399 -523l13 -23l-2 29v517z" />
    <glyph glyph-name="ncaron" unicode="&#x148;" horiz-adv-x="763" 
d="M221 866l160 -135l159 135l-36 39l-123 -104l-124 104zM592 700h88v-700h-82l-398 526l-14 22l2 -29v-519h-87v700h81l399 -523l13 -23l-2 29v517z" />
    <glyph glyph-name="Eng" unicode="&#x14a;" horiz-adv-x="763" 
d="M583 700h88v-700q0 -90 -53 -148.5t-134 -58.5h-41v73h36q48 0 76 36.5t28 97.5h6l-398 526l-14 22l2 -29v-519h-87v700h81l399 -523l13 -23l-2 29v517z" />
    <glyph glyph-name="eng" unicode="&#x14b;" horiz-adv-x="763" 
d="M583 700h88v-700q0 -90 -53 -148.5t-134 -58.5h-41v73h36q48 0 76 36.5t28 97.5h6l-398 526l-14 22l2 -29v-519h-87v700h81l399 -523l13 -23l-2 29v517z" />
    <glyph glyph-name="Omacron" unicode="&#x14c;" 
d="M262 841h307v-55h-307v55zM43 350q0 157 105.5 260.5t257.5 103.5q153 0 258.5 -103.5t105.5 -260.5t-105.5 -260.5t-258.5 -103.5q-152 0 -257.5 103.5t-105.5 260.5zM133 350q0 -123 77.5 -201t195.5 -78t196 78t78 201q0 124 -78 201.5t-196 77.5t-195.5 -77.5
t-77.5 -201.5z" />
    <glyph glyph-name="omacron" unicode="&#x14d;" 
d="M260 841h307v-55h-307v55zM43 350q0 157 105.5 260.5t257.5 103.5q153 0 258.5 -103.5t105.5 -260.5t-105.5 -260.5t-258.5 -103.5q-152 0 -257.5 103.5t-105.5 260.5zM133 350q0 -123 77.5 -201t195.5 -78t196 78t78 201q0 124 -78 201.5t-196 77.5t-195.5 -77.5
t-77.5 -201.5z" />
    <glyph glyph-name="Ohungarumlaut" unicode="&#x150;" 
d="M427 902l32 -61l-220 -104l-28 49zM625 902l32 -61l-220 -104l-28 49zM43 350q0 157 105.5 260.5t257.5 103.5q153 0 258.5 -103.5t105.5 -260.5t-105.5 -260.5t-258.5 -103.5q-152 0 -257.5 103.5t-105.5 260.5zM133 350q0 -123 77.5 -201t195.5 -78t196 78t78 201
q0 124 -78 201.5t-196 77.5t-195.5 -77.5t-77.5 -201.5z" />
    <glyph glyph-name="ohungarumlaut" unicode="&#x151;" 
d="M425 902l32 -61l-220 -104l-28 49zM623 902l32 -61l-220 -104l-28 49zM43 350q0 157 105.5 260.5t257.5 103.5q153 0 258.5 -103.5t105.5 -260.5t-105.5 -260.5t-258.5 -103.5q-152 0 -257.5 103.5t-105.5 260.5zM133 350q0 -123 77.5 -201t195.5 -78t196 78t78 201
q0 124 -78 201.5t-196 77.5t-195.5 -77.5t-77.5 -201.5z" />
    <glyph glyph-name="OE" unicode="&#x152;" horiz-adv-x="1054" 
d="M550 0v22q-69 -30 -146 -30q-152 0 -256.5 101.5t-104.5 256.5t104.5 256.5t256.5 101.5q77 0 146 -30v22h434v-81h-346v-211h307v-79h-307v-248h352v-81h-440zM550 116v469q-68 42 -146 42q-116 0 -193.5 -76.5t-77.5 -200.5q0 -122 78 -199t193 -77q81 0 146 42z" />
    <glyph glyph-name="oe" unicode="&#x153;" horiz-adv-x="1054" 
d="M550 0v22q-69 -30 -146 -30q-152 0 -256.5 101.5t-104.5 256.5t104.5 256.5t256.5 101.5q77 0 146 -30v22h434v-81h-346v-211h307v-79h-307v-248h352v-81h-440zM550 116v469q-68 42 -146 42q-116 0 -193.5 -76.5t-77.5 -200.5q0 -122 78 -199t193 -77q81 0 146 42z" />
    <glyph glyph-name="Racute" unicode="&#x154;" horiz-adv-x="641" 
d="M450 841l-220 -104l-28 49l216 116zM599 0h-98l-163 260q-9 -1 -30 -1h-129v-259h-87v700h216q123 0 193.5 -59t70.5 -161q0 -75 -38 -127.5t-108 -75.5zM179 341h138q80 0 122.5 38t42.5 101q0 65 -43.5 102t-121.5 37h-138v-278z" />
    <glyph glyph-name="racute" unicode="&#x155;" horiz-adv-x="641" 
d="M472 841l-220 -104l-28 49l216 116zM599 0h-98l-163 260q-9 -1 -30 -1h-129v-259h-87v700h216q123 0 193.5 -59t70.5 -161q0 -75 -38 -127.5t-108 -75.5zM179 341h138q80 0 122.5 38t42.5 101q0 65 -43.5 102t-121.5 37h-138v-278z" />
    <glyph glyph-name="Rcommaaccent" unicode="&#x156;" horiz-adv-x="641" 
d="M426 277l173 -277h-98l-163 260q-9 -1 -30 -1h-129v-259h-87v700h216q123 0 193.5 -59t70.5 -161q0 -75 -38 -127.5t-108 -75.5zM179 341h138q80 0 122.5 38t42.5 101q0 65 -43.5 102t-121.5 37h-138v-278zM318 -137l-10 1q-16 0 -30 13t-14 34t15 35t36 14t35.5 -16.5
t14.5 -42.5q0 -41 -22.5 -83t-54.5 -73h-36q23 22 39.5 54t16.5 60z" />
    <glyph glyph-name="rcommaaccent" unicode="&#x157;" horiz-adv-x="641" 
d="M426 277l173 -277h-98l-163 260q-9 -1 -30 -1h-129v-259h-87v700h216q123 0 193.5 -59t70.5 -161q0 -75 -38 -127.5t-108 -75.5zM179 341h138q80 0 122.5 38t42.5 101q0 65 -43.5 102t-121.5 37h-138v-278zM337 -137l-10 1q-16 0 -30 13t-14 34t15 35t36 14t35.5 -16.5
t14.5 -42.5q0 -41 -22.5 -83t-54.5 -73h-36q23 22 39.5 54t16.5 60z" />
    <glyph glyph-name="Rcaron" unicode="&#x158;" horiz-adv-x="641" 
d="M461 866l-159 -135l-160 135l36 39l124 -104l123 104zM599 0h-98l-163 260q-9 -1 -30 -1h-129v-259h-87v700h216q123 0 193.5 -59t70.5 -161q0 -75 -38 -127.5t-108 -75.5zM179 341h138q80 0 122.5 38t42.5 101q0 65 -43.5 102t-121.5 37h-138v-278z" />
    <glyph glyph-name="rcaron" unicode="&#x159;" horiz-adv-x="641" 
d="M461 866l-159 -135l-160 135l36 39l124 -104l123 104zM599 0h-98l-163 260q-9 -1 -30 -1h-129v-259h-87v700h216q123 0 193.5 -59t70.5 -161q0 -75 -38 -127.5t-108 -75.5zM179 341h138q80 0 122.5 38t42.5 101q0 65 -43.5 102t-121.5 37h-138v-278z" />
    <glyph glyph-name="Sacute" unicode="&#x15a;" horiz-adv-x="597" 
d="M425 902l32 -61l-220 -104l-28 49zM550 526l-83 -22q-12 62 -59 98t-112 36q-69 0 -111.5 -29.5t-42.5 -82.5q0 -32 27.5 -56.5t53 -34t84.5 -27.5q15 -5 22 -7q30 -9 44.5 -13.5t43.5 -16t44.5 -21t37.5 -26.5t32.5 -35t19 -43.5t8.5 -54.5q0 -89 -71 -147t-185 -58
q-109 0 -179.5 57t-89.5 150l85 23q7 -64 57.5 -107.5t130.5 -43.5q74 0 118.5 34.5t44.5 88.5q0 18 -6 33.5t-14.5 26.5t-25 22.5t-28.5 18.5t-35.5 15.5t-36.5 13t-39.5 12.5t-36.5 11q-33 10 -53 17.5t-50.5 23.5t-47.5 33.5t-30.5 45.5t-13.5 62q0 82 69.5 136.5
t175.5 54.5q96 0 164.5 -51.5t87.5 -136.5z" />
    <glyph glyph-name="sacute" unicode="&#x15b;" horiz-adv-x="597" 
d="M438 902l32 -61l-220 -104l-28 49zM550 526l-83 -22q-12 62 -59 98t-112 36q-69 0 -111.5 -29.5t-42.5 -82.5q0 -32 27.5 -56.5t53 -34t84.5 -27.5q15 -5 22 -7q30 -9 44.5 -13.5t43.5 -16t44.5 -21t37.5 -26.5t32.5 -35t19 -43.5t8.5 -54.5q0 -89 -71 -147t-185 -58
q-109 0 -179.5 57t-89.5 150l85 23q7 -64 57.5 -107.5t130.5 -43.5q74 0 118.5 34.5t44.5 88.5q0 18 -6 33.5t-14.5 26.5t-25 22.5t-28.5 18.5t-35.5 15.5t-36.5 13t-39.5 12.5t-36.5 11q-33 10 -53 17.5t-50.5 23.5t-47.5 33.5t-30.5 45.5t-13.5 62q0 82 69.5 136.5
t175.5 54.5q96 0 164.5 -51.5t87.5 -136.5z" />
    <glyph glyph-name="Scircumflex" unicode="&#x15c;" horiz-adv-x="597" 
d="M147 780l160 135l159 -135l-36 -39l-123 104l-124 -104zM550 526l-83 -22q-12 62 -59 98t-112 36q-69 0 -111.5 -29.5t-42.5 -82.5q0 -32 27.5 -56.5t53 -34t84.5 -27.5q15 -5 22 -7q30 -9 44.5 -13.5t43.5 -16t44.5 -21t37.5 -26.5t32.5 -35t19 -43.5t8.5 -54.5
q0 -89 -71 -147t-185 -58q-109 0 -179.5 57t-89.5 150l85 23q7 -64 57.5 -107.5t130.5 -43.5q74 0 118.5 34.5t44.5 88.5q0 18 -6 33.5t-14.5 26.5t-25 22.5t-28.5 18.5t-35.5 15.5t-36.5 13t-39.5 12.5t-36.5 11q-33 10 -53 17.5t-50.5 23.5t-47.5 33.5t-30.5 45.5
t-13.5 62q0 82 69.5 136.5t175.5 54.5q96 0 164.5 -51.5t87.5 -136.5z" />
    <glyph glyph-name="scircumflex" unicode="&#x15d;" horiz-adv-x="597" 
d="M147 780l160 135l159 -135l-36 -39l-123 104l-124 -104zM550 526l-83 -22q-12 62 -59 98t-112 36q-69 0 -111.5 -29.5t-42.5 -82.5q0 -32 27.5 -56.5t53 -34t84.5 -27.5q15 -5 22 -7q30 -9 44.5 -13.5t43.5 -16t44.5 -21t37.5 -26.5t32.5 -35t19 -43.5t8.5 -54.5
q0 -89 -71 -147t-185 -58q-109 0 -179.5 57t-89.5 150l85 23q7 -64 57.5 -107.5t130.5 -43.5q74 0 118.5 34.5t44.5 88.5q0 18 -6 33.5t-14.5 26.5t-25 22.5t-28.5 18.5t-35.5 15.5t-36.5 13t-39.5 12.5t-36.5 11q-33 10 -53 17.5t-50.5 23.5t-47.5 33.5t-30.5 45.5
t-13.5 62q0 82 69.5 136.5t175.5 54.5q96 0 164.5 -51.5t87.5 -136.5z" />
    <glyph glyph-name="Scedilla" unicode="&#x15e;" horiz-adv-x="597" 
d="M550 526l-83 -22q-12 62 -59 98t-112 36q-69 0 -111.5 -29.5t-42.5 -82.5q0 -32 27.5 -56.5t53 -34t84.5 -27.5q15 -5 22 -7q30 -9 44.5 -13.5t43.5 -16t44.5 -21t37.5 -26.5t32.5 -35t19 -43.5t8.5 -54.5q0 -82 -59.5 -137.5t-158.5 -65.5l-15 -38q46 1 75 -25t29 -69
q0 -44 -29.5 -69t-76.5 -25h-76l20 50h56q25 0 39.5 12t14.5 32t-15 32.5t-39 13.5h-66l29 84q-103 4 -169 61t-84 146l85 23q7 -64 57.5 -107.5t130.5 -43.5q74 0 118.5 34.5t44.5 88.5q0 18 -6 33.5t-14.5 26.5t-25 22.5t-28.5 18.5t-35.5 15.5t-36.5 13t-39.5 12.5
t-36.5 11q-33 10 -53 17.5t-50.5 23.5t-47.5 33.5t-30.5 45.5t-13.5 62q0 82 69.5 136.5t175.5 54.5q96 0 164.5 -51.5t87.5 -136.5z" />
    <glyph glyph-name="scedilla" unicode="&#x15f;" horiz-adv-x="597" 
d="M550 526l-83 -22q-12 62 -59 98t-112 36q-69 0 -111.5 -29.5t-42.5 -82.5q0 -32 27.5 -56.5t53 -34t84.5 -27.5q15 -5 22 -7q30 -9 44.5 -13.5t43.5 -16t44.5 -21t37.5 -26.5t32.5 -35t19 -43.5t8.5 -54.5q0 -80 -58.5 -136t-155.5 -67l-15 -38q46 1 75 -25t29 -69
q0 -44 -29.5 -69t-76.5 -25h-76l20 50h56q25 0 39.5 12t14.5 32t-15 32.5t-39 13.5h-66l29 84q-104 4 -171.5 60.5t-85.5 146.5l85 23q7 -64 57.5 -107.5t130.5 -43.5q74 0 118.5 34.5t44.5 88.5q0 18 -6 33.5t-14.5 26.5t-25 22.5t-28.5 18.5t-35.5 15.5t-36.5 13
t-39.5 12.5t-36.5 11q-33 10 -53 17.5t-50.5 23.5t-47.5 33.5t-30.5 45.5t-13.5 62q0 82 69.5 136.5t175.5 54.5q96 0 164.5 -51.5t87.5 -136.5z" />
    <glyph glyph-name="Scaron" unicode="&#x160;" horiz-adv-x="597" 
d="M149 866l160 -135l159 135l-36 39l-123 -104l-124 104zM550 526l-83 -22q-12 62 -59 98t-112 36q-69 0 -111.5 -29.5t-42.5 -82.5q0 -32 27.5 -56.5t53 -34t84.5 -27.5q15 -5 22 -7q30 -9 44.5 -13.5t43.5 -16t44.5 -21t37.5 -26.5t32.5 -35t19 -43.5t8.5 -54.5
q0 -89 -71 -147t-185 -58q-109 0 -179.5 57t-89.5 150l85 23q7 -64 57.5 -107.5t130.5 -43.5q74 0 118.5 34.5t44.5 88.5q0 18 -6 33.5t-14.5 26.5t-25 22.5t-28.5 18.5t-35.5 15.5t-36.5 13t-39.5 12.5t-36.5 11q-33 10 -53 17.5t-50.5 23.5t-47.5 33.5t-30.5 45.5
t-13.5 62q0 82 69.5 136.5t175.5 54.5q96 0 164.5 -51.5t87.5 -136.5z" />
    <glyph glyph-name="scaron" unicode="&#x161;" horiz-adv-x="597" 
d="M162 866l160 -135l159 135l-36 39l-123 -104l-124 104zM550 526l-83 -22q-12 62 -59 98t-112 36q-69 0 -111.5 -29.5t-42.5 -82.5q0 -32 27.5 -56.5t53 -34t84.5 -27.5q15 -5 22 -7q30 -9 44.5 -13.5t43.5 -16t44.5 -21t37.5 -26.5t32.5 -35t19 -43.5t8.5 -54.5
q0 -89 -71 -147t-185 -58q-109 0 -179.5 57t-89.5 150l85 23q7 -64 57.5 -107.5t130.5 -43.5q74 0 118.5 34.5t44.5 88.5q0 18 -6 33.5t-14.5 26.5t-25 22.5t-28.5 18.5t-35.5 15.5t-36.5 13t-39.5 12.5t-36.5 11q-33 10 -53 17.5t-50.5 23.5t-47.5 33.5t-30.5 45.5
t-13.5 62q0 82 69.5 136.5t175.5 54.5q96 0 164.5 -51.5t87.5 -136.5z" />
    <glyph glyph-name="Tcedilla" unicode="&#x162;" horiz-adv-x="595" 
d="M340 0h-17l-20 -50q46 1 75 -25t29 -69q0 -44 -29.5 -69t-76.5 -25h-76l20 50h56q25 0 39.5 12t14.5 32t-15 32.5t-39 13.5h-66l34 98h-16v619h-232v81h552v-81h-233v-619z" />
    <glyph glyph-name="tcedilla" unicode="&#x163;" horiz-adv-x="595" 
d="M340 0h-17l-20 -50q46 1 75 -25t29 -69q0 -44 -29.5 -69t-76.5 -25h-76l20 50h56q25 0 39.5 12t14.5 32t-15 32.5t-39 13.5h-66l34 98h-16v619h-232v81h552v-81h-233v-619z" />
    <glyph glyph-name="Tcaron" unicode="&#x164;" horiz-adv-x="595" 
d="M463 866l-159 -135l-160 135l36 39l124 -104l123 104zM21 700h552v-81h-233v-619h-87v619h-232v81z" />
    <glyph glyph-name="tcaron" unicode="&#x165;" horiz-adv-x="595" 
d="M463 866l-159 -135l-160 135l36 39l124 -104l123 104zM21 700h552v-81h-233v-619h-87v619h-232v81z" />
    <glyph glyph-name="Tbar" unicode="&#x166;" horiz-adv-x="595" 
d="M573 619h-233v-205h125v-71h-125v-343h-87v343h-120v71h120v205h-232v81h552v-81z" />
    <glyph glyph-name="tbar" unicode="&#x167;" horiz-adv-x="595" 
d="M573 619h-233v-205h125v-71h-125v-343h-87v343h-120v71h120v205h-232v81h552v-81z" />
    <glyph glyph-name="Umacron" unicode="&#x16a;" horiz-adv-x="737" 
d="M220 841h307v-55h-307v55zM575 700h88v-409q0 -144 -77.5 -225t-216.5 -81t-217 81t-78 225v409h88v-413q0 -103 53.5 -161.5t153.5 -58.5t153 58t53 162v413z" />
    <glyph glyph-name="umacron" unicode="&#x16b;" horiz-adv-x="737" 
d="M220 841h307v-55h-307v55zM575 700h88v-409q0 -144 -77.5 -225t-216.5 -81t-217 81t-78 225v409h88v-413q0 -103 53.5 -161.5t153.5 -58.5t153 58t53 162v413z" />
    <glyph glyph-name="Ubreve" unicode="&#x16c;" horiz-adv-x="737" 
d="M236 858h55q6 -28 29.5 -47t53.5 -19q29 0 52.5 19.5t29.5 46.5h54q-10 -49 -48 -81t-88 -32q-53 0 -91 31.5t-47 81.5zM575 700h88v-409q0 -144 -77.5 -225t-216.5 -81t-217 81t-78 225v409h88v-413q0 -103 53.5 -161.5t153.5 -58.5t153 58t53 162v413z" />
    <glyph glyph-name="ubreve" unicode="&#x16d;" horiz-adv-x="737" 
d="M236 858h55q6 -28 29.5 -47t53.5 -19q29 0 52.5 19.5t29.5 46.5h54q-10 -49 -48 -81t-88 -32q-53 0 -91 31.5t-47 81.5zM575 700h88v-409q0 -144 -77.5 -225t-216.5 -81t-217 81t-78 225v409h88v-413q0 -103 53.5 -161.5t153.5 -58.5t153 58t53 162v413z" />
    <glyph glyph-name="Uring" unicode="&#x16e;" horiz-adv-x="737" 
d="M370 670q-43 0 -74 30.5t-31 73.5t30.5 73.5t74.5 30.5q43 0 73.5 -30.5t30.5 -73.5t-30.5 -73.5t-73.5 -30.5zM370 718q23 0 40 17t17 40q0 24 -17 40.5t-40 16.5t-40 -16.5t-17 -40.5q0 -23 17 -40t40 -17zM575 700h88v-409q0 -144 -77.5 -225t-216.5 -81t-217 81
t-78 225v409h88v-413q0 -103 53.5 -161.5t153.5 -58.5t153 58t53 162v413z" />
    <glyph glyph-name="uring" unicode="&#x16f;" horiz-adv-x="737" 
d="M370 670q-43 0 -74 30.5t-31 73.5t30.5 73.5t74.5 30.5q43 0 73.5 -30.5t30.5 -73.5t-30.5 -73.5t-73.5 -30.5zM370 718q23 0 40 17t17 40q0 24 -17 40.5t-40 16.5t-40 -16.5t-17 -40.5q0 -23 17 -40t40 -17zM575 700h88v-409q0 -144 -77.5 -225t-216.5 -81t-217 81
t-78 225v409h88v-413q0 -103 53.5 -161.5t153.5 -58.5t153 58t53 162v413z" />
    <glyph glyph-name="Uhungarumlaut" unicode="&#x170;" horiz-adv-x="737" 
d="M385 902l32 -61l-220 -104l-28 49zM583 902l32 -61l-220 -104l-28 49zM575 700h88v-409q0 -144 -77.5 -225t-216.5 -81t-217 81t-78 225v409h88v-413q0 -103 53.5 -161.5t153.5 -58.5t153 58t53 162v413z" />
    <glyph glyph-name="uhungarumlaut" unicode="&#x171;" horiz-adv-x="737" 
d="M385 902l32 -61l-220 -104l-28 49zM583 902l32 -61l-220 -104l-28 49zM575 700h88v-409q0 -144 -77.5 -225t-216.5 -81t-217 81t-78 225v409h88v-413q0 -103 53.5 -161.5t153.5 -58.5t153 58t53 162v413z" />
    <glyph glyph-name="Uogonek" unicode="&#x172;" horiz-adv-x="737" 
d="M575 700h88v-409q0 -120 -54.5 -197t-154.5 -100q-46 -17 -72.5 -40t-26.5 -61q0 -34 22.5 -56t60.5 -22q29 0 56.5 19.5t39.5 44.5l47 -31q-19 -36 -59 -62.5t-84 -26.5q-64 0 -105 36t-41 93q0 60 55 98q-130 6 -201.5 86.5t-71.5 218.5v409h88v-413
q0 -103 53.5 -161.5t153.5 -58.5t153 58t53 162v413z" />
    <glyph glyph-name="uogonek" unicode="&#x173;" horiz-adv-x="737" 
d="M575 700h88v-409q0 -120 -54.5 -197t-154.5 -100q-46 -17 -72.5 -40t-26.5 -61q0 -34 22.5 -56t60.5 -22q29 0 56.5 19.5t39.5 44.5l47 -31q-19 -36 -59 -62.5t-84 -26.5q-64 0 -105 36t-41 93q0 60 55 98q-130 6 -201.5 86.5t-71.5 218.5v409h88v-413
q0 -103 53.5 -161.5t153.5 -58.5t153 58t53 162v413z" />
    <glyph glyph-name="Wcircumflex" unicode="&#x174;" horiz-adv-x="989" 
d="M329 780l160 135l159 -135l-36 -39l-123 104l-124 -104zM885 700h93l-278 -700h-59l-139 386l-7 26l-7 -26l-140 -386h-58l-279 700h93l208 -525l6 -24l7 24l146 404h47l147 -404l6 -23l6 23z" />
    <glyph glyph-name="wcircumflex" unicode="&#x175;" horiz-adv-x="989" 
d="M329 780l160 135l159 -135l-36 -39l-123 104l-124 -104zM885 700h93l-278 -700h-59l-139 386l-7 26l-7 -26l-140 -386h-58l-279 700h93l208 -525l6 -24l7 24l146 404h47l147 -404l6 -23l6 23z" />
    <glyph glyph-name="Ycircumflex" unicode="&#x176;" horiz-adv-x="674" 
d="M172 780l160 135l159 -135l-36 -39l-123 104l-124 -104zM556 700h105l-280 -362v-338h-88v338l-280 362h105l206 -262l13 -21l12 21z" />
    <glyph glyph-name="ycircumflex" unicode="&#x177;" horiz-adv-x="674" 
d="M172 780l160 135l159 -135l-36 -39l-123 104l-124 -104zM556 700h105l-280 -362v-338h-88v338l-280 362h105l206 -262l13 -21l12 21z" />
    <glyph glyph-name="Ydieresis" unicode="&#x178;" horiz-adv-x="674" 
d="M213 765q-22 0 -36.5 14.5t-14.5 35.5t15 35.5t36 14.5q20 0 34.5 -15t14.5 -35q0 -21 -14.5 -35.5t-34.5 -14.5zM451 765q-21 0 -35.5 14.5t-14.5 35.5q0 20 14.5 35t35.5 15t35.5 -15t14.5 -35q0 -21 -14.5 -35.5t-35.5 -14.5zM556 700h105l-280 -362v-338h-88v338
l-280 362h105l206 -262l13 -21l12 21z" />
    <glyph glyph-name="Zacute" unicode="&#x179;" horiz-adv-x="691" 
d="M466 902l32 -61l-220 -104l-28 49zM631 700v-80l-438 -521l-21 -20l31 2h428v-81h-571v80l441 522l20 19l-31 -2h-420v81h561z" />
    <glyph glyph-name="zacute" unicode="&#x17a;" horiz-adv-x="691" 
d="M466 902l32 -61l-220 -104l-28 49zM631 700v-80l-438 -521l-21 -20l31 2h428v-81h-571v80l441 522l20 19l-31 -2h-420v81h561z" />
    <glyph glyph-name="Zdotaccent" unicode="&#x17b;" horiz-adv-x="691" 
d="M353 765q-22 0 -36.5 14.5t-14.5 35.5t15 35.5t36 14.5q20 0 34.5 -15t14.5 -35q0 -21 -14.5 -35.5t-34.5 -14.5zM631 700v-80l-438 -521l-21 -20l31 2h428v-81h-571v80l441 522l20 19l-31 -2h-420v81h561z" />
    <glyph glyph-name="zdotaccent" unicode="&#x17c;" horiz-adv-x="691" 
d="M353 765q-22 0 -36.5 14.5t-14.5 35.5t15 35.5t36 14.5q20 0 34.5 -15t14.5 -35q0 -21 -14.5 -35.5t-34.5 -14.5zM631 700v-80l-438 -521l-21 -20l31 2h428v-81h-571v80l441 522l20 19l-31 -2h-420v81h561z" />
    <glyph glyph-name="Zcaron" unicode="&#x17d;" horiz-adv-x="691" 
d="M190 866l160 -135l159 135l-36 39l-123 -104l-124 104zM631 700v-80l-438 -521l-21 -20l31 2h428v-81h-571v80l441 522l20 19l-31 -2h-420v81h561z" />
    <glyph glyph-name="zcaron" unicode="&#x17e;" horiz-adv-x="691" 
d="M190 866l160 -135l159 135l-36 39l-123 -104l-124 104zM631 700v-80l-438 -521l-21 -20l31 2h428v-81h-571v80l441 522l20 19l-31 -2h-420v81h561z" />
    <glyph glyph-name="Scommaaccent" unicode="&#x218;" horiz-adv-x="597" 
d="M550 526l-83 -22q-12 62 -59 98t-112 36q-69 0 -111.5 -29.5t-42.5 -82.5q0 -32 27.5 -56.5t53 -34t84.5 -27.5q15 -5 22 -7q30 -9 44.5 -13.5t43.5 -16t44.5 -21t37.5 -26.5t32.5 -35t19 -43.5t8.5 -54.5q0 -89 -71 -147t-185 -58q-109 0 -179.5 57t-89.5 150l85 23
q7 -64 57.5 -107.5t130.5 -43.5q74 0 118.5 34.5t44.5 88.5q0 18 -6 33.5t-14.5 26.5t-25 22.5t-28.5 18.5t-35.5 15.5t-36.5 13t-39.5 12.5t-36.5 11q-33 10 -53 17.5t-50.5 23.5t-47.5 33.5t-30.5 45.5t-13.5 62q0 82 69.5 136.5t175.5 54.5q96 0 164.5 -51.5t87.5 -136.5
zM287 -141l10 4l-10 1q-16 0 -30 13t-14 34t15 35t36 14t35.5 -16.5t14.5 -42.5q0 -41 -22.5 -83t-54.5 -73h-36q23 22 39.5 54t16.5 60z" />
    <glyph glyph-name="scommaaccent" unicode="&#x219;" horiz-adv-x="597" 
d="M550 526l-83 -22q-12 62 -59 98t-112 36q-69 0 -111.5 -29.5t-42.5 -82.5q0 -32 27.5 -56.5t53 -34t84.5 -27.5q15 -5 22 -7q30 -9 44.5 -13.5t43.5 -16t44.5 -21t37.5 -26.5t32.5 -35t19 -43.5t8.5 -54.5q0 -89 -71 -147t-185 -58q-109 0 -179.5 57t-89.5 150l85 23
q7 -64 57.5 -107.5t130.5 -43.5q74 0 118.5 34.5t44.5 88.5q0 18 -6 33.5t-14.5 26.5t-25 22.5t-28.5 18.5t-35.5 15.5t-36.5 13t-39.5 12.5t-36.5 11q-33 10 -53 17.5t-50.5 23.5t-47.5 33.5t-30.5 45.5t-13.5 62q0 82 69.5 136.5t175.5 54.5q96 0 164.5 -51.5t87.5 -136.5
zM287 -141l10 4l-10 1q-16 0 -30 13t-14 34t15 35t36 14t35.5 -16.5t14.5 -42.5q0 -41 -22.5 -83t-54.5 -73h-36q23 22 39.5 54t16.5 60z" />
    <glyph glyph-name="uni021A" unicode="&#x21a;" horiz-adv-x="595" 
d="M21 700h552v-81h-233v-619h-87v619h-232v81zM297 -137l-10 1q-16 0 -30 13t-14 34t15 35t36 14t35.5 -16.5t14.5 -42.5q0 -41 -22.5 -83t-54.5 -73h-36q23 22 39.5 54t16.5 60z" />
    <glyph glyph-name="uni021B" unicode="&#x21b;" horiz-adv-x="595" 
d="M21 700h552v-81h-233v-619h-87v619h-232v81zM297 -137l-10 1q-16 0 -30 13t-14 34t15 35t36 14t35.5 -16.5t14.5 -42.5q0 -41 -22.5 -83t-54.5 -73h-36q23 22 39.5 54t16.5 60z" />
    <glyph glyph-name="dotlessj" unicode="&#x237;" horiz-adv-x="657" 
d="M495 700h88v-409q0 -144 -78 -225t-217 -81q-101 0 -177 54t-101 140l86 23q17 -62 69.5 -98.5t122.5 -36.5q101 0 154 58t53 162v413z" />
    <glyph glyph-name="circumflex" unicode="&#x2c6;" horiz-adv-x="380" 
d="M11 780l160 135l159 -135l-36 -39l-123 104l-124 -104z" />
    <glyph glyph-name="caron" unicode="&#x2c7;" horiz-adv-x="380" 
d="M11 866l160 -135l159 135l-36 39l-123 -104l-124 104z" />
    <glyph glyph-name="breve" unicode="&#x2d8;" horiz-adv-x="334" 
d="M11 858h55q6 -28 29.5 -47t53.5 -19q29 0 52.5 19.5t29.5 46.5h54q-10 -49 -48 -81t-88 -32q-53 0 -91 31.5t-47 81.5z" />
    <glyph glyph-name="dotaccent" unicode="&#x2d9;" horiz-adv-x="160" 
d="M62 765q-22 0 -36.5 14.5t-14.5 35.5t14.5 35.5t36.5 14.5q20 0 34.5 -15t14.5 -35q0 -21 -14.5 -35.5t-34.5 -14.5z" />
    <glyph glyph-name="ring" unicode="&#x2da;" horiz-adv-x="269" 
d="M116 670q-43 0 -74 30.5t-31 73.5t30.5 73.5t74.5 30.5q43 0 73.5 -30.5t30.5 -73.5t-30.5 -73.5t-73.5 -30.5zM116 718q23 0 40 17t17 40q0 24 -17 40.5t-40 16.5t-40 -16.5t-17 -40.5q0 -23 17 -40t40 -17z" />
    <glyph glyph-name="ogonek" unicode="&#x2db;" horiz-adv-x="600" 
d="M359 -122l47 -31q-20 -38 -60.5 -63t-85.5 -25q-65 0 -107 38t-42 99q0 64 45.5 104.5t96.5 40.5l56 -41q-53 0 -93 -26t-40 -78q0 -34 23.5 -57.5t62.5 -23.5q30 0 57 18.5t40 44.5z" />
    <glyph glyph-name="tilde" unicode="&#x2dc;" horiz-adv-x="420" 
d="M305 863h70q0 -46 -32 -76.5t-81 -30.5q-32 0 -73.5 29t-62.5 29q-22 0 -35.5 -13.5t-13.5 -33.5h-70q0 46 32 76.5t81 30.5q35 0 76 -29t60 -29q21 0 34.5 13.5t14.5 33.5z" />
    <glyph glyph-name="hungarumlaut" unicode="&#x2dd;" horiz-adv-x="507" 
d="M213 902l32 -61l-220 -104l-28 49zM412 902l32 -61l-220 -104l-28 49z" />
    <glyph glyph-name="commaaccent" unicode="&#x326;" horiz-adv-x="0" 
d="M116 -140l9 4l-9 1q-17 0 -30.5 12.5t-13.5 33.5t14.5 35t35.5 14t36 -16.5t15 -42.5q0 -41 -23 -83t-55 -72h-35q22 21 39 53.5t17 60.5z" />
    <glyph glyph-name="Wgrave" unicode="&#x1e80;" horiz-adv-x="989" 
d="M546 737l-220 104l32 61l215 -116zM885 700h93l-278 -700h-59l-139 386l-7 26l-7 -26l-140 -386h-58l-279 700h93l208 -525l6 -24l7 24l146 404h47l147 -404l6 -23l6 23z" />
    <glyph glyph-name="wgrave" unicode="&#x1e81;" horiz-adv-x="989" 
d="M546 737l-220 104l32 61l215 -116zM885 700h93l-278 -700h-59l-139 386l-7 26l-7 -26l-140 -386h-58l-279 700h93l208 -525l6 -24l7 24l146 404h47l147 -404l6 -23l6 23z" />
    <glyph glyph-name="Wacute" unicode="&#x1e82;" horiz-adv-x="989" 
d="M607 902l32 -61l-220 -104l-28 49zM885 700h93l-278 -700h-59l-139 386l-7 26l-7 -26l-140 -386h-58l-279 700h93l208 -525l6 -24l7 24l146 404h47l147 -404l6 -23l6 23z" />
    <glyph glyph-name="wacute" unicode="&#x1e83;" horiz-adv-x="989" 
d="M607 902l32 -61l-220 -104l-28 49zM885 700h93l-278 -700h-59l-139 386l-7 26l-7 -26l-140 -386h-58l-279 700h93l208 -525l6 -24l7 24l146 404h47l147 -404l6 -23l6 23z" />
    <glyph glyph-name="Wdieresis" unicode="&#x1e84;" horiz-adv-x="989" 
d="M370 765q-22 0 -36.5 14.5t-14.5 35.5t14.5 35.5t36.5 14.5q20 0 34.5 -15t14.5 -35q0 -21 -14.5 -35.5t-34.5 -14.5zM608 765q-21 0 -35.5 14.5t-14.5 35.5q0 20 14.5 35t35.5 15t35.5 -15t14.5 -35q0 -21 -14.5 -35.5t-35.5 -14.5zM885 700h93l-278 -700h-59l-139 386
l-7 26l-7 -26l-140 -386h-58l-279 700h93l208 -525l6 -24l7 24l146 404h47l147 -404l6 -23l6 23z" />
    <glyph glyph-name="wdieresis" unicode="&#x1e85;" horiz-adv-x="989" 
d="M370 765q-22 0 -36.5 14.5t-14.5 35.5t14.5 35.5t36.5 14.5q20 0 34.5 -15t14.5 -35q0 -21 -14.5 -35.5t-34.5 -14.5zM608 765q-21 0 -35.5 14.5t-14.5 35.5q0 20 14.5 35t35.5 15t35.5 -15t14.5 -35q0 -21 -14.5 -35.5t-35.5 -14.5zM885 700h93l-278 -700h-59l-139 386
l-7 26l-7 -26l-140 -386h-58l-279 700h93l208 -525l6 -24l7 24l146 404h47l147 -404l6 -23l6 23z" />
    <glyph glyph-name="Germandbls" unicode="&#x1e9e;" horiz-adv-x="778" 
d="M92 700h574l-168 -295q111 -4 174 -60t63 -145q0 -92 -66.5 -153t-170.5 -61q-78 0 -145 37.5t-99 100.5l82 22q24 -40 66 -62.5t93 -22.5q67 0 109.5 39.5t42.5 98.5q0 55 -40 93t-112 41h-82v72l113 196l16 20l-30 -2h-333v-619h-87v700z" />
    <glyph glyph-name="Ygrave" unicode="&#x1ef2;" horiz-adv-x="674" 
d="M389 737l-220 104l32 61l215 -116zM556 700h105l-280 -362v-338h-88v338l-280 362h105l206 -262l13 -21l12 21z" />
    <glyph glyph-name="ygrave" unicode="&#x1ef3;" horiz-adv-x="674" 
d="M389 737l-220 104l32 61l215 -116zM556 700h105l-280 -362v-338h-88v338l-280 362h105l206 -262l13 -21l12 21z" />
    <glyph glyph-name="uni2009" unicode="&#x2009;" horiz-adv-x="150" 
 />
    <glyph glyph-name="uni200A" unicode="&#x200a;" horiz-adv-x="50" 
 />
    <glyph glyph-name="endash" unicode="&#x2013;" horiz-adv-x="495" 
d="M40 395h415v-80h-415v80z" />
    <glyph glyph-name="emdash" unicode="&#x2014;" horiz-adv-x="916" 
d="M40 395h836v-80h-836v80z" />
    <glyph glyph-name="quoteleft" unicode="&#x2018;" horiz-adv-x="301" 
d="M160 596l-10 -4l10 -1q17 0 31 -13.5t14 -34.5q0 -22 -15 -36.5t-37 -14.5t-37 17t-15 44q0 43 23.5 86t56.5 75h37q-23 -22 -40.5 -55.5t-17.5 -62.5z" />
    <glyph glyph-name="quoteright" unicode="&#x2019;" horiz-adv-x="301" 
d="M150 609l10 4l-10 1q-17 0 -31 13.5t-14 34.5q0 22 15 36.5t37 14.5t37 -17t15 -44q0 -43 -23.5 -86t-56.5 -75h-37q23 22 40.5 55.5t17.5 62.5z" />
    <glyph glyph-name="quotesinglbase" unicode="&#x201a;" horiz-adv-x="301" 
d="M150 -14l10 4l-10 1q-17 0 -31 13.5t-14 34.5q0 22 15 36.5t37 14.5t37 -17t15 -44q0 -43 -23.5 -86t-56.5 -75h-37q23 22 40.5 55.5t17.5 62.5z" />
    <glyph glyph-name="quotedblleft" unicode="&#x201c;" horiz-adv-x="487" 
d="M160 596l-10 -4l10 -1q17 0 31 -13.5t14 -34.5q0 -22 -15 -36.5t-37 -14.5t-37 17t-15 44q0 43 23.5 86t56.5 75h37q-23 -22 -40.5 -55.5t-17.5 -62.5zM346 596l-10 -4l10 -1q17 0 31 -13.5t14 -34.5q0 -22 -15 -36.5t-37 -14.5t-37 17t-15 44q0 43 23.5 86t56.5 75h37
q-23 -22 -40.5 -55.5t-17.5 -62.5z" />
    <glyph glyph-name="quotedblright" unicode="&#x201d;" horiz-adv-x="487" 
d="M141 609l10 4l-10 1q-17 0 -31 13.5t-14 34.5q0 22 15 36.5t37 14.5t37 -17t15 -44q0 -43 -23.5 -86t-56.5 -75h-37q23 22 40.5 55.5t17.5 62.5zM327 609l10 4l-10 1q-17 0 -31 13.5t-14 34.5q0 22 15 36.5t37 14.5t37 -17t15 -44q0 -43 -23.5 -86t-56.5 -75h-37
q23 22 40.5 55.5t17.5 62.5z" />
    <glyph glyph-name="quotedblbase" unicode="&#x201e;" horiz-adv-x="474" 
d="M141 -14l10 4l-10 1q-17 0 -31 13.5t-14 34.5q0 22 15 36.5t37 14.5t37 -17t15 -44q0 -43 -23.5 -86t-56.5 -75h-37q23 22 40.5 55.5t17.5 62.5zM315 -14l10 4l-10 1q-17 0 -31 13.5t-14 34.5q0 22 15 36.5t37 14.5t37 -17t15 -44q0 -43 -23.5 -86t-56.5 -75h-37
q23 22 40.5 55.5t17.5 62.5z" />
    <glyph glyph-name="bullet" unicode="&#x2022;" horiz-adv-x="377" 
d="M190 258q-41 0 -69.5 28t-28.5 69q0 40 28.5 68t69.5 28q40 0 67.5 -28t27.5 -68q0 -41 -27.5 -69t-67.5 -28z" />
    <glyph glyph-name="ellipsis" unicode="&#x2026;" horiz-adv-x="735" 
d="M102 -15q-18 0 -30 12.5t-12 29.5q0 18 12.5 30t29.5 12q18 0 30 -12.5t12 -29.5t-12.5 -29.5t-29.5 -12.5zM362 -15q-18 0 -30 12.5t-12 29.5q0 18 12.5 30t29.5 12q18 0 30 -12.5t12 -29.5t-12.5 -29.5t-29.5 -12.5zM632 -15q-18 0 -30 12.5t-12 29.5q0 18 12.5 30
t29.5 12q18 0 30 -12.5t12 -29.5t-12.5 -29.5t-29.5 -12.5z" />
    <glyph glyph-name="perthousand" unicode="&#x2030;" horiz-adv-x="1325" 
d="M226 312q-82 0 -132.5 55.5t-50.5 145.5t50.5 145.5t132.5 55.5t133 -56t51 -145q0 -90 -51 -145.5t-133 -55.5zM198 0l441 700h62l-441 -700h-62zM226 377q52 0 84 37t32 99t-32 99t-84 37q-51 0 -83 -37t-32 -99t32 -99t83 -37zM678 -14q-82 0 -132.5 55.5t-50.5 145.5
t50.5 145.5t132.5 55.5t133 -56t51 -145q0 -90 -51 -145.5t-133 -55.5zM1098 -14q-82 0 -132.5 55.5t-50.5 145.5t50.5 145.5t132.5 55.5t133 -56t51 -145q0 -90 -51 -145.5t-133 -55.5zM678 51q52 0 84 37t32 99t-32 99t-84 37q-51 0 -83 -37t-32 -99t32 -99t83 -37z
M1098 51q52 0 84 37t32 99t-32 99t-84 37q-51 0 -83 -37t-32 -99t32 -99t83 -37z" />
    <glyph glyph-name="guilsinglleft" unicode="&#x2039;" horiz-adv-x="467" 
d="M336 589l-236 -234l235 -234l48 49l-191 185l191 185z" />
    <glyph glyph-name="guilsinglright" unicode="&#x203a;" horiz-adv-x="467" 
d="M139 589l236 -234l-235 -234l-48 49l191 185l-191 185z" />
    <glyph glyph-name="fraction" unicode="&#x2044;" horiz-adv-x="631" 
d="M60 0l441 700h62l-441 -700h-62z" />
    <glyph glyph-name="Euro" unicode="&#x20ac;" horiz-adv-x="801" 
d="M689 213l86 -23q-43 -93 -130.5 -147.5t-195.5 -54.5q-130 0 -227.5 77.5t-124.5 201.5h-54v61h46q-1 7 -1 22v19h-44v62h52q27 125 125 203t228 78q101 0 185 -49t131 -133l-89 -23q-35 57 -95 89t-132 32q-95 0 -167.5 -53.5t-96.5 -143.5h275v-62h-285q-1 -6 -1 -19
q0 -15 1 -22h285v-61h-275q25 -88 97.5 -141t166.5 -53q78 0 142.5 37.5t97.5 102.5z" />
    <glyph glyph-name="afii61352" unicode="&#x2116;" horiz-adv-x="1117" 
d="M754 540q0 74 49.5 123t121.5 49t122 -49t50 -123q0 -73 -50 -122t-122 -49t-121.5 48.5t-49.5 122.5zM592 700h88v-700h-82l-398 526l-14 22l2 -29v-519h-87v700h81l399 -523l13 -23l-2 29v517zM807 540q0 -52 33.5 -86.5t84.5 -34.5q52 0 85.5 34t33.5 87t-33.5 87.5
t-85.5 34.5q-51 0 -84.5 -34.5t-33.5 -87.5zM764 328h323v-46h-323v46z" />
    <glyph glyph-name="trademark" unicode="&#x2122;" horiz-adv-x="836" 
d="M21 649v51h307v-51h-125v-299h-57v299h-125zM691 700h53v-350h-52v265l-11 -21l-98 -157h-26l-100 157l-10 21v-265h-54v350h54l123 -192z" />
    <glyph glyph-name="minus" unicode="&#x2212;" horiz-adv-x="658" 
d="M92 392h475v-73h-475v73z" />
    <glyph glyph-name="notequal" unicode="&#x2260;" horiz-adv-x="658" 
d="M567 410h-161l-60 -117h221v-73h-258l-61 -119h-83l61 119h-134v73h171l60 117h-231v73h269l66 129h82l-66 -129h124v-73z" />
    <glyph glyph-name="lessequal" unicode="&#x2264;" horiz-adv-x="672" 
d="M541 149l-315 218l343 244h-111l-350 -244l320 -218h113zM580 64h-475v-73h475v73z" />
    <glyph glyph-name="greaterequal" unicode="&#x2265;" horiz-adv-x="672" 
d="M131 149l315 218l-343 244h111l350 -244l-320 -218h-113zM92 64h475v-73h-475v73z" />
    <glyph glyph-name="Cacute.loclPLK" horiz-adv-x="761" 
d="M480 934l58 -33l-119 -163l-44 26zM724 531l-89 -24q-35 56 -96 89t-133 33q-119 0 -196 -77.5t-77 -201.5q0 -123 78 -200.5t195 -77.5q79 0 144 38.5t98 102.5l87 -24q-45 -94 -132.5 -148.5t-196.5 -54.5q-152 0 -257.5 103.5t-105.5 260.5t105.5 260.5t257.5 103.5
q102 0 186.5 -49.5t131.5 -133.5z" />
    <glyph glyph-name="N.ss02" horiz-adv-x="780" 
d="M592 700h88v-700h-88v258l-392 316l-14 14l2 -29v-559h-87v700h81l397 -320l15 -15l-2 28v307z" />
    <glyph glyph-name="Nacute.loclPLK" horiz-adv-x="780" 
d="M474 934l58 -33l-119 -163l-44 26zM592 700h88v-700h-82l-398 526l-14 22l2 -29v-519h-87v700h81l399 -523l13 -23l-2 29v517z" />
    <glyph glyph-name="Nacute.loclPLK.ss02" horiz-adv-x="780" 
d="M474 934l58 -33l-119 -163l-44 26zM592 700h88v-700h-88v258l-392 316l-14 14l2 -29v-559h-87v700h81l397 -320l15 -15l-2 28v307z" />
    <glyph glyph-name="Nacute.ss02" horiz-adv-x="780" 
d="M513 902l32 -61l-220 -104l-28 49zM592 700h88v-700h-88v258l-392 316l-14 14l2 -29v-559h-87v700h81l397 -320l15 -15l-2 28v307z" />
    <glyph glyph-name="Ncaron.ss02" horiz-adv-x="780" 
d="M237 866l160 -135l159 135l-36 39l-123 -104l-124 104zM592 700h88v-700h-88v258l-392 316l-14 14l2 -29v-559h-87v700h81l397 -320l15 -15l-2 28v307z" />
    <glyph glyph-name="Ncommaaccent.ss02" horiz-adv-x="780" 
d="M592 700h88v-700h-88v258l-392 316l-14 14l2 -29v-559h-87v700h81l397 -320l15 -15l-2 28v307zM387 -141l10 4l-10 1q-16 0 -30 13t-14 34t15 35t36 14t35.5 -16.5t14.5 -42.5q0 -41 -22.5 -83t-54.5 -73h-36q23 22 39.5 54t16.5 60z" />
    <glyph glyph-name="Ntilde.ss02" horiz-adv-x="780" 
d="M509 863h70q0 -46 -32 -76.5t-81 -30.5q-32 0 -73.5 29t-62.5 29q-22 0 -35.5 -13.5t-13.5 -33.5h-70q0 46 32 76.5t81 30.5q35 0 76 -29t60 -29q21 0 34.5 13.5t14.5 33.5zM592 700h88v-700h-88v258l-392 316l-14 14l2 -29v-559h-87v700h81l397 -320l15 -15l-2 28v307z
" />
    <glyph glyph-name="Oacute.loclPLK" 
d="M489 934l58 -33l-119 -163l-44 26zM43 350q0 157 105.5 260.5t257.5 103.5q153 0 258.5 -103.5t105.5 -260.5t-105.5 -260.5t-258.5 -103.5q-152 0 -257.5 103.5t-105.5 260.5zM133 350q0 -123 77.5 -201t195.5 -78t196 78t78 201q0 124 -78 201.5t-196 77.5
t-195.5 -77.5t-77.5 -201.5z" />
    <glyph glyph-name="Q.ss01" horiz-adv-x="830" 
d="M647 84h141v-84h-377h-6q-152 0 -257 101.5t-105 255.5t105 255.5t257 101.5t257.5 -102t105.5 -255q0 -170 -127 -274zM133 357q0 -120 78 -196t194 -76q115 0 194 76t79 196q0 121 -78.5 197t-194.5 76t-194 -75.5t-78 -197.5z" />
    <glyph glyph-name="Sacute.loclPLK" horiz-adv-x="597" 
d="M387 934l58 -33l-119 -163l-44 26zM550 526l-83 -22q-12 62 -59 98t-112 36q-69 0 -111.5 -29.5t-42.5 -82.5q0 -32 27.5 -56.5t53 -34t84.5 -27.5q15 -5 22 -7q30 -9 44.5 -13.5t43.5 -16t44.5 -21t37.5 -26.5t32.5 -35t19 -43.5t8.5 -54.5q0 -89 -71 -147t-185 -58
q-109 0 -179.5 57t-89.5 150l85 23q7 -64 57.5 -107.5t130.5 -43.5q74 0 118.5 34.5t44.5 88.5q0 18 -6 33.5t-14.5 26.5t-25 22.5t-28.5 18.5t-35.5 15.5t-36.5 13t-39.5 12.5t-36.5 11q-33 10 -53 17.5t-50.5 23.5t-47.5 33.5t-30.5 45.5t-13.5 62q0 82 69.5 136.5
t175.5 54.5q96 0 164.5 -51.5t87.5 -136.5z" />
    <glyph glyph-name="Zacute.loclPLK" horiz-adv-x="691" 
d="M428 934l58 -33l-119 -163l-44 26zM631 700v-80l-438 -521l-21 -20l31 2h428v-81h-571v80l441 522l20 19l-31 -2h-420v81h561z" />
    <glyph glyph-name="cacute.loclPLK" horiz-adv-x="761" 
d="M480 934l58 -33l-119 -163l-44 26zM724 531l-89 -24q-35 56 -96 89t-133 33q-119 0 -196 -77.5t-77 -201.5q0 -123 78 -200.5t195 -77.5q79 0 144 38.5t98 102.5l87 -24q-45 -94 -132.5 -148.5t-196.5 -54.5q-152 0 -257.5 103.5t-105.5 260.5t105.5 260.5t257.5 103.5
q102 0 186.5 -49.5t131.5 -133.5z" />
    <glyph glyph-name="n.ss02" horiz-adv-x="780" 
d="M592 700h88v-700h-88v258l-392 316l-14 14l2 -29v-559h-87v700h81l397 -320l15 -15l-2 28v307z" />
    <glyph glyph-name="nacute.loclPLK" horiz-adv-x="780" 
d="M474 934l58 -33l-119 -163l-44 26zM592 700h88v-700h-82l-398 526l-14 22l2 -29v-519h-87v700h81l399 -523l13 -23l-2 29v517z" />
    <glyph glyph-name="nacute.loclPLK.ss02" horiz-adv-x="780" 
d="M474 934l58 -33l-119 -163l-44 26zM592 700h88v-700h-88v258l-392 316l-14 14l2 -29v-559h-87v700h81l397 -320l15 -15l-2 28v307z" />
    <glyph glyph-name="nacute.ss02" horiz-adv-x="780" 
d="M513 902l32 -61l-220 -104l-28 49zM592 700h88v-700h-88v258l-392 316l-14 14l2 -29v-559h-87v700h81l397 -320l15 -15l-2 28v307z" />
    <glyph glyph-name="ncaron.ss02" horiz-adv-x="780" 
d="M237 866l160 -135l159 135l-36 39l-123 -104l-124 104zM592 700h88v-700h-88v258l-392 316l-14 14l2 -29v-559h-87v700h81l397 -320l15 -15l-2 28v307z" />
    <glyph glyph-name="ncommaaccent.ss02" horiz-adv-x="780" 
d="M592 700h88v-700h-88v258l-392 316l-14 14l2 -29v-559h-87v700h81l397 -320l15 -15l-2 28v307zM387 -141l10 4l-10 1q-16 0 -30 13t-14 34t15 35t36 14t35.5 -16.5t14.5 -42.5q0 -41 -22.5 -83t-54.5 -73h-36q23 22 39.5 54t16.5 60z" />
    <glyph glyph-name="ntilde.ss02" horiz-adv-x="780" 
d="M509 863h70q0 -46 -32 -76.5t-81 -30.5q-32 0 -73.5 29t-62.5 29q-22 0 -35.5 -13.5t-13.5 -33.5h-70q0 46 32 76.5t81 30.5q35 0 76 -29t60 -29q21 0 34.5 13.5t14.5 33.5zM592 700h88v-700h-88v258l-392 316l-14 14l2 -29v-559h-87v700h81l397 -320l15 -15l-2 28v307z
" />
    <glyph glyph-name="oacute.loclPLK" 
d="M489 934l58 -33l-119 -163l-44 26zM43 350q0 157 105.5 260.5t257.5 103.5q153 0 258.5 -103.5t105.5 -260.5t-105.5 -260.5t-258.5 -103.5q-152 0 -257.5 103.5t-105.5 260.5zM133 350q0 -123 77.5 -201t195.5 -78t196 78t78 201q0 124 -78 201.5t-196 77.5
t-195.5 -77.5t-77.5 -201.5z" />
    <glyph glyph-name="q.ss01" horiz-adv-x="830" 
d="M647 84h141v-84h-377h-6q-152 0 -257 101.5t-105 255.5t105 255.5t257 101.5t257.5 -102t105.5 -255q0 -170 -127 -274zM133 357q0 -120 78 -196t194 -76q115 0 194 76t79 196q0 121 -78.5 197t-194.5 76t-194 -75.5t-78 -197.5z" />
    <glyph glyph-name="sacute.loclPLK" horiz-adv-x="597" 
d="M387 934l58 -33l-119 -163l-44 26zM550 526l-83 -22q-12 62 -59 98t-112 36q-69 0 -111.5 -29.5t-42.5 -82.5q0 -32 27.5 -56.5t53 -34t84.5 -27.5q15 -5 22 -7q30 -9 44.5 -13.5t43.5 -16t44.5 -21t37.5 -26.5t32.5 -35t19 -43.5t8.5 -54.5q0 -89 -71 -147t-185 -58
q-109 0 -179.5 57t-89.5 150l85 23q7 -64 57.5 -107.5t130.5 -43.5q74 0 118.5 34.5t44.5 88.5q0 18 -6 33.5t-14.5 26.5t-25 22.5t-28.5 18.5t-35.5 15.5t-36.5 13t-39.5 12.5t-36.5 11q-33 10 -53 17.5t-50.5 23.5t-47.5 33.5t-30.5 45.5t-13.5 62q0 82 69.5 136.5
t175.5 54.5q96 0 164.5 -51.5t87.5 -136.5z" />
    <glyph glyph-name="zacute.loclPLK" horiz-adv-x="691" 
d="M428 934l58 -33l-119 -163l-44 26zM631 700v-80l-438 -521l-21 -20l31 2h428v-81h-571v80l441 522l20 19l-31 -2h-420v81h561z" />
    <glyph glyph-name="colon.case" horiz-adv-x="286" 
d="M143 447q-22 0 -36.5 15t-14.5 36q0 22 15 36.5t36 14.5q22 0 36.5 -15t14.5 -36t-15 -36t-36 -15zM143 138q-22 0 -36.5 15t-14.5 36q0 22 15 36.5t36 14.5q22 0 36.5 -15t14.5 -36t-15 -36t-36 -15z" />
    <glyph glyph-name="semicolon.case" horiz-adv-x="308" 
d="M147 444q-22 0 -36.5 15t-14.5 36q0 22 15 36.5t36 14.5q22 0 36.5 -15t14.5 -36t-15 -36t-36 -15zM141 134l10 4l-10 1q-17 0 -31 13.5t-14 34.5q0 22 15 36.5t37 14.5t37 -17t15 -44q0 -43 -23.5 -86t-56.5 -75h-37q23 22 40.5 55.5t17.5 62.5z" />
    <glyph glyph-name="apple" horiz-adv-x="802" 
d="M666 82h44v45q0 91 -4.5 142t-8 61t-9.5 19l-25 29l-11 13l11 12l22 26q8 8 12 19t8.5 62t4.5 146v44h-44q-94 0 -145.5 -4.5t-62 -8.5t-19.5 -12l-20 -17l-17 -16l-18 16l-20 19q-8 7 -19 10.5t-63 8t-147 4.5h-43v-44q0 -93 4 -145t8 -62.5t11 -19.5l24 -27l10 -11
l-10 -12l-24 -27q-7 -8 -11 -18.5t-8 -62.5t-4 -146v-43h43q93 0 145 4t63 8t19 12l27 23l11 10l13 -10l27 -23q8 -8 18.5 -11.5t62 -8t145.5 -4.5zM400 256l-89 -79q-25 -5 -132 -7q4 111 7 132l79 89l-79 89q-3 20 -7 133q98 -2 133 -7l88 -81l91 81q35 5 132 7
q-4 -112 -7 -133l-81 -89l81 -91q4 -36 7 -130q-106 2 -133 7zM126 39l3 12q-5 3 -15 3q-21 0 -21 -17q0 -11 15 -16q9 -3 9 -6q0 -5 -7 -5q-2 0 -14 4l-4 -12q6 -3 16 -3q24 0 24 17q0 11 -14 16q-11 4 -11 7q0 4 7 4q4 0 12 -4zM571 40l4 12q-4 2 -14 2q-13 0 -21 -7.5
t-8 -21.5q0 -26 28 -26q8 0 14 2l-3 12q-3 -3 -9 -3q-15 0 -15 16q0 17 15 17q6 0 9 -3zM630 26q0 12 -7.5 20t-19.5 8t-19.5 -8t-7.5 -20q0 -27 27 -27t27 27zM150 20v-20h14v20l17 33h-16l-8 -23l-7 23h-17zM186 53v-53h13v35l19 -35h15v53h-13v-32l-16 32h-18zM238 42h14
v-42h13v42h14v11h-41v-11zM299 33v20h-15v-53h15v21h18v-21h14v53h-14v-20h-18zM336 53l17 -53h16l17 53h-15l-10 -39l-9 39h-16zM406 0v53h-15v-53h15zM429 21h19v11h-19v10h21v11h-36v-53h36v11h-21v10zM454 53l13 -53h15l7 35l6 -35h16l13 53h-14l-7 -36l-6 36h-15
l-6 -36l-7 36h-15zM681 40v-40h14l-2 53h-19l-9 -34l-8 34h-19l-4 -53h15v40l11 -39h10zM591 26q0 17 12 17q11 0 11 -17q0 -16 -11 -16q-12 0 -12 16zM525 -1q-6 0 -6 6t6 6t6 -6t-6 -6z" />
    </font>
</defs>
</svg>
