<svg xmlns="http://www.w3.org/2000/svg">
<defs>
<font id="NovecentowideMedium" horiz-adv-x="809" >
  <font-face 
    font-family="NovecentowideMedium"
    font-weight="500"
    font-stretch="expanded"
    units-per-em="1000"
    panose-1="0 0 6 5 0 0 0 0 0 0"
    ascent="800"
    descent="-200"
    x-height="700"
    cap-height="700"
    bbox="-44 -266 1300 943"
    underline-thickness="50"
    underline-position="-150"
    unicode-range="U+0020-2265"
  />
<missing-glyph horiz-adv-x="794" 
d="M662 82h44v45q0 91 -4.5 142t-8 61t-9.5 19l-25 29l-11 13l11 12l22 26q8 8 12 19t8.5 62t4.5 146v44h-44q-94 0 -145.5 -4.5t-62 -8.5t-19.5 -12l-20 -17l-17 -16l-18 16l-20 19q-8 7 -19 10.5t-63 8t-147 4.5h-43v-44q0 -93 4 -145t8 -62.5t11 -19.5l24 -27l10 -11
l-10 -12l-24 -27q-7 -8 -11 -18.5t-8 -62.5t-4 -146v-43h43q93 0 145 4t63 8t19 12l27 23l11 10l13 -10l27 -23q8 -8 18.5 -11.5t62 -8t145.5 -4.5zM396 256l-89 -79q-25 -5 -132 -7q4 111 7 132l79 89l-79 89q-3 20 -7 133q98 -2 133 -7l88 -81l91 81q35 5 132 7
q-4 -112 -7 -133l-81 -89l81 -91q4 -36 7 -130q-106 2 -133 7zM122 39l3 12q-5 3 -15 3q-21 0 -21 -17q0 -11 15 -16q9 -3 9 -6q0 -5 -7 -5q-2 0 -14 4l-4 -12q6 -3 16 -3q24 0 24 17q0 11 -14 16q-11 4 -11 7q0 4 7 4q4 0 12 -4zM567 40l4 12q-4 2 -14 2q-13 0 -21 -7.5
t-8 -21.5q0 -26 28 -26q8 0 14 2l-3 12q-3 -3 -9 -3q-15 0 -15 16q0 17 15 17q6 0 9 -3zM626 26q0 12 -7.5 20t-19.5 8t-19.5 -8t-7.5 -20q0 -27 27 -27t27 27zM146 20v-20h14v20l17 33h-16l-8 -23l-7 23h-17zM182 53v-53h13v35l19 -35h15v53h-13v-32l-16 32h-18zM234 42h14
v-42h13v42h14v11h-41v-11zM295 33v20h-15v-53h15v21h18v-21h14v53h-14v-20h-18zM332 53l17 -53h16l17 53h-15l-10 -39l-9 39h-16zM402 0v53h-15v-53h15zM425 21h19v11h-19v10h21v11h-36v-53h36v11h-21v10zM450 53l13 -53h15l7 35l6 -35h16l13 53h-14l-7 -36l-6 36h-15
l-6 -36l-7 36h-15zM677 40v-40h14l-2 53h-19l-9 -34l-8 34h-19l-4 -53h15v40l11 -39h10zM587 26q0 17 12 17q11 0 11 -17q0 -16 -11 -16q-12 0 -12 16zM521 -1q-6 0 -6 6t6 6t6 -6t-6 -6z" />
    <glyph glyph-name=".notdef" horiz-adv-x="794" 
d="M662 82h44v45q0 91 -4.5 142t-8 61t-9.5 19l-25 29l-11 13l11 12l22 26q8 8 12 19t8.5 62t4.5 146v44h-44q-94 0 -145.5 -4.5t-62 -8.5t-19.5 -12l-20 -17l-17 -16l-18 16l-20 19q-8 7 -19 10.5t-63 8t-147 4.5h-43v-44q0 -93 4 -145t8 -62.5t11 -19.5l24 -27l10 -11
l-10 -12l-24 -27q-7 -8 -11 -18.5t-8 -62.5t-4 -146v-43h43q93 0 145 4t63 8t19 12l27 23l11 10l13 -10l27 -23q8 -8 18.5 -11.5t62 -8t145.5 -4.5zM396 256l-89 -79q-25 -5 -132 -7q4 111 7 132l79 89l-79 89q-3 20 -7 133q98 -2 133 -7l88 -81l91 81q35 5 132 7
q-4 -112 -7 -133l-81 -89l81 -91q4 -36 7 -130q-106 2 -133 7zM122 39l3 12q-5 3 -15 3q-21 0 -21 -17q0 -11 15 -16q9 -3 9 -6q0 -5 -7 -5q-2 0 -14 4l-4 -12q6 -3 16 -3q24 0 24 17q0 11 -14 16q-11 4 -11 7q0 4 7 4q4 0 12 -4zM567 40l4 12q-4 2 -14 2q-13 0 -21 -7.5
t-8 -21.5q0 -26 28 -26q8 0 14 2l-3 12q-3 -3 -9 -3q-15 0 -15 16q0 17 15 17q6 0 9 -3zM626 26q0 12 -7.5 20t-19.5 8t-19.5 -8t-7.5 -20q0 -27 27 -27t27 27zM146 20v-20h14v20l17 33h-16l-8 -23l-7 23h-17zM182 53v-53h13v35l19 -35h15v53h-13v-32l-16 32h-18zM234 42h14
v-42h13v42h14v11h-41v-11zM295 33v20h-15v-53h15v21h18v-21h14v53h-14v-20h-18zM332 53l17 -53h16l17 53h-15l-10 -39l-9 39h-16zM402 0v53h-15v-53h15zM425 21h19v11h-19v10h21v11h-36v-53h36v11h-21v10zM450 53l13 -53h15l7 35l6 -35h16l13 53h-14l-7 -36l-6 36h-15
l-6 -36l-7 36h-15zM677 40v-40h14l-2 53h-19l-9 -34l-8 34h-19l-4 -53h15v40l11 -39h10zM587 26q0 17 12 17q11 0 11 -17q0 -16 -11 -16q-12 0 -12 16zM521 -1q-6 0 -6 6t6 6t6 -6t-6 -6z" />
    <glyph glyph-name=".null" horiz-adv-x="0" 
 />
    <glyph glyph-name="nonmarkingreturn" horiz-adv-x="333" 
 />
    <glyph glyph-name="space" unicode=" " horiz-adv-x="400" 
 />
    <glyph glyph-name="exclam" unicode="!" horiz-adv-x="281" 
d="M88 224v476h105v-476h-105zM88 0v157h105v-157h-105z" />
    <glyph glyph-name="quotedbl" unicode="&#x22;" horiz-adv-x="491" 
d="M82 495v217h105v-217h-105zM292 495v217h105v-217h-105z" />
    <glyph glyph-name="numbersign" unicode="#" horiz-adv-x="875" 
d="M785 415h-147l-62 -124h147l-50 -95h-146l-99 -196h-106l100 196h-139l-99 -196h-106l100 196h-137l50 95h136l63 124h-138l50 96h137l97 189h103l-96 -189h140l97 189h103l-96 -189h148zM471 291l63 124h-140l-62 -124h139z" />
    <glyph glyph-name="dollar" unicode="$" horiz-adv-x="616" 
d="M559 525l-106 -29q-12 57 -54.5 89.5t-100.5 32.5q-59 0 -96 -25.5t-37 -70.5q0 -21 11 -37t36.5 -29t45.5 -20.5t60 -20.5q17 -5 25 -8q41 -13 63 -21t58 -27t55 -38.5t34 -52.5t15 -73q0 -80 -57 -136.5t-152 -69.5v-79h-109v80q-86 15 -143 69t-77 135l108 29
q9 -57 56.5 -97t118.5 -40q63 0 102 29.5t39 74.5q0 15 -5.5 28.5t-13 23.5t-23 20.5t-27 16.5t-34 14.5t-34.5 12.5t-38 12t-37 12q-32 11 -52.5 19t-49.5 24.5t-46 34.5t-29.5 47t-12.5 63q0 71 55 125t143 67v80h109v-81q76 -14 130 -63.5t70 -120.5z" />
    <glyph glyph-name="percent" unicode="%" horiz-adv-x="919" 
d="M225 312q-82 0 -133 55.5t-51 145.5q0 89 51 145t133 56t132.5 -56t50.5 -145q0 -90 -50.5 -145.5t-132.5 -55.5zM201 0l435 700h76l-435 -700h-76zM225 391q45 0 73 33.5t28 88.5t-28 88.5t-73 33.5t-73.5 -33.5t-28.5 -88.5t28.5 -88.5t73.5 -33.5zM695 -14
q-82 0 -133 55.5t-51 145.5q0 89 51 145t133 56t132.5 -56t50.5 -145q0 -90 -50.5 -145.5t-132.5 -55.5zM695 65q45 0 73 33.5t28 88.5t-28 88.5t-73 33.5t-73.5 -33.5t-28.5 -88.5t28.5 -88.5t73.5 -33.5z" />
    <glyph glyph-name="ampersand" unicode="&#x26;" horiz-adv-x="705" 
d="M697 405v-89h-123v-74q0 -117 -67.5 -186.5t-206.5 -69.5q-115 0 -187 60t-72 156q0 64 43 108.5t103 51.5q-51 8 -91.5 47.5t-40.5 105.5q0 82 62 140.5t179 58.5q103 0 171 -52t88 -147l-94 -26q-18 67 -56 98.5t-107 31.5q-67 0 -97.5 -34t-30.5 -74q0 -46 35 -76
t102 -30h390zM468 247v69h-168q-70 0 -110 -29t-40 -83q0 -53 42.5 -87.5t107.5 -34.5q88 0 128 41t40 124z" />
    <glyph glyph-name="quotesingle" unicode="'" horiz-adv-x="281" 
d="M88 495v217h105v-217h-105z" />
    <glyph glyph-name="parenleft" unicode="(" horiz-adv-x="373" 
d="M316 836l29 -103q-100 -33 -146 -126.5t-46 -260.5q0 -166 46 -259.5t146 -126.5l-29 -103q-274 94 -274 489q0 396 274 490z" />
    <glyph glyph-name="parenright" unicode=")" horiz-adv-x="373" 
d="M57 836l-29 -103q100 -33 146 -126.5t46 -260.5q0 -166 -46 -259.5t-146 -126.5l29 -103q274 94 274 489q0 396 -274 490z" />
    <glyph glyph-name="asterisk" unicode="*" horiz-adv-x="517" 
d="M407 617l22 -69l-115 -34l73 -97l-58 -43l-71 101l-69 -101l-59 42l73 98l-115 34l22 69l112 -37v120h71v-120z" />
    <glyph glyph-name="plus" unicode="+" horiz-adv-x="659" 
d="M571 401v-92h-186v-191h-99v191h-198v92h198v194h99v-194h186z" />
    <glyph glyph-name="comma" unicode="," horiz-adv-x="254" 
d="M117 -12l11 4l-11 2q-19 1 -34 16t-15 39q0 25 17.5 42t43.5 17q25 0 42 -19.5t17 -49.5q0 -44 -26 -90t-64 -80h-44q24 20 43.5 56t19.5 63z" />
    <glyph glyph-name="hyphen" unicode="-" horiz-adv-x="393" 
d="M40 406h313v-102h-313v102z" />
    <glyph glyph-name="period" unicode="." horiz-adv-x="238" 
d="M119 -13q-25 0 -42 17t-17 42t17.5 42t41.5 17q25 0 42 -17.5t17 -41.5q0 -25 -17 -42t-42 -17z" />
    <glyph glyph-name="slash" unicode="/" horiz-adv-x="477" 
d="M8 0l358 700h103l-355 -700h-106z" />
    <glyph glyph-name="zero" unicode="0" horiz-adv-x="749" 
d="M374 714q150 0 242.5 -102t92.5 -262t-92.5 -262t-242.5 -102q-149 0 -241 102t-92 262t92 262t241 102zM374 605q-102 0 -160 -69.5t-58 -185.5t58 -185.5t160 -69.5t161 69.5t59 185.5t-59 185.5t-161 69.5z" />
    <glyph glyph-name="one" unicode="1" horiz-adv-x="434" 
d="M270 700h76v-700h-111v507l2 30l-15 -18l-110 -108l-71 65z" />
    <glyph glyph-name="two" unicode="2" horiz-adv-x="620" 
d="M399 246l-191 -142h351v-104h-498v104l309 251q33 26 53.5 63t20.5 73q0 54 -37 89t-96 35q-62 0 -100.5 -34t-53.5 -87l-103 26q26 92 93.5 143t166.5 51q107 0 176 -63t69 -159q0 -42 -12.5 -78.5t-38.5 -67.5t-49.5 -52t-59.5 -48z" />
    <glyph glyph-name="three" unicode="3" horiz-adv-x="602" 
d="M152 496l-98 27q21 88 89 139.5t166 51.5q116 0 179 -56.5t63 -138.5q0 -63 -45.5 -109.5t-99.5 -46.5q65 0 110.5 -45t45.5 -114q0 -97 -71 -157.5t-182 -60.5q-100 0 -175.5 55.5t-92.5 142.5l100 28q11 -58 54 -92t112 -34q67 0 103.5 34t36.5 87q0 55 -44.5 82.5
t-106.5 27.5h-56v88h56q71 0 105.5 32.5t34.5 78.5q0 38 -33.5 68.5t-98.5 30.5q-117 0 -152 -119z" />
    <glyph glyph-name="four" unicode="4" horiz-adv-x="657" 
d="M597 256v-97h-78v-159h-106v159h-372v97l384 444h94v-444h78zM163 256h250v272l2 19l-14 -19z" />
    <glyph glyph-name="five" unicode="5" horiz-adv-x="628" 
d="M227 596l-29 -175q37 37 118 37q108 0 180 -65.5t72 -166.5q0 -104 -71.5 -172t-180.5 -68q-104 0 -174.5 55t-87.5 139l102 27q11 -56 50.5 -90.5t105.5 -34.5q63 0 103.5 41t40.5 104t-41 103t-103 40q-104 0 -135 -74l-95 27l61 377h383v-104h-299z" />
    <glyph glyph-name="six" unicode="6" horiz-adv-x="612" 
d="M429 700l-208 -277q36 44 91 44q117 3 188 -67t71 -174q0 -106 -74 -173t-189 -67q-114 0 -190.5 67.5t-76.5 176.5q0 69 26 127.5t81 131.5l160 211h121zM306 83q67 0 108 40t42 106q1 64 -40.5 103.5t-109.5 39.5t-109 -39.5t-41 -103.5q0 -66 41 -106t109 -40z" />
    <glyph glyph-name="seven" unicode="7" horiz-adv-x="562" 
d="M43 700h511v-66l-356 -634h-119l317 566l23 32l-32 -2h-344v104z" />
    <glyph glyph-name="eight" unicode="8" horiz-adv-x="609" 
d="M41 195q0 70 45.5 119t106.5 59q-38 6 -79.5 48.5t-41.5 106.5q0 79 65.5 132.5t166.5 53.5t166.5 -53.5t65.5 -132.5q0 -64 -41 -106.5t-80 -48.5q61 -10 107 -59t46 -119q0 -91 -74 -150t-190 -60q-116 1 -189.5 60t-73.5 150zM174 521q0 -45 34.5 -74.5t95.5 -29.5
q62 1 96.5 30t34.5 74q0 47 -36 77t-95 30t-94.5 -30t-35.5 -77zM153 203q0 -56 41.5 -89.5t109.5 -34.5q68 1 110 34.5t42 89.5q0 54 -42 87t-110 33t-109.5 -33t-41.5 -87z" />
    <glyph glyph-name="nine" unicode="9" horiz-adv-x="616" 
d="M159 0l236 277q-17 -20 -44 -32.5t-52 -12.5q-121 -2 -189.5 67.5t-68.5 173.5q0 109 74.5 175t190.5 66q115 0 192 -65.5t77 -179.5q0 -130 -130 -283l-160 -186h-126zM308 617q-65 0 -108.5 -38.5t-43.5 -108.5q0 -68 43.5 -105.5t108.5 -37.5q66 0 109 38.5t43 104.5
q0 71 -43 109t-109 38z" />
    <glyph glyph-name="colon" unicode=":" horiz-adv-x="238" 
d="M119 290q-25 0 -42 17t-17 42t17.5 42t41.5 17q25 0 42 -17.5t17 -41.5q0 -25 -17 -42t-42 -17zM119 -13q-25 0 -42 17t-17 42t17.5 42t41.5 17q25 0 42 -17.5t17 -41.5q0 -25 -17 -42t-42 -17z" />
    <glyph glyph-name="semicolon" unicode=";" horiz-adv-x="255" 
d="M127 290q-25 0 -42 17t-17 42t17.5 42t41.5 17q25 0 42 -17.5t17 -41.5q0 -25 -17 -42t-42 -17zM117 -14l11 4l-11 2q-19 1 -34 16t-15 39q0 25 17.5 42t43.5 17q25 0 42 -19.5t17 -49.5q0 -44 -26 -90t-64 -80h-44q24 20 43.5 56t19.5 63z" />
    <glyph glyph-name="less" unicode="&#x3c;" horiz-adv-x="636" 
d="M548 119l-317 245l317 244h-134l-326 -244l326 -245h134z" />
    <glyph glyph-name="equal" unicode="=" horiz-adv-x="659" 
d="M88 498h483v-92h-483v92zM88 293h483v-92h-483v92z" />
    <glyph glyph-name="greater" unicode="&#x3e;" horiz-adv-x="636" 
d="M88 119l317 245l-317 244h134l326 -244l-326 -245h-134z" />
    <glyph glyph-name="question" unicode="?" horiz-adv-x="579" 
d="M225 224v110q115 57 156.5 92.5t41.5 81.5q0 42 -30.5 75t-99.5 33q-124 0 -159 -119l-93 26q21 89 89 140t167 51q117 0 179 -57t62 -142q0 -44 -16.5 -78.5t-51 -62t-62.5 -43t-76 -38.5v-69h-107zM225 0v157h107v-157h-107z" />
    <glyph glyph-name="at" unicode="@" horiz-adv-x="798" 
d="M490 528h73v-259q0 -32 13.5 -51t37.5 -19q37 0 55.5 43t18.5 107q0 131 -82 217t-208 86q-125 0 -207 -86t-82 -217q0 -130 82 -217.5t207 -87.5q41 0 74.5 6t53 14.5t32.5 17t20 14.5t8 6l45 -24q-2 -4 -9.5 -12.5t-26.5 -23t-44 -26.5t-65.5 -21t-87.5 -9
q-154 0 -255.5 104t-101.5 259q0 158 101 261.5t256 103.5t257 -103.5t102 -261.5q0 -84 -39 -144.5t-113 -60.5q-37 0 -66 19t-41 49q-36 -65 -127 -65q-79 0 -128.5 54.5t-49.5 140.5q0 91 51 147.5t133 56.5q34 0 62 -13t39.5 -25.5t11.5 -17.5v38zM490 344v27
q0 44 -29.5 72t-76.5 28q-48 0 -78 -35.5t-29 -92.5q1 -53 30.5 -86t76.5 -33q48 0 77 34.5t29 85.5z" />
    <glyph glyph-name="A" unicode="A" horiz-adv-x="778" 
d="M647 0l-71 146h-374l-71 -146h-123l344 700h74l344 -700h-123zM253 250h272l-128 264l-8 22l-8 -22z" />
    <glyph glyph-name="B" unicode="B" horiz-adv-x="652" 
d="M88 700h277q91 0 148 -50t57 -127q0 -50 -31 -90.5t-71 -51.5q55 -9 100 -58t45 -114q0 -94 -62.5 -151.5t-175.5 -57.5h-287v700zM199 418h144q52 0 84 26.5t32 68.5q0 43 -32 68.5t-84 25.5h-144v-189zM199 93h167q58 0 95 31.5t37 84.5q0 51 -39 84t-96 33h-164v-233z
" />
    <glyph glyph-name="C" unicode="C" horiz-adv-x="759" 
d="M722 530l-113 -30q-32 49 -87 77t-118 28q-109 0 -178.5 -71t-69.5 -184t70.5 -183.5t177.5 -70.5q70 0 129 33.5t89 90.5l111 -30q-45 -94 -132.5 -149t-196.5 -55q-152 0 -257.5 103.5t-105.5 260.5t105.5 260.5t257.5 103.5q101 0 185.5 -49.5t132.5 -134.5z" />
    <glyph glyph-name="D" unicode="D" horiz-adv-x="790" 
d="M88 700h299q153 0 257.5 -99t104.5 -254q0 -153 -103.5 -250t-254.5 -97h-303v700zM199 104h192q102 0 172.5 66.5t70.5 176.5q0 112 -71.5 180.5t-175.5 68.5h-188v-492z" />
    <glyph glyph-name="E" unicode="E" horiz-adv-x="641" 
d="M199 104h376v-104h-487v700h481v-104h-370v-182h295v-101h-295v-209z" />
    <glyph glyph-name="F" unicode="F" horiz-adv-x="600" 
d="M559 596h-360v-203h285v-100h-285v-293h-111v700h471v-104z" />
    <glyph glyph-name="G" unicode="G" horiz-adv-x="794" 
d="M638 -1v90q-33 -40 -93.5 -71.5t-140.5 -31.5q-152 0 -257.5 103.5t-105.5 260.5t105.5 260.5t257.5 103.5q105 -1 188 -50.5t130 -133.5l-113 -30q-31 49 -86.5 77t-118.5 28q-109 0 -178.5 -71t-69.5 -184q0 -114 72 -185t181 -71q88 0 148 39.5t82 90.5v58h-204v91
h299v-374h-96z" />
    <glyph glyph-name="H" unicode="H" horiz-adv-x="740" 
d="M541 700h111v-700h-111v307h-342v-307h-111v700h111v-290h342v290z" />
    <glyph glyph-name="I" unicode="I" horiz-adv-x="287" 
d="M199 0h-111v700h111v-700z" />
    <glyph glyph-name="J" unicode="J" horiz-adv-x="663" 
d="M481 700h111v-403q0 -147 -80.5 -229t-220.5 -82q-100 0 -177 53t-104 136l109 29q18 -54 64 -84.5t108 -30.5q91 0 140.5 53.5t49.5 149.5v408z" />
    <glyph glyph-name="K" unicode="K" horiz-adv-x="704" 
d="M528 700h130l-287 -288l315 -412h-138l-254 335l-95 -95v-240h-111v700h111v-327z" />
    <glyph glyph-name="L" unicode="L" horiz-adv-x="579" 
d="M199 104h360v-104h-471v700h111v-596z" />
    <glyph glyph-name="M" unicode="M" horiz-adv-x="842" 
d="M650 700h104v-700h-111v473l2 29l-13 -29l-188 -300h-46l-188 300l-13 28l2 -28v-473h-111v700h104l219 -351l10 -20l10 20z" />
    <glyph glyph-name="N" unicode="N" horiz-adv-x="781" 
d="M576 700h111v-700h-104l-366 481l-14 23l2 -27v-477h-111v700h104l367 -477l13 -25l-2 29v473z" />
    <glyph glyph-name="O" unicode="O" 
d="M41 350q0 157 105.5 260.5t257.5 103.5q153 0 258.5 -103.5t105.5 -260.5t-105.5 -260.5t-258.5 -103.5q-152 0 -257.5 103.5t-105.5 260.5zM156 350q0 -113 69.5 -184t178.5 -71q108 0 178.5 71.5t70.5 183.5q0 114 -70.5 184.5t-178.5 70.5q-109 0 -178.5 -70.5
t-69.5 -184.5z" />
    <glyph glyph-name="P" unicode="P" horiz-adv-x="616" 
d="M88 700h233q124 0 194.5 -61t70.5 -168t-70.5 -168t-194.5 -61h-122v-242h-111v700zM199 346h120q73 0 112.5 33t39.5 92q0 60 -40.5 92.5t-111.5 32.5h-120v-250z" />
    <glyph glyph-name="Q" unicode="Q" 
d="M345 -132v122q-132 21 -218 120.5t-86 239.5q0 157 105.5 260.5t257.5 103.5q153 0 258.5 -103.5t105.5 -260.5q0 -142 -89 -242.5t-223 -118.5v-121h-111zM404 95q108 0 178.5 71.5t70.5 183.5q0 114 -70.5 184.5t-178.5 70.5q-109 0 -178.5 -70.5t-69.5 -184.5
q0 -113 69.5 -184t178.5 -71z" />
    <glyph glyph-name="R" unicode="R" horiz-adv-x="654" 
d="M615 0h-124l-155 250h-19h-118v-250h-111v700h229q125 0 197 -60.5t72 -164.5q0 -73 -36.5 -125.5t-103.5 -78.5zM199 354h131q69 0 105 33.5t36 87.5q0 55 -36.5 88t-104.5 33h-131v-242z" />
    <glyph glyph-name="S" unicode="S" horiz-adv-x="602" 
d="M559 525l-106 -29q-12 57 -54.5 89.5t-100.5 32.5q-59 0 -96 -25.5t-37 -70.5q0 -21 11 -37t36.5 -29t45.5 -20.5t60 -20.5q17 -5 25 -8q41 -13 63 -21t58 -27t55 -38.5t34 -52.5t15 -73q0 -91 -72.5 -150t-188.5 -59q-109 0 -181.5 57t-95.5 151l108 29q9 -57 56.5 -97
t118.5 -40q63 0 102 29.5t39 74.5q0 15 -5.5 28.5t-13 23.5t-23 20.5t-27 16.5t-34 14.5t-34.5 12.5t-38 12t-37 12q-32 11 -52.5 19t-49.5 24.5t-46 34.5t-29.5 47t-12.5 63q0 83 71 139.5t179 56.5q96 0 166.5 -52.5t90.5 -136.5z" />
    <glyph glyph-name="T" unicode="T" horiz-adv-x="599" 
d="M18 700h563v-104h-227v-596h-111v596h-225v104z" />
    <glyph glyph-name="U" unicode="U" horiz-adv-x="744" 
d="M561 700h111v-403q0 -147 -80 -229t-220 -82t-220 82t-80 229v403h111v-407q0 -96 49 -150t140 -54t140 54t49 150v407z" />
    <glyph glyph-name="V" unicode="V" horiz-adv-x="757" 
d="M625 700h124l-326 -700h-89l-326 700h125l237 -516l9 -24l8 24z" />
    <glyph glyph-name="W" unicode="W" horiz-adv-x="1002" 
d="M876 700h118l-280 -700h-76l-129 355l-8 30l-9 -30l-129 -355h-76l-279 700h118l192 -479l7 -27l7 27l139 374h60l139 -374l7 -27l7 27z" />
    <glyph glyph-name="X" unicode="X" horiz-adv-x="675" 
d="M344 254l-7 17l-6 -17l-183 -254h-134l257 361l-239 339h133l166 -235l6 -16l7 16l166 235h133l-239 -339l256 -361h-133z" />
    <glyph glyph-name="Y" unicode="Y" horiz-adv-x="688" 
d="M545 700h135l-280 -373v-327h-111v327l-280 373h134l189 -248l12 -22l13 22z" />
    <glyph glyph-name="Z" unicode="Z" horiz-adv-x="697" 
d="M637 700v-103l-411 -477l-20 -18l31 2h400v-104h-577v103l415 478l20 17l-31 -2h-394v104h567z" />
    <glyph glyph-name="bracketleft" unicode="[" horiz-adv-x="356" 
d="M199 753v-802h134v-103h-245v1008h245v-103h-134z" />
    <glyph glyph-name="backslash" unicode="\" horiz-adv-x="477" 
d="M469 0l-358 700h-103l355 -700h106z" />
    <glyph glyph-name="bracketright" unicode="]" horiz-adv-x="362" 
d="M163 753v-802h-134v-103h245v1008h-245v-103h134z" />
    <glyph glyph-name="asciicircum" unicode="^" horiz-adv-x="644" 
d="M556 477l-53 -47l-181 186l-182 -186l-52 47l234 235z" />
    <glyph glyph-name="underscore" unicode="_" horiz-adv-x="768" 
d="M88 0h593v-89h-593v89z" />
    <glyph glyph-name="grave" unicode="`" horiz-adv-x="312" 
d="M244 734l-228 104l39 76l222 -119z" />
    <glyph glyph-name="a" unicode="a" horiz-adv-x="778" 
d="M647 0l-71 146h-374l-71 -146h-123l344 700h74l344 -700h-123zM253 250h272l-128 264l-8 22l-8 -22z" />
    <glyph glyph-name="b" unicode="b" horiz-adv-x="652" 
d="M88 700h277q91 0 148 -50t57 -127q0 -50 -31 -90.5t-71 -51.5q55 -9 100 -58t45 -114q0 -94 -62.5 -151.5t-175.5 -57.5h-287v700zM199 418h144q52 0 84 26.5t32 68.5q0 43 -32 68.5t-84 25.5h-144v-189zM199 93h167q58 0 95 31.5t37 84.5q0 51 -39 84t-96 33h-164v-233z
" />
    <glyph glyph-name="c" unicode="c" horiz-adv-x="759" 
d="M722 530l-113 -30q-32 49 -87 77t-118 28q-109 0 -178.5 -71t-69.5 -184t70.5 -183.5t177.5 -70.5q70 0 129 33.5t89 90.5l111 -30q-45 -94 -132.5 -149t-196.5 -55q-152 0 -257.5 103.5t-105.5 260.5t105.5 260.5t257.5 103.5q101 0 185.5 -49.5t132.5 -134.5z" />
    <glyph glyph-name="d" unicode="d" horiz-adv-x="790" 
d="M88 700h299q153 0 257.5 -99t104.5 -254q0 -153 -103.5 -250t-254.5 -97h-303v700zM199 104h192q102 0 172.5 66.5t70.5 176.5q0 112 -71.5 180.5t-175.5 68.5h-188v-492z" />
    <glyph glyph-name="e" unicode="e" horiz-adv-x="641" 
d="M199 104h376v-104h-487v700h481v-104h-370v-182h295v-101h-295v-209z" />
    <glyph glyph-name="f" unicode="f" horiz-adv-x="600" 
d="M559 596h-360v-203h285v-100h-285v-293h-111v700h471v-104z" />
    <glyph glyph-name="g" unicode="g" horiz-adv-x="794" 
d="M638 -1v90q-33 -40 -93.5 -71.5t-140.5 -31.5q-152 0 -257.5 103.5t-105.5 260.5t105.5 260.5t257.5 103.5q105 -1 188 -50.5t130 -133.5l-113 -30q-31 49 -86.5 77t-118.5 28q-109 0 -178.5 -71t-69.5 -184q0 -114 72 -185t181 -71q88 0 148 39.5t82 90.5v58h-204v91
h299v-374h-96z" />
    <glyph glyph-name="h" unicode="h" horiz-adv-x="740" 
d="M541 700h111v-700h-111v307h-342v-307h-111v700h111v-290h342v290z" />
    <glyph glyph-name="i" unicode="i" horiz-adv-x="287" 
d="M199 0h-111v700h111v-700z" />
    <glyph glyph-name="j" unicode="j" horiz-adv-x="663" 
d="M481 700h111v-403q0 -147 -80.5 -229t-220.5 -82q-100 0 -177 53t-104 136l109 29q18 -54 64 -84.5t108 -30.5q91 0 140.5 53.5t49.5 149.5v408z" />
    <glyph glyph-name="k" unicode="k" horiz-adv-x="704" 
d="M528 700h130l-287 -288l315 -412h-138l-254 335l-95 -95v-240h-111v700h111v-327z" />
    <glyph glyph-name="l" unicode="l" horiz-adv-x="579" 
d="M199 104h360v-104h-471v700h111v-596z" />
    <glyph glyph-name="m" unicode="m" horiz-adv-x="842" 
d="M650 700h104v-700h-111v473l2 29l-13 -29l-188 -300h-46l-188 300l-13 28l2 -28v-473h-111v700h104l219 -351l10 -20l10 20z" />
    <glyph glyph-name="n" unicode="n" horiz-adv-x="769" 
d="M576 700h111v-700h-104l-366 481l-14 23l2 -27v-477h-111v700h104l367 -477l13 -25l-2 29v473z" />
    <glyph glyph-name="o" unicode="o" 
d="M41 350q0 157 105.5 260.5t257.5 103.5q153 0 258.5 -103.5t105.5 -260.5t-105.5 -260.5t-258.5 -103.5q-152 0 -257.5 103.5t-105.5 260.5zM156 350q0 -113 69.5 -184t178.5 -71q108 0 178.5 71.5t70.5 183.5q0 114 -70.5 184.5t-178.5 70.5q-109 0 -178.5 -70.5
t-69.5 -184.5z" />
    <glyph glyph-name="p" unicode="p" horiz-adv-x="616" 
d="M88 700h233q124 0 194.5 -61t70.5 -168t-70.5 -168t-194.5 -61h-122v-242h-111v700zM199 346h120q73 0 112.5 33t39.5 92q0 60 -40.5 92.5t-111.5 32.5h-120v-250z" />
    <glyph glyph-name="q" unicode="q" 
d="M345 -132v122q-132 21 -218 120.5t-86 239.5q0 157 105.5 260.5t257.5 103.5q153 0 258.5 -103.5t105.5 -260.5q0 -142 -89 -242.5t-223 -118.5v-121h-111zM404 95q108 0 178.5 71.5t70.5 183.5q0 114 -70.5 184.5t-178.5 70.5q-109 0 -178.5 -70.5t-69.5 -184.5
q0 -113 69.5 -184t178.5 -71z" />
    <glyph glyph-name="r" unicode="r" horiz-adv-x="654" 
d="M615 0h-124l-155 250h-19h-118v-250h-111v700h229q125 0 197 -60.5t72 -164.5q0 -73 -36.5 -125.5t-103.5 -78.5zM199 354h131q69 0 105 33.5t36 87.5q0 55 -36.5 88t-104.5 33h-131v-242z" />
    <glyph glyph-name="s" unicode="s" horiz-adv-x="602" 
d="M559 525l-106 -29q-12 57 -54.5 89.5t-100.5 32.5q-59 0 -96 -25.5t-37 -70.5q0 -21 11 -37t36.5 -29t45.5 -20.5t60 -20.5q17 -5 25 -8q41 -13 63 -21t58 -27t55 -38.5t34 -52.5t15 -73q0 -91 -72.5 -150t-188.5 -59q-109 0 -181.5 57t-95.5 151l108 29q9 -57 56.5 -97
t118.5 -40q63 0 102 29.5t39 74.5q0 15 -5.5 28.5t-13 23.5t-23 20.5t-27 16.5t-34 14.5t-34.5 12.5t-38 12t-37 12q-32 11 -52.5 19t-49.5 24.5t-46 34.5t-29.5 47t-12.5 63q0 83 71 139.5t179 56.5q96 0 166.5 -52.5t90.5 -136.5z" />
    <glyph glyph-name="t" unicode="t" horiz-adv-x="599" 
d="M18 700h563v-104h-227v-596h-111v596h-225v104z" />
    <glyph glyph-name="u" unicode="u" horiz-adv-x="744" 
d="M561 700h111v-403q0 -147 -80 -229t-220 -82t-220 82t-80 229v403h111v-407q0 -96 49 -150t140 -54t140 54t49 150v407z" />
    <glyph glyph-name="v" unicode="v" horiz-adv-x="757" 
d="M625 700h124l-326 -700h-89l-326 700h125l237 -516l9 -24l8 24z" />
    <glyph glyph-name="w" unicode="w" horiz-adv-x="1002" 
d="M876 700h118l-280 -700h-76l-129 355l-8 30l-9 -30l-129 -355h-76l-279 700h118l192 -479l7 -27l7 27l139 374h60l139 -374l7 -27l7 27z" />
    <glyph glyph-name="x" unicode="x" horiz-adv-x="675" 
d="M344 254l-7 17l-6 -17l-183 -254h-134l257 361l-239 339h133l166 -235l6 -16l7 16l166 235h133l-239 -339l256 -361h-133z" />
    <glyph glyph-name="y" unicode="y" horiz-adv-x="688" 
d="M545 700h135l-280 -373v-327h-111v327l-280 373h134l189 -248l12 -22l13 22z" />
    <glyph glyph-name="z" unicode="z" horiz-adv-x="697" 
d="M637 700v-103l-411 -477l-20 -18l31 2h400v-104h-577v103l415 478l20 17l-31 -2h-394v104h567z" />
    <glyph glyph-name="braceleft" unicode="{" horiz-adv-x="411" 
d="M263 610v-98q0 -38 -5 -68.5t-12.5 -47t-15.5 -27t-13.5 -14t-7.5 -3.5q2 0 7.5 -3.5t13.5 -14t15.5 -27t12.5 -47t5 -68.5v-98q0 -90 36.5 -122.5t97.5 -32.5v-103q-117 0 -181 64t-64 184v114q0 38 -6.5 67.5t-16 45t-19 25.5t-16.5 13l-6 3q3 1 7 3t15 12.5t19.5 25.5
t15.5 45t7 68v114q0 120 64 184t181 64v-103q-61 0 -97.5 -32.5t-36.5 -122.5z" />
    <glyph glyph-name="bar" unicode="|" horiz-adv-x="264" 
d="M176 -74h-88v849h88v-849z" />
    <glyph glyph-name="braceright" unicode="}" horiz-adv-x="418" 
d="M155 610v-98q0 -38 5 -68.5t12.5 -47t15.5 -27t13.5 -14t7.5 -3.5q-2 0 -7.5 -3.5t-13.5 -14t-15.5 -27t-12.5 -47t-5 -68.5v-98q0 -90 -36.5 -122.5t-97.5 -32.5v-103q117 0 181 64t64 184v114q0 38 6.5 67.5t16 45t19 25.5t16.5 13l6 3q-3 1 -7 3t-15 12.5t-19.5 25.5
t-15.5 45t-7 68v114q0 120 -64 184t-181 64v-103q61 0 97.5 -32.5t36.5 -122.5z" />
    <glyph glyph-name="asciitilde" unicode="~" horiz-adv-x="514" 
d="M383 430l90 -24q-10 -46 -48.5 -76t-91.5 -30q-40 0 -84 32.5t-64 32.5q-24 0 -38 -13t-16 -34l-90 24q10 46 48.5 75.5t91.5 29.5q34 0 62 -16.5t49 -32.5t38 -16q23 0 37.5 13t15.5 35z" />
    <glyph glyph-name="exclamdown" unicode="&#xa1;" horiz-adv-x="281" 
d="M88 700h105v-157h-105v157zM88 476h105v-476h-105v476z" />
    <glyph glyph-name="cent" unicode="&#xa2;" horiz-adv-x="573" 
d="M451 268l96 -26q-25 -61 -78.5 -103t-121.5 -53v-99h-89v100q-93 16 -155 88.5t-62 172.5t62 172.5t155 88.5v104h89v-103q64 -10 115 -47.5t78 -93.5l-97 -26q-46 74 -139 74q-72 0 -116 -45.5t-44 -123.5q0 -77 44 -123t116 -46q104 0 147 89z" />
    <glyph glyph-name="sterling" unicode="&#xa3;" horiz-adv-x="701" 
d="M225 87h386v-87h-523v87q94 18 79 176l-4 41h-75v89h67l-9 97q-8 91 56.5 156.5t159.5 67.5q35 1 71 -8.5t71.5 -30.5t64 -60t41.5 -92l-95 -26q-38 123 -148 118q-55 -2 -85 -40t-25 -94l8 -88h215v-89h-207l4 -39q12 -138 -52 -178z" />
    <glyph glyph-name="currency" unicode="&#xa4;" horiz-adv-x="659" 
d="M486 555l70 70l56 -56l-70 -70q54 -70 54 -159q0 -87 -51 -156l70 -71l-56 -56l-71 71q-70 -55 -159 -55q-88 0 -159 54l-70 -70l-56 56l70 70q-51 70 -51 157t54 159l-70 70l56 56l71 -71q68 52 155 52q85 0 157 -51zM329 510q-69 0 -117.5 -48.5t-48.5 -120.5
t48 -120.5t118 -48.5q71 0 119.5 48.5t48.5 120.5t-48.5 120.5t-119.5 48.5z" />
    <glyph glyph-name="yen" unicode="&#xa5;" horiz-adv-x="688" 
d="M680 700l-194 -259h116v-75h-173l-27 -36h200v-75h-202v-255h-111v255h-197v75h195l-27 36h-168v75h111l-194 259h134l189 -248l12 -22l13 22l188 248h135z" />
    <glyph glyph-name="brokenbar" unicode="&#xa6;" horiz-adv-x="264" 
d="M88 775h88v-280h-88v280zM88 216h88v-290h-88v290z" />
    <glyph glyph-name="dieresis" unicode="&#xa8;" horiz-adv-x="413" 
d="M64 766q-24 0 -40.5 16.5t-16.5 40.5q0 23 16.5 39.5t40.5 16.5t40.5 -16.5t16.5 -39.5q0 -24 -16.5 -40.5t-40.5 -16.5zM312 766q-24 0 -40.5 16.5t-16.5 40.5q0 23 16.5 39.5t40.5 16.5t40.5 -16.5t16.5 -39.5q0 -24 -16.5 -40.5t-40.5 -16.5z" />
    <glyph glyph-name="copyright" unicode="&#xa9;" 
d="M404 714q153 0 258.5 -103.5t105.5 -260.5t-105.5 -260.5t-258.5 -103.5q-152 0 -257.5 103.5t-105.5 260.5t105.5 260.5t257.5 103.5zM404 635q-120 0 -199 -79.5t-79 -205.5q0 -124 79 -204t199 -80q119 0 198.5 80t79.5 204q0 126 -79 205.5t-199 79.5zM503 297
l63 -18q-19 -45 -63 -74t-96 -29q-73 0 -123 49.5t-50 124.5t50 124.5t123 49.5q49 0 91.5 -26.5t62.5 -68.5l-63 -17q-14 22 -38.5 35.5t-52.5 13.5q-47 0 -76.5 -31t-29.5 -80t29.5 -80t76.5 -31q31 0 57 16t39 42z" />
    <glyph glyph-name="ordfeminine" unicode="&#xaa;" horiz-adv-x="401" 
d="M119 437l-30 -62h-69l163 333h35l163 -333h-69l-30 62h-163zM195 596l-49 -103h109l-49 103l-6 18zM20 272v56h361v-56h-361z" />
    <glyph glyph-name="guillemotleft" unicode="&#xab;" horiz-adv-x="764" 
d="M336 590l-236 -234l235 -234l61 62l-179 172l179 173zM628 590l-236 -234l235 -234l61 62l-179 172l179 173z" />
    <glyph glyph-name="softhyphen" unicode="&#xad;" horiz-adv-x="393" 
d="M40 406h313v-102h-313v102z" />
    <glyph glyph-name="registered" unicode="&#xae;" 
d="M404 714q153 0 258.5 -103.5t105.5 -260.5t-105.5 -260.5t-258.5 -103.5q-152 0 -257.5 103.5t-105.5 260.5t105.5 260.5t257.5 103.5zM404 66q119 0 198.5 80t79.5 204q0 126 -79 205.5t-199 79.5t-199 -79.5t-79 -205.5q0 -124 79 -204t199 -80zM291 524h115
q62 0 97 -30t35 -81q0 -74 -69 -101l82 -135h-66l-77 125h-2h-53v-125h-62v347zM353 466v-106h60q64 0 64 53q0 25 -17 39t-47 14h-60z" />
    <glyph glyph-name="macron" unicode="&#xaf;" horiz-adv-x="357" 
d="M7 745h307v-68h-307v68z" />
    <glyph glyph-name="degree" unicode="&#xb0;" horiz-adv-x="308" 
d="M154 586q-47 0 -80 32.5t-33 79.5t33 80t80 33q46 0 79.5 -33.5t33.5 -79.5t-33 -79t-80 -33zM154 645q22 0 38.5 16t16.5 38q0 23 -16 38.5t-39 15.5q-22 0 -38 -15.5t-16 -38.5q0 -22 16 -38t38 -16z" />
    <glyph glyph-name="plusminus" unicode="&#xb1;" horiz-adv-x="659" 
d="M385 401h186v-92h-186v-142h-99v142h-198v92h198v194h99v-194zM88 -10v92h483v-92h-483z" />
    <glyph glyph-name="acute" unicode="&#xb4;" horiz-adv-x="312" 
d="M214 914l39 -76l-229 -104l-33 61z" />
    <glyph glyph-name="periodcentered" unicode="&#xb7;" horiz-adv-x="238" 
d="M119 290q-25 0 -42 17t-17 42t17.5 42t41.5 17q25 0 42 -17.5t17 -41.5q0 -25 -17 -42t-42 -17z" />
    <glyph glyph-name="cedilla" unicode="&#xb8;" horiz-adv-x="250" 
d="M121 0l-19 -52q45 1 75 -25.5t30 -71.5q0 -48 -31 -73.5t-80 -25.5h-89l24 61h65q22 0 34.5 10.5t12.5 26.5q0 18 -13 28.5t-34 10.5h-78l39 111h64z" />
    <glyph glyph-name="ordmasculine" unicode="&#xba;" horiz-adv-x="363" 
d="M10 540q0 74 49.5 123t121.5 49t122 -49t50 -123q0 -73 -50 -122t-122 -49t-121.5 48.5t-49.5 122.5zM75 540q0 -48 30 -79t76 -31q47 0 77 31t30 79q0 49 -30 80t-77 31q-46 0 -76 -31t-30 -80zM20 328h323v-56h-323v56z" />
    <glyph glyph-name="guillemotright" unicode="&#xbb;" horiz-adv-x="764" 
d="M142 590l236 -234l-235 -234l-61 62l179 172l-179 173zM434 590l236 -234l-235 -234l-61 62l179 172l-179 173z" />
    <glyph glyph-name="questiondown" unicode="&#xbf;" horiz-adv-x="579" 
d="M354 700v-157h-107v157h107zM354 476v-110q-115 -57 -156.5 -92.5t-41.5 -81.5q0 -42 30.5 -75t99.5 -33q124 0 159 119l93 -26q-21 -89 -89 -140t-167 -51q-117 0 -179 57t-62 142q0 44 16.5 78.5t51 62t62.5 43t76 38.5v69h107z" />
    <glyph glyph-name="Agrave" unicode="&#xc0;" horiz-adv-x="778" 
d="M475 795l-33 -61l-228 104l39 76zM647 0l-71 146h-374l-71 -146h-123l344 700h74l344 -700h-123zM253 250h272l-128 264l-8 22l-8 -22z" />
    <glyph glyph-name="Aacute" unicode="&#xc1;" horiz-adv-x="778" 
d="M543 838l-229 -104l-33 61l223 119zM647 0l-71 146h-374l-71 -146h-123l344 700h74l344 -700h-123zM253 250h272l-128 264l-8 22l-8 -22z" />
    <glyph glyph-name="Acircumflex" unicode="&#xc2;" horiz-adv-x="778" 
d="M385 837l-121 -100l-43 47l164 139l165 -139l-44 -47zM647 0l-71 146h-374l-71 -146h-123l344 700h74l344 -700h-123zM253 250h272l-128 264l-8 22l-8 -22z" />
    <glyph glyph-name="Atilde" unicode="&#xc3;" horiz-adv-x="778" 
d="M501 873h88q0 -53 -35.5 -87t-90.5 -34q-34 0 -78 29t-64 29q-21 0 -34.5 -12.5t-13.5 -32.5h-87q0 53 35.5 87t90.5 34q37 0 80.5 -29.5t61.5 -29.5q20 0 33.5 13t13.5 33zM647 0l-71 146h-374l-71 -146h-123l344 700h74l344 -700h-123zM253 250h272l-128 264l-8 22
l-8 -22z" />
    <glyph glyph-name="Adieresis" unicode="&#xc4;" horiz-adv-x="778" 
d="M261 766q-24 0 -40.5 16.5t-16.5 40.5q0 23 16.5 39.5t40.5 16.5t40.5 -16.5t16.5 -39.5q0 -24 -16.5 -40.5t-40.5 -16.5zM509 766q-24 0 -40.5 16.5t-16.5 40.5q0 23 16.5 39.5t40.5 16.5t40.5 -16.5t16.5 -39.5q0 -24 -16.5 -40.5t-40.5 -16.5zM647 0l-71 146h-374
l-71 -146h-123l344 700h74l344 -700h-123zM253 250h272l-128 264l-8 22l-8 -22z" />
    <glyph glyph-name="Aring" unicode="&#xc5;" horiz-adv-x="778" 
d="M647 0l-71 146h-374l-71 -146h-123l333 677q-30 14 -47.5 41t-17.5 60q0 47 33 80t80 33t80 -33.5t33 -79.5q0 -33 -18 -60t-47 -41l333 -677h-123zM389 833q-22 0 -38 -15.5t-16 -38.5q0 -22 16 -38t38 -16t38.5 16t16.5 38q0 23 -16 38.5t-39 15.5zM253 250h272
l-128 264l-8 22l-8 -22z" />
    <glyph glyph-name="AE" unicode="&#xc6;" horiz-adv-x="994" 
d="M587 104h342v-104h-453v148h-237l-98 -148h-133l468 700h447v-104h-336v-182h295v-101h-295v-209zM295 230h181v278l-18 -32z" />
    <glyph glyph-name="Ccedilla" unicode="&#xc7;" horiz-adv-x="759" 
d="M622 220l111 -30q-41 -88 -121.5 -142t-181.5 -61l-14 -39q45 1 75 -25.5t30 -71.5q0 -48 -31 -73.5t-80 -25.5h-89l24 61h65q22 0 34.5 10.5t12.5 26.5q0 18 -13 28.5t-34 10.5h-78l35 99q-140 13 -233 114t-93 248q0 157 105.5 260.5t257.5 103.5q101 0 185.5 -49.5
t132.5 -134.5l-113 -30q-32 49 -87 77t-118 28q-109 0 -178.5 -71t-69.5 -184t70.5 -183.5t177.5 -70.5q70 0 129 33.5t89 90.5z" />
    <glyph glyph-name="Egrave" unicode="&#xc8;" horiz-adv-x="641" 
d="M425 795l-33 -61l-228 104l39 76zM199 104h376v-104h-487v700h481v-104h-370v-182h295v-101h-295v-209z" />
    <glyph glyph-name="Eacute" unicode="&#xc9;" horiz-adv-x="641" 
d="M493 838l-229 -104l-33 61l223 119zM199 104h376v-104h-487v700h481v-104h-370v-182h295v-101h-295v-209z" />
    <glyph glyph-name="Ecircumflex" unicode="&#xca;" horiz-adv-x="641" 
d="M335 837l-121 -100l-43 47l164 139l165 -139l-44 -47zM199 104h376v-104h-487v700h481v-104h-370v-182h295v-101h-295v-209z" />
    <glyph glyph-name="Edieresis" unicode="&#xcb;" horiz-adv-x="641" 
d="M211 766q-24 0 -40.5 16.5t-16.5 40.5q0 23 16.5 39.5t40.5 16.5t40.5 -16.5t16.5 -39.5q0 -24 -16.5 -40.5t-40.5 -16.5zM459 766q-24 0 -40.5 16.5t-16.5 40.5q0 23 16.5 39.5t40.5 16.5t40.5 -16.5t16.5 -39.5q0 -24 -16.5 -40.5t-40.5 -16.5zM199 104h376v-104h-487
v700h481v-104h-370v-182h295v-101h-295v-209z" />
    <glyph glyph-name="Igrave" unicode="&#xcc;" horiz-adv-x="287" 
d="M197 734l-228 104l39 76l222 -119zM199 0h-111v700h111v-700z" />
    <glyph glyph-name="Iacute" unicode="&#xcd;" horiz-adv-x="287" 
d="M259 914l39 -76l-229 -104l-33 61zM199 0h-111v700h111v-700z" />
    <glyph glyph-name="Icircumflex" unicode="&#xce;" horiz-adv-x="287" 
d="M-24 784l164 139l165 -139l-44 -47l-121 100l-121 -100zM199 0h-111v700h111v-700z" />
    <glyph glyph-name="Idieresis" unicode="&#xcf;" horiz-adv-x="287" 
d="M16 766q-24 0 -40.5 16.5t-16.5 40.5q0 23 16.5 39.5t40.5 16.5t40.5 -16.5t16.5 -39.5q0 -24 -16.5 -40.5t-40.5 -16.5zM264 766q-24 0 -40.5 16.5t-16.5 40.5q0 23 16.5 39.5t40.5 16.5t40.5 -16.5t16.5 -39.5q0 -24 -16.5 -40.5t-40.5 -16.5zM199 0h-111v700h111v-700
z" />
    <glyph glyph-name="Eth" unicode="&#xd0;" horiz-adv-x="798" 
d="M96 700h299q153 0 257.5 -99t104.5 -254q0 -153 -103.5 -250t-254.5 -97h-303v305h-55v100h55v295zM207 104h192q102 0 172.5 66.5t70.5 176.5q0 112 -71.5 180.5t-175.5 68.5h-188v-191h154v-100h-154v-201z" />
    <glyph glyph-name="Ntilde" unicode="&#xd1;" horiz-adv-x="781" 
d="M508 873h88q0 -53 -35.5 -87t-90.5 -34q-34 0 -78 29t-64 29q-21 0 -34.5 -12.5t-13.5 -32.5h-87q0 53 35.5 87t90.5 34q37 0 80.5 -29.5t61.5 -29.5q20 0 33.5 13t13.5 33zM576 700h111v-700h-104l-366 481l-14 23l2 -27v-477h-111v700h104l367 -477l13 -25l-2 29v473z
" />
    <glyph glyph-name="Ograve" unicode="&#xd2;" 
d="M463 734l-228 104l39 76l222 -119zM41 350q0 157 105.5 260.5t257.5 103.5q153 0 258.5 -103.5t105.5 -260.5t-105.5 -260.5t-258.5 -103.5q-152 0 -257.5 103.5t-105.5 260.5zM156 350q0 -113 69.5 -184t178.5 -71q108 0 178.5 71.5t70.5 183.5q0 114 -70.5 184.5
t-178.5 70.5q-109 0 -178.5 -70.5t-69.5 -184.5z" />
    <glyph glyph-name="Oacute" unicode="&#xd3;" 
d="M525 914l39 -76l-229 -104l-33 61zM41 350q0 157 105.5 260.5t257.5 103.5q153 0 258.5 -103.5t105.5 -260.5t-105.5 -260.5t-258.5 -103.5q-152 0 -257.5 103.5t-105.5 260.5zM156 350q0 -113 69.5 -184t178.5 -71q108 0 178.5 71.5t70.5 183.5q0 114 -70.5 184.5
t-178.5 70.5q-109 0 -178.5 -70.5t-69.5 -184.5z" />
    <glyph glyph-name="Ocircumflex" unicode="&#xd4;" 
d="M242 784l164 139l165 -139l-44 -47l-121 100l-121 -100zM41 350q0 157 105.5 260.5t257.5 103.5q153 0 258.5 -103.5t105.5 -260.5t-105.5 -260.5t-258.5 -103.5q-152 0 -257.5 103.5t-105.5 260.5zM156 350q0 -113 69.5 -184t178.5 -71q108 0 178.5 71.5t70.5 183.5
q0 114 -70.5 184.5t-178.5 70.5q-109 0 -178.5 -70.5t-69.5 -184.5z" />
    <glyph glyph-name="Otilde" unicode="&#xd5;" 
d="M522 873h88q0 -53 -35.5 -87t-90.5 -34q-34 0 -78 29t-64 29q-21 0 -34.5 -12.5t-13.5 -32.5h-87q0 53 35.5 87t90.5 34q37 0 80.5 -29.5t61.5 -29.5q20 0 33.5 13t13.5 33zM41 350q0 157 105.5 260.5t257.5 103.5q153 0 258.5 -103.5t105.5 -260.5t-105.5 -260.5
t-258.5 -103.5q-152 0 -257.5 103.5t-105.5 260.5zM156 350q0 -113 69.5 -184t178.5 -71q108 0 178.5 71.5t70.5 183.5q0 114 -70.5 184.5t-178.5 70.5q-109 0 -178.5 -70.5t-69.5 -184.5z" />
    <glyph glyph-name="Odieresis" unicode="&#xd6;" 
d="M282 766q-24 0 -40.5 16.5t-16.5 40.5q0 23 16.5 39.5t40.5 16.5t40.5 -16.5t16.5 -39.5q0 -24 -16.5 -40.5t-40.5 -16.5zM530 766q-24 0 -40.5 16.5t-16.5 40.5q0 23 16.5 39.5t40.5 16.5t40.5 -16.5t16.5 -39.5q0 -24 -16.5 -40.5t-40.5 -16.5zM41 350
q0 157 105.5 260.5t257.5 103.5q153 0 258.5 -103.5t105.5 -260.5t-105.5 -260.5t-258.5 -103.5q-152 0 -257.5 103.5t-105.5 260.5zM156 350q0 -113 69.5 -184t178.5 -71q108 0 178.5 71.5t70.5 183.5q0 114 -70.5 184.5t-178.5 70.5q-109 0 -178.5 -70.5t-69.5 -184.5z
" />
    <glyph glyph-name="multiply" unicode="&#xd7;" horiz-adv-x="592" 
d="M431 563l73 -73l-135 -135l135 -135l-74 -74l-134 135l-134 -134l-74 74l134 134l-134 134l73 73l135 -134z" />
    <glyph glyph-name="Oslash" unicode="&#xd8;" 
d="M700 656l-36 -47q104 -106 104 -259q0 -157 -105.5 -260.5t-258.5 -103.5q-99 0 -180 46l-39 -51l-79 60l39 50q-104 104 -104 259q0 157 105.5 260.5t257.5 103.5q100 0 181 -46l36 47zM213 181l305 399q-53 25 -114 25q-109 0 -178.5 -70.5t-69.5 -184.5
q0 -101 57 -169zM596 520l-305 -400q52 -25 113 -25q108 0 178.5 71.5t70.5 183.5q0 100 -57 170z" />
    <glyph glyph-name="Ugrave" unicode="&#xd9;" horiz-adv-x="744" 
d="M426 734l-228 104l39 76l222 -119zM561 700h111v-403q0 -147 -80 -229t-220 -82t-220 82t-80 229v403h111v-407q0 -96 49 -150t140 -54t140 54t49 150v407z" />
    <glyph glyph-name="Uacute" unicode="&#xda;" horiz-adv-x="744" 
d="M488 914l39 -76l-229 -104l-33 61zM561 700h111v-403q0 -147 -80 -229t-220 -82t-220 82t-80 229v403h111v-407q0 -96 49 -150t140 -54t140 54t49 150v407z" />
    <glyph glyph-name="Ucircumflex" unicode="&#xdb;" horiz-adv-x="744" 
d="M205 784l164 139l165 -139l-44 -47l-121 100l-121 -100zM561 700h111v-403q0 -147 -80 -229t-220 -82t-220 82t-80 229v403h111v-407q0 -96 49 -150t140 -54t140 54t49 150v407z" />
    <glyph glyph-name="Udieresis" unicode="&#xdc;" horiz-adv-x="744" 
d="M245 766q-24 0 -40.5 16.5t-16.5 40.5q0 23 16.5 39.5t40.5 16.5t40.5 -16.5t16.5 -39.5q0 -24 -16.5 -40.5t-40.5 -16.5zM493 766q-24 0 -40.5 16.5t-16.5 40.5q0 23 16.5 39.5t40.5 16.5t40.5 -16.5t16.5 -39.5q0 -24 -16.5 -40.5t-40.5 -16.5zM561 700h111v-403
q0 -147 -80 -229t-220 -82t-220 82t-80 229v403h111v-407q0 -96 49 -150t140 -54t140 54t49 150v407z" />
    <glyph glyph-name="Yacute" unicode="&#xdd;" horiz-adv-x="688" 
d="M458 914l39 -76l-229 -104l-33 61zM545 700h135l-280 -373v-327h-111v327l-280 373h134l189 -248l12 -22l13 22z" />
    <glyph glyph-name="Thorn" unicode="&#xde;" horiz-adv-x="621" 
d="M199 579h135q111 0 179.5 -64t68.5 -165q0 -99 -68.5 -163t-179.5 -64h-135v-123h-111v700h111v-121zM199 227h137q60 0 95.5 34t35.5 89q0 54 -35.5 89.5t-95.5 36.5h-137v-249z" />
    <glyph glyph-name="germandbls" unicode="&#xdf;" horiz-adv-x="796" 
d="M88 700h599l-166 -289q111 -6 173 -62t62 -145q0 -93 -68.5 -155.5t-175.5 -62.5q-79 0 -146 37.5t-101 99.5l105 29q46 -71 137 -71q61 0 99 35t38 87q0 48 -36 82t-101 36h-92v90l97 168l17 19l-30 -2h-300v-596h-111v700z" />
    <glyph glyph-name="agrave" unicode="&#xe0;" horiz-adv-x="778" 
d="M475 795l-33 -61l-228 104l39 76zM647 0l-71 146h-374l-71 -146h-123l344 700h74l344 -700h-123zM253 250h272l-128 264l-8 22l-8 -22z" />
    <glyph glyph-name="aacute" unicode="&#xe1;" horiz-adv-x="778" 
d="M543 838l-229 -104l-33 61l223 119zM647 0l-71 146h-374l-71 -146h-123l344 700h74l344 -700h-123zM253 250h272l-128 264l-8 22l-8 -22z" />
    <glyph glyph-name="acircumflex" unicode="&#xe2;" horiz-adv-x="778" 
d="M385 837l-121 -100l-43 47l164 139l165 -139l-44 -47zM647 0l-71 146h-374l-71 -146h-123l344 700h74l344 -700h-123zM253 250h272l-128 264l-8 22l-8 -22z" />
    <glyph glyph-name="atilde" unicode="&#xe3;" horiz-adv-x="778" 
d="M501 873h88q0 -53 -35.5 -87t-90.5 -34q-34 0 -78 29t-64 29q-21 0 -34.5 -12.5t-13.5 -32.5h-87q0 53 35.5 87t90.5 34q37 0 80.5 -29.5t61.5 -29.5q20 0 33.5 13t13.5 33zM647 0l-71 146h-374l-71 -146h-123l344 700h74l344 -700h-123zM253 250h272l-128 264l-8 22
l-8 -22z" />
    <glyph glyph-name="adieresis" unicode="&#xe4;" horiz-adv-x="778" 
d="M261 766q-24 0 -40.5 16.5t-16.5 40.5q0 23 16.5 39.5t40.5 16.5t40.5 -16.5t16.5 -39.5q0 -24 -16.5 -40.5t-40.5 -16.5zM509 766q-24 0 -40.5 16.5t-16.5 40.5q0 23 16.5 39.5t40.5 16.5t40.5 -16.5t16.5 -39.5q0 -24 -16.5 -40.5t-40.5 -16.5zM647 0l-71 146h-374
l-71 -146h-123l344 700h74l344 -700h-123zM253 250h272l-128 264l-8 22l-8 -22z" />
    <glyph glyph-name="aring" unicode="&#xe5;" horiz-adv-x="778" 
d="M647 0l-71 146h-374l-71 -146h-123l333 677q-30 14 -47.5 41t-17.5 60q0 47 33 80t80 33t80 -33.5t33 -79.5q0 -33 -18 -60t-47 -41l333 -677h-123zM389 833q-22 0 -38 -15.5t-16 -38.5q0 -22 16 -38t38 -16t38.5 16t16.5 38q0 23 -16 38.5t-39 15.5zM253 250h272
l-128 264l-8 22l-8 -22z" />
    <glyph glyph-name="ae" unicode="&#xe6;" horiz-adv-x="994" 
d="M587 104h342v-104h-453v148h-237l-98 -148h-133l468 700h447v-104h-336v-182h295v-101h-295v-209zM295 230h181v278l-18 -32z" />
    <glyph glyph-name="ccedilla" unicode="&#xe7;" horiz-adv-x="759" 
d="M622 220l111 -30q-41 -88 -121.5 -142t-181.5 -61l-14 -39q45 1 75 -25.5t30 -71.5q0 -48 -31 -73.5t-80 -25.5h-89l24 61h65q22 0 34.5 10.5t12.5 26.5q0 18 -13 28.5t-34 10.5h-78l35 99q-140 13 -233 114t-93 248q0 157 105.5 260.5t257.5 103.5q101 0 185.5 -49.5
t132.5 -134.5l-113 -30q-32 49 -87 77t-118 28q-109 0 -178.5 -71t-69.5 -184t70.5 -183.5t177.5 -70.5q70 0 129 33.5t89 90.5z" />
    <glyph glyph-name="egrave" unicode="&#xe8;" horiz-adv-x="641" 
d="M422 795l-33 -61l-228 104l39 76zM199 104h376v-104h-487v700h481v-104h-370v-182h295v-101h-295v-209z" />
    <glyph glyph-name="eacute" unicode="&#xe9;" horiz-adv-x="641" 
d="M490 838l-229 -104l-33 61l223 119zM199 104h376v-104h-487v700h481v-104h-370v-182h295v-101h-295v-209z" />
    <glyph glyph-name="ecircumflex" unicode="&#xea;" horiz-adv-x="641" 
d="M332 837l-121 -100l-43 47l164 139l165 -139l-44 -47zM199 104h376v-104h-487v700h481v-104h-370v-182h295v-101h-295v-209z" />
    <glyph glyph-name="edieresis" unicode="&#xeb;" horiz-adv-x="641" 
d="M208 766q-24 0 -40.5 16.5t-16.5 40.5q0 23 16.5 39.5t40.5 16.5t40.5 -16.5t16.5 -39.5q0 -24 -16.5 -40.5t-40.5 -16.5zM456 766q-24 0 -40.5 16.5t-16.5 40.5q0 23 16.5 39.5t40.5 16.5t40.5 -16.5t16.5 -39.5q0 -24 -16.5 -40.5t-40.5 -16.5zM199 104h376v-104h-487
v700h481v-104h-370v-182h295v-101h-295v-209z" />
    <glyph glyph-name="igrave" unicode="&#xec;" horiz-adv-x="287" 
d="M197 734l-228 104l39 76l222 -119zM199 0h-111v700h111v-700z" />
    <glyph glyph-name="iacute" unicode="&#xed;" horiz-adv-x="287" 
d="M259 914l39 -76l-229 -104l-33 61zM199 0h-111v700h111v-700z" />
    <glyph glyph-name="icircumflex" unicode="&#xee;" horiz-adv-x="287" 
d="M-24 784l164 139l165 -139l-44 -47l-121 100l-121 -100zM199 0h-111v700h111v-700z" />
    <glyph glyph-name="idieresis" unicode="&#xef;" horiz-adv-x="287" 
d="M16 766q-24 0 -40.5 16.5t-16.5 40.5q0 23 16.5 39.5t40.5 16.5t40.5 -16.5t16.5 -39.5q0 -24 -16.5 -40.5t-40.5 -16.5zM264 766q-24 0 -40.5 16.5t-16.5 40.5q0 23 16.5 39.5t40.5 16.5t40.5 -16.5t16.5 -39.5q0 -24 -16.5 -40.5t-40.5 -16.5zM199 0h-111v700h111v-700
z" />
    <glyph glyph-name="eth" unicode="&#xf0;" horiz-adv-x="798" 
d="M96 700h299q153 0 257.5 -99t104.5 -254q0 -153 -103.5 -250t-254.5 -97h-303v305h-55v100h55v295zM207 104h192q102 0 172.5 66.5t70.5 176.5q0 112 -71.5 180.5t-175.5 68.5h-188v-191h154v-100h-154v-201z" />
    <glyph glyph-name="ntilde" unicode="&#xf1;" horiz-adv-x="769" 
d="M497 873h88q0 -53 -35.5 -87t-90.5 -34q-34 0 -78 29t-64 29q-21 0 -34.5 -12.5t-13.5 -32.5h-87q0 53 35.5 87t90.5 34q37 0 80.5 -29.5t61.5 -29.5q20 0 33.5 13t13.5 33zM576 700h111v-700h-104l-366 481l-14 23l2 -27v-477h-111v700h104l367 -477l13 -25l-2 29v473z
" />
    <glyph glyph-name="ograve" unicode="&#xf2;" 
d="M461 734l-228 104l39 76l222 -119zM41 350q0 157 105.5 260.5t257.5 103.5q153 0 258.5 -103.5t105.5 -260.5t-105.5 -260.5t-258.5 -103.5q-152 0 -257.5 103.5t-105.5 260.5zM156 350q0 -113 69.5 -184t178.5 -71q108 0 178.5 71.5t70.5 183.5q0 114 -70.5 184.5
t-178.5 70.5q-109 0 -178.5 -70.5t-69.5 -184.5z" />
    <glyph glyph-name="oacute" unicode="&#xf3;" 
d="M523 914l39 -76l-229 -104l-33 61zM41 350q0 157 105.5 260.5t257.5 103.5q153 0 258.5 -103.5t105.5 -260.5t-105.5 -260.5t-258.5 -103.5q-152 0 -257.5 103.5t-105.5 260.5zM156 350q0 -113 69.5 -184t178.5 -71q108 0 178.5 71.5t70.5 183.5q0 114 -70.5 184.5
t-178.5 70.5q-109 0 -178.5 -70.5t-69.5 -184.5z" />
    <glyph glyph-name="ocircumflex" unicode="&#xf4;" 
d="M240 784l164 139l165 -139l-44 -47l-121 100l-121 -100zM41 350q0 157 105.5 260.5t257.5 103.5q153 0 258.5 -103.5t105.5 -260.5t-105.5 -260.5t-258.5 -103.5q-152 0 -257.5 103.5t-105.5 260.5zM156 350q0 -113 69.5 -184t178.5 -71q108 0 178.5 71.5t70.5 183.5
q0 114 -70.5 184.5t-178.5 70.5q-109 0 -178.5 -70.5t-69.5 -184.5z" />
    <glyph glyph-name="otilde" unicode="&#xf5;" 
d="M520 873h88q0 -53 -35.5 -87t-90.5 -34q-34 0 -78 29t-64 29q-21 0 -34.5 -12.5t-13.5 -32.5h-87q0 53 35.5 87t90.5 34q37 0 80.5 -29.5t61.5 -29.5q20 0 33.5 13t13.5 33zM41 350q0 157 105.5 260.5t257.5 103.5q153 0 258.5 -103.5t105.5 -260.5t-105.5 -260.5
t-258.5 -103.5q-152 0 -257.5 103.5t-105.5 260.5zM156 350q0 -113 69.5 -184t178.5 -71q108 0 178.5 71.5t70.5 183.5q0 114 -70.5 184.5t-178.5 70.5q-109 0 -178.5 -70.5t-69.5 -184.5z" />
    <glyph glyph-name="odieresis" unicode="&#xf6;" 
d="M280 766q-24 0 -40.5 16.5t-16.5 40.5q0 23 16.5 39.5t40.5 16.5t40.5 -16.5t16.5 -39.5q0 -24 -16.5 -40.5t-40.5 -16.5zM528 766q-24 0 -40.5 16.5t-16.5 40.5q0 23 16.5 39.5t40.5 16.5t40.5 -16.5t16.5 -39.5q0 -24 -16.5 -40.5t-40.5 -16.5zM41 350
q0 157 105.5 260.5t257.5 103.5q153 0 258.5 -103.5t105.5 -260.5t-105.5 -260.5t-258.5 -103.5q-152 0 -257.5 103.5t-105.5 260.5zM156 350q0 -113 69.5 -184t178.5 -71q108 0 178.5 71.5t70.5 183.5q0 114 -70.5 184.5t-178.5 70.5q-109 0 -178.5 -70.5t-69.5 -184.5z
" />
    <glyph glyph-name="divide" unicode="&#xf7;" horiz-adv-x="659" 
d="M329 519q-25 0 -42 17t-17 42t17.5 42t41.5 17q25 0 42 -17.5t17 -41.5q0 -25 -17 -42t-42 -17zM88 401h483v-92h-483v92zM329 74q-25 0 -42 17t-17 42t17.5 42t41.5 17q25 0 42 -17.5t17 -41.5q0 -25 -17 -42t-42 -17z" />
    <glyph glyph-name="oslash" unicode="&#xf8;" 
d="M700 656l-36 -47q104 -106 104 -259q0 -157 -105.5 -260.5t-258.5 -103.5q-99 0 -180 46l-39 -51l-79 60l39 50q-104 104 -104 259q0 157 105.5 260.5t257.5 103.5q100 0 181 -46l36 47zM213 181l305 399q-53 25 -114 25q-109 0 -178.5 -70.5t-69.5 -184.5
q0 -101 57 -169zM596 520l-305 -400q52 -25 113 -25q108 0 178.5 71.5t70.5 183.5q0 100 -57 170z" />
    <glyph glyph-name="ugrave" unicode="&#xf9;" horiz-adv-x="744" 
d="M426 734l-228 104l39 76l222 -119zM561 700h111v-403q0 -147 -80 -229t-220 -82t-220 82t-80 229v403h111v-407q0 -96 49 -150t140 -54t140 54t49 150v407z" />
    <glyph glyph-name="uacute" unicode="&#xfa;" horiz-adv-x="744" 
d="M488 914l39 -76l-229 -104l-33 61zM561 700h111v-403q0 -147 -80 -229t-220 -82t-220 82t-80 229v403h111v-407q0 -96 49 -150t140 -54t140 54t49 150v407z" />
    <glyph glyph-name="ucircumflex" unicode="&#xfb;" horiz-adv-x="744" 
d="M205 784l164 139l165 -139l-44 -47l-121 100l-121 -100zM561 700h111v-403q0 -147 -80 -229t-220 -82t-220 82t-80 229v403h111v-407q0 -96 49 -150t140 -54t140 54t49 150v407z" />
    <glyph glyph-name="udieresis" unicode="&#xfc;" horiz-adv-x="744" 
d="M245 766q-24 0 -40.5 16.5t-16.5 40.5q0 23 16.5 39.5t40.5 16.5t40.5 -16.5t16.5 -39.5q0 -24 -16.5 -40.5t-40.5 -16.5zM493 766q-24 0 -40.5 16.5t-16.5 40.5q0 23 16.5 39.5t40.5 16.5t40.5 -16.5t16.5 -39.5q0 -24 -16.5 -40.5t-40.5 -16.5zM561 700h111v-403
q0 -147 -80 -229t-220 -82t-220 82t-80 229v403h111v-407q0 -96 49 -150t140 -54t140 54t49 150v407z" />
    <glyph glyph-name="yacute" unicode="&#xfd;" horiz-adv-x="688" 
d="M458 914l39 -76l-229 -104l-33 61zM545 700h135l-280 -373v-327h-111v327l-280 373h134l189 -248l12 -22l13 22z" />
    <glyph glyph-name="thorn" unicode="&#xfe;" horiz-adv-x="621" 
d="M199 579h135q111 0 179.5 -64t68.5 -165q0 -99 -68.5 -163t-179.5 -64h-135v-123h-111v700h111v-121zM199 227h137q60 0 95.5 34t35.5 89q0 54 -35.5 89.5t-95.5 36.5h-137v-249z" />
    <glyph glyph-name="ydieresis" unicode="&#xff;" horiz-adv-x="688" 
d="M215 766q-24 0 -40.5 16.5t-16.5 40.5q0 23 16.5 39.5t40.5 16.5t40.5 -16.5t16.5 -39.5q0 -24 -16.5 -40.5t-40.5 -16.5zM463 766q-24 0 -40.5 16.5t-16.5 40.5q0 23 16.5 39.5t40.5 16.5t40.5 -16.5t16.5 -39.5q0 -24 -16.5 -40.5t-40.5 -16.5zM545 700h135l-280 -373
v-327h-111v327l-280 373h134l189 -248l12 -22l13 22z" />
    <glyph glyph-name="Amacron" unicode="&#x100;" horiz-adv-x="778" 
d="M546 845v-68h-307v68h307zM647 0l-71 146h-374l-71 -146h-123l344 700h74l344 -700h-123zM253 250h272l-128 264l-8 22l-8 -22z" />
    <glyph glyph-name="amacron" unicode="&#x101;" horiz-adv-x="778" 
d="M546 845v-68h-307v68h307zM647 0l-71 146h-374l-71 -146h-123l344 700h74l344 -700h-123zM253 250h272l-128 264l-8 22l-8 -22z" />
    <glyph glyph-name="Abreve" unicode="&#x102;" horiz-adv-x="778" 
d="M468 862h67q-11 -52 -51 -85t-92 -33q-55 0 -94.5 33t-49.5 85h68q6 -25 27.5 -42t48.5 -17t49 17t27 42zM647 0l-71 146h-374l-71 -146h-123l344 700h74l344 -700h-123zM253 250h272l-128 264l-8 22l-8 -22z" />
    <glyph glyph-name="abreve" unicode="&#x103;" horiz-adv-x="778" 
d="M468 862h67q-11 -52 -51 -85t-92 -33q-55 0 -94.5 33t-49.5 85h68q6 -25 27.5 -42t48.5 -17t49 17t27 42zM647 0l-71 146h-374l-71 -146h-123l344 700h74l344 -700h-123zM253 250h272l-128 264l-8 22l-8 -22z" />
    <glyph glyph-name="Aogonek" unicode="&#x104;" horiz-adv-x="778" 
d="M749 -111l59 -39q-22 -41 -64.5 -67t-89.5 -26q-70 0 -115 40t-45 105q0 62 42 102.5t88 43.5l-48 98h-374l-71 -146h-123l344 700h74l344 -700h-68q-50 0 -88.5 -24.5t-38.5 -73.5q0 -31 22.5 -53t59.5 -22q28 0 54 18t38 44zM253 250h272l-128 264l-8 22l-8 -22z" />
    <glyph glyph-name="aogonek" unicode="&#x105;" horiz-adv-x="778" 
d="M749 -111l59 -39q-22 -41 -64.5 -67t-89.5 -26q-70 0 -115 40t-45 105q0 62 42 102.5t88 43.5l-48 98h-374l-71 -146h-123l344 700h74l344 -700h-68q-50 0 -88.5 -24.5t-38.5 -73.5q0 -31 22.5 -53t59.5 -22q28 0 54 18t38 44zM253 250h272l-128 264l-8 22l-8 -22z" />
    <glyph glyph-name="Cacute" unicode="&#x106;" horiz-adv-x="759" 
d="M517 914l39 -76l-229 -104l-33 61zM722 530l-113 -30q-32 49 -87 77t-118 28q-109 0 -178.5 -71t-69.5 -184t70.5 -183.5t177.5 -70.5q70 0 129 33.5t89 90.5l111 -30q-45 -94 -132.5 -149t-196.5 -55q-152 0 -257.5 103.5t-105.5 260.5t105.5 260.5t257.5 103.5
q101 0 185.5 -49.5t132.5 -134.5z" />
    <glyph glyph-name="cacute" unicode="&#x107;" horiz-adv-x="759" 
d="M517 914l39 -76l-229 -104l-33 61zM722 530l-113 -30q-32 49 -87 77t-118 28q-109 0 -178.5 -71t-69.5 -184t70.5 -183.5t177.5 -70.5q70 0 129 33.5t89 90.5l111 -30q-45 -94 -132.5 -149t-196.5 -55q-152 0 -257.5 103.5t-105.5 260.5t105.5 260.5t257.5 103.5
q101 0 185.5 -49.5t132.5 -134.5z" />
    <glyph glyph-name="Cdotaccent" unicode="&#x10a;" horiz-adv-x="759" 
d="M403 766q-24 0 -40.5 16.5t-16.5 40.5q0 23 16.5 39.5t40.5 16.5t40.5 -16.5t16.5 -39.5q0 -24 -16.5 -40.5t-40.5 -16.5zM722 530l-113 -30q-32 49 -87 77t-118 28q-109 0 -178.5 -71t-69.5 -184t70.5 -183.5t177.5 -70.5q70 0 129 33.5t89 90.5l111 -30
q-45 -94 -132.5 -149t-196.5 -55q-152 0 -257.5 103.5t-105.5 260.5t105.5 260.5t257.5 103.5q101 0 185.5 -49.5t132.5 -134.5z" />
    <glyph glyph-name="cdotaccent" unicode="&#x10b;" horiz-adv-x="759" 
d="M403 766q-24 0 -40.5 16.5t-16.5 40.5q0 23 16.5 39.5t40.5 16.5t40.5 -16.5t16.5 -39.5q0 -24 -16.5 -40.5t-40.5 -16.5zM722 530l-113 -30q-32 49 -87 77t-118 28q-109 0 -178.5 -71t-69.5 -184t70.5 -183.5t177.5 -70.5q70 0 129 33.5t89 90.5l111 -30
q-45 -94 -132.5 -149t-196.5 -55q-152 0 -257.5 103.5t-105.5 260.5t105.5 260.5t257.5 103.5q101 0 185.5 -49.5t132.5 -134.5z" />
    <glyph glyph-name="Ccaron" unicode="&#x10c;" horiz-adv-x="759" 
d="M237 869l164 -139l165 139l-44 47l-121 -100l-121 100zM722 530l-113 -30q-32 49 -87 77t-118 28q-109 0 -178.5 -71t-69.5 -184t70.5 -183.5t177.5 -70.5q70 0 129 33.5t89 90.5l111 -30q-45 -94 -132.5 -149t-196.5 -55q-152 0 -257.5 103.5t-105.5 260.5t105.5 260.5
t257.5 103.5q101 0 185.5 -49.5t132.5 -134.5z" />
    <glyph glyph-name="ccaron" unicode="&#x10d;" horiz-adv-x="759" 
d="M237 869l164 -139l165 139l-44 47l-121 -100l-121 100zM722 530l-113 -30q-32 49 -87 77t-118 28q-109 0 -178.5 -71t-69.5 -184t70.5 -183.5t177.5 -70.5q70 0 129 33.5t89 90.5l111 -30q-45 -94 -132.5 -149t-196.5 -55q-152 0 -257.5 103.5t-105.5 260.5t105.5 260.5
t257.5 103.5q101 0 185.5 -49.5t132.5 -134.5z" />
    <glyph glyph-name="Dcaron" unicode="&#x10e;" horiz-adv-x="790" 
d="M211 869l164 -139l165 139l-44 47l-121 -100l-121 100zM88 700h299q153 0 257.5 -99t104.5 -254q0 -153 -103.5 -250t-254.5 -97h-303v700zM199 104h192q102 0 172.5 66.5t70.5 176.5q0 112 -71.5 180.5t-175.5 68.5h-188v-492z" />
    <glyph glyph-name="dcaron" unicode="&#x10f;" horiz-adv-x="790" 
d="M211 869l164 -139l165 139l-44 47l-121 -100l-121 100zM88 700h299q153 0 257.5 -99t104.5 -254q0 -153 -103.5 -250t-254.5 -97h-303v700zM199 104h192q102 0 172.5 66.5t70.5 176.5q0 112 -71.5 180.5t-175.5 68.5h-188v-492z" />
    <glyph glyph-name="Dcroat" unicode="&#x110;" horiz-adv-x="798" 
d="M96 700h299q153 0 257.5 -99t104.5 -254q0 -153 -103.5 -250t-254.5 -97h-303v305h-55v100h55v295zM207 104h192q102 0 172.5 66.5t70.5 176.5q0 112 -71.5 180.5t-175.5 68.5h-188v-191h154v-100h-154v-201z" />
    <glyph glyph-name="dcroat" unicode="&#x111;" horiz-adv-x="798" 
d="M96 700h299q153 0 257.5 -99t104.5 -254q0 -153 -103.5 -250t-254.5 -97h-303v305h-55v100h55v295zM207 104h192q102 0 172.5 66.5t70.5 176.5q0 112 -71.5 180.5t-175.5 68.5h-188v-191h154v-100h-154v-201z" />
    <glyph glyph-name="Emacron" unicode="&#x112;" horiz-adv-x="641" 
d="M496 845v-68h-307v68h307zM199 104h376v-104h-487v700h481v-104h-370v-182h295v-101h-295v-209z" />
    <glyph glyph-name="emacron" unicode="&#x113;" horiz-adv-x="641" 
d="M493 845v-68h-307v68h307zM199 104h376v-104h-487v700h481v-104h-370v-182h295v-101h-295v-209z" />
    <glyph glyph-name="Edotaccent" unicode="&#x116;" horiz-adv-x="641" 
d="M340 766q-24 0 -40.5 16.5t-16.5 40.5q0 23 16.5 39.5t40.5 16.5t40.5 -16.5t16.5 -39.5q0 -24 -16.5 -40.5t-40.5 -16.5zM199 104h376v-104h-487v700h481v-104h-370v-182h295v-101h-295v-209z" />
    <glyph glyph-name="edotaccent" unicode="&#x117;" horiz-adv-x="641" 
d="M340 766q-24 0 -40.5 16.5t-16.5 40.5q0 23 16.5 39.5t40.5 16.5t40.5 -16.5t16.5 -39.5q0 -24 -16.5 -40.5t-40.5 -16.5zM199 104h376v-104h-487v700h481v-104h-370v-182h295v-101h-295v-209z" />
    <glyph glyph-name="Eogonek" unicode="&#x118;" horiz-adv-x="641" 
d="M519 -111l59 -39q-22 -41 -64.5 -67t-89.5 -26q-70 0 -115 40t-45 105q0 57 38 98h-214v700h481v-104h-370v-182h295v-101h-295v-209h376v-104h-103q-50 0 -88.5 -24.5t-38.5 -73.5q0 -31 22.5 -53t59.5 -22q28 0 54 18t38 44z" />
    <glyph glyph-name="eogonek" unicode="&#x119;" horiz-adv-x="641" 
d="M533 -111l59 -39q-22 -41 -64.5 -67t-89.5 -26q-70 0 -115 40t-45 105q0 57 38 98h-228v700h481v-104h-370v-182h295v-101h-295v-209h376v-104h-89q-50 0 -88.5 -24.5t-38.5 -73.5q0 -31 22.5 -53t59.5 -22q28 0 54 18t38 44z" />
    <glyph glyph-name="Ecaron" unicode="&#x11a;" horiz-adv-x="641" 
d="M503 869l-165 -139l-164 139l43 47l121 -100l121 100zM199 104h376v-104h-487v700h481v-104h-370v-182h295v-101h-295v-209z" />
    <glyph glyph-name="ecaron" unicode="&#x11b;" horiz-adv-x="641" 
d="M500 869l-165 -139l-164 139l43 47l121 -100l121 100zM199 104h376v-104h-487v700h481v-104h-370v-182h295v-101h-295v-209z" />
    <glyph glyph-name="Gcircumflex" unicode="&#x11c;" horiz-adv-x="794" 
d="M231 784l164 139l165 -139l-44 -47l-121 100l-121 -100zM638 -1v90q-33 -40 -93.5 -71.5t-140.5 -31.5q-152 0 -257.5 103.5t-105.5 260.5t105.5 260.5t257.5 103.5q105 -1 188 -50.5t130 -133.5l-113 -30q-31 49 -86.5 77t-118.5 28q-109 0 -178.5 -71t-69.5 -184
q0 -114 72 -185t181 -71q88 0 148 39.5t82 90.5v58h-204v91h299v-374h-96z" />
    <glyph glyph-name="gcircumflex" unicode="&#x11d;" horiz-adv-x="794" 
d="M231 784l164 139l165 -139l-44 -47l-121 100l-121 -100zM638 -1v90q-33 -40 -93.5 -71.5t-140.5 -31.5q-152 0 -257.5 103.5t-105.5 260.5t105.5 260.5t257.5 103.5q105 -1 188 -50.5t130 -133.5l-113 -30q-31 49 -86.5 77t-118.5 28q-109 0 -178.5 -71t-69.5 -184
q0 -114 72 -185t181 -71q88 0 148 39.5t82 90.5v58h-204v91h299v-374h-96z" />
    <glyph glyph-name="Gbreve" unicode="&#x11e;" horiz-adv-x="794" 
d="M258 862h68q6 -25 27.5 -42t48.5 -17t49 17t27 42h67q-11 -52 -51 -85t-92 -33q-55 0 -94.5 33t-49.5 85zM638 -1v90q-33 -40 -93.5 -71.5t-140.5 -31.5q-152 0 -257.5 103.5t-105.5 260.5t105.5 260.5t257.5 103.5q105 -1 188 -50.5t130 -133.5l-113 -30
q-31 49 -86.5 77t-118.5 28q-109 0 -178.5 -71t-69.5 -184q0 -114 72 -185t181 -71q88 0 148 39.5t82 90.5v58h-204v91h299v-374h-96z" />
    <glyph glyph-name="gbreve" unicode="&#x11f;" horiz-adv-x="794" 
d="M258 862h68q6 -25 27.5 -42t48.5 -17t49 17t27 42h67q-11 -52 -51 -85t-92 -33q-55 0 -94.5 33t-49.5 85zM638 -1v90q-33 -40 -93.5 -71.5t-140.5 -31.5q-152 0 -257.5 103.5t-105.5 260.5t105.5 260.5t257.5 103.5q105 -1 188 -50.5t130 -133.5l-113 -30
q-31 49 -86.5 77t-118.5 28q-109 0 -178.5 -71t-69.5 -184q0 -114 72 -185t181 -71q88 0 148 39.5t82 90.5v58h-204v91h299v-374h-96z" />
    <glyph glyph-name="Gdotaccent" unicode="&#x120;" horiz-adv-x="794" 
d="M400 766q-24 0 -40.5 16.5t-16.5 40.5q0 23 16.5 39.5t40.5 16.5t40.5 -16.5t16.5 -39.5q0 -24 -16.5 -40.5t-40.5 -16.5zM638 -1v90q-33 -40 -93.5 -71.5t-140.5 -31.5q-152 0 -257.5 103.5t-105.5 260.5t105.5 260.5t257.5 103.5q105 -1 188 -50.5t130 -133.5l-113 -30
q-31 49 -86.5 77t-118.5 28q-109 0 -178.5 -71t-69.5 -184q0 -114 72 -185t181 -71q88 0 148 39.5t82 90.5v58h-204v91h299v-374h-96z" />
    <glyph glyph-name="gdotaccent" unicode="&#x121;" horiz-adv-x="794" 
d="M400 766q-24 0 -40.5 16.5t-16.5 40.5q0 23 16.5 39.5t40.5 16.5t40.5 -16.5t16.5 -39.5q0 -24 -16.5 -40.5t-40.5 -16.5zM638 -1v90q-33 -40 -93.5 -71.5t-140.5 -31.5q-152 0 -257.5 103.5t-105.5 260.5t105.5 260.5t257.5 103.5q105 -1 188 -50.5t130 -133.5l-113 -30
q-31 49 -86.5 77t-118.5 28q-109 0 -178.5 -71t-69.5 -184q0 -114 72 -185t181 -71q88 0 148 39.5t82 90.5v58h-204v91h299v-374h-96z" />
    <glyph glyph-name="Gcommaaccent" unicode="&#x122;" horiz-adv-x="794" 
d="M638 -1v90q-33 -40 -93.5 -71.5t-140.5 -31.5q-152 0 -257.5 103.5t-105.5 260.5t105.5 260.5t257.5 103.5q105 -1 188 -50.5t130 -133.5l-113 -30q-31 49 -86.5 77t-118.5 28q-109 0 -178.5 -71t-69.5 -184q0 -114 72 -185t181 -71q88 0 148 39.5t82 90.5v58h-204v91
h299v-374h-96zM387 -153l11 4l-11 2q-17 1 -31.5 15t-14.5 37q0 24 16.5 40t41.5 16q23 0 39.5 -18.5t16.5 -47.5q0 -41 -25 -85t-61 -76h-41q22 19 40.5 53t18.5 60z" />
    <glyph glyph-name="gcommaaccent" unicode="&#x123;" horiz-adv-x="794" 
d="M638 -1v90q-33 -40 -93.5 -71.5t-140.5 -31.5q-152 0 -257.5 103.5t-105.5 260.5t105.5 260.5t257.5 103.5q105 -1 188 -50.5t130 -133.5l-113 -30q-31 49 -86.5 77t-118.5 28q-109 0 -178.5 -71t-69.5 -184q0 -114 72 -185t181 -71q88 0 148 39.5t82 90.5v58h-204v91
h299v-374h-96zM387 -153l11 4l-11 2q-17 1 -31.5 15t-14.5 37q0 24 16.5 40t41.5 16q23 0 39.5 -18.5t16.5 -47.5q0 -41 -25 -85t-61 -76h-41q22 19 40.5 53t18.5 60z" />
    <glyph glyph-name="Hcircumflex" unicode="&#x124;" horiz-adv-x="740" 
d="M367 837l-121 -100l-43 47l164 139l165 -139l-44 -47zM541 700h111v-700h-111v307h-342v-307h-111v700h111v-290h342v290z" />
    <glyph glyph-name="hcircumflex" unicode="&#x125;" horiz-adv-x="740" 
d="M367 837l-121 -100l-43 47l164 139l165 -139l-44 -47zM541 700h111v-700h-111v307h-342v-307h-111v700h111v-290h342v290z" />
    <glyph glyph-name="Hbar" unicode="&#x126;" horiz-adv-x="740" 
d="M719 625v-86h-67v-539h-111v307h-342v-307h-111v539h-67v86h67v75h111v-75h342v75h111v-75h67zM541 410v129h-342v-129h342z" />
    <glyph glyph-name="hbar" unicode="&#x127;" horiz-adv-x="740" 
d="M719 625v-86h-67v-539h-111v307h-342v-307h-111v539h-67v86h67v75h111v-75h342v75h111v-75h67zM541 410v129h-342v-129h342z" />
    <glyph glyph-name="Imacron" unicode="&#x12a;" horiz-adv-x="287" 
d="M-6 845h307v-68h-307v68zM199 0h-111v700h111v-700z" />
    <glyph glyph-name="imacron" unicode="&#x12b;" horiz-adv-x="287" 
d="M-6 845h307v-68h-307v68zM199 0h-111v700h111v-700z" />
    <glyph glyph-name="Iogonek" unicode="&#x12e;" horiz-adv-x="287" 
d="M211 -111l59 -39q-22 -41 -64.5 -67t-89.5 -26q-70 0 -115 40t-45 105q0 62 43 102.5t89 43.5v652h111v-700h-35q-50 0 -88.5 -24.5t-38.5 -73.5q0 -31 22.5 -53t59.5 -22q28 0 54 18t38 44z" />
    <glyph glyph-name="iogonek" unicode="&#x12f;" horiz-adv-x="287" 
d="M211 -111l59 -39q-22 -41 -64.5 -67t-89.5 -26q-70 0 -115 40t-45 105q0 62 43 102.5t89 43.5v652h111v-700h-35q-50 0 -88.5 -24.5t-38.5 -73.5q0 -31 22.5 -53t59.5 -22q28 0 54 18t38 44z" />
    <glyph glyph-name="Idotaccent" unicode="&#x130;" horiz-adv-x="287" 
d="M145 766q-24 0 -40.5 16.5t-16.5 40.5q0 23 16.5 39.5t40.5 16.5t40.5 -16.5t16.5 -39.5q0 -24 -16.5 -40.5t-40.5 -16.5zM199 0h-111v700h111v-700z" />
    <glyph glyph-name="dotlessi" unicode="&#x131;" horiz-adv-x="287" 
d="M199 0h-111v700h111v-700z" />
    <glyph glyph-name="IJ" unicode="&#x132;" horiz-adv-x="950" 
d="M199 0h-111v700h111v-700zM768 700h111v-403q0 -147 -80.5 -229t-220.5 -82q-100 0 -177 53t-104 136l109 29q18 -54 64 -84.5t108 -30.5q91 0 140.5 53.5t49.5 149.5v408z" />
    <glyph glyph-name="ij" unicode="&#x133;" horiz-adv-x="950" 
d="M199 0h-111v700h111v-700zM768 700h111v-403q0 -147 -80.5 -229t-220.5 -82q-100 0 -177 53t-104 136l109 29q18 -54 64 -84.5t108 -30.5q91 0 140.5 53.5t49.5 149.5v408z" />
    <glyph glyph-name="Jcircumflex" unicode="&#x134;" horiz-adv-x="663" 
d="M387 784l164 139l165 -139l-44 -47l-121 100l-121 -100zM481 700h111v-403q0 -147 -80.5 -229t-220.5 -82q-100 0 -177 53t-104 136l109 29q18 -54 64 -84.5t108 -30.5q91 0 140.5 53.5t49.5 149.5v408z" />
    <glyph glyph-name="jcircumflex" unicode="&#x135;" horiz-adv-x="663" 
d="M387 784l164 139l165 -139l-44 -47l-121 100l-121 -100zM481 700h111v-403q0 -147 -80.5 -229t-220.5 -82q-100 0 -177 53t-104 136l109 29q18 -54 64 -84.5t108 -30.5q91 0 140.5 53.5t49.5 149.5v408z" />
    <glyph glyph-name="Kcommaaccent" unicode="&#x136;" horiz-adv-x="704" 
d="M528 700h130l-287 -288l315 -412h-138l-254 335l-95 -95v-240h-111v700h111v-327zM342 -153l11 4l-11 2q-17 1 -31.5 15t-14.5 37q0 24 16.5 40t41.5 16q23 0 39.5 -18.5t16.5 -47.5q0 -41 -25 -85t-61 -76h-41q22 19 40.5 53t18.5 60z" />
    <glyph glyph-name="kcommaaccent" unicode="&#x137;" horiz-adv-x="704" 
d="M528 700h130l-287 -288l315 -412h-138l-254 335l-95 -95v-240h-111v700h111v-327zM347 -153l11 4l-11 2q-17 1 -31.5 15t-14.5 37q0 24 16.5 40t41.5 16q23 0 39.5 -18.5t16.5 -47.5q0 -41 -25 -85t-61 -76h-41q22 19 40.5 53t18.5 60z" />
    <glyph glyph-name="Lacute" unicode="&#x139;" horiz-adv-x="579" 
d="M266 914l39 -76l-229 -104l-33 61zM199 104h360v-104h-471v700h111v-596z" />
    <glyph glyph-name="lacute" unicode="&#x13a;" horiz-adv-x="579" 
d="M266 914l39 -76l-229 -104l-33 61zM199 104h360v-104h-471v700h111v-596z" />
    <glyph glyph-name="Lcommaaccent" unicode="&#x13b;" horiz-adv-x="579" 
d="M199 104h360v-104h-471v700h111v-596zM324 -149l-11 2q-17 1 -31.5 15t-14.5 37q0 24 16.5 40t41.5 16q23 0 39.5 -18.5t16.5 -47.5q0 -41 -25 -85t-61 -76h-41q22 19 40.5 53t18.5 60z" />
    <glyph glyph-name="lcommaaccent" unicode="&#x13c;" horiz-adv-x="579" 
d="M199 104h360v-104h-471v700h111v-596zM296 -149l-11 2q-17 1 -31.5 15t-14.5 37q0 24 16.5 40t41.5 16q23 0 39.5 -18.5t16.5 -47.5q0 -41 -25 -85t-61 -76h-41q22 19 40.5 53t18.5 60z" />
    <glyph glyph-name="Lcaron" unicode="&#x13d;" horiz-adv-x="579" 
d="M334 601l-11 2q-19 1 -34 16t-15 39q0 25 17.5 42t43.5 17q25 0 42 -19.5t17 -49.5q0 -44 -26 -90t-64 -80h-44q24 20 43.5 56t19.5 63zM199 104h360v-104h-471v700h111v-596z" />
    <glyph glyph-name="lcaron" unicode="&#x13e;" horiz-adv-x="579" 
d="M345 601l-11 2q-19 1 -34 16t-15 39q0 25 17.5 42t43.5 17q25 0 42 -19.5t17 -49.5q0 -44 -26 -90t-64 -80h-44q24 20 43.5 56t19.5 63zM199 104h360v-104h-471v700h111v-596z" />
    <glyph glyph-name="Ldot" unicode="&#x13f;" horiz-adv-x="579" 
d="M199 104h360v-104h-471v700h111v-596zM400 328q-24 0 -40.5 16.5t-16.5 40.5q0 23 16.5 39.5t40.5 16.5t40.5 -16.5t16.5 -39.5q0 -24 -16.5 -40.5t-40.5 -16.5z" />
    <glyph glyph-name="ldot" unicode="&#x140;" horiz-adv-x="579" 
d="M199 104h360v-104h-471v700h111v-596zM400 328q-24 0 -40.5 16.5t-16.5 40.5q0 23 16.5 39.5t40.5 16.5t40.5 -16.5t16.5 -39.5q0 -24 -16.5 -40.5t-40.5 -16.5z" />
    <glyph glyph-name="Lslash" unicode="&#x141;" horiz-adv-x="579" 
d="M199 104h360v-104h-471v700h111v-307l285 144v-105l-285 -144v-184z" />
    <glyph glyph-name="lslash" unicode="&#x142;" horiz-adv-x="579" 
d="M199 104h360v-104h-471v700h111v-307l285 144v-105l-285 -144v-184z" />
    <glyph glyph-name="Nacute" unicode="&#x143;" horiz-adv-x="781" 
d="M511 914l39 -76l-229 -104l-33 61zM576 700h111v-700h-104l-366 481l-14 23l2 -27v-477h-111v700h104l367 -477l13 -25l-2 29v473z" />
    <glyph glyph-name="nacute" unicode="&#x144;" horiz-adv-x="769" 
d="M500 914l39 -76l-229 -104l-33 61zM576 700h111v-700h-104l-366 481l-14 23l2 -27v-477h-111v700h104l367 -477l13 -25l-2 29v473z" />
    <glyph glyph-name="Ncommaaccent" unicode="&#x145;" horiz-adv-x="781" 
d="M576 700h111v-700h-104l-366 481l-14 23l2 -27v-477h-111v700h104l367 -477l13 -25l-2 29v473zM385 -153l11 4l-11 2q-17 1 -31.5 15t-14.5 37q0 24 16.5 40t41.5 16q23 0 39.5 -18.5t16.5 -47.5q0 -41 -25 -85t-61 -76h-41q22 19 40.5 53t18.5 60z" />
    <glyph glyph-name="ncommaaccent" unicode="&#x146;" horiz-adv-x="769" 
d="M576 700h111v-700h-104l-366 481l-14 23l2 -27v-477h-111v700h104l367 -477l13 -25l-2 29v473zM378 -153l11 4l-11 2q-17 1 -31.5 15t-14.5 37q0 24 16.5 40t41.5 16q23 0 39.5 -18.5t16.5 -47.5q0 -41 -25 -85t-61 -76h-41q22 19 40.5 53t18.5 60z" />
    <glyph glyph-name="Ncaron" unicode="&#x147;" horiz-adv-x="781" 
d="M231 869l164 -139l165 139l-44 47l-121 -100l-121 100zM576 700h111v-700h-104l-366 481l-14 23l2 -27v-477h-111v700h104l367 -477l13 -25l-2 29v473z" />
    <glyph glyph-name="ncaron" unicode="&#x148;" horiz-adv-x="769" 
d="M220 869l164 -139l165 139l-44 47l-121 -100l-121 100zM576 700h111v-700h-104l-366 481l-14 23l2 -27v-477h-111v700h104l367 -477l13 -25l-2 29v473z" />
    <glyph glyph-name="Eng" unicode="&#x14a;" horiz-adv-x="769" 
d="M570 700h111v-700q0 -95 -57 -157t-144 -62h-41v91h32q47 0 73 34.5t26 93.5h7l-366 481l-14 23l2 -27v-477h-111v700h104l367 -477l13 -25l-2 29v473z" />
    <glyph glyph-name="eng" unicode="&#x14b;" horiz-adv-x="769" 
d="M570 700h111v-700q0 -95 -57 -157t-144 -62h-41v91h32q47 0 73 34.5t26 93.5h7l-366 481l-14 23l2 -27v-477h-111v700h104l367 -477l13 -25l-2 29v473z" />
    <glyph glyph-name="Omacron" unicode="&#x14c;" 
d="M260 845h307v-68h-307v68zM41 350q0 157 105.5 260.5t257.5 103.5q153 0 258.5 -103.5t105.5 -260.5t-105.5 -260.5t-258.5 -103.5q-152 0 -257.5 103.5t-105.5 260.5zM156 350q0 -113 69.5 -184t178.5 -71q108 0 178.5 71.5t70.5 183.5q0 114 -70.5 184.5t-178.5 70.5
q-109 0 -178.5 -70.5t-69.5 -184.5z" />
    <glyph glyph-name="omacron" unicode="&#x14d;" 
d="M258 845h307v-68h-307v68zM41 350q0 157 105.5 260.5t257.5 103.5q153 0 258.5 -103.5t105.5 -260.5t-105.5 -260.5t-258.5 -103.5q-152 0 -257.5 103.5t-105.5 260.5zM156 350q0 -113 69.5 -184t178.5 -71q108 0 178.5 71.5t70.5 183.5q0 114 -70.5 184.5t-178.5 70.5
q-109 0 -178.5 -70.5t-69.5 -184.5z" />
    <glyph glyph-name="Ohungarumlaut" unicode="&#x150;" 
d="M425 914l39 -76l-229 -104l-33 61zM618 914l39 -76l-229 -104l-33 61zM41 350q0 157 105.5 260.5t257.5 103.5q153 0 258.5 -103.5t105.5 -260.5t-105.5 -260.5t-258.5 -103.5q-152 0 -257.5 103.5t-105.5 260.5zM156 350q0 -113 69.5 -184t178.5 -71q108 0 178.5 71.5
t70.5 183.5q0 114 -70.5 184.5t-178.5 70.5q-109 0 -178.5 -70.5t-69.5 -184.5z" />
    <glyph glyph-name="ohungarumlaut" unicode="&#x151;" 
d="M423 914l39 -76l-229 -104l-33 61zM616 914l39 -76l-229 -104l-33 61zM41 350q0 157 105.5 260.5t257.5 103.5q153 0 258.5 -103.5t105.5 -260.5t-105.5 -260.5t-258.5 -103.5q-152 0 -257.5 103.5t-105.5 260.5zM156 350q0 -113 69.5 -184t178.5 -71q108 0 178.5 71.5
t70.5 183.5q0 114 -70.5 184.5t-178.5 70.5q-109 0 -178.5 -70.5t-69.5 -184.5z" />
    <glyph glyph-name="OE" unicode="&#x152;" horiz-adv-x="1058" 
d="M539 0v21q-67 -27 -137 -27q-152 0 -256.5 100.5t-104.5 255.5t104.5 255.5t256.5 100.5q69 0 137 -26v20h447v-104h-336v-182h296v-101h-296v-209h342v-104h-453zM539 140v421q-63 42 -137 42q-105 0 -175.5 -70t-70.5 -183t70.5 -182.5t175.5 -69.5q76 0 137 42z" />
    <glyph glyph-name="oe" unicode="&#x153;" horiz-adv-x="1058" 
d="M539 0v21q-67 -27 -137 -27q-152 0 -256.5 100.5t-104.5 255.5t104.5 255.5t256.5 100.5q69 0 137 -26v20h447v-104h-336v-182h296v-101h-296v-209h342v-104h-453zM539 140v421q-63 42 -137 42q-105 0 -175.5 -70t-70.5 -183t70.5 -182.5t175.5 -69.5q76 0 137 42z" />
    <glyph glyph-name="Racute" unicode="&#x154;" horiz-adv-x="654" 
d="M464 838l-229 -104l-33 61l223 119zM615 0h-124l-155 250h-19h-118v-250h-111v700h229q125 0 197 -60.5t72 -164.5q0 -73 -36.5 -125.5t-103.5 -78.5zM199 354h131q69 0 105 33.5t36 87.5q0 55 -36.5 88t-104.5 33h-131v-242z" />
    <glyph glyph-name="racute" unicode="&#x155;" horiz-adv-x="654" 
d="M480 838l-229 -104l-33 61l223 119zM615 0h-124l-155 250h-19h-118v-250h-111v700h229q125 0 197 -60.5t72 -164.5q0 -73 -36.5 -125.5t-103.5 -78.5zM199 354h131q69 0 105 33.5t36 87.5q0 55 -36.5 88t-104.5 33h-131v-242z" />
    <glyph glyph-name="Rcommaaccent" unicode="&#x156;" horiz-adv-x="654" 
d="M446 271l169 -271h-124l-155 250h-19h-118v-250h-111v700h229q125 0 197 -60.5t72 -164.5q0 -73 -36.5 -125.5t-103.5 -78.5zM199 354h131q69 0 105 33.5t36 87.5q0 55 -36.5 88t-104.5 33h-131v-242zM324 -149l-11 2q-17 1 -31.5 15t-14.5 37q0 24 16.5 40t41.5 16
q23 0 39.5 -18.5t16.5 -47.5q0 -41 -25 -85t-61 -76h-41q22 19 40.5 53t18.5 60z" />
    <glyph glyph-name="rcommaaccent" unicode="&#x157;" horiz-adv-x="654" 
d="M446 271l169 -271h-124l-155 250h-19h-118v-250h-111v700h229q125 0 197 -60.5t72 -164.5q0 -73 -36.5 -125.5t-103.5 -78.5zM199 354h131q69 0 105 33.5t36 87.5q0 55 -36.5 88t-104.5 33h-131v-242zM340 -149l-11 2q-17 1 -31.5 15t-14.5 37q0 24 16.5 40t41.5 16
q23 0 39.5 -18.5t16.5 -47.5q0 -41 -25 -85t-61 -76h-41q22 19 40.5 53t18.5 60z" />
    <glyph glyph-name="Rcaron" unicode="&#x158;" horiz-adv-x="654" 
d="M474 869l-165 -139l-164 139l43 47l121 -100l121 100zM615 0h-124l-155 250h-19h-118v-250h-111v700h229q125 0 197 -60.5t72 -164.5q0 -73 -36.5 -125.5t-103.5 -78.5zM199 354h131q69 0 105 33.5t36 87.5q0 55 -36.5 88t-104.5 33h-131v-242z" />
    <glyph glyph-name="rcaron" unicode="&#x159;" horiz-adv-x="654" 
d="M474 869l-165 -139l-164 139l43 47l121 -100l121 100zM615 0h-124l-155 250h-19h-118v-250h-111v700h229q125 0 197 -60.5t72 -164.5q0 -73 -36.5 -125.5t-103.5 -78.5zM199 354h131q69 0 105 33.5t36 87.5q0 55 -36.5 88t-104.5 33h-131v-242z" />
    <glyph glyph-name="Sacute" unicode="&#x15a;" horiz-adv-x="602" 
d="M429 914l39 -76l-229 -104l-33 61zM559 525l-106 -29q-12 57 -54.5 89.5t-100.5 32.5q-59 0 -96 -25.5t-37 -70.5q0 -21 11 -37t36.5 -29t45.5 -20.5t60 -20.5q17 -5 25 -8q41 -13 63 -21t58 -27t55 -38.5t34 -52.5t15 -73q0 -91 -72.5 -150t-188.5 -59q-109 0 -181.5 57
t-95.5 151l108 29q9 -57 56.5 -97t118.5 -40q63 0 102 29.5t39 74.5q0 15 -5.5 28.5t-13 23.5t-23 20.5t-27 16.5t-34 14.5t-34.5 12.5t-38 12t-37 12q-32 11 -52.5 19t-49.5 24.5t-46 34.5t-29.5 47t-12.5 63q0 83 71 139.5t179 56.5q96 0 166.5 -52.5t90.5 -136.5z" />
    <glyph glyph-name="sacute" unicode="&#x15b;" horiz-adv-x="602" 
d="M441 914l39 -76l-229 -104l-33 61zM559 525l-106 -29q-12 57 -54.5 89.5t-100.5 32.5q-59 0 -96 -25.5t-37 -70.5q0 -21 11 -37t36.5 -29t45.5 -20.5t60 -20.5q17 -5 25 -8q41 -13 63 -21t58 -27t55 -38.5t34 -52.5t15 -73q0 -91 -72.5 -150t-188.5 -59q-109 0 -181.5 57
t-95.5 151l108 29q9 -57 56.5 -97t118.5 -40q63 0 102 29.5t39 74.5q0 15 -5.5 28.5t-13 23.5t-23 20.5t-27 16.5t-34 14.5t-34.5 12.5t-38 12t-37 12q-32 11 -52.5 19t-49.5 24.5t-46 34.5t-29.5 47t-12.5 63q0 83 71 139.5t179 56.5q96 0 166.5 -52.5t90.5 -136.5z" />
    <glyph glyph-name="Scircumflex" unicode="&#x15c;" horiz-adv-x="602" 
d="M146 784l164 139l165 -139l-44 -47l-121 100l-121 -100zM559 525l-106 -29q-12 57 -54.5 89.5t-100.5 32.5q-59 0 -96 -25.5t-37 -70.5q0 -21 11 -37t36.5 -29t45.5 -20.5t60 -20.5q17 -5 25 -8q41 -13 63 -21t58 -27t55 -38.5t34 -52.5t15 -73q0 -91 -72.5 -150
t-188.5 -59q-109 0 -181.5 57t-95.5 151l108 29q9 -57 56.5 -97t118.5 -40q63 0 102 29.5t39 74.5q0 15 -5.5 28.5t-13 23.5t-23 20.5t-27 16.5t-34 14.5t-34.5 12.5t-38 12t-37 12q-32 11 -52.5 19t-49.5 24.5t-46 34.5t-29.5 47t-12.5 63q0 83 71 139.5t179 56.5
q96 0 166.5 -52.5t90.5 -136.5z" />
    <glyph glyph-name="scircumflex" unicode="&#x15d;" horiz-adv-x="602" 
d="M146 784l164 139l165 -139l-44 -47l-121 100l-121 -100zM559 525l-106 -29q-12 57 -54.5 89.5t-100.5 32.5q-59 0 -96 -25.5t-37 -70.5q0 -21 11 -37t36.5 -29t45.5 -20.5t60 -20.5q17 -5 25 -8q41 -13 63 -21t58 -27t55 -38.5t34 -52.5t15 -73q0 -91 -72.5 -150
t-188.5 -59q-109 0 -181.5 57t-95.5 151l108 29q9 -57 56.5 -97t118.5 -40q63 0 102 29.5t39 74.5q0 15 -5.5 28.5t-13 23.5t-23 20.5t-27 16.5t-34 14.5t-34.5 12.5t-38 12t-37 12q-32 11 -52.5 19t-49.5 24.5t-46 34.5t-29.5 47t-12.5 63q0 83 71 139.5t179 56.5
q96 0 166.5 -52.5t90.5 -136.5z" />
    <glyph glyph-name="Scedilla" unicode="&#x15e;" horiz-adv-x="602" 
d="M559 525l-106 -29q-12 57 -54.5 89.5t-100.5 32.5q-59 0 -96 -25.5t-37 -70.5q0 -21 11 -37t36.5 -29t45.5 -20.5t60 -20.5q17 -5 25 -8q41 -13 63 -21t58 -27t55 -38.5t34 -52.5t15 -73q0 -81 -58.5 -137.5t-155.5 -68.5l-15 -41q45 1 75 -25.5t30 -71.5
q0 -48 -31 -73.5t-80 -25.5h-89l24 61h65q22 0 34.5 10.5t12.5 26.5q0 18 -13 28.5t-34 10.5h-78l34 97q-102 5 -169.5 61.5t-89.5 146.5l108 29q9 -57 56.5 -97t118.5 -40q63 0 102 29.5t39 74.5q0 15 -5.5 28.5t-13 23.5t-23 20.5t-27 16.5t-34 14.5t-34.5 12.5t-38 12
t-37 12q-32 11 -52.5 19t-49.5 24.5t-46 34.5t-29.5 47t-12.5 63q0 83 71 139.5t179 56.5q96 0 166.5 -52.5t90.5 -136.5z" />
    <glyph glyph-name="scedilla" unicode="&#x15f;" horiz-adv-x="602" 
d="M559 525l-106 -29q-12 57 -54.5 89.5t-100.5 32.5q-59 0 -96 -25.5t-37 -70.5q0 -21 11 -37t36.5 -29t45.5 -20.5t60 -20.5q17 -5 25 -8q41 -13 63 -21t58 -27t55 -38.5t34 -52.5t15 -73q0 -80 -57 -136t-151 -69l-15 -42q45 1 75 -25.5t30 -71.5q0 -48 -31 -73.5
t-80 -25.5h-89l24 61h65q22 0 34.5 10.5t12.5 26.5q0 18 -13 28.5t-34 10.5h-78l34 97q-104 4 -173.5 60t-91.5 148l108 29q9 -57 56.5 -97t118.5 -40q63 0 102 29.5t39 74.5q0 15 -5.5 28.5t-13 23.5t-23 20.5t-27 16.5t-34 14.5t-34.5 12.5t-38 12t-37 12q-32 11 -52.5 19
t-49.5 24.5t-46 34.5t-29.5 47t-12.5 63q0 83 71 139.5t179 56.5q96 0 166.5 -52.5t90.5 -136.5z" />
    <glyph glyph-name="Scaron" unicode="&#x160;" horiz-adv-x="602" 
d="M149 869l164 -139l165 139l-44 47l-121 -100l-121 100zM559 525l-106 -29q-12 57 -54.5 89.5t-100.5 32.5q-59 0 -96 -25.5t-37 -70.5q0 -21 11 -37t36.5 -29t45.5 -20.5t60 -20.5q17 -5 25 -8q41 -13 63 -21t58 -27t55 -38.5t34 -52.5t15 -73q0 -91 -72.5 -150
t-188.5 -59q-109 0 -181.5 57t-95.5 151l108 29q9 -57 56.5 -97t118.5 -40q63 0 102 29.5t39 74.5q0 15 -5.5 28.5t-13 23.5t-23 20.5t-27 16.5t-34 14.5t-34.5 12.5t-38 12t-37 12q-32 11 -52.5 19t-49.5 24.5t-46 34.5t-29.5 47t-12.5 63q0 83 71 139.5t179 56.5
q96 0 166.5 -52.5t90.5 -136.5z" />
    <glyph glyph-name="scaron" unicode="&#x161;" horiz-adv-x="602" 
d="M161 869l164 -139l165 139l-44 47l-121 -100l-121 100zM559 525l-106 -29q-12 57 -54.5 89.5t-100.5 32.5q-59 0 -96 -25.5t-37 -70.5q0 -21 11 -37t36.5 -29t45.5 -20.5t60 -20.5q17 -5 25 -8q41 -13 63 -21t58 -27t55 -38.5t34 -52.5t15 -73q0 -91 -72.5 -150
t-188.5 -59q-109 0 -181.5 57t-95.5 151l108 29q9 -57 56.5 -97t118.5 -40q63 0 102 29.5t39 74.5q0 15 -5.5 28.5t-13 23.5t-23 20.5t-27 16.5t-34 14.5t-34.5 12.5t-38 12t-37 12q-32 11 -52.5 19t-49.5 24.5t-46 34.5t-29.5 47t-12.5 63q0 83 71 139.5t179 56.5
q96 0 166.5 -52.5t90.5 -136.5z" />
    <glyph glyph-name="Tcedilla" unicode="&#x162;" horiz-adv-x="599" 
d="M354 0h-25l-19 -52q45 1 75 -25.5t30 -71.5q0 -48 -31 -73.5t-80 -25.5h-89l24 61h65q22 0 34.5 10.5t12.5 26.5q0 18 -13 28.5t-34 10.5h-78l39 111h-22v596h-225v104h563v-104h-227v-596z" />
    <glyph glyph-name="tcedilla" unicode="&#x163;" horiz-adv-x="599" 
d="M354 0h-25l-19 -52q45 1 75 -25.5t30 -71.5q0 -48 -31 -73.5t-80 -25.5h-89l24 61h65q22 0 34.5 10.5t12.5 26.5q0 18 -13 28.5t-34 10.5h-78l39 111h-22v596h-225v104h563v-104h-227v-596z" />
    <glyph glyph-name="Tcaron" unicode="&#x164;" horiz-adv-x="599" 
d="M474 869l-165 -139l-164 139l43 47l121 -100l121 100zM18 700h563v-104h-227v-596h-111v596h-225v104z" />
    <glyph glyph-name="tcaron" unicode="&#x165;" horiz-adv-x="599" 
d="M474 869l-165 -139l-164 139l43 47l121 -100l121 100zM18 700h563v-104h-227v-596h-111v596h-225v104z" />
    <glyph glyph-name="Tbar" unicode="&#x166;" horiz-adv-x="599" 
d="M581 596h-227v-180h118v-87h-118v-329h-111v329h-114v87h114v180h-225v104h563v-104z" />
    <glyph glyph-name="tbar" unicode="&#x167;" horiz-adv-x="599" 
d="M581 596h-227v-180h118v-87h-118v-329h-111v329h-114v87h114v180h-225v104h563v-104z" />
    <glyph glyph-name="Umacron" unicode="&#x16a;" horiz-adv-x="744" 
d="M223 845h307v-68h-307v68zM561 700h111v-403q0 -147 -80 -229t-220 -82t-220 82t-80 229v403h111v-407q0 -96 49 -150t140 -54t140 54t49 150v407z" />
    <glyph glyph-name="umacron" unicode="&#x16b;" horiz-adv-x="744" 
d="M223 845h307v-68h-307v68zM561 700h111v-403q0 -147 -80 -229t-220 -82t-220 82t-80 229v403h111v-407q0 -96 49 -150t140 -54t140 54t49 150v407z" />
    <glyph glyph-name="Ubreve" unicode="&#x16c;" horiz-adv-x="744" 
d="M232 862h68q6 -25 27.5 -42t48.5 -17t49 17t27 42h67q-11 -52 -51 -85t-92 -33q-55 0 -94.5 33t-49.5 85zM561 700h111v-403q0 -147 -80 -229t-220 -82t-220 82t-80 229v403h111v-407q0 -96 49 -150t140 -54t140 54t49 150v407z" />
    <glyph glyph-name="ubreve" unicode="&#x16d;" horiz-adv-x="744" 
d="M232 862h68q6 -25 27.5 -42t48.5 -17t49 17t27 42h67q-11 -52 -51 -85t-92 -33q-55 0 -94.5 33t-49.5 85zM561 700h111v-403q0 -147 -80 -229t-220 -82t-220 82t-80 229v403h111v-407q0 -96 49 -150t140 -54t140 54t49 150v407z" />
    <glyph glyph-name="Uring" unicode="&#x16e;" horiz-adv-x="744" 
d="M373 666q-47 0 -80 32.5t-33 79.5t33 80t80 33t80 -33.5t33 -79.5t-33 -79t-80 -33zM373 725q22 0 38.5 16t16.5 38q0 23 -16 38.5t-39 15.5q-22 0 -38 -15.5t-16 -38.5q0 -22 16 -38t38 -16zM561 700h111v-403q0 -147 -80 -229t-220 -82t-220 82t-80 229v403h111v-407
q0 -96 49 -150t140 -54t140 54t49 150v407z" />
    <glyph glyph-name="uring" unicode="&#x16f;" horiz-adv-x="744" 
d="M373 666q-47 0 -80 32.5t-33 79.5t33 80t80 33t80 -33.5t33 -79.5t-33 -79t-80 -33zM373 725q22 0 38.5 16t16.5 38q0 23 -16 38.5t-39 15.5q-22 0 -38 -15.5t-16 -38.5q0 -22 16 -38t38 -16zM561 700h111v-403q0 -147 -80 -229t-220 -82t-220 82t-80 229v403h111v-407
q0 -96 49 -150t140 -54t140 54t49 150v407z" />
    <glyph glyph-name="Uhungarumlaut" unicode="&#x170;" horiz-adv-x="744" 
d="M388 914l39 -76l-229 -104l-33 61zM581 914l39 -76l-229 -104l-33 61zM561 700h111v-403q0 -147 -80 -229t-220 -82t-220 82t-80 229v403h111v-407q0 -96 49 -150t140 -54t140 54t49 150v407z" />
    <glyph glyph-name="uhungarumlaut" unicode="&#x171;" horiz-adv-x="744" 
d="M388 914l39 -76l-229 -104l-33 61zM581 914l39 -76l-229 -104l-33 61zM561 700h111v-403q0 -147 -80 -229t-220 -82t-220 82t-80 229v403h111v-407q0 -96 49 -150t140 -54t140 54t49 150v407z" />
    <glyph glyph-name="Uogonek" unicode="&#x172;" horiz-adv-x="744" 
d="M672 700v-403q0 -118 -53 -195t-148 -103q-47 -18 -73 -40.5t-26 -59.5q0 -31 21 -51.5t56 -20.5q28 0 53.5 18.5t38.5 44.5l58 -38q-20 -40 -62 -67.5t-88 -27.5q-66 0 -110.5 37t-44.5 97q0 58 51 96q-128 8 -200.5 89.5t-72.5 220.5v403h111v-407q0 -96 49 -150
t140 -54t140 54t49 150v407h111z" />
    <glyph glyph-name="uogonek" unicode="&#x173;" horiz-adv-x="744" 
d="M672 700v-403q0 -118 -53 -195t-148 -103q-47 -18 -73 -40.5t-26 -59.5q0 -31 21 -51.5t56 -20.5q28 0 53.5 18.5t38.5 44.5l58 -38q-20 -40 -62 -67.5t-88 -27.5q-66 0 -110.5 37t-44.5 97q0 58 51 96q-128 8 -200.5 89.5t-72.5 220.5v403h111v-407q0 -96 49 -150
t140 -54t140 54t49 150v407h111z" />
    <glyph glyph-name="Wcircumflex" unicode="&#x174;" horiz-adv-x="1002" 
d="M332 784l164 139l165 -139l-44 -47l-121 100l-121 -100zM876 700h118l-280 -700h-76l-129 355l-8 30l-9 -30l-129 -355h-76l-279 700h118l192 -479l7 -27l7 27l139 374h60l139 -374l7 -27l7 27z" />
    <glyph glyph-name="wcircumflex" unicode="&#x175;" horiz-adv-x="1002" 
d="M332 784l164 139l165 -139l-44 -47l-121 100l-121 -100zM876 700h118l-280 -700h-76l-129 355l-8 30l-9 -30l-129 -355h-76l-279 700h118l192 -479l7 -27l7 27l139 374h60l139 -374l7 -27l7 27z" />
    <glyph glyph-name="Ycircumflex" unicode="&#x176;" horiz-adv-x="688" 
d="M175 784l164 139l165 -139l-44 -47l-121 100l-121 -100zM545 700h135l-280 -373v-327h-111v327l-280 373h134l189 -248l12 -22l13 22z" />
    <glyph glyph-name="ycircumflex" unicode="&#x177;" horiz-adv-x="688" 
d="M175 784l164 139l165 -139l-44 -47l-121 100l-121 -100zM545 700h135l-280 -373v-327h-111v327l-280 373h134l189 -248l12 -22l13 22z" />
    <glyph glyph-name="Ydieresis" unicode="&#x178;" horiz-adv-x="688" 
d="M215 766q-24 0 -40.5 16.5t-16.5 40.5q0 23 16.5 39.5t40.5 16.5t40.5 -16.5t16.5 -39.5q0 -24 -16.5 -40.5t-40.5 -16.5zM463 766q-24 0 -40.5 16.5t-16.5 40.5q0 23 16.5 39.5t40.5 16.5t40.5 -16.5t16.5 -39.5q0 -24 -16.5 -40.5t-40.5 -16.5zM545 700h135l-280 -373
v-327h-111v327l-280 373h134l189 -248l12 -22l13 22z" />
    <glyph glyph-name="Zacute" unicode="&#x179;" horiz-adv-x="697" 
d="M470 914l39 -76l-229 -104l-33 61zM637 700v-103l-411 -477l-20 -18l31 2h400v-104h-577v103l415 478l20 17l-31 -2h-394v104h567z" />
    <glyph glyph-name="zacute" unicode="&#x17a;" horiz-adv-x="697" 
d="M470 914l39 -76l-229 -104l-33 61zM637 700v-103l-411 -477l-20 -18l31 2h400v-104h-577v103l415 478l20 17l-31 -2h-394v104h567z" />
    <glyph glyph-name="Zdotaccent" unicode="&#x17b;" horiz-adv-x="697" 
d="M356 766q-24 0 -40.5 16.5t-16.5 40.5q0 23 16.5 39.5t40.5 16.5t40.5 -16.5t16.5 -39.5q0 -24 -16.5 -40.5t-40.5 -16.5zM637 700v-103l-411 -477l-20 -18l31 2h400v-104h-577v103l415 478l20 17l-31 -2h-394v104h567z" />
    <glyph glyph-name="zdotaccent" unicode="&#x17c;" horiz-adv-x="697" 
d="M356 766q-24 0 -40.5 16.5t-16.5 40.5q0 23 16.5 39.5t40.5 16.5t40.5 -16.5t16.5 -39.5q0 -24 -16.5 -40.5t-40.5 -16.5zM637 700v-103l-411 -477l-20 -18l31 2h400v-104h-577v103l415 478l20 17l-31 -2h-394v104h567z" />
    <glyph glyph-name="Zcaron" unicode="&#x17d;" horiz-adv-x="697" 
d="M190 869l164 -139l165 139l-44 47l-121 -100l-121 100zM637 700v-103l-411 -477l-20 -18l31 2h400v-104h-577v103l415 478l20 17l-31 -2h-394v104h567z" />
    <glyph glyph-name="zcaron" unicode="&#x17e;" horiz-adv-x="697" 
d="M190 869l164 -139l165 139l-44 47l-121 -100l-121 100zM637 700v-103l-411 -477l-20 -18l31 2h400v-104h-577v103l415 478l20 17l-31 -2h-394v104h567z" />
    <glyph glyph-name="Scommaaccent" unicode="&#x218;" horiz-adv-x="602" 
d="M559 525l-106 -29q-12 57 -54.5 89.5t-100.5 32.5q-59 0 -96 -25.5t-37 -70.5q0 -21 11 -37t36.5 -29t45.5 -20.5t60 -20.5q17 -5 25 -8q41 -13 63 -21t58 -27t55 -38.5t34 -52.5t15 -73q0 -91 -72.5 -150t-188.5 -59q-109 0 -181.5 57t-95.5 151l108 29q9 -57 56.5 -97
t118.5 -40q63 0 102 29.5t39 74.5q0 15 -5.5 28.5t-13 23.5t-23 20.5t-27 16.5t-34 14.5t-34.5 12.5t-38 12t-37 12q-32 11 -52.5 19t-49.5 24.5t-46 34.5t-29.5 47t-12.5 63q0 83 71 139.5t179 56.5q96 0 166.5 -52.5t90.5 -136.5zM286 -153l11 4l-11 2q-17 1 -31.5 15
t-14.5 37q0 24 16.5 40t41.5 16q23 0 39.5 -18.5t16.5 -47.5q0 -41 -25 -85t-61 -76h-41q22 19 40.5 53t18.5 60z" />
    <glyph glyph-name="scommaaccent" unicode="&#x219;" horiz-adv-x="602" 
d="M559 525l-106 -29q-12 57 -54.5 89.5t-100.5 32.5q-59 0 -96 -25.5t-37 -70.5q0 -21 11 -37t36.5 -29t45.5 -20.5t60 -20.5q17 -5 25 -8q41 -13 63 -21t58 -27t55 -38.5t34 -52.5t15 -73q0 -91 -72.5 -150t-188.5 -59q-109 0 -181.5 57t-95.5 151l108 29q9 -57 56.5 -97
t118.5 -40q63 0 102 29.5t39 74.5q0 15 -5.5 28.5t-13 23.5t-23 20.5t-27 16.5t-34 14.5t-34.5 12.5t-38 12t-37 12q-32 11 -52.5 19t-49.5 24.5t-46 34.5t-29.5 47t-12.5 63q0 83 71 139.5t179 56.5q96 0 166.5 -52.5t90.5 -136.5zM286 -153l11 4l-11 2q-17 1 -31.5 15
t-14.5 37q0 24 16.5 40t41.5 16q23 0 39.5 -18.5t16.5 -47.5q0 -41 -25 -85t-61 -76h-41q22 19 40.5 53t18.5 60z" />
    <glyph glyph-name="uni021A" unicode="&#x21a;" horiz-adv-x="599" 
d="M18 700h563v-104h-227v-596h-111v596h-225v104zM294 -149l-11 2q-17 1 -31.5 15t-14.5 37q0 24 16.5 40t41.5 16q23 0 39.5 -18.5t16.5 -47.5q0 -41 -25 -85t-61 -76h-41q22 19 40.5 53t18.5 60z" />
    <glyph glyph-name="uni021B" unicode="&#x21b;" horiz-adv-x="599" 
d="M18 700h563v-104h-227v-596h-111v596h-225v104zM294 -149l-11 2q-17 1 -31.5 15t-14.5 37q0 24 16.5 40t41.5 16q23 0 39.5 -18.5t16.5 -47.5q0 -41 -25 -85t-61 -76h-41q22 19 40.5 53t18.5 60z" />
    <glyph glyph-name="dotlessj" unicode="&#x237;" horiz-adv-x="663" 
d="M481 700h111v-403q0 -147 -80.5 -229t-220.5 -82q-100 0 -177 53t-104 136l109 29q18 -54 64 -84.5t108 -30.5q91 0 140.5 53.5t49.5 149.5v408z" />
    <glyph glyph-name="circumflex" unicode="&#x2c6;" horiz-adv-x="379" 
d="M7 784l164 139l165 -139l-44 -47l-121 100l-121 -100z" />
    <glyph glyph-name="caron" unicode="&#x2c7;" horiz-adv-x="379" 
d="M7 869l164 -139l165 139l-44 47l-121 -100l-121 100z" />
    <glyph glyph-name="breve" unicode="&#x2d8;" horiz-adv-x="338" 
d="M7 862h68q6 -25 27.5 -42t48.5 -17t49 17t27 42h67q-11 -52 -51 -85t-92 -33q-55 0 -94.5 33t-49.5 85z" />
    <glyph glyph-name="dotaccent" unicode="&#x2d9;" horiz-adv-x="164" 
d="M64 766q-24 0 -40.5 16.5t-16.5 40.5q0 23 16.5 39.5t40.5 16.5t40.5 -16.5t16.5 -39.5q0 -24 -16.5 -40.5t-40.5 -16.5z" />
    <glyph glyph-name="ring" unicode="&#x2da;" horiz-adv-x="276" 
d="M120 666q-47 0 -80 32.5t-33 79.5t33 80t80 33q46 0 79.5 -33.5t33.5 -79.5t-33 -79t-80 -33zM120 725q22 0 38.5 16t16.5 38q0 23 -16 38.5t-39 15.5q-22 0 -38 -15.5t-16 -38.5q0 -22 16 -38t38 -16z" />
    <glyph glyph-name="ogonek" unicode="&#x2db;" horiz-adv-x="600" 
d="M354 -111l59 -39q-22 -41 -64.5 -67t-89.5 -26q-70 0 -115 40t-45 105q0 64 45 105t91 41l72 -48q-50 0 -88.5 -24.5t-38.5 -73.5q0 -31 22.5 -53t59.5 -22q28 0 54 18t38 44z" />
    <glyph glyph-name="tilde" unicode="&#x2dc;" horiz-adv-x="441" 
d="M316 873h88q0 -53 -35.5 -87t-90.5 -34q-34 0 -78 29t-64 29q-21 0 -34.5 -12.5t-13.5 -32.5h-87q0 53 35.5 87t90.5 34q37 0 80.5 -29.5t61.5 -29.5q20 0 33.5 13t13.5 33z" />
    <glyph glyph-name="hungarumlaut" unicode="&#x2dd;" horiz-adv-x="505" 
d="M214 914l39 -76l-229 -104l-33 61zM407 914l39 -76l-229 -104l-33 61z" />
    <glyph glyph-name="commaaccent" unicode="&#x326;" horiz-adv-x="0" 
d="M119 -153l11 4l-11 2q-17 0 -31.5 14.5t-14.5 37.5q0 24 17 40t41 16q23 0 39.5 -18.5t16.5 -47.5q0 -42 -24.5 -85t-61.5 -76h-41q22 19 40.5 53t18.5 60z" />
    <glyph glyph-name="Wgrave" unicode="&#x1e80;" horiz-adv-x="1002" 
d="M553 734l-228 104l39 76l222 -119zM876 700h118l-280 -700h-76l-129 355l-8 30l-9 -30l-129 -355h-76l-279 700h118l192 -479l7 -27l7 27l139 374h60l139 -374l7 -27l7 27z" />
    <glyph glyph-name="wgrave" unicode="&#x1e81;" horiz-adv-x="1002" 
d="M553 734l-228 104l39 76l222 -119zM876 700h118l-280 -700h-76l-129 355l-8 30l-9 -30l-129 -355h-76l-279 700h118l192 -479l7 -27l7 27l139 374h60l139 -374l7 -27l7 27z" />
    <glyph glyph-name="Wacute" unicode="&#x1e82;" horiz-adv-x="1002" 
d="M615 914l39 -76l-229 -104l-33 61zM876 700h118l-280 -700h-76l-129 355l-8 30l-9 -30l-129 -355h-76l-279 700h118l192 -479l7 -27l7 27l139 374h60l139 -374l7 -27l7 27z" />
    <glyph glyph-name="wacute" unicode="&#x1e83;" horiz-adv-x="1002" 
d="M615 914l39 -76l-229 -104l-33 61zM876 700h118l-280 -700h-76l-129 355l-8 30l-9 -30l-129 -355h-76l-279 700h118l192 -479l7 -27l7 27l139 374h60l139 -374l7 -27l7 27z" />
    <glyph glyph-name="Wdieresis" unicode="&#x1e84;" horiz-adv-x="1002" 
d="M372 766q-24 0 -40.5 16.5t-16.5 40.5q0 23 16.5 39.5t40.5 16.5t40.5 -16.5t16.5 -39.5q0 -24 -16.5 -40.5t-40.5 -16.5zM620 766q-24 0 -40.5 16.5t-16.5 40.5q0 23 16.5 39.5t40.5 16.5t40.5 -16.5t16.5 -39.5q0 -24 -16.5 -40.5t-40.5 -16.5zM876 700h118l-280 -700
h-76l-129 355l-8 30l-9 -30l-129 -355h-76l-279 700h118l192 -479l7 -27l7 27l139 374h60l139 -374l7 -27l7 27z" />
    <glyph glyph-name="wdieresis" unicode="&#x1e85;" horiz-adv-x="1002" 
d="M372 766q-24 0 -40.5 16.5t-16.5 40.5q0 23 16.5 39.5t40.5 16.5t40.5 -16.5t16.5 -39.5q0 -24 -16.5 -40.5t-40.5 -16.5zM620 766q-24 0 -40.5 16.5t-16.5 40.5q0 23 16.5 39.5t40.5 16.5t40.5 -16.5t16.5 -39.5q0 -24 -16.5 -40.5t-40.5 -16.5zM876 700h118l-280 -700
h-76l-129 355l-8 30l-9 -30l-129 -355h-76l-279 700h118l192 -479l7 -27l7 27l139 374h60l139 -374l7 -27l7 27z" />
    <glyph glyph-name="Germandbls" unicode="&#x1e9e;" horiz-adv-x="796" 
d="M88 700h599l-166 -289q111 -6 173 -62t62 -145q0 -93 -68.5 -155.5t-175.5 -62.5q-79 0 -146 37.5t-101 99.5l105 29q46 -71 137 -71q61 0 99 35t38 87q0 48 -36 82t-101 36h-92v90l97 168l17 19l-30 -2h-300v-596h-111v700z" />
    <glyph glyph-name="Ygrave" unicode="&#x1ef2;" horiz-adv-x="688" 
d="M396 734l-228 104l39 76l222 -119zM545 700h135l-280 -373v-327h-111v327l-280 373h134l189 -248l12 -22l13 22z" />
    <glyph glyph-name="ygrave" unicode="&#x1ef3;" horiz-adv-x="688" 
d="M396 734l-228 104l39 76l222 -119zM545 700h135l-280 -373v-327h-111v327l-280 373h134l189 -248l12 -22l13 22z" />
    <glyph glyph-name="uni2009" unicode="&#x2009;" horiz-adv-x="150" 
 />
    <glyph glyph-name="uni200A" unicode="&#x200a;" horiz-adv-x="50" 
 />
    <glyph glyph-name="endash" unicode="&#x2013;" horiz-adv-x="499" 
d="M40 406h419v-102h-419v102z" />
    <glyph glyph-name="emdash" unicode="&#x2014;" horiz-adv-x="929" 
d="M40 406h849v-102h-849v102z" />
    <glyph glyph-name="quoteleft" unicode="&#x2018;" horiz-adv-x="310" 
d="M165 594l-11 -4l11 -2q19 -1 34 -16t15 -39q0 -25 -17.5 -42t-43.5 -17q-25 0 -42 19.5t-17 49.5q0 44 26 90t64 80h44q-24 -20 -43.5 -56t-19.5 -63z" />
    <glyph glyph-name="quoteright" unicode="&#x2019;" horiz-adv-x="310" 
d="M151 593l11 4l-11 2q-19 1 -34 16t-15 39q0 25 17.5 42t43.5 17q25 0 42 -19.5t17 -49.5q0 -44 -26 -90t-64 -80h-44q24 20 43.5 56t19.5 63z" />
    <glyph glyph-name="quotesinglbase" unicode="&#x201a;" horiz-adv-x="310" 
d="M151 -13l11 4l-11 2q-19 1 -34 16t-15 39q0 25 17.5 42t43.5 17q25 0 42 -19.5t17 -49.5q0 -44 -26 -90t-64 -80h-44q24 20 43.5 56t19.5 63z" />
    <glyph glyph-name="quotedblleft" unicode="&#x201c;" horiz-adv-x="509" 
d="M165 594l-11 -4l11 -2q19 -1 34 -16t15 -39q0 -25 -17.5 -42t-43.5 -17q-25 0 -42 19.5t-17 49.5q0 44 26 90t64 80h44q-24 -20 -43.5 -56t-19.5 -63zM364 594l-11 -4l11 -2q19 -1 34 -16t15 -39q0 -25 -17.5 -42t-43.5 -17q-25 0 -42 19.5t-17 49.5q0 44 26 90t64 80h44
q-24 -20 -43.5 -56t-19.5 -63z" />
    <glyph glyph-name="quotedblright" unicode="&#x201d;" horiz-adv-x="509" 
d="M145 593l11 4l-11 2q-19 1 -34 16t-15 39q0 25 17.5 42t43.5 17q25 0 42 -19.5t17 -49.5q0 -44 -26 -90t-64 -80h-44q24 20 43.5 56t19.5 63zM344 593l11 4l-11 2q-19 1 -34 16t-15 39q0 25 17.5 42t43.5 17q25 0 42 -19.5t17 -49.5q0 -44 -26 -90t-64 -80h-44
q24 20 43.5 56t19.5 63z" />
    <glyph glyph-name="quotedblbase" unicode="&#x201e;" horiz-adv-x="500" 
d="M145 -13l11 4l-11 2q-19 1 -34 16t-15 39q0 25 17.5 42t43.5 17q25 0 42 -19.5t17 -49.5q0 -44 -26 -90t-64 -80h-44q24 20 43.5 56t19.5 63zM335 -13l11 4l-11 2q-19 1 -34 16t-15 39q0 25 17.5 42t43.5 17q25 0 42 -19.5t17 -49.5q0 -44 -26 -90t-64 -80h-44
q24 20 43.5 56t19.5 63z" />
    <glyph glyph-name="bullet" unicode="&#x2022;" horiz-adv-x="388" 
d="M195 248q-45 0 -76 31t-31 76q0 44 31 74.5t76 30.5q43 0 74 -31t31 -74q0 -45 -30.5 -76t-74.5 -31z" />
    <glyph glyph-name="ellipsis" unicode="&#x2026;" horiz-adv-x="748" 
d="M109 -14q-20 0 -34.5 14.5t-14.5 34.5t14.5 34t34.5 14t34 -14t14 -34t-14 -34.5t-34 -14.5zM369 -14q-20 0 -34.5 14.5t-14.5 34.5t14.5 34t34.5 14t34 -14t14 -34t-14 -34.5t-34 -14.5zM639 -14q-20 0 -34.5 14.5t-14.5 34.5t14.5 34t34.5 14t34 -14t14 -34t-14 -34.5
t-34 -14.5z" />
    <glyph glyph-name="perthousand" unicode="&#x2030;" horiz-adv-x="1341" 
d="M225 312q-82 0 -133 55.5t-51 145.5q0 89 51 145t133 56t132.5 -56t50.5 -145q0 -90 -50.5 -145.5t-132.5 -55.5zM201 0l435 700h76l-435 -700h-76zM225 391q45 0 73 33.5t28 88.5t-28 88.5t-73 33.5t-73.5 -33.5t-28.5 -88.5t28.5 -88.5t73.5 -33.5zM695 -14
q-82 0 -133 55.5t-51 145.5q0 89 51 145t133 56t132.5 -56t50.5 -145q0 -90 -50.5 -145.5t-132.5 -55.5zM1117 -14q-82 0 -133 55.5t-51 145.5q0 89 51 145t133 56t132.5 -56t50.5 -145q0 -90 -50.5 -145.5t-132.5 -55.5zM695 65q45 0 73 33.5t28 88.5t-28 88.5t-73 33.5
t-73.5 -33.5t-28.5 -88.5t28.5 -88.5t73.5 -33.5zM1117 65q45 0 73 33.5t28 88.5t-28 88.5t-73 33.5t-73.5 -33.5t-28.5 -88.5t28.5 -88.5t73.5 -33.5z" />
    <glyph glyph-name="guilsinglleft" unicode="&#x2039;" horiz-adv-x="471" 
d="M330 590l-236 -234l235 -234l61 62l-179 172l179 173z" />
    <glyph glyph-name="guilsinglright" unicode="&#x203a;" horiz-adv-x="471" 
d="M148 590l236 -234l-235 -234l-61 62l179 172l-179 173z" />
    <glyph glyph-name="fraction" unicode="&#x2044;" horiz-adv-x="637" 
d="M60 0l435 700h76l-435 -700h-76z" />
    <glyph glyph-name="Euro" unicode="&#x20ac;" horiz-adv-x="802" 
d="M665 219l111 -28q-44 -94 -131.5 -148.5t-196.5 -54.5q-126 0 -222.5 74t-126.5 193h-58v75h46v20v18h-46v75h57q30 120 126.5 194.5t223.5 74.5q102 0 186 -49.5t130 -133.5l-112 -28q-32 48 -85.5 76t-117.5 28q-82 0 -146 -44t-90 -118h247v-75h-262q-1 -6 -1 -18
q0 -13 1 -20h261v-75h-245q27 -72 90.5 -115t144.5 -43q70 0 128 33t88 89z" />
    <glyph glyph-name="afii61352" unicode="&#x2116;" horiz-adv-x="1117" 
d="M754 540q0 74 49.5 123t121.5 49t122 -49t50 -123q0 -73 -50 -122t-122 -49t-121.5 48.5t-49.5 122.5zM576 700h111v-700h-104l-366 481l-14 23l2 -27v-477h-111v700h104l367 -477l13 -25l-2 29v473zM819 540q0 -48 30 -79t76 -31q47 0 77 31t30 79q0 49 -30 80t-77 31
q-46 0 -76 -31t-30 -80zM764 328h323v-56h-323v56z" />
    <glyph glyph-name="trademark" unicode="&#x2122;" horiz-adv-x="838" 
d="M18 636v64h313v-64h-122v-286h-70v286h-121zM685 700h65v-349h-65v224l2 24l-13 -24l-87 -138h-29l-90 138l-13 24l2 -24v-225h-66v350h66l115 -175z" />
    <glyph glyph-name="minus" unicode="&#x2212;" horiz-adv-x="659" 
d="M88 401h483v-92h-483v92z" />
    <glyph glyph-name="notequal" unicode="&#x2260;" horiz-adv-x="659" 
d="M571 406h-157l-57 -113h214v-92h-261l-57 -113h-106l58 113h-117v92h164l58 113h-222v92h269l63 123h103l-62 -123h110v-92z" />
    <glyph glyph-name="lessequal" unicode="&#x2264;" horiz-adv-x="669" 
d="M530 163l-274 204l316 244h-135l-324 -244l280 -204h137zM581 82h-483v-92h483v92z" />
    <glyph glyph-name="greaterequal" unicode="&#x2265;" horiz-adv-x="669" 
d="M139 163l274 204l-316 244h135l324 -244l-280 -204h-137zM88 82h483v-92h-483v92z" />
    <glyph glyph-name="Cacute.loclPLK" horiz-adv-x="759" 
d="M476 943l71 -41l-128 -164l-53 32zM722 530l-113 -30q-32 49 -87 77t-118 28q-109 0 -178.5 -71t-69.5 -184t70.5 -183.5t177.5 -70.5q70 0 129 33.5t89 90.5l111 -30q-45 -94 -132.5 -149t-196.5 -55q-152 0 -257.5 103.5t-105.5 260.5t105.5 260.5t257.5 103.5
q101 0 185.5 -49.5t132.5 -134.5z" />
    <glyph glyph-name="N.ss02" horiz-adv-x="781" 
d="M576 700h111v-700h-111v244l-359 297l-14 15l2 -28v-528h-111v700h104l365 -302l15 -16l-2 28v290z" />
    <glyph glyph-name="Nacute.loclPLK" horiz-adv-x="781" 
d="M470 943l71 -41l-128 -164l-53 32zM576 700h111v-700h-104l-366 481l-14 23l2 -27v-477h-111v700h104l367 -477l13 -25l-2 29v473z" />
    <glyph glyph-name="Nacute.loclPLK.ss02" horiz-adv-x="781" 
d="M470 943l71 -41l-128 -164l-53 32zM576 700h111v-700h-111v244l-359 297l-14 15l2 -28v-528h-111v700h104l365 -302l15 -16l-2 28v290z" />
    <glyph glyph-name="Nacute.ss02" horiz-adv-x="781" 
d="M511 914l39 -76l-229 -104l-33 61zM576 700h111v-700h-111v244l-359 297l-14 15l2 -28v-528h-111v700h104l365 -302l15 -16l-2 28v290z" />
    <glyph glyph-name="Ncaron.ss02" horiz-adv-x="781" 
d="M231 869l164 -139l165 139l-44 47l-121 -100l-121 100zM576 700h111v-700h-111v244l-359 297l-14 15l2 -28v-528h-111v700h104l365 -302l15 -16l-2 28v290z" />
    <glyph glyph-name="Ncommaaccent.ss02" horiz-adv-x="781" 
d="M576 700h111v-700h-111v244l-359 297l-14 15l2 -28v-528h-111v700h104l365 -302l15 -16l-2 28v290zM384 -153l11 4l-11 2q-17 1 -31.5 15t-14.5 37q0 24 16.5 40t41.5 16q23 0 39.5 -18.5t16.5 -47.5q0 -41 -25 -85t-61 -76h-41q22 19 40.5 53t18.5 60z" />
    <glyph glyph-name="Ntilde.ss02" horiz-adv-x="781" 
d="M508 873h88q0 -53 -35.5 -87t-90.5 -34q-34 0 -78 29t-64 29q-21 0 -34.5 -12.5t-13.5 -32.5h-87q0 53 35.5 87t90.5 34q37 0 80.5 -29.5t61.5 -29.5q20 0 33.5 13t13.5 33zM576 700h111v-700h-111v244l-359 297l-14 15l2 -28v-528h-111v700h104l365 -302l15 -16l-2 28
v290z" />
    <glyph glyph-name="Oacute.loclPLK" 
d="M484 943l71 -41l-128 -164l-53 32zM41 350q0 157 105.5 260.5t257.5 103.5q153 0 258.5 -103.5t105.5 -260.5t-105.5 -260.5t-258.5 -103.5q-152 0 -257.5 103.5t-105.5 260.5zM156 350q0 -113 69.5 -184t178.5 -71q108 0 178.5 71.5t70.5 183.5q0 114 -70.5 184.5
t-178.5 70.5q-109 0 -178.5 -70.5t-69.5 -184.5z" />
    <glyph glyph-name="Q.ss01" horiz-adv-x="829" 
d="M670 108h120v-108h-378h-9q-152 0 -257 101.5t-105 255.5t105 256t257 102t257.5 -102t105.5 -256q0 -148 -100 -250zM156 357q0 -111 70.5 -179.5t176.5 -68.5q105 0 176.5 69t71.5 179q0 111 -71.5 180t-176.5 69q-106 0 -176.5 -69t-70.5 -180z" />
    <glyph glyph-name="Sacute.loclPLK" horiz-adv-x="602" 
d="M388 943l71 -41l-128 -164l-53 32zM559 525l-106 -29q-12 57 -54.5 89.5t-100.5 32.5q-59 0 -96 -25.5t-37 -70.5q0 -21 11 -37t36.5 -29t45.5 -20.5t60 -20.5q17 -5 25 -8q41 -13 63 -21t58 -27t55 -38.5t34 -52.5t15 -73q0 -91 -72.5 -150t-188.5 -59q-109 0 -181.5 57
t-95.5 151l108 29q9 -57 56.5 -97t118.5 -40q63 0 102 29.5t39 74.5q0 15 -5.5 28.5t-13 23.5t-23 20.5t-27 16.5t-34 14.5t-34.5 12.5t-38 12t-37 12q-32 11 -52.5 19t-49.5 24.5t-46 34.5t-29.5 47t-12.5 63q0 83 71 139.5t179 56.5q96 0 166.5 -52.5t90.5 -136.5z" />
    <glyph glyph-name="Zacute.loclPLK" horiz-adv-x="697" 
d="M429 943l71 -41l-128 -164l-53 32zM637 700v-103l-411 -477l-20 -18l31 2h400v-104h-577v103l415 478l20 17l-31 -2h-394v104h567z" />
    <glyph glyph-name="cacute.loclPLK" horiz-adv-x="759" 
d="M476 943l71 -41l-128 -164l-53 32zM722 530l-113 -30q-32 49 -87 77t-118 28q-109 0 -178.5 -71t-69.5 -184t70.5 -183.5t177.5 -70.5q70 0 129 33.5t89 90.5l111 -30q-45 -94 -132.5 -149t-196.5 -55q-152 0 -257.5 103.5t-105.5 260.5t105.5 260.5t257.5 103.5
q101 0 185.5 -49.5t132.5 -134.5z" />
    <glyph glyph-name="n.ss02" horiz-adv-x="781" 
d="M576 700h111v-700h-111v244l-359 297l-14 15l2 -28v-528h-111v700h104l365 -302l15 -16l-2 28v290z" />
    <glyph glyph-name="nacute.loclPLK" horiz-adv-x="781" 
d="M470 943l71 -41l-128 -164l-53 32zM576 700h111v-700h-104l-366 481l-14 23l2 -27v-477h-111v700h104l367 -477l13 -25l-2 29v473z" />
    <glyph glyph-name="nacute.loclPLK.ss02" horiz-adv-x="781" 
d="M470 943l71 -41l-128 -164l-53 32zM576 700h111v-700h-111v244l-359 297l-14 15l2 -28v-528h-111v700h104l365 -302l15 -16l-2 28v290z" />
    <glyph glyph-name="nacute.ss02" horiz-adv-x="781" 
d="M511 914l39 -76l-229 -104l-33 61zM576 700h111v-700h-111v244l-359 297l-14 15l2 -28v-528h-111v700h104l365 -302l15 -16l-2 28v290z" />
    <glyph glyph-name="ncaron.ss02" horiz-adv-x="781" 
d="M231 869l164 -139l165 139l-44 47l-121 -100l-121 100zM576 700h111v-700h-111v244l-359 297l-14 15l2 -28v-528h-111v700h104l365 -302l15 -16l-2 28v290z" />
    <glyph glyph-name="ncommaaccent.ss02" horiz-adv-x="781" 
d="M576 700h111v-700h-111v244l-359 297l-14 15l2 -28v-528h-111v700h104l365 -302l15 -16l-2 28v290zM384 -153l11 4l-11 2q-17 1 -31.5 15t-14.5 37q0 24 16.5 40t41.5 16q23 0 39.5 -18.5t16.5 -47.5q0 -41 -25 -85t-61 -76h-41q22 19 40.5 53t18.5 60z" />
    <glyph glyph-name="ntilde.ss02" horiz-adv-x="781" 
d="M508 873h88q0 -53 -35.5 -87t-90.5 -34q-34 0 -78 29t-64 29q-21 0 -34.5 -12.5t-13.5 -32.5h-87q0 53 35.5 87t90.5 34q37 0 80.5 -29.5t61.5 -29.5q20 0 33.5 13t13.5 33zM576 700h111v-700h-111v244l-359 297l-14 15l2 -28v-528h-111v700h104l365 -302l15 -16l-2 28
v290z" />
    <glyph glyph-name="oacute.loclPLK" 
d="M484 943l71 -41l-128 -164l-53 32zM41 350q0 157 105.5 260.5t257.5 103.5q153 0 258.5 -103.5t105.5 -260.5t-105.5 -260.5t-258.5 -103.5q-152 0 -257.5 103.5t-105.5 260.5zM156 350q0 -113 69.5 -184t178.5 -71q108 0 178.5 71.5t70.5 183.5q0 114 -70.5 184.5
t-178.5 70.5q-109 0 -178.5 -70.5t-69.5 -184.5z" />
    <glyph glyph-name="q.ss01" horiz-adv-x="829" 
d="M670 108h120v-108h-378h-9q-152 0 -257 101.5t-105 255.5t105 256t257 102t257.5 -102t105.5 -256q0 -148 -100 -250zM156 357q0 -111 70.5 -179.5t176.5 -68.5q105 0 176.5 69t71.5 179q0 111 -71.5 180t-176.5 69q-106 0 -176.5 -69t-70.5 -180z" />
    <glyph glyph-name="sacute.loclPLK" horiz-adv-x="602" 
d="M388 943l71 -41l-128 -164l-53 32zM559 525l-106 -29q-12 57 -54.5 89.5t-100.5 32.5q-59 0 -96 -25.5t-37 -70.5q0 -21 11 -37t36.5 -29t45.5 -20.5t60 -20.5q17 -5 25 -8q41 -13 63 -21t58 -27t55 -38.5t34 -52.5t15 -73q0 -91 -72.5 -150t-188.5 -59q-109 0 -181.5 57
t-95.5 151l108 29q9 -57 56.5 -97t118.5 -40q63 0 102 29.5t39 74.5q0 15 -5.5 28.5t-13 23.5t-23 20.5t-27 16.5t-34 14.5t-34.5 12.5t-38 12t-37 12q-32 11 -52.5 19t-49.5 24.5t-46 34.5t-29.5 47t-12.5 63q0 83 71 139.5t179 56.5q96 0 166.5 -52.5t90.5 -136.5z" />
    <glyph glyph-name="zacute.loclPLK" horiz-adv-x="697" 
d="M429 943l71 -41l-128 -164l-53 32zM637 700v-103l-411 -477l-20 -18l31 2h400v-104h-577v103l415 478l20 17l-31 -2h-394v104h567z" />
    <glyph glyph-name="colon.case" horiz-adv-x="294" 
d="M147 434q-25 0 -42 17t-17 42t17.5 42t41.5 17q25 0 42 -17.5t17 -41.5q0 -25 -17 -42t-42 -17zM147 131q-25 0 -42 17t-17 42t17.5 42t41.5 17q25 0 42 -17.5t17 -41.5q0 -25 -17 -42t-42 -17z" />
    <glyph glyph-name="semicolon.case" horiz-adv-x="315" 
d="M155 435q-25 0 -42 17t-17 42t17.5 42t41.5 17q25 0 42 -17.5t17 -41.5q0 -25 -17 -42t-42 -17zM145 131l11 4l-11 2q-19 1 -34 16t-15 39q0 25 17.5 42t43.5 17q25 0 42 -19.5t17 -49.5q0 -44 -26 -90t-64 -80h-44q24 20 43.5 56t19.5 63z" />
    <glyph glyph-name="apple" horiz-adv-x="794" 
d="M662 82h44v45q0 91 -4.5 142t-8 61t-9.5 19l-25 29l-11 13l11 12l22 26q8 8 12 19t8.5 62t4.5 146v44h-44q-94 0 -145.5 -4.5t-62 -8.5t-19.5 -12l-20 -17l-17 -16l-18 16l-20 19q-8 7 -19 10.5t-63 8t-147 4.5h-43v-44q0 -93 4 -145t8 -62.5t11 -19.5l24 -27l10 -11
l-10 -12l-24 -27q-7 -8 -11 -18.5t-8 -62.5t-4 -146v-43h43q93 0 145 4t63 8t19 12l27 23l11 10l13 -10l27 -23q8 -8 18.5 -11.5t62 -8t145.5 -4.5zM396 256l-89 -79q-25 -5 -132 -7q4 111 7 132l79 89l-79 89q-3 20 -7 133q98 -2 133 -7l88 -81l91 81q35 5 132 7
q-4 -112 -7 -133l-81 -89l81 -91q4 -36 7 -130q-106 2 -133 7zM122 39l3 12q-5 3 -15 3q-21 0 -21 -17q0 -11 15 -16q9 -3 9 -6q0 -5 -7 -5q-2 0 -14 4l-4 -12q6 -3 16 -3q24 0 24 17q0 11 -14 16q-11 4 -11 7q0 4 7 4q4 0 12 -4zM567 40l4 12q-4 2 -14 2q-13 0 -21 -7.5
t-8 -21.5q0 -26 28 -26q8 0 14 2l-3 12q-3 -3 -9 -3q-15 0 -15 16q0 17 15 17q6 0 9 -3zM626 26q0 12 -7.5 20t-19.5 8t-19.5 -8t-7.5 -20q0 -27 27 -27t27 27zM146 20v-20h14v20l17 33h-16l-8 -23l-7 23h-17zM182 53v-53h13v35l19 -35h15v53h-13v-32l-16 32h-18zM234 42h14
v-42h13v42h14v11h-41v-11zM295 33v20h-15v-53h15v21h18v-21h14v53h-14v-20h-18zM332 53l17 -53h16l17 53h-15l-10 -39l-9 39h-16zM402 0v53h-15v-53h15zM425 21h19v11h-19v10h21v11h-36v-53h36v11h-21v10zM450 53l13 -53h15l7 35l6 -35h16l13 53h-14l-7 -36l-6 36h-15
l-6 -36l-7 36h-15zM677 40v-40h14l-2 53h-19l-9 -34l-8 34h-19l-4 -53h15v40l11 -39h10zM587 26q0 17 12 17q11 0 11 -17q0 -16 -11 -16q-12 0 -12 16zM521 -1q-6 0 -6 6t6 6t6 -6t-6 -6z" />
    </font>
</defs>
</svg>
