<?xml version="1.0" encoding="iso-8859-1"?>
<!-- Generator: Adobe Illustrator 21.0.0, SVG Export Plug-In . SVG Version: 6.00 Build 0)  -->
<svg version="1.1" id="Layer_1" xmlns="http://www.w3.org/2000/svg"  x="0px" y="0px"
	 viewBox="0 0 246.211 100.812" style="enable-background:new 0 0 246.211 100.812;" xml:space="preserve">
<g>
	<path style="fill:#D9782C;" d="M51.811,36.301h-7.344v-7.294c0-2.28-1.901-4.132-4.205-4.132s-4.205,1.852-4.205,4.132v7.294
		h-7.344c-2.333,0-4.205,1.852-4.205,4.132c0,2.308,1.872,4.16,4.205,4.16h7.344v7.294c0,2.28,1.901,4.132,4.205,4.132
		s4.205-1.852,4.205-4.132v-7.294h7.344c2.333,0,4.205-1.852,4.205-4.16C56.016,38.154,54.144,36.301,51.811,36.301L51.811,36.301z"
		/>
	<path style="fill:#D9782C;" d="M40.003,64.197c-12.96,0-23.472-10.4-23.472-23.223c0-12.851,10.512-23.251,23.472-23.251
		c12.989,0,23.501,10.4,23.501,23.251C63.504,53.797,52.992,64.197,40.003,64.197L40.003,64.197z M40.81,0
		C18.259,0,0,18.065,0,40.376c0,22.653,25.891,43.966,40.81,60.436c14.918-16.469,40.78-37.755,40.78-60.436
		C81.59,18.065,63.331,0,40.81,0L40.81,0z"/>
	<path style="fill:#E4E5E4;" d="M82.022,94.23c-1.44,0-2.765-0.456-3.744-1.425l-12.96-12.737c-0.95-0.94-1.44-2.251-1.44-3.676
		c2.938-3.391,5.731-6.896,8.208-10.486c0.95-0.399,1.958-0.598,2.88-0.598c1.44,0,2.765,0.484,3.744,1.425L91.67,79.47
		c2.362,2.308,1.814,6.639-1.21,9.66l-2.419,2.422C86.285,93.29,84.038,94.23,82.022,94.23L82.022,94.23z M31.075,19.461
		c2.765-1.111,5.789-1.738,8.928-1.738c2.88,0,5.616,0.513,8.179,1.453c-2.592-0.912-5.328-1.396-8.093-1.396
		c-0.029,0-0.086,0-0.144,0C36.922,17.78,33.898,18.379,31.075,19.461L31.075,19.461z"/>
	<path style="fill:#CC6F2E;" d="M63.878,76.393c-0.029-0.94,0.173-1.938,0.605-2.935l-4.867-4.759
		c-2.074,1.482-4.32,2.764-6.682,3.733c-4.061,1.681-8.41,2.536-12.787,2.564c-0.029,0-0.086,0-0.115,0
		c-4.32,0-8.669-0.855-12.672-2.479c-4.032-1.624-7.747-4.075-10.829-7.124c-3.11-3.02-5.616-6.696-7.286-10.685
		c-1.699-3.961-2.563-8.292-2.592-12.623c0-4.303,0.835-8.634,2.506-12.651c1.67-3.989,4.118-7.665,7.2-10.714
		c3.082-3.077,6.768-5.556,10.8-7.209c4.032-1.681,8.381-2.536,12.758-2.536c0.058,0,0.115,0,0.173,0
		c4.32,0,8.611,0.826,12.614,2.451c4.032,1.624,7.747,4.075,10.858,7.124c3.082,3.049,5.587,6.696,7.258,10.685
		c1.699,3.989,2.563,8.292,2.592,12.623c0,4.331-0.835,8.634-2.506,12.651c-0.979,2.365-2.246,4.588-3.744,6.668l4.867,4.759
		c0.029,0,0.029-0.028,0.058-0.028C69.61,69.497,66.816,73.002,63.878,76.393L63.878,76.393z M31.075,19.461
		c-3.139,1.225-6.019,3.077-8.381,5.471c-4.55,4.502-7.142,10.771-7.114,17.125c0,6.354,2.65,12.623,7.229,17.068
		c4.493,4.474,10.771,7.038,17.136,7.038c0.058,0,0.115,0,0.173,0h0.029c6.422,0,12.73-2.621,17.222-7.152
		c4.55-4.474,7.142-10.771,7.114-17.125c0-6.354-2.65-12.623-7.229-17.068c-2.563-2.536-5.702-4.474-9.072-5.642
		c-2.563-0.94-5.299-1.453-8.179-1.453C36.864,17.723,33.84,18.35,31.075,19.461L31.075,19.461z"/>
	<path style="fill:#5492B0;" d="M64.483,40.889c0-6.354-2.65-12.623-7.229-17.096c-4.55-4.474-10.886-7.067-17.309-7.01
		c-6.422,0-12.758,2.593-17.251,7.152c-4.55,4.474-7.142,10.771-7.114,17.125c0,6.354,2.65,12.623,7.229,17.068
		c4.522,4.502,10.886,7.067,17.309,7.038c6.422,0,12.758-2.621,17.251-7.152C61.92,53.54,64.512,47.243,64.483,40.889L64.483,40.889
		z M52.704,10.4c4.032,1.653,7.747,4.103,10.858,7.152c3.082,3.02,5.587,6.668,7.258,10.657c1.699,4.018,2.563,8.32,2.592,12.651
		c0,4.303-0.835,8.634-2.506,12.623c-0.979,2.365-2.246,4.616-3.744,6.696l4.867,4.759c2.448-1.026,5.04-0.798,6.682,0.798
		l12.96,12.737c2.362,2.308,1.814,6.639-1.21,9.659l-2.419,2.394c-3.024,3.02-7.402,3.59-9.763,1.282l-12.96-12.737
		c-1.613-1.624-1.872-4.189-0.835-6.611l-4.867-4.759c-2.074,1.482-4.32,2.764-6.682,3.733c-4.061,1.653-8.41,2.536-12.787,2.564
		c-4.349,0-8.726-0.826-12.787-2.479c-4.032-1.653-7.747-4.075-10.829-7.124c-3.11-3.049-5.616-6.696-7.286-10.685
		c-1.699-3.989-2.563-8.292-2.592-12.623c0-4.331,0.835-8.634,2.506-12.651c1.67-3.989,4.118-7.665,7.2-10.742
		c3.082-3.049,6.768-5.528,10.8-7.181c4.032-1.681,8.381-2.536,12.758-2.564C44.294,7.95,48.643,8.776,52.704,10.4L52.704,10.4z"/>
	<path style="fill:#5492B0;" d="M107.395,54.595c-2.966,0-5.213-0.855-6.739-2.536s-2.275-3.932-2.275-6.782
		c0-2.109,0.346-4.103,1.008-5.984c0.662-1.909,1.613-3.59,2.851-5.043c1.238-1.482,2.736-2.65,4.493-3.505
		c1.757-0.883,3.715-1.311,5.904-1.311c1.066,0,1.987,0.057,2.794,0.199c0.778,0.142,1.44,0.313,2.016,0.484
		c0.547,0.199,1.008,0.399,1.382,0.598c0.346,0.199,0.605,0.342,0.835,0.484l-1.526,2.764c-0.173-0.114-0.432-0.285-0.778-0.456
		c-0.317-0.199-0.72-0.37-1.181-0.541s-1.008-0.313-1.613-0.427c-0.605-0.114-1.296-0.171-2.074-0.171
		c-1.67,0-3.168,0.37-4.464,1.111c-1.325,0.769-2.419,1.738-3.341,2.935c-0.893,1.197-1.584,2.536-2.045,4.046
		c-0.49,1.482-0.72,2.963-0.72,4.417c0,2.308,0.49,4.018,1.498,5.129c0.979,1.14,2.534,1.71,4.666,1.71
		c0.864,0,1.642-0.057,2.362-0.199c0.691-0.114,1.21-0.228,1.498-0.342l2.131-8.833h3.341l-2.678,10.999
		c-0.288,0.171-0.662,0.313-1.152,0.456c-0.518,0.171-1.094,0.285-1.728,0.427c-0.662,0.114-1.382,0.199-2.131,0.256
		C108.95,54.566,108.173,54.595,107.395,54.595L107.395,54.595z"/>
	<path style="fill:#5492B0;" d="M125.395,51.802c1.037,0,1.987-0.285,2.822-0.883c0.835-0.627,1.526-1.396,2.102-2.337
		c0.576-0.94,1.037-1.966,1.325-3.106c0.317-1.14,0.461-2.251,0.461-3.305c0-1.197-0.259-2.137-0.778-2.821
		c-0.518-0.684-1.411-1.054-2.678-1.054c-1.037,0-1.987,0.313-2.822,0.912c-0.835,0.598-1.526,1.368-2.102,2.308
		s-1.008,1.995-1.325,3.134c-0.317,1.14-0.461,2.223-0.461,3.305c0,1.168,0.259,2.109,0.778,2.821
		C123.235,51.46,124.128,51.802,125.395,51.802L125.395,51.802z M124.819,54.566c-1.901,0-3.427-0.57-4.522-1.681
		c-1.066-1.14-1.613-2.678-1.613-4.673c0-1.339,0.173-2.735,0.576-4.217c0.374-1.51,1.008-2.878,1.843-4.132s1.93-2.28,3.254-3.077
		c1.354-0.826,2.966-1.225,4.867-1.225c1.93,0,3.427,0.57,4.522,1.681c1.094,1.14,1.642,2.678,1.642,4.645
		c0,1.339-0.202,2.764-0.576,4.246c-0.403,1.482-1.008,2.849-1.872,4.103c-0.835,1.254-1.93,2.28-3.254,3.106
		C128.333,54.139,126.72,54.566,124.819,54.566L124.819,54.566z"/>
	<path style="fill:#5492B0;" d="M147.37,32.597c-1.67,0-2.678,0.057-3.024,0.142l-2.304,9.574h2.189
		c1.008,0,2.016-0.085,3.024-0.256c1.037-0.171,1.958-0.484,2.794-0.94c0.806-0.427,1.498-1.026,2.016-1.824
		c0.518-0.769,0.806-1.767,0.806-2.992c0-1.339-0.49-2.28-1.498-2.849C150.394,32.882,149.069,32.597,147.37,32.597L147.37,32.597z
		 M147.802,29.748c2.822,0,4.982,0.541,6.422,1.596c1.44,1.083,2.16,2.621,2.16,4.673c0,1.567-0.317,2.935-0.893,4.075
		c-0.605,1.168-1.469,2.109-2.563,2.849c-1.094,0.741-2.419,1.282-3.974,1.653c-1.555,0.342-3.254,0.541-5.155,0.541h-2.448
		l-2.16,8.976h-3.427l5.76-23.793c1.008-0.256,2.045-0.399,3.139-0.456C145.757,29.776,146.822,29.748,147.802,29.748
		L147.802,29.748z"/>
	<path style="fill:#5492B0;" d="M154.57,54.11l6.451-26.443l3.398-0.57l-2.246,9.147c0.547-0.171,1.123-0.313,1.728-0.456
		c0.576-0.114,1.181-0.171,1.786-0.171c1.066,0,1.987,0.142,2.736,0.456c0.778,0.285,1.382,0.684,1.843,1.168
		c0.461,0.513,0.806,1.111,1.037,1.824c0.23,0.712,0.346,1.482,0.346,2.308c0,1.026-0.173,2.166-0.49,3.476l-2.246,9.261h-3.283
		l2.074-8.577c0.173-0.627,0.317-1.311,0.461-1.966c0.173-0.684,0.23-1.311,0.23-1.909c0-0.94-0.259-1.71-0.749-2.337
		c-0.518-0.598-1.498-0.912-2.909-0.912c-0.547,0-1.123,0.057-1.728,0.171c-0.605,0.085-1.094,0.228-1.498,0.427l-3.658,15.102
		L154.57,54.11L154.57,54.11z"/>
	<path style="fill:#5492B0;" d="M179.51,51.802c1.008,0,1.843-0.199,2.534-0.627c0.72-0.399,1.325-0.883,1.843-1.453
		c0.029-0.399,0.058-0.798,0.115-1.225c0.058-0.427,0.144-0.883,0.23-1.311l2.102-8.634c-0.115-0.057-0.317-0.085-0.576-0.114
		c-0.259-0.028-0.518-0.028-0.72-0.028c-1.325,0-2.534,0.256-3.629,0.769c-1.066,0.513-1.987,1.197-2.765,2.023
		c-0.749,0.855-1.325,1.852-1.757,2.963c-0.403,1.14-0.605,2.308-0.605,3.533c0,0.484,0.058,0.997,0.144,1.482
		c0.086,0.513,0.259,0.94,0.518,1.311c0.23,0.399,0.576,0.712,0.979,0.94C178.33,51.688,178.877,51.802,179.51,51.802L179.51,51.802
		z M184.752,54.31c-0.115-0.256-0.23-0.541-0.346-0.855s-0.202-0.627-0.288-0.969c-0.518,0.456-1.21,0.912-2.074,1.368
		c-0.864,0.484-1.93,0.712-3.197,0.712c-1.037,0-1.901-0.171-2.65-0.484c-0.749-0.342-1.354-0.798-1.814-1.368
		c-0.461-0.57-0.806-1.254-1.037-2.052c-0.23-0.798-0.346-1.653-0.346-2.621c0-1.539,0.288-3.049,0.806-4.559
		c0.518-1.482,1.325-2.792,2.362-3.961c1.066-1.168,2.39-2.109,3.974-2.821c1.613-0.712,3.456-1.083,5.587-1.083
		c0.634,0,1.382,0.085,2.218,0.228c0.864,0.142,1.584,0.37,2.189,0.684l-2.707,10.942c-0.115,0.513-0.202,1.026-0.288,1.51
		c-0.086,0.484-0.144,0.997-0.144,1.539c0,0.541,0.058,1.083,0.144,1.624c0.115,0.541,0.259,1.14,0.49,1.767L184.752,54.31z"/>
	<path style="fill:#5492B0;" d="M200.102,35.618c0.288,0,0.576,0.028,0.95,0.057c0.346,0,0.691,0.057,1.037,0.114
		c0.346,0.057,0.634,0.114,0.922,0.171c0.288,0.057,0.49,0.114,0.634,0.199l-0.95,2.821c-0.461-0.199-1.008-0.342-1.613-0.427
		s-1.21-0.142-1.757-0.142c-0.49,0-0.979,0.028-1.469,0.114c-0.461,0.057-0.893,0.142-1.238,0.285l-3.744,15.301h-3.254l4.205-17.41
		c0.95-0.313,1.958-0.57,3.024-0.769C197.942,35.732,199.008,35.618,200.102,35.618L200.102,35.618z"/>
	<path style="fill:#5492B0;" d="M222.106,35.618c1.037,0,1.901,0.171,2.621,0.484s1.296,0.741,1.728,1.254
		c0.432,0.541,0.749,1.168,0.922,1.881c0.202,0.712,0.288,1.453,0.288,2.251c0,0.484-0.029,1.054-0.115,1.653
		c-0.086,0.57-0.202,1.14-0.346,1.71l-2.246,9.261h-3.254l2.074-8.577c0.115-0.513,0.23-1.111,0.403-1.767
		c0.144-0.684,0.23-1.339,0.23-1.966c0-0.456-0.058-0.883-0.173-1.311c-0.115-0.399-0.288-0.769-0.518-1.083
		c-0.259-0.285-0.605-0.541-1.037-0.712c-0.461-0.199-1.008-0.285-1.67-0.285c-0.749,0-1.469,0.142-2.16,0.427
		c-0.72,0.313-1.296,0.598-1.757,0.883c0.029,0.342,0.086,0.655,0.115,0.969c0.029,0.313,0.058,0.627,0.058,0.912
		c0,0.541-0.058,1.083-0.144,1.624c-0.058,0.541-0.173,1.083-0.288,1.624l-2.246,9.261h-3.283l2.074-8.577
		c0.115-0.513,0.259-1.111,0.403-1.795c0.144-0.684,0.202-1.339,0.202-2.023c0-0.427-0.058-0.855-0.144-1.254
		c-0.086-0.427-0.23-0.769-0.461-1.083c-0.23-0.285-0.518-0.541-0.893-0.712s-0.864-0.256-1.44-0.256
		c-0.605,0-1.181,0.028-1.728,0.114c-0.547,0.057-1.008,0.142-1.382,0.285l-3.715,15.301h-3.283l4.234-17.41
		c1.037-0.313,2.189-0.57,3.456-0.769c1.238-0.199,2.362-0.313,3.37-0.313c0.979,0,1.814,0.171,2.477,0.513
		c0.691,0.342,1.238,0.798,1.613,1.339c0.259-0.171,0.576-0.342,0.979-0.541c0.403-0.228,0.893-0.427,1.411-0.598
		c0.518-0.199,1.094-0.342,1.728-0.484C220.81,35.703,221.443,35.618,222.106,35.618L222.106,35.618z"/>
	<path style="fill:#5492B0;" d="M235.584,51.802c0.979,0,1.814-0.199,2.534-0.627c0.691-0.399,1.296-0.883,1.814-1.453
		c0.029-0.399,0.086-0.798,0.144-1.225s0.115-0.883,0.23-1.311l2.102-8.634c-0.115-0.057-0.317-0.085-0.576-0.114
		c-0.288-0.028-0.518-0.028-0.72-0.028c-1.354,0-2.563,0.256-3.629,0.769c-1.094,0.513-2.016,1.197-2.765,2.023
		c-0.749,0.855-1.354,1.852-1.757,2.963c-0.403,1.14-0.605,2.308-0.605,3.533c0,0.484,0.029,0.997,0.115,1.482
		c0.115,0.513,0.288,0.94,0.518,1.311c0.259,0.399,0.576,0.712,0.979,0.94C234.403,51.688,234.922,51.802,235.584,51.802
		L235.584,51.802z M240.826,54.31c-0.115-0.256-0.23-0.541-0.346-0.855c-0.115-0.313-0.23-0.627-0.288-0.969
		c-0.518,0.456-1.21,0.912-2.074,1.368c-0.864,0.484-1.93,0.712-3.197,0.712c-1.037,0-1.93-0.171-2.65-0.484
		c-0.749-0.342-1.354-0.798-1.814-1.368c-0.49-0.57-0.835-1.254-1.037-2.052c-0.23-0.798-0.346-1.653-0.346-2.621
		c0-1.539,0.259-3.049,0.778-4.559c0.547-1.482,1.325-2.792,2.39-3.961s2.39-2.109,3.974-2.821c1.584-0.712,3.456-1.083,5.587-1.083
		c0.634,0,1.382,0.085,2.218,0.228c0.835,0.142,1.584,0.37,2.189,0.684l-2.707,10.942c-0.115,0.513-0.23,1.026-0.317,1.51
		c-0.086,0.484-0.115,0.997-0.115,1.539c0,0.541,0.058,1.083,0.144,1.624s0.259,1.14,0.49,1.767L240.826,54.31z"/>
</g>
</svg>
