<?xml version="1.0" encoding="iso-8859-1"?>
<!-- Generator: Adobe Illustrator 19.0.0, SVG Export Plug-In . SVG Version: 6.00 Build 0)  -->
<svg xmlns="http://www.w3.org/2000/svg" xmlns:xlink="http://www.w3.org/1999/xlink" version="1.1" id="Layer_1" x="0px" y="0px" viewBox="0 0 390.271 390.271" style="enable-background:new 0 0 390.271 390.271;" xml:space="preserve" width="512px" height="512px">
<g>
	<g>
		<path d="M363.669,168.533C363.669,75.83,288.356,0,195.135,0C102.432,0,26.602,75.313,26.602,168.533    c0,68.267,41.18,126.836,99.75,153.406c-20.04,12.477-36.849,30.901-46.093,53.139c-2.327,3.62-0.905,14.481,10.279,15.192    h210.295c12.735-1.552,11.378-11.895,10.279-15.192c-9.762-22.238-25.988-40.663-46.093-53.139    C322.489,295.37,363.669,236.865,363.669,168.533z M281.826,368.549H108.444c11.378-16.808,27.669-29.802,47.127-36.849    c12.994,3.232,25.988,4.849,40.081,4.849c13.576,0,27.087-1.616,40.081-4.849C254.222,338.747,270.448,351.741,281.826,368.549z     M195.135,314.893c-69.883,0-128.97-49.325-143.063-115.459h20.04c5.947,0,10.861-4.849,10.861-10.861    c0-5.948-4.848-10.861-10.861-10.861H48.84c0-3.232,0-17.907,0-21.657h44.412c5.947,0,10.861-4.849,10.861-10.861    c0-6.012-4.849-10.861-10.861-10.861h-41.18C67.782,69.818,125.77,21.592,195.135,21.592c80.743,0,146.877,65.552,146.877,146.877    S275.879,314.893,195.135,314.893z" fill="#FFFFFF"/>
	</g>
</g>
<g>
	<g>
		<path d="M195.135,83.976c-46.61,0-83.976,37.947-83.976,84.558s37.883,84.04,83.976,84.04c46.61,0,83.976-37.948,83.976-83.976    S241.745,83.976,195.135,83.976z M195.135,230.853c-34.715,0-62.319-28.186-62.319-62.319c0-34.715,27.669-62.836,62.319-62.836    s62.319,28.186,62.319,62.836C257.455,202.667,229.851,230.853,195.135,230.853z" fill="#FFFFFF"/>
	</g>
</g>
<g>
	<g>
		<path d="M195.135,125.22c-5.947,0-10.861,4.848-10.861,10.861c0,6.012,4.849,10.861,10.861,10.861    c11.895,0,21.657,9.762,21.657,21.657c0,5.947,4.849,10.861,10.861,10.861c6.012,0,10.861-4.849,10.861-10.861    C238.513,144.679,218.99,125.22,195.135,125.22z" fill="#FFFFFF"/>
	</g>
</g>
<g>
</g>
<g>
</g>
<g>
</g>
<g>
</g>
<g>
</g>
<g>
</g>
<g>
</g>
<g>
</g>
<g>
</g>
<g>
</g>
<g>
</g>
<g>
</g>
<g>
</g>
<g>
</g>
<g>
</g>
</svg>
